<svg xmlns="http://www.w3.org/2000/svg" viewBox="0 0 285.59 233.25">
  <defs>
    <style>
      .cls-1{fill:#d4e1ff}.cls-2{fill:#473e3e}.cls-3{fill:#8ea3f5}.cls-4{fill:#ffc1ac}.cls-5{fill:#ee8063}.cls-6{fill:#615555}.cls-9{fill:#1f2f6d}.cls-11{fill:#fff}.cls-12{fill:#ffb9a1}.cls-13{fill:#6e7ebd}.cls-14{fill:#6e3542}.cls-18{fill:#1f2f54}.cls-19{fill:#243661}.cls-20{fill:#a8baff}.cls-21{fill:#91a8ff}.cls-22{fill:#75321f}.cls-26{fill:#d66547}.cls-28{fill:#21273d}.cls-29{opacity:.6}.cls-30{fill:#4dc7b8}.cls-33{fill:#39ad9f}.cls-34{fill:#dae2f5}.cls-35{fill:none;stroke:#1f2641;stroke-miterlimit:10;stroke-width:.25px}
    </style>
  </defs>
  <g id="Layer_2" data-name="Layer 2">
    <g id="OBJECTS">
      <path d="M139.15 126.25c-11.25 0-16.75-3.49-16.81-10.67a52.52 52.52 0 0 1 1.6-11.27c.35-1.58.7-3.22 1-4.81.5-2.84.88-5.62 1.12-8.27a25.15 25.15 0 0 1 .4-2.55c.46-2.41.86-4.49-.84-6.31-2.76-3-7.72-4.81-12.51-6.6l-1.78-.67c-1.37-.52-2.72-1-4-1.56-8.72-3.57-18.55-9-17.09-19 1.11-7.57 8.35-15.09 18-18.73 7.62-2.87 15.27-3.27 22.68-3.66 3.9-.2 7.94-.41 11.91-1 9.13-1.32 18.92-8.7 22.71-11.82 10.25-8.43 20.68-13.64 34.86-17.42A54.1 54.1 0 0 1 214 0c8.64 0 14.68 2.89 17 8.15 3 6.74-2.16 12.52-7.61 18.65-1.75 2-3.55 4-5.08 6.06-1.71 2.32-5.19 8.15-.47 12.12 2.71 2.29 7.46 2.86 12.06 3.42 2.08.26 4.24.52 6.18.94a151.84 151.84 0 0 1 15.3 4c6.86 2.24 16.35 6 19.59 12.69a11 11 0 0 1 .35 8.85c-4.13 11.41-24.3 21.55-32.78 25.38-23.17 10.48-52.13 19-81.54 24.11a107.27 107.27 0 0 1-17.85 1.88zM214 1a53 53 0 0 0-13.35 1.91c-14 3.74-24.35 8.89-34.49 17.23-4.78 3.93-14.16 10.72-23.2 12-4 .58-8.07.79-12 1-7.33.39-14.9.78-22.38 3.59-10.77 4.08-16.49 11.96-17.37 17.96-1.36 9.31 8.09 14.49 16.48 17.93 1.27.52 2.61 1 4 1.55l1.78.66c4.9 1.84 10 3.73 12.89 6.85 2 2.2 1.56 4.73 1.1 7.18a22.11 22.11 0 0 0-.39 2.46c-.25 2.68-.63 5.49-1.14 8.36-.28 1.6-.63 3.25-1 4.84a51.66 51.66 0 0 0-1.58 11c0 6.51 5.22 9.68 15.81 9.68a106.53 106.53 0 0 0 17.72-1.88c29.32-5.05 58.2-13.58 81.3-24 8.37-3.78 28.25-13.77 32.25-24.82a10.07 10.07 0 0 0-.31-8.08c-3.07-6.34-12.31-10-19-12.17a151.5 151.5 0 0 0-15.21-4c-1.89-.42-4-.67-6.08-.93-4.74-.57-9.65-1.17-12.58-3.64-3.73-3.14-3.61-8.18.31-13.49 1.55-2.1 3.37-4.15 5.13-6.12 5.23-5.88 10.17-11.44 7.44-17.59C228 3.68 222.24 1 214 1z" class="cls-1"/>
      <path d="M93.07 168.66h-.17a1 1 0 0 1-.82-1.15l9.45-55a1 1 0 1 1 2 .34l-9.45 55a1 1 0 0 1-1.01.81z" class="cls-2"/>
      <path d="M109 38.18c-.9 5.67-6.15 27.07-2.7 28.41s14.18 8.54 14.18 8.54c3.13 0 16.26-6.94 15.76-9.71-.76-4.22-1.26-6.48-1.79-9.53-.71-4.06-1-8.2-1.54-12.29-.06-.46-.46-5.29-.81-5.64l-8.21-5.74z" class="cls-3"/>
      <circle cx="120.55" cy="41.46" r="12.04" class="cls-3"/>
      <path d="M116.67 54.25l-2.2 13.38s4.45 6 10.78-.16L123 54.25z" class="cls-4"/>
      <path d="M146.71 168.66a1 1 0 0 1-1-.83l-9.45-55a1 1 0 1 1 2-.34l9.45 55a1 1 0 0 1-.82 1.15z" class="cls-2"/>
      <path d="M131.48 166.44h-.09a1 1 0 0 1-.91-1.09l4.78-52.24a1 1 0 0 1 2 .18l-4.78 52.24a1 1 0 0 1-1 .91zM108.3 165.54a1 1 0 0 1-1-.91l-4.79-52.24a1 1 0 1 1 2-.18l4.79 52.24a1 1 0 0 1-.9 1.08z" class="cls-2"/>
      <path d="M111 171.45a2.73 2.73 0 0 1-3.77.73 2.72 2.72 0 0 1-.73-3.77l5.12-6.07c.84-1.25 2-2.24 3.19-1.4 1.25.83 1 1.74.19 3z" class="cls-5"/>
      <path d="M111.38 168.44a1.36 1.36 0 0 1-1.88.37 1.36 1.36 0 0 1-.37-1.89l3.79-5.62a1.35 1.35 0 0 1 1.88-.36 1.35 1.35 0 0 1 .37 1.88z" class="cls-4"/>
      <path d="M132.3 171.45a2.72 2.72 0 0 0 3.77.73 2.72 2.72 0 0 0 .73-3.77l-5.1-6.07c-.84-1.25-2-2.24-3.21-1.4l.46-.24c-1.24.84-1.17 2.6-.34 3.84z" class="cls-5"/>
      <path d="M131.91 168.44a1.36 1.36 0 0 0 1.88.37 1.36 1.36 0 0 0 .37-1.89l-3.79-5.62a1.35 1.35 0 0 0-1.88-.36 1.35 1.35 0 0 0-.37 1.88z" class="cls-4"/>
      <path d="M140.7 112.75a3.5 3.5 0 0 1-3.5 3.5h-34a3.49 3.49 0 0 1-3.5-3.5 3.5 3.5 0 0 1 3.5-3.5h34a3.5 3.5 0 0 1 3.5 3.5z" class="cls-6"/>
      <path fill="#d96a4c" d="M134.71 112.84c0 2-4.44 7.1-5.48 7.1l-17.62-.28c-1 0-6.21-5.22-6.21-6.79a1.7 1.7 0 0 1 1.89-1.62h25.53a1.68 1.68 0 0 1 1.89 1.59z"/>
      <path d="M118.21 145.38l9.91 17.44c.79.93 2.25.05 2.25-1.52l-3.23-18.3c-2.04 2.71-5.34 1.87-8.93 2.38z" class="cls-4"/>
      <path d="M127.14 143c-2.56-10.79-6.22-24.6-6.83-26.51l-2.08-6.55c-1.27-4-5.25-6.35-8.87-5.21s-5.52 5.35-4.25 9.37l2.08 6.55c.67 2.1 6.67 15.37 12.52 27.82a13.77 13.77 0 0 0 7.43-5.47z" class="cls-5"/>
      <path d="M115 143.85l-2.55 18.43a1.49 1.49 0 0 0 2.52.85l9.51-18.13a10.35 10.35 0 0 1-9.48-1.15z" class="cls-4"/>
      <path fill="#ee8e75" d="M130.85 105.36a6.46 6.46 0 0 0-8.59 4.65l-1.71 6.44c-.55 2.08-3.4 15.47-5.56 27.4 2.8 1.93 5.65 3.38 8.86 2.53 4.64-10.44 9.56-23 10.09-24.94l1.7-6.43a8.19 8.19 0 0 0-4.79-9.65z"/>
      <path d="M108.45 73l8.86-7.72h6.39l7.42 10.37s4.39 9.82-.84 26.33c7.79 4.63 6.66 7.2 6.66 7.2a58.84 58.84 0 0 1-34.16 0s4.92-5.12 7.17-7C104.7 86.42 108 76.25 108 76.25z" class="cls-9"/>
      <path fill="#1a285c" d="M130.28 102c5.23-16.51.75-22.73.75-22.73s2.33 11.2-3.21 16C126.51 96.4 114.05 98 108 95a59.42 59.42 0 0 0 1.92 7.13c-2.25 1.87-7.17 7-7.17 7a58.84 58.84 0 0 0 34.16 0s1.16-2.55-6.63-7.13z"/>
      <path d="M114.47 67.47C99 72.31 97.26 90.67 96.89 93.27c-.13.91 2.81 7.47 18.81 9.15V99l-11.1-6 5-10.76s4.86-14.76 4.87-14.77z" class="cls-9"/>
      <path d="M126.39 98.3a15.08 15.08 0 0 0-4.94-1s-1.2.45 4.25 2.38z" class="cls-4"/>
      <path d="M124.54 105.68a1 1 0 0 1-.91 1.11l-7.92.82a1 1 0 0 1-1.11-.91l-1.75-16.87a1 1 0 0 1 .91-1.12l7.92-.82a1 1 0 0 1 1.12.91z" class="cls-11"/>
      <path d="M129.53 99.34s.12.38-1.33 1.41a46.12 46.12 0 0 1-3.91 2.49c-1.81.52-6.66-.7-6.66-2.4s1.55-2.71 3.25-2.71a33.61 33.61 0 0 1 3.58.53c.35.19 3-.63 3.74-.53 1.48.19 1.33 1.21 1.33 1.21z" class="cls-4"/>
      <path d="M124 60.51l-1-6.26h-6.29l-2.14 13c3.43-1.85 7.28-3.57 9.43-6.74z" class="cls-12"/>
      <path d="M132.31 48.66a3 3 0 1 1-3-3 3 3 0 0 1 3 3z" class="cls-4"/>
      <path d="M129.7 53c0 4.83-4.45 8.75-9.5 8.75-5 0-9.5-3.92-9.5-8.75V41c0-4.83 4.45-8.75 9.5-8.75 5 0 9.5 3.92 9.5 8.75z" class="cls-4"/>
      <path d="M114 48.66a3 3 0 1 1-3-3 3 3 0 0 1 3 3z" class="cls-4"/>
      <path d="M144.83 91a23.58 23.58 0 0 0-2.14-6.18 38.6 38.6 0 0 0-9.39-13.45 16.77 16.77 0 0 0-8.54-4.07L131.2 81l4.71 10.93-9.52 6.42 1.25 3.32c4.78-.49 9.85-1.36 13.93-4.08 2.89-1.98 3.57-4.21 3.26-6.59z" class="cls-9"/>
      <path d="M115 51.81a4.23 4.23 0 0 1-.23-8.46h.23a4.24 4.24 0 0 1 .23 8.47zm0-8.22h-.22a3.91 3.91 0 1 0 .22 0zM125.33 51.24a4.23 4.23 0 1 1 4.23-4.46 4.24 4.24 0 0 1-4 4.46zm0-8.22h-.22a3.91 3.91 0 1 0 .22 0z" class="cls-6"/>
      <path d="M121.23 47.36l-2.1-.08.01-.25 2.1.08-.01.25z" class="cls-6"/>
      <circle cx="116.1" cy="47.11" r=".76"/>
      <path d="M125 47.11a.76.76 0 1 1-.76-.76.76.76 0 0 1 .76.76z"/>
      <path d="M113.94 46.14a.22.22 0 0 1-.15-.06.23.23 0 0 1 0-.33 3.8 3.8 0 0 1 3.19-1.5.24.24 0 0 1 .22.26.24.24 0 0 1-.25.22 3.28 3.28 0 0 0-2.78 1.32.25.25 0 0 1-.23.09zM126.11 46.14a.25.25 0 0 1-.19-.09 3.3 3.3 0 0 0-2.78-1.32.25.25 0 0 1-.26-.22.24.24 0 0 1 .23-.26 3.7 3.7 0 0 1 3.18 1.49.24.24 0 0 1 0 .34.22.22 0 0 1-.18.06z" class="cls-13"/>
      <path d="M121.59 52.71l-2.25-.4a.17.17 0 0 1-.15-.2l.66-4.24a.2.2 0 0 1 .21-.16.18.18 0 0 1 .15.21l-.67 4.08 2.08.36a.19.19 0 0 1 .15.21.18.18 0 0 1-.18.14z" class="cls-14"/>
      <path fill="#172352" d="M115.22 62.23a15.7 15.7 0 0 0-2.66 5.93s7.3 7 14.7-.27c0 0-1.1-4.71-2.89-5.66 0 0-4.54 3.66-9.15 0z"/>
      <path d="M109.72 50a.91.91 0 0 1-.6-.53 2.46 2.46 0 0 1 .21-1.7.17.17 0 1 1 .3.15s-.44.89-.21 1.42a.6.6 0 0 0 .4.34.16.16 0 0 1 0 .32zM130.06 50a.15.15 0 0 1-.16-.11.16.16 0 0 1 .11-.21.58.58 0 0 0 .39-.34 2 2 0 0 0-.2-1.42.17.17 0 1 1 .3-.15 2.46 2.46 0 0 1 .21 1.7.93.93 0 0 1-.61.53z" class="cls-14"/>
      <path d="M118.12 55.28s2.67.65 5.67-2.22c0 0-1.14 7.5-5.67 2.22z" class="cls-11"/>
      <path d="M121.18 58.57a1.09 1.09 0 0 1-.52-.1.24.24 0 0 1-.11-.33.25.25 0 0 1 .33-.11s.86.35 2.41-1.05a.25.25 0 0 1 .35 0 .24.24 0 0 1 0 .35 3.74 3.74 0 0 1-2.46 1.24z" class="cls-14"/>
      <path d="M107 90.89a.26.26 0 0 1-.25-.22c-.93-6.51 1-9.72 1.06-9.85a.25.25 0 0 1 .34-.09.26.26 0 0 1 .09.35s-1.89 3.21-1 9.52a.25.25 0 0 1-.21.28zM133.36 90.25c-.14 0-.25-.31-.25-.44-.24-7.17-2.26-10.32-2.29-10.35a.34.34 0 0 1 .07-.4.26.26 0 0 1 .35 0c.08.13 2.12 3.37 2.37 10.71 0 .13-.11.44-.25.44z" class="cls-11"/>
      <path d="M109.7 38.77v7s10.33-.73 14.48-2.47a39.12 39.12 0 0 0 1.07-4.55s.88 4 .41 5.22a5.41 5.41 0 0 0 .67-3.05l1.26 3.94s3 1.8 3.61.79c0 0 .07-15.33-13.28-14.79a14.06 14.06 0 0 0-8.22 7.91z" class="cls-3"/>
      <path d="M114.53 69.25a.26.26 0 0 1-.23-.28c0-.16.35-3.83 1.46-5a.25.25 0 0 1 .36 0 .25.25 0 0 1 0 .35c-1 1.06-1.32 4.68-1.33 4.72a.26.26 0 0 1-.26.21zM125.78 68.25c-.14 0-.25.06-.25-.07a9.09 9.09 0 0 0-1.68-5 .2.2 0 0 1 0-.31.26.26 0 0 1 .35.07 9 9 0 0 1 1.79 5.2c0 .14-.11.1-.24.1zM117.35 70a.25.25 0 0 1-.24-.21 9.09 9.09 0 0 1 .8-5.53.25.25 0 0 1 .34-.09.26.26 0 0 1 .09.35c-1.26 2.06-.75 5.15-.74 5.18a.25.25 0 0 1-.21.29zM122.88 69.53h-.08a.24.24 0 0 1-.15-.32s.67-1.92-.76-5a.25.25 0 1 1 .45-.21c1.53 3.25.81 5.27.78 5.36a.26.26 0 0 1-.24.17zM120.2 70.44a.25.25 0 0 1-.23-.15c-.43-1-.07-5 0-5.49a.25.25 0 0 1 .27-.23.26.26 0 0 1 .23.28c-.12 1.2-.34 4.5 0 5.24a.26.26 0 0 1-.13.33z" class="cls-11"/>
      <path fill="#edf2ff" d="M285.58 167.5c.37 6-15.9 14.56-73.6 18.08s-98.28 14.67-135.71-11.33c-4.94-3.43 12.7-10.95 70.4-14.48s138.54 1.73 138.91 7.73z"/>
      <path d="M267.56 168.66a1 1 0 0 1-1-.83l-9.45-55a1 1 0 0 1 .81-1.16 1 1 0 0 1 1.16.82l9.45 55a1 1 0 0 1-.82 1.15z" class="cls-2"/>
      <path d="M252.33 166.44h-.09a1 1 0 0 1-.91-1.09l4.78-52.24a1 1 0 0 1 2 .18l-4.78 52.24a1 1 0 0 1-1 .91zM229.15 165.54a1 1 0 0 1-1-.91l-4.79-52.24a1 1 0 1 1 2-.18l4.79 52.24a1 1 0 0 1-.9 1.08z" class="cls-2"/>
      <path d="M213.92 168.66h-.17a1 1 0 0 1-.82-1.15l9.45-55a1 1 0 1 1 2 .34l-9.45 55a1 1 0 0 1-1.01.81z" class="cls-2"/>
      <path d="M204.67 76.74c-.7.24-3.68-4.45-4-4.94-1.63-2.47-3.47-5.27-3.42-8.33 0-2 2.78-2.91 4.2-1.77a15.58 15.58 0 0 1 3.17 4.24 7.06 7.06 0 0 0 1 1.54c.5.49 1.11-4.74 1.54-4 0 0 1.1 1.24-.56 12.36z" class="cls-4"/>
      <path d="M238.46 167.25c-1.52 0-9.57 3.63-8.33 4.46 3 2 11.12-.53 11.1-2.21 0-.43-.33-2.25-.87-2.25zM244.5 167.25c1.52 0 9.57 3.63 8.33 4.46-3 2-11.12-.53-11.1-2.21 0-.43.33-2.25.87-2.25z" class="cls-14"/>
      <path d="M261.7 112.75a3.5 3.5 0 0 1-3.5 3.5h-34a3.49 3.49 0 0 1-3.5-3.5 3.5 3.5 0 0 1 3.5-3.5h34a3.5 3.5 0 0 1 3.5 3.5z" class="cls-6"/>
      <path fill="#182542" d="M256.46 108.08c0 2-4.43 7.23-5.47 7.23 0 0-3.21 1.25-9-.11a13.49 13.49 0 0 1-8.62-.1c-1 0-6.19-5.44-6.19-7a1.86 1.86 0 0 1 1.89-1.83h25.46a1.88 1.88 0 0 1 1.89 1.83z"/>
      <path d="M238.76 122.39c.47 3.45 3.34 34.94 2.36 44.73-.05.44-3.38.92-3.78 0-4.77-10.67-11.76-39.5-12.22-42.91l-.92-6.82c-.57-4.18 2-8 5.79-8.49 3.77-.51 7.28 2.47 7.85 6.65z" class="cls-18"/>
      <path d="M245.12 122.2c-.55 3.44-3.93 36.71-3.39 45.21 0 .36 3.29.42 3.73-.47 5.1-10.31 13-37.86 13.48-41.11l1.06-6.57a8.19 8.19 0 0 0-5.74-9.12 6.46 6.46 0 0 0-8.08 5.48z" class="cls-19"/>
      <path d="M230.2 73l8.86-7.72h5.28l8 9.56s4.78 17 2.39 29.69a13.29 13.29 0 0 1 4 4.65 58.82 58.82 0 0 1-34.16 0s.17-1.27 3.79-4.17c-1.76-8.4 1.47-28.09 1.47-28.09z" class="cls-20"/>
      <path d="M254.72 104.39c2.09-11-1.28-25.45-2.18-29 .19 10.11 2.26 19.94-4.43 23.93-2.91 1.74-13.19 6.49-20.1 5.85-3.31 2.72-3.48 3.9-3.48 3.9a58.67 58.67 0 0 0 34.16 0 13.29 13.29 0 0 0-3.97-4.68z" class="cls-21"/>
      <path d="M217.36 85.54s-4.08-4.87-7.22-8.39a16 16 0 0 1-4.8 2.86c2.74 6.39 8.26 18.24 11.67 18.24s12.14-11.82 12.14-11.82l8.71-19c-12.33 2.94-20.5 18.11-20.5 18.11z" class="cls-20"/>
      <path d="M206.76 73.66L203.7 76s.63 1.62 1.64 4a16 16 0 0 0 4.8-2.86 33.24 33.24 0 0 0-3.38-3.48zM237.07 105.56s6.45-5.33 11.06-2.87l.32 1.31s.71 3-11.38 1.56z" class="cls-4"/>
      <path d="M245.5 66.92c2.27 4.49 4.6 11.46 6.89 15.94l7.22 8.23-9.52 8.07c1.17 1.21 1.83 3.17 3.13 4.59 5.29-1.93 12.72-5.83 13.7-10.26 1.08-5.02-4.92-19.8-21.42-26.57z" class="cls-20"/>
      <path d="M250.09 99.16l-3.64 3.08 1.45 2.69a21.4 21.4 0 0 0 5.32-1.18c-1.3-1.42-1.96-3.38-3.13-4.59zM238.42 54.25l-2.2 13.6a7.94 7.94 0 0 0 3.86 3.1c1.86.57 4.26.13 6.92-3.27l-2.29-13.43zM254.07 48.66a3 3 0 1 1-3-3 3 3 0 0 1 3 3z" class="cls-4"/>
      <path d="M245.82 60.76l-1.11-6.51h-6.29l-2.13 13.17a33.31 33.31 0 0 0 9.53-6.66z" class="cls-12"/>
      <path d="M250.7 53a8.83 8.83 0 0 1-9 8.75 8.83 8.83 0 0 1-9-8.75V41a8.83 8.83 0 0 1 9-8.75 8.83 8.83 0 0 1 9 8.75z" class="cls-4"/>
      <path d="M235.77 48.66a3 3 0 1 1-3-3 3 3 0 0 1 3 3z" class="cls-4"/>
      <path d="M229.7 105.25h22v2h-22z" class="cls-11"/>
      <circle cx="237.1" cy="47.11" r=".76"/>
      <path d="M246 47.11a.76.76 0 1 1-.76-.76.76.76 0 0 1 .76.76z"/>
      <path d="M234.94 46.14a.22.22 0 0 1-.15-.06.23.23 0 0 1 0-.33 3.8 3.8 0 0 1 3.19-1.5.24.24 0 0 1 .22.26.24.24 0 0 1-.25.22 3.28 3.28 0 0 0-2.78 1.32.25.25 0 0 1-.23.09zM247.11 46.14a.25.25 0 0 1-.19-.09 3.3 3.3 0 0 0-2.78-1.32.25.25 0 0 1-.26-.22.24.24 0 0 1 .23-.26 3.7 3.7 0 0 1 3.18 1.49.24.24 0 0 1 0 .34.22.22 0 0 1-.18.06z" class="cls-9"/>
      <path d="M242.59 52.71l-2.25-.4a.17.17 0 0 1-.15-.2l.66-4.24a.2.2 0 0 1 .21-.16.18.18 0 0 1 .15.21l-.67 4.08 2.08.36a.19.19 0 0 1 .15.21.18.18 0 0 1-.18.14zM241.55 56.62a4.19 4.19 0 0 1-1.68-.33.24.24 0 0 1-.1-.33.23.23 0 0 1 .32-.1c.1 0 2.41 1.18 5-1.32a.24.24 0 0 1 .34.35 5.54 5.54 0 0 1-3.88 1.73zM242.93 58a1.85 1.85 0 0 1-.75-.15.24.24 0 1 1 .23-.43s.89.43 2-.56a.24.24 0 0 1 .34 0 .25.25 0 0 1 0 .34 2.65 2.65 0 0 1-1.82.8zM231.72 50h-.05a.91.91 0 0 1-.6-.53 2.46 2.46 0 0 1 .21-1.7.17.17 0 1 1 .3.15s-.44.89-.21 1.42a.6.6 0 0 0 .4.34.16.16 0 0 1-.05.32zM252.06 50a.15.15 0 0 1-.16-.11.16.16 0 0 1 .11-.21.58.58 0 0 0 .39-.34 2 2 0 0 0-.2-1.42.17.17 0 1 1 .3-.15 2.46 2.46 0 0 1 .21 1.7.93.93 0 0 1-.61.53z" class="cls-14"/>
      <path d="M244.67 30l-.47-.13c-9-2.3-15.15 8.83-12.61 16.42.2.59 1.19 2.15 1.08 2.71a10.65 10.65 0 0 1 2.85-5.9c1.6-1.48 3.82-1.68 5.84-2.18a13.45 13.45 0 0 0 7.1-4.56c2.27-3.07-1.17-5.54-3.79-6.36z" class="cls-9"/>
      <path d="M239.32 37.34c8-1 .81 8 .81 8 7.22-2.89 9.3-5.29 10.16-8.46-3.44-2-8.17-4.82-12-5.1-1.98 2.53-2.39 5.98 1.03 5.56z" class="cls-9"/>
      <path d="M249.1 34.93s7.43-1.34 1.76 13.33c0 0-3.22-12.26-1.76-13.33z" class="cls-9"/>
      <path d="M254.56 85.68a63 63 0 0 0-2-7.93c.07 3.24.2 4.28.23 7.53.57-.48 1.35.94 1.77.4z" class="cls-21"/>
      <path d="M227.77 90.42h-.06a.25.25 0 0 1-.18-.3 54.93 54.93 0 0 1 1.94-6.62.24.24 0 0 1 .33-.13.26.26 0 0 1 .13.33 55.27 55.27 0 0 0-1.93 6.53.25.25 0 0 1-.23.19zM255.32 88.46a.26.26 0 0 1-.25-.2 58.28 58.28 0 0 0-1.53-6.26.24.24 0 0 1 .17-.31.25.25 0 0 1 .31.17 58.7 58.7 0 0 1 1.55 6.32.26.26 0 0 1-.21.29z" class="cls-11"/>
      <path d="M236.4 66.15a5.1 5.1 0 0 0-3.7 2.54 17.86 17.86 0 0 0 5.76 5 13.07 13.07 0 0 0 3-2.52 34.42 34.42 0 0 0-5.06-5.02z" class="cls-3"/>
      <path d="M246.62 65.45a6.23 6.23 0 0 1 3.47 2.93 16 16 0 0 1-5.66 5.3 13.4 13.4 0 0 1-3-2.52 24.35 24.35 0 0 1 5.19-5.71z" class="cls-3"/>
      <path d="M242.93 73.52a.7.7 0 1 1-.69-.7.69.69 0 0 1 .69.7zM242.93 79.1a.7.7 0 1 1-.69-.69.69.69 0 0 1 .69.69zM242.93 84.69a.7.7 0 0 1-1.39 0 .7.7 0 1 1 1.39 0zM242.93 90.28a.7.7 0 1 1-.69-.7.69.69 0 0 1 .69.7zM242.93 95.86a.7.7 0 1 1-.69-.69.69.69 0 0 1 .69.69zM242.93 101.45a.7.7 0 0 1-1.39 0 .7.7 0 1 1 1.39 0z" class="cls-11"/>
      <path d="M204.67 78.42l.67 4.44s4.48-.61 6.64-4l-2.45-3a37.47 37.47 0 0 0-4.86 2.56zM251.28 104.82l4.21-1.56S254 99 250.21 97.54l-2.41 3a38.11 38.11 0 0 0 3.48 4.28z" class="cls-3"/>
      <path d="M240.87 165.21h-.25v-1h.25c.01.33.01.67 0 1zm0-2h-.25v-1h.25zm0-2h-.25v-1h.25zm-.26-2v-1h.25v1zm0-2v-1h.25v1zm-.06-2v-1h.25v1zm-.08-2c0-.34 0-.67-.05-1h.25c0 .34 0 .67.05 1zm-.1-2l-.05-1h.25l.05 1zm-.11-2l-.07-1h.25l.07 1zm-.13-2c0-.33 0-.66-.07-1h.25c0 .33.05.66.07 1zm-.15-2l-.07-1h.25l.07 1zm-.16-2c0-.33 0-.66-.08-1h.25c0 .34.06.67.08 1zm-.17-2l-.09-1h.25l.09 1zm-.18-2l-.1-1h.25l.1 1zm-.2-2l-.1-1h.25l.1 1zm-.21-2l-.1-1h.24l.11 1zm-.21-2l-.12-1h.25l.11 1zm-.24-2l-.12-1h.25l.12 1zm-.24-2l-.12-1h.25l.12 1zm-.25-2l-.13-1h.25l.13 1zm-.26-2c-.05-.34-.09-.67-.14-1h.25c.05.33.09.66.14 1zm-.27-2l-.15-1h.25l.14 1zm-.29-2c-.05-.34-.1-.67-.14-1h.24c0 .32.1.66.15 1zm-.29-2c0-.35-.11-.68-.15-1h.24c.05.32.1.65.16 1zm-.31-2l-.16-1h.25l.16 1zm-.32-2l-.17-1h.25l.17 1zM242.35 165.26h-.25v-1h.25zm.05-2h-.25v-1h.25zm.07-2h-.25l.05-1h.25zm.09-2h-.25c0-.33 0-.67.05-1h.25c-.01.34-.03.67-.05 1zm.11-2h-.25l.06-1h.25zm.13-2h-.25l.07-1h.25zm.14-2h-.25c0-.34.05-.67.08-1h.25c-.02.34-.02.67-.08 1.01zm.16-2h-.25c0-.33.05-.67.08-1h.25c-.03.35-.06.68-.08 1.01zm.17-2h-.25l.09-1h.25zm.18-2h-.25c0-.33.06-.67.1-1h.24zm.19-2h-.24c0-.33.06-.67.1-1h.25c-.04.38-.07.74-.11 1.04zm.21-2h-.25c0-.34.07-.67.11-1h.25c-.04.39-.07.74-.11 1.05zm.22-2h-.25c0-.34.07-.67.11-1h.25c-.04.4-.07.74-.11 1.06zm.23-2h-.25l.12-1h.24zm.23-2h-.24l.12-1h.25zm.25-2h-.25c.05-.33.09-.66.13-1h.25c-.04.44-.09.74-.13 1.1zm.26-2h-.25l.13-1h.25zm.26-2h-.24l.13-1h.25zm.28-2h-.25c0-.34.09-.67.14-1h.25c-.05.49-.09.82-.14 1.15zm.28-2h-.25l.15-1h.25zm.29-2h-.25l.15-1h.25zm.3-2h-.24l.15-1h.25zm.31-2h-.24l.15-1h.25zm.32-2h-.25c0-.31.1-.6.15-.88v-.11h.24v.11c-.04.54-.09.83-.14 1.14zm.33-2h-.25l.17-1h.24zm.34-2h-.25c.11-.64.18-1 .18-1h.24zM207.56 82.49a.23.23 0 0 1-.14 0 10.71 10.71 0 0 1-3-3.93.25.25 0 1 1 .46-.2 10.54 10.54 0 0 0 2.73 3.64 7 7 0 0 0 4.14-3.24.25.25 0 1 1 .46.22c-1.26 2.66-4.45 3.5-4.59 3.54z" class="cls-11"/>
      <path d="M208.33 80.42a.42.42 0 0 1-.42.42.42.42 0 0 1 0-.83.42.42 0 0 1 .42.41zM250.88 104.69a.25.25 0 0 1-.09-.48 12 12 0 0 0 3.77-2.48 11.83 11.83 0 0 0-3.8-4 .25.25 0 1 1 .25-.43 12.29 12.29 0 0 1 4.07 4.28.26.26 0 0 1 0 .28 11.71 11.71 0 0 1-4.08 2.76.2.2 0 0 1-.12.07z" class="cls-11"/>
      <path d="M253.42 101.34a.41.41 0 0 1 .37.45.41.41 0 0 1-.44.37.4.4 0 0 1-.38-.44.42.42 0 0 1 .45-.38zM244.43 73.93a.23.23 0 0 1-.16-.06l-1.67-1.41a.26.26 0 0 1 0-.36.28.28 0 0 1 .36 0l1.5 1.28c2.18-1.79 5.32-4.39 5.48-4.55a.24.24 0 0 1 .34 0 .26.26 0 0 1 0 .36s-.09.12-5.7 4.75a.25.25 0 0 1-.15-.01zM238.53 73.93a.3.3 0 0 1-.16-.05c-5.93-4.64-6-4.72-6-4.75a.27.27 0 0 1 .05-.36.25.25 0 0 1 .35 0c.14.13 3.48 2.74 5.77 4.54l1.46-1.1a.25.25 0 0 1 .35 0 .24.24 0 0 1 0 .35l-1.58 1.28a.27.27 0 0 1-.24.09zM248.59 86.24h-.34a2 2 0 0 1-1.93-1.87 18.31 18.31 0 0 1-.23-1.94 14.27 14.27 0 0 0-.37-2.54.23.23 0 0 1 0-.22.24.24 0 0 1 .19-.1h5.46a.25.25 0 0 1 .19.09.24.24 0 0 1 .06.2c-.08.5-.11 1.08-.15 1.7-.08 1.61-.17 3.27-1.18 4.15a2.57 2.57 0 0 1-1.7.53zm-2.31-6.18a16.57 16.57 0 0 1 .31 2.32c0 .62.11 1.27.22 1.88.18.95.64 1.4 1.48 1.47a2.29 2.29 0 0 0 1.71-.44c.85-.74.94-2.29 1-3.8 0-.51.06-1 .11-1.46z" class="cls-11"/>
      <path d="M207.13 168.66a1 1 0 0 1-1-.83l-9.45-55a1 1 0 1 1 2-.34l9.45 55a1 1 0 0 1-.82 1.15z" class="cls-2"/>
      <path d="M191.91 166.44h-.1a1 1 0 0 1-.9-1.09l4.78-52.24a1 1 0 0 1 2 .18l-4.78 52.24a1 1 0 0 1-1 .91zM168.73 165.54a1 1 0 0 1-1-.91l-4.79-52.24a1 1 0 1 1 2-.18l4.79 52.24a1 1 0 0 1-.91 1.08z" class="cls-2"/>
      <path d="M153.5 168.66h-.17a1 1 0 0 1-.82-1.15l9.45-55a1 1 0 1 1 2 .34l-9.45 55a1 1 0 0 1-1.01.81z" class="cls-2"/>
      <path d="M180.12 29.1c-6.15.8-11.36 6.75-13.76 12.78-3.45 8.68-2.62 18.78-8 26.43-2.36 3.48 14.15 9.69 19.17 9.44 4.48-.26 20.51-.41 19.15-6-2.39-9.87.73-26.87-2.74-33.89a16.07 16.07 0 0 0-8.94-8.27 10.91 10.91 0 0 0-4.88-.49z" class="cls-22"/>
      <path d="M171.41 171.45a2.71 2.71 0 0 1-3.76.73 2.72 2.72 0 0 1-.73-3.77l4.9-5.91c.84-1.24 2.16-2.4 3.41-1.56 1.24.83.3 2.69-.53 3.93z" class="cls-19"/>
      <path d="M171.8 168.44a1.36 1.36 0 0 1-1.88.37 1.36 1.36 0 0 1-.36-1.89l3.79-5.62a1.35 1.35 0 0 1 1.88-.36 1.35 1.35 0 0 1 .36 1.88z" class="cls-4"/>
      <path d="M192.73 171.45a2.71 2.71 0 0 0 3.76.73 2.72 2.72 0 0 0 .73-3.77l-5.32-6.7c-.83-1.25-2.53-2.53-3.77-1.69-1.24.84-.49 3 .35 4.29z" class="cls-19"/>
      <path d="M192.34 168.44a1.36 1.36 0 0 0 1.88.37 1.36 1.36 0 0 0 .36-1.89l-3.79-5.62a1.35 1.35 0 0 0-1.88-.36 1.35 1.35 0 0 0-.36 1.88z" class="cls-4"/>
      <path d="M200.7 112.75a3.5 3.5 0 0 1-3.5 3.5h-34a3.49 3.49 0 0 1-3.5-3.5 3.5 3.5 0 0 1 3.5-3.5h34a3.5 3.5 0 0 1 3.5 3.5z" class="cls-6"/>
      <path fill="#f0af4d" d="M195.46 108.08c0 2-4.43 7.23-5.47 7.23 0 0-3.21 1.25-9-.11a13.49 13.49 0 0 1-8.62-.1c-1 0-6.19-5.44-6.19-7a1.86 1.86 0 0 1 1.89-1.83h25.46a1.88 1.88 0 0 1 1.89 1.83z"/>
      <path fill="#ffc773" d="M180.74 116.44c1.1 3.47 10.06 36.69 10 44.86 0 1.57-1.45 2.45-2.24 1.52-6-7-19.81-38.66-20.93-42.22l-2.08-6.55c-1.28-4 .62-8.22 4.25-9.37 3.62-1.14 7.59 1.19 8.87 5.21z"/>
      <path fill="#ffcf87" d="M181 116.45c-.94 3.52-8.41 39.24-8.11 45.83a1.48 1.48 0 0 0 2.51.85c5.69-7.08 18.07-38.23 19-41.69l1.71-6.43a8.2 8.2 0 0 0-4.8-9.65 6.47 6.47 0 0 0-8.59 4.65z"/>
      <path d="M158.82 81c.42.54-3.87 6.51-4.34 13-.38 5.18 4.11 9.14 6.83 13.2.71 1.06 1.45 2.09 2.19 3.12.28-.23 2.65-2 2.49-2.4l-4.79-13.3 4-6.93c-2.7-1.87-4.2-3.95-6.38-6.69z" class="cls-4"/>
      <path d="M165.82 91l2.26-8.21 6.81-15.29a30 30 0 0 0-17 13.48c-.59 3.56 7.93 10.02 7.93 10.02z" class="cls-5"/>
      <path d="M200.53 81c-.42.54 3.87 6.51 4.34 13 .38 5.18-4.11 9.14-6.83 13.2-.71 1.06-1.45 2.09-2.19 3.12-.28-.23-2.65-2-2.49-2.4l4.79-13.3-4-6.93c2.7-1.87 4.22-3.95 6.38-6.69z" class="cls-4"/>
      <path d="M193.53 91l-2.26-8.21-6.81-15.29a30 30 0 0 1 17 13.48c.59 3.56-7.93 10.02-7.93 10.02z" class="cls-5"/>
      <path d="M168.87 73l8.86-7.72H183l12.6 11.81-4.43 16.39 6.17 15.7a58.8 58.8 0 0 1-34.15 0l1.53-5.52 5-11.27-5.11-15.57z" class="cls-5"/>
      <path d="M177.1 54.25l-2.21 13.38s4.94 15.61 11 .12l-2.51-13.5z" class="cls-4"/>
      <path d="M183.39 54.25h-6.29l-2.21 13.38s0 .12.12.32a34.08 34.08 0 0 0 9.75-6.32z" class="cls-12"/>
      <path d="M192.74 48.66a3 3 0 1 1-3-3 3 3 0 0 1 3 3z" class="cls-4"/>
      <path d="M189.7 53a8.83 8.83 0 0 1-9 8.75 8.83 8.83 0 0 1-9-8.75V41a8.83 8.83 0 0 1 9-8.75 8.83 8.83 0 0 1 9 8.75z" class="cls-4"/>
      <path d="M174.45 48.66a3 3 0 1 1-3-3 3 3 0 0 1 3 3z" class="cls-4"/>
      <path d="M167.14 94.92a.26.26 0 0 1-.24-.19c-2.56-9.93 1.83-14.9 2-15.1a.25.25 0 1 1 .37.33c0 .05-4.4 5-1.91 14.65a.24.24 0 0 1-.18.3z" class="cls-11"/>
      <path d="M165 85a5.88 5.88 0 0 1-5.92-4.9.48.48 0 0 1 .41-.56.49.49 0 0 1 .57.42A4.85 4.85 0 0 0 165 84h.31a.47.47 0 0 1 .52.48.5.5 0 0 1-.48.52zM193.87 85h-.36a.5.5 0 0 1-.48-.52.46.46 0 0 1 .52-.48 4.86 4.86 0 0 0 5.26-4 .49.49 0 0 1 .56-.42.49.49 0 0 1 .42.56 5.88 5.88 0 0 1-5.92 4.86z" class="cls-26"/>
      <path d="M191.32 94.92h-.06a.25.25 0 0 1-.18-.3c2.49-9.68-1.86-14.6-1.91-14.65a.25.25 0 0 1 0-.35.24.24 0 0 1 .35 0c.19.2 4.58 5.17 2 15.1a.26.26 0 0 1-.2.2z" class="cls-11"/>
      <path d="M198.7 105.59a2.81 2.81 0 0 1-2.93 2.66h-31.62c-1.61 0-3.45-1.19-3.45-2.66V84.91c0-1.47 1.84-2.66 3.45-2.66h31.62a2.81 2.81 0 0 1 2.93 2.66z" class="cls-11"/>
      <circle cx="176.1" cy="47.11" r=".76"/>
      <path d="M185 47.11a.76.76 0 1 1-.76-.76.76.76 0 0 1 .76.76z"/>
      <path d="M181.59 52.71l-2.25-.4a.17.17 0 0 1-.15-.2l.66-4.24a.2.2 0 0 1 .21-.16.18.18 0 0 1 .15.21l-.67 4.08 2.08.36a.19.19 0 0 1 .15.21.18.18 0 0 1-.18.14zM170.2 50a.86.86 0 0 1-.57-.53 2.53 2.53 0 0 1 .2-1.7.15.15 0 0 1 .21-.08.18.18 0 0 1 .07.23 2.27 2.27 0 0 0-.2 1.42.57.57 0 0 0 .38.34.16.16 0 0 1 .1.21.15.15 0 0 1-.19.11zM190.68 50a.17.17 0 0 1-.17-.11.16.16 0 0 1 .11-.21.63.63 0 0 0 .43-.34 2 2 0 0 0-.22-1.42.17.17 0 0 1 .08-.23.19.19 0 0 1 .24.08 2.33 2.33 0 0 1 .22 1.7 1 1 0 0 1-.64.53z" class="cls-14"/>
      <path fill="#3a968b" d="M173.94 46.14a.22.22 0 0 1-.15-.06.23.23 0 0 1 0-.33 3.8 3.8 0 0 1 3.19-1.5.24.24 0 0 1 .22.26.24.24 0 0 1-.25.22 3.28 3.28 0 0 0-2.78 1.32.25.25 0 0 1-.23.09z"/>
      <path d="M186.11 46.14a.25.25 0 0 1-.19-.09 3.3 3.3 0 0 0-2.78-1.32.25.25 0 0 1-.26-.22.24.24 0 0 1 .23-.26 3.7 3.7 0 0 1 3.18 1.49.24.24 0 0 1 0 .34.22.22 0 0 1-.18.06zM177.7 30.85c-2.59.79-3.66 2-5.24 4-2.69 3.44-.34 8.2-2.46 12.26 5.52 1.32 18-7.29 17.45-14.93 0 .04-7.93-1.89-9.75-1.33z" class="cls-22"/>
      <path d="M185.5 40.45c.73 2.24 3.69 5.8 3.7 8.21 3.54-4.49.76-17.85-3-15.91 0 0-1.72 4.55-.7 7.7z" class="cls-22"/>
      <path d="M179.12 55.28s2.67.65 5.67-2.22c0 0-1.14 7.5-5.67 2.22zM182.18 58.57a1.09 1.09 0 0 1-.52-.1.24.24 0 0 1-.11-.33.25.25 0 0 1 .33-.11s.86.35 2.41-1.05a.25.25 0 0 1 .35 0 .24.24 0 0 1 0 .35 3.74 3.74 0 0 1-2.46 1.24z" class="cls-14"/>
      <path d="M180.84 79.48a.36.36 0 0 1-.2-.06 18.62 18.62 0 0 1-7.86-10 .38.38 0 1 1 .72-.22 17.75 17.75 0 0 0 7.3 9.46 30.31 30.31 0 0 0 4.39-5.38.38.38 0 0 1 .53-.1.38.38 0 0 1 .1.52 28.87 28.87 0 0 1-4.74 5.72.36.36 0 0 1-.24.06z" class="cls-26"/>
      <path d="M268.7 169.75a2.5 2.5 0 0 1-2.5 2.5 2.5 2.5 0 0 1-2.5-2.5v-57a2.5 2.5 0 0 1 2.5-2.5 2.5 2.5 0 0 1 2.5 2.5z" class="cls-28"/>
      <path d="M97.7 169.75a2.5 2.5 0 0 1-2.5 2.5 2.5 2.5 0 0 1-2.5-2.5v-57a2.5 2.5 0 0 1 2.5-2.5 2.5 2.5 0 0 1 2.5 2.5z" class="cls-14"/>
      <path d="M275.7 110.25a3 3 0 0 1-3 3H89.73a3 3 0 0 1-3-3 3 3 0 0 1 3-3h182.93a3 3 0 0 1 3 3z" class="cls-28"/>
      <g class="cls-29">
        <path d="M114.26 6.53c-.19 0-.38-.08-.57-.13-3.4-.9-5.17-4.58-8.89-4.77-4.25-.23-7.33 2.93-10.91 4.65-4.89 2.38-9.96.8-14.89-.72-2.44-.76-6.78-3.14-9.28-2.11-4.12 1.71.14 6.07 2.26 7.45 5 3.3 16.76 5.5 22.46 7s5 3 10.32 5.17c2.5 1 5.73 1 7.87-.84 2.8-2.43 1.16-3.67.2-6.39-1.21-3.41 2-2.58 4.76-2.8 4-.32 8.71 0 12.15-2.46 6.3-4.49-5.81-5.3-8.64-5-2.28.21-4.51 1.31-6.84.95z" class="cls-1"/>
      </g>
      <g class="cls-29">
        <path d="M46.26 74.53c-.19 0-.38-.08-.57-.13-3.4-.9-5.17-4.58-8.89-4.77-4.25-.23-7.33 2.93-10.91 4.65-4.93 2.38-10 .8-14.88-.72-2.44-.76-6.78-3.14-9.28-2.11-4.12 1.71.14 6.07 2.26 7.45 5 3.3 16.76 5.5 22.46 7s5 3 10.32 5.17c2.5 1 5.73 1 7.87-.84 2.8-2.43 1.16-3.67.2-6.39-1.21-3.41 2-2.58 4.76-2.8 4-.32 8.71 0 12.15-2.46 6.3-4.49-5.81-5.3-8.64-5-2.29.21-4.52 1.31-6.85.95z" class="cls-1"/>
      </g>
      <g class="cls-29">
        <path d="M266.26 201.53c-.19 0-.38-.08-.57-.13-3.4-.9-5.17-4.58-8.89-4.77-4.25-.23-7.33 2.93-10.91 4.65-4.93 2.38-10 .8-14.88-.72-2.44-.76-6.78-3.14-9.28-2.11-4.12 1.71.14 6.07 2.26 7.45 5 3.3 16.76 5.5 22.46 7s5 3 10.32 5.17c2.5 1 5.73 1 7.87-.84 2.8-2.43 1.16-3.67.2-6.39-1.21-3.41 2-2.58 4.76-2.8 4-.32 8.71 0 12.15-2.46 6.3-4.49-5.81-5.3-8.64-5-2.29.21-4.52 1.31-6.85.95z" class="cls-1"/>
      </g>
      <path d="M167.09 102.18s14.78-11.94 14-10.1c0 0 1.65 3.17-11.07 15.34z" class="cls-4"/>
      <path d="M160.13 107.89l7-5.71s11.22-1 29.94-7.51c0 0 2.67.58-8.25 10.58a18.6 18.6 0 0 1-4.59 2.66 42.48 42.48 0 0 1-12 3.44l-10.47.79z" class="cls-4"/>
      <path d="M40.94 193.57s-6.88 26.73-8.84 39.68h93.37l-12-42.74z" class="cls-9"/>
      <path d="M40.94 193.57s-6.88 26.73-8.84 39.68h47.22l.47-41.32z" class="cls-18"/>
      <path d="M32.1 206.25s-.77 6.25 5.41 17.75c0 0 6.47-3.5 7.83-17.75l-8.89-6z" class="cls-4"/>
      <path d="M167.09 113l-3.3-8.75a319.74 319.74 0 0 0-37.47 29.2c-1.83-8.55-18-40.45-42.42-48.36l-7-5.82H65.59l-6.13 5.48c-18 7.31-30.95 22-39.31 39.18-3.81 7.84-7.78 17.39-9.6 26.92 6.39 2.75 12.66 5.89 19.65 5.75l11.12-23-7 50.11-2.3 16.55c2.06.66 4.15 1.23 6.25 1.75 38.14 9.28 81.39-4 81.39-4-3.59-19.36-13.38-46.21-17-65.57 1.17 5.61 5 10.44 8.35 14.95 3.91 5.31 9.28 11.5 16.57 9.41 7.93-2.26 13.06-9.79 18.09-15.77 6.33-7.53 12.42-15.13 18.06-23.19.37-.46 3.58-4.28 3.36-4.84z" class="cls-30"/>
      <path d="M103.22 198.33c-.11-.64-.15-1-.15-1l1-.11s0 .36.14 1zM118.53 220.87a16.78 16.78 0 0 1-1.94-.73l.41-.91a16.55 16.55 0 0 0 1.82.68zm-3.76-1.7a17.76 17.76 0 0 1-1.69-1.19l.63-.78a16.81 16.81 0 0 0 1.58 1.12zm-3.22-2.57a18.34 18.34 0 0 1-1.38-1.52l.77-.63c.42.51.86 1 1.31 1.45zm-2.61-3.16c-.38-.55-.75-1.13-1.1-1.72l.87-.51c.33.58.68 1.14 1.05 1.67zm-2.07-3.52c-.3-.62-.58-1.23-.85-1.85l.92-.39c.26.6.53 1.2.83 1.8zm-1.59-3.74c-.24-.66-.46-1.3-.65-1.93l1-.29c.19.6.4 1.23.64 1.88zm-1.21-3.88c-.19-.72-.35-1.38-.47-2l1-.22c.13.59.28 1.24.46 1.94zM121.58 221.48c-.35 0-.69-.08-1-.14l.16-1c.32.06.64.1 1 .14zM45.69 200.31c-.06-.61-.12-.95-.12-1l1-.16s.06.36.13 1zM38.05 226l-.54-.84a13.63 13.63 0 0 0 1.56-1.16l.65.77a16.59 16.59 0 0 1-1.67 1.23zm3.16-2.65l-.74-.68a15 15 0 0 0 1.23-1.51l.81.58a15.76 15.76 0 0 1-1.3 1.64zm2.41-3.35l-.87-.49c.31-.56.6-1.15.87-1.75l.91.4c-.28.67-.53 1.29-.91 1.84zm1.65-3.75l-.94-.32c.2-.61.39-1.24.56-1.89l1 .25c-.2.71-.4 1.37-.62 2zm1-3.95l-1-.18c.13-.66.23-1.32.31-2l1 .13c-.04.75-.15 1.41-.28 2.09zm.53-4l-1-.08c.05-.68.09-1.34.1-2h1c.02.71-.02 1.39-.07 2.09zm-.89-4c0-.73 0-1.39-.08-2l1-.06c0 .61.07 1.29.08 2zM35.28 227.45l-.37-.93.89-.38.42.9c-.3.15-.62.28-.94.41z" class="cls-11"/>
      <path fill="#42bdae" d="M119.15 195.2c-21.22.79-53.29-9.45-67.81-13.45-4.89-21.75-2.74-36.91-4.74-63.91-2.65 5.83-5.28 15.75-5.28 15.75l-7 50.11-2.3 16.55c2.06.66 4.15 1.23 6.25 1.75 38.14 9.28 81.39-4 81.39-4-.12-.91-.31-1.85-.51-2.8z"/>
      <path d="M64.23 56.25l-4.7 28.59s11.16 14.79 23.52.26l-5.38-28.85zM97.66 44.35A6.4 6.4 0 1 1 91.27 38a6.39 6.39 0 0 1 6.39 6.35z" class="cls-4"/>
      <path d="M28.56 160l1.64-3.4c-7 .14-13.26-3-19.65-5.75-5.19 27.42 22.51 57.59 21.67 58.6l6.1-7.43c-2.1-.54-9.76-42.02-9.76-42.02z" class="cls-30"/>
      <path d="M77.67 56.25H64.23l-4.45 27.07c7.61-3.23 14.84-7.18 20.61-12.48z" class="cls-12"/>
      <path d="M91.7 53.61c0 10.33-9.22 18.7-20 18.7-10.79 0-20-8.37-20-18.7v-25.7c0-10.33 9.21-18.7 20-18.7 10.78 0 20 8.37 20 18.7z" class="cls-4"/>
      <path d="M93.22 30.32a19 19 0 0 1-6.67.21c2.09 4.35 4.79 9.59 4.79 9.59s1.13-5.43 1.88-9.8z" class="cls-9"/>
      <path d="M92.68 28.08a12.72 12.72 0 0 1-1.37-.41 30.9 30.9 0 0 0 11.51-11.14C102 17.89 98.48 18.83 97 19c-6.65.54-12-4.65-16.25-9.07S69.6 1.58 63.59 5.57A7.36 7.36 0 0 0 63 6a11.62 11.62 0 0 0-5.09 9.61C58 24.21 64.47 31.32 72.28 34a20.48 20.48 0 0 0 7.29 1.17A30.52 30.52 0 0 0 99 27.55c-1.24 1.04-4.88.86-6.32.53z" class="cls-9"/>
      <path d="M58.58 44.35A6.39 6.39 0 1 1 52.19 38a6.4 6.4 0 0 1 6.39 6.35z" class="cls-4"/>
      <path d="M59.71 20.15c.19-2.68-1.31-6.38-4.1-7.14C49 11.19 48.82 21.49 49 25.55c.1 2.85 2.54 14.57 2.54 14.57s6.1-11.79 7-14.69a23.23 23.23 0 0 0 1.17-5.28z" class="cls-9"/>
      <path d="M64.24 42.83a1.57 1.57 0 1 1-1.56-1.57 1.56 1.56 0 0 1 1.56 1.57zM81 42.83a1.57 1.57 0 1 1-1.57-1.57A1.56 1.56 0 0 1 81 42.83z"/>
      <path d="M58.2 40.82a.49.49 0 0 1-.32-.12.5.5 0 0 1-.07-.7 7.86 7.86 0 0 1 6.6-3.1.5.5 0 0 1-.08 1 6.78 6.78 0 0 0-5.74 2.73.52.52 0 0 1-.39.19zM83.37 40.82a.52.52 0 0 1-.39-.19 6.81 6.81 0 0 0-5.75-2.73.5.5 0 0 1-.07-1 7.72 7.72 0 0 1 6.6 3.1.5.5 0 0 1-.07.7.51.51 0 0 1-.32.12z" class="cls-9"/>
      <path d="M74 54.42l-4.66-.82a.39.39 0 0 1-.31-.43l1.38-8.77a.37.37 0 0 1 .43-.31.37.37 0 0 1 .31.42l-1.32 8.41 4.3.76a.38.38 0 0 1-.07.75zM71.88 62.51a8.14 8.14 0 0 1-3.48-.7.5.5 0 0 1-.22-.67.51.51 0 0 1 .67-.22c.21.11 5 2.45 10.35-2.72a.5.5 0 1 1 .69.72 11.44 11.44 0 0 1-8.01 3.59zM74.73 65.36a3.44 3.44 0 0 1-1.55-.36.5.5 0 0 1 .47-.88c.08 0 1.84.89 4.1-1.15a.5.5 0 0 1 .71 0 .49.49 0 0 1 0 .7 5.45 5.45 0 0 1-3.73 1.69z" class="cls-14"/>
      <path fill="#3db8a9" d="M59.72 81s-2.38.84-4.52 6c0 0 14.16 13.82 32.66-.17A8.7 8.7 0 0 0 82.28 81s-11.2 5-22.56 0z"/>
      <path d="M58.58 88.39h-.1a.5.5 0 0 1-.39-.59A10.05 10.05 0 0 1 60.7 83a.49.49 0 0 1 .7 0 .5.5 0 0 1 0 .71A9.18 9.18 0 0 0 59.07 88a.5.5 0 0 1-.49.39zM61.86 90.25a.47.47 0 0 1-.5-.45 11.77 11.77 0 0 1 1.76-6.31.5.5 0 0 1 .69-.13.51.51 0 0 1 .14.7 10.79 10.79 0 0 0-1.59 5.72.46.46 0 0 1-.49.47zM65.53 91.42a.48.48 0 0 1-.47-.35c-.7-2.14 0-6.39 0-6.57a.51.51 0 0 1 .57-.42.5.5 0 0 1 .41.57s-.64 4.19 0 6.12a.51.51 0 0 1-.32.63zM69.36 92.25c-.28 0-.49-.48-.48-.76.17-3.13 0-6.67 0-6.7a.57.57 0 0 1 .48-.59.48.48 0 0 1 .52.45s.17 3.73 0 6.91c-.03.27-.25.69-.52.69zM73.42 92h-.15a.51.51 0 0 1-.33-.63c.84-2.63 0-6.62 0-6.66a.49.49 0 0 1 .38-.59.5.5 0 0 1 .6.38c0 .18.9 4.29 0 7.17a.49.49 0 0 1-.5.33zM77.84 90.92h-.08a.5.5 0 0 1-.42-.57c.63-4.15-.91-5.3-.93-5.31a.5.5 0 0 1-.12-.69.49.49 0 0 1 .71-.15c.09.06 2.1 1.44 1.36 6.29a.5.5 0 0 1-.52.43zM81 89.67a.57.57 0 0 1-.18 0 .5.5 0 0 1-.32-.67c1-2.5-1.29-4.94-1.32-5a.5.5 0 1 1 .73-.68c.11.11 2.71 2.92 1.53 6a.51.51 0 0 1-.44.35zM84.87 88.25c-.26 0-.48-.35-.5-.62-.16-3.75-1.86-4.75-1.88-4.76a.55.55 0 0 1-.21-.71.5.5 0 0 1 .66-.24c.09 0 2.25 1.28 2.43 5.68 0 .27-.2.65-.47.65z" class="cls-11"/>
      <path d="M30.34 206.35s5.38-3.63 6.48-7.8c.28-1.07 2.43 2.53 2.06 3.57a14.78 14.78 0 0 1-6.66 7.31c-2.69-.84-1.88-3.08-1.88-3.08zM167.09 113s-2-5.16-5.89-7c-1-.47 1.64-2.3 2.59-1.75a13.67 13.67 0 0 1 5.82 7.42c-1.32 2.47-2.52 1.33-2.52 1.33z" class="cls-33"/>
      <path d="M49.67 47.11h-.11a2.06 2.06 0 0 1-1.37-1.18c-.65-1.5.43-3.73.48-3.82a.37.37 0 1 1 .67.33s-1 2-.46 3.2a1.3 1.3 0 0 0 .9.75.38.38 0 0 1 .24.47.37.37 0 0 1-.35.25zM93.08 47.11a.38.38 0 0 1-.36-.27.38.38 0 0 1 .25-.47 1.32 1.32 0 0 0 .9-.75c.42-1-.19-2.65-.46-3.2a.37.37 0 1 1 .67-.33c0 .09 1.13 2.32.47 3.82a2 2 0 0 1-1.36 1.18z" class="cls-14"/>
      <path d="M104 137.65a.5.5 0 0 1-.49-.39 162.46 162.46 0 0 0-8.77-26.8.5.5 0 0 1 .25-.66.49.49 0 0 1 .66.25 163 163 0 0 1 8.84 27 .5.5 0 0 1-.38.59zM39.86 138.92h-.11a.5.5 0 0 1-.38-.6A145.69 145.69 0 0 1 49.48 110a.49.49 0 0 1 .67-.22.5.5 0 0 1 .22.67 144.28 144.28 0 0 0-10 28.05.5.5 0 0 1-.51.42z" class="cls-11"/>
      <path d="M159 26.84a9.34 9.34 0 1 1-9.34-9.34 9.34 9.34 0 0 1 9.34 9.34z" class="cls-34"/>
      <path d="M154.21 20.8c-1.34-.34-3.32 1.79-4.49 4.81-1.6-2.61-3.77-4.3-5-3.82s-1 3.23.61 6.1c1.34 2.36 3.17 4.07 4.49 4.31a.7.7 0 0 0 .2.08c1.39.35 3.44-1.94 4.59-5.11s.98-6.02-.4-6.37z" class="cls-3"/>
      <path d="M43.21 20.8c-1.34-.34-3.32 1.79-4.49 4.81-1.6-2.61-3.77-4.3-5-3.82s-1 3.23.61 6.1c1.34 2.36 3.17 4.07 4.49 4.31a.7.7 0 0 0 .2.08c1.39.35 3.44-1.94 4.59-5.11s.98-6.02-.4-6.37z" class="cls-34"/>
      <path d="M222.84 28.52a6.84 6.84 0 1 1-6.84-6.84 6.83 6.83 0 0 1 6.84 6.84z" class="cls-3"/>
      <path d="M213.23 28.8a1.26 1.26 0 1 1-1.23-1.26 1.26 1.26 0 0 1 1.23 1.26zM217.12 28.8a1.26 1.26 0 0 1-2.51 0 1.26 1.26 0 1 1 2.51 0zM221 28.8a1.26 1.26 0 1 1-1.25-1.26A1.25 1.25 0 0 1 221 28.8z" class="cls-11"/>
      <path d="M256.81 149s-11-4.48-6.7-10.64 8.1 5.98 6.7 10.64z" class="cls-30"/>
      <path d="M262.38 190.48s2.67-30.87-9.32-48.44" class="cls-35"/>
      <path d="M255.11 154.35s-10.62 5.25-12.41-2 9.88-2.11 12.41 2z" class="cls-30"/>
      <path d="M259.16 155.55s-2.35-1.46-8.24-1.92" class="cls-35"/>
      <path d="M257.71 168.38s-9.15 7.51-12.54.84 9.14-4.22 12.54-.84z" class="cls-30"/>
      <path d="M261.92 168.62s-2.62-.89-8.46 0" class="cls-35"/>
      <path d="M258.65 181.88s-10.5 5.47-12.44-1.76 9.79-2.29 12.44 1.76z" class="cls-30"/>
      <path d="M262.73 183s-2.38-1.41-8.28-1.74" class="cls-35"/>
      <path d="M264.36 160.5s2.68-11.54 9.43-8.31-4.65 8.96-9.43 8.31z" class="cls-30"/>
      <path d="M260.86 162.87s2.62-.89 6.72-5.15" class="cls-35"/>
      <path d="M266 174.72s2.68-11.53 9.43-8.3-4.69 8.95-9.43 8.3z" class="cls-30"/>
      <path d="M262.46 177.1s2.63-.89 6.72-5.16" class="cls-35"/>
      <path d="M244.3 188.25a1.8 1.8 0 0 0-1.79 2c.12.9.34 2.38.75 4.18 3.92 17.29 28.07 19.64 34.87 3.27a24.37 24.37 0 0 0 1.8-7.55 1.8 1.8 0 0 0-1.8-1.92z" class="cls-5"/>
      <path d="M277.74 188.25s-13.25-8.73-32.48 0z" class="cls-22"/>
    </g>
  </g>
</svg>
