<svg xmlns="http://www.w3.org/2000/svg" xmlns:xlink="http://www.w3.org/1999/xlink" viewBox="0 0 396 341.5">
  <defs>
    <style>
      .cls-5,.cls-6,.cls-7{fill:#faa2c0}.cls-6{opacity:.31}.cls-11,.cls-25,.cls-6,.cls-7{mix-blend-mode:multiply}.cls-7{opacity:.17}.cls-11,.cls-8{fill:#c754df}.cls-9{fill:#227dfb}.cls-10{fill:#393650}.cls-11{opacity:.49}.cls-13{fill:#3e70d7}.cls-20,.cls-25{fill:#9488f7}.cls-21{fill:#fa708a}.cls-23{fill:#6018cf}.cls-25{opacity:.57}
    </style>
    <clipPath id="clip-path" transform="translate(0 -15.95)">
      <path fill="none" d="M68 357.56s309.66 32.94 319.91-143.37S322.45-29.93 260.28 12.05s-83 150-153.19 160.82C-36.57 195.06-13.15 337.28 68 357.56z"/>
    </clipPath>
    <linearGradient id="New_Gradient_Swatch_3" x1="308.16" x2="310.39" y1="40.5" y2="40.5" gradientUnits="userSpaceOnUse">
      <stop offset="0" stop-color="#69f0ae"/>
      <stop offset="1" stop-color="#16df82"/>
    </linearGradient>
    <linearGradient id="New_Gradient_Swatch_3-2" x1="302.96" x2="317.56" y1="37" y2="37" xlink:href="#New_Gradient_Swatch_3"/>
    <linearGradient id="New_Gradient_Swatch_3-3" x1="307.24" x2="317.54" y1="37.01" y2="37.01" xlink:href="#New_Gradient_Swatch_3"/>
    <linearGradient id="New_Gradient_Swatch_3-4" x1="302.96" x2="317.52" y1="34.95" y2="34.95" xlink:href="#New_Gradient_Swatch_3"/>
    <linearGradient id="New_Gradient_Swatch_3-5" x1="312.9" x2="317.56" y1="36.7" y2="36.7" xlink:href="#New_Gradient_Swatch_3"/>
  </defs>
  <g style="isolation:isolate">
    <g id="Layer_2" data-name="Layer 2">
      <g id="Layer_2-2" clip-path="url(#clip-path)" data-name="Layer 2">
        <path d="M70.63 353.53s314.14 33.39 324.58-145.36S309.61 3.23 246.28 45.79s-66.84 110.45-138.41 121.13C-60.38 192 1.51 347.87 70.63 353.53z" transform="translate(0 -15.95)" style="mix-blend-mode:overlay" fill="#83f0ff" opacity=".3"/>
        <path d="M267.18 152.14s4.64-6.71 7.62-7.87 5.36-1.71 4.5 2.25-10.62 10-10.62 10zm-53.69-15.27s5.07 8.43 2.62 15.29l10.45-1.25s-4.26-9.84-3.34-11.76-9.73-2.28-9.73-2.28z" class="cls-5" transform="translate(0 -15.95)"/>
        <path d="M216.77 148.57a21.63 21.63 0 0 0-1.81-8.69l.06-.31 4-2.23.44.06 3.32 3.14.53 1.18a41.63 41.63 0 0 0 1.56 5c-1.54-.04-5.45.06-8.1 1.85z" class="cls-6" transform="translate(0 -15.95)"/>
        <path d="M213.14 139.6c4.63 6 12.22 7.74 16.94 4s4.8-11.59.17-17.54-12.22-7.73-16.95-4-4.8 11.6-.16 17.54z" class="cls-5" transform="translate(0 -15.95)"/>
        <path d="M211.26 124.37c-1.4 4-.48 9.12 2.79 13.32 4.64 5.94 12.22 7.73 16.95 4a8.93 8.93 0 0 0 2-2.3 9.23 9.23 0 0 1-3 4.22c-4.72 3.74-12.31 2-16.94-4-3.75-4.92-4.36-11.12-1.8-15.24z" class="cls-7" transform="translate(0 -15.95)"/>
        <path d="M214.18 182a99.76 99.76 0 0 0-4.05 18.52c-.72 5.65-2.6 19.88-1.76 28.64.64 6.68 4.82 7.28 8.36 4.09 7.85-7.06 15.37-40.33 14.29-46.78S214.18 182 214.18 182z" class="cls-5" transform="translate(0 -15.95)"/>
        <path d="M199.4 270.59a54.61 54.61 0 0 0-2.29 6.09 2.87 2.87 0 0 0 1.7 3.32l11.83 4.92a1.58 1.58 0 0 0 1.79-2.48 12.73 12.73 0 0 0-4.06-2.88c-7.3-3.68-4.93-8.21-4.93-8.21z" class="cls-8" transform="translate(0 -15.95)"/>
        <path d="M212.12 225.86s-5.77 1.79-7.82 9.29-5.78 38-5.78 38l4.4 1.25 11.6-32.25c1.52-4.39 3.73-9 3.95-13.64l.2-4.38z" class="cls-5" transform="translate(0 -15.95)"/>
        <path d="M208.46 211.79c0-21.33 4.83-29.81 4.83-29.81s17.53-2 18.61 4.47c.67 4-2.83 18.19-6.77 30.15a38.27 38.27 0 0 0-16.67-4.81z" class="cls-9" transform="translate(0 -15.95)"/>
        <path d="M219.27 127.8s-6.44 2.08-3.58 9.79a12.57 12.57 0 0 1 .67 6.86s-12.37-2.65-9.77-16.11c1.52-7.89 12.68-.54 12.68-.54z" class="cls-10" transform="translate(0 -15.95)"/>
        <path d="M235.15 260.83a7.66 7.66 0 0 0-1.38 4.1 2.7 2.7 0 0 0 2.42 2.56l12.05 1.29a1.5 1.5 0 0 0 1-2.74 11.92 11.92 0 0 0-4.45-1.52c-7.61-1.38-6.66-6.13-6.66-6.13z" class="cls-8" transform="translate(0 -15.95)"/>
        <path d="M222.26 191.37s-4.16 4.89.34 10.7c12.77 16.48 33.93 27.58 33 17.07s-17-29.14-22.6-32.59-10.74 4.82-10.74 4.82z" class="cls-5" transform="translate(0 -15.95)"/>
        <path d="M246.1 219s-3.41 1.95-5.79 8.93-5 32.56-5 32.56l3.55.86L251 234.7c1.78-4.06 4.57-8.37 4.78-12.8l-.16-4.14z" class="cls-5" transform="translate(0 -15.95)"/>
        <path d="M221.37 191.37s5.92-8.21 11.58-4.82c3.08 1.85 9.28 8.25 14.42 15.39-4.41 2.29-11.17 6.41-15.82 12.09a60.74 60.74 0 0 1-9-9.28c-4.45-5.81-1.18-13.38-1.18-13.38z" class="cls-9" transform="translate(0 -15.95)"/>
        <path d="M226.59 148.5s-1.33 2.68-10.64 1.34a3.91 3.91 0 0 0-3.54 1.34c-1.77 1.78-2.66 34.37-1.77 38.84 0 0 19.49 4.91 28.8-1.34 0 0-5.76-40.18-12.85-40.18z" class="cls-8" transform="translate(0 -15.95)"/>
        <path d="M189.37 192.25c-2.66 4.91.44 4.47-1.33 8.93-1.65 4.15 1.33 5.36 3.1 2.23 2.66-4.68 3.1-11.16 3.1-11.16s-4.24-1.08-4.87 0z" class="cls-5" transform="translate(0 -15.95)"/>
        <path d="M214.62 132s8.86-2.24 13.3-5.36 5.76-8.48 0-9.82-15.51-1.34-18.17 7.59c-3.02 10.12 4.87 7.59 4.87 7.59z" class="cls-10" transform="translate(0 -15.95)"/>
        <path d="M216.51 133s-2.51-3.84-3.69-.76 3 5.33 3.56 4.06" class="cls-5" transform="translate(0 -15.95)"/>
        <path d="M212 122.69s-3.19-5.46-6.93-2.51-3.25 12.33 2 11 4.93-8.49 4.93-8.49z" class="cls-10" transform="translate(0 -15.95)"/>
        <path d="M223.14 147.71l26.11 4.71 22.92-12.61-4.3-6.29-19.64 9.77-20.97-9.91-4.12 14.33z" class="cls-8"/>
        <path d="M230.13 137.46l4.71 12.6 3.27.35-7.98-12.95zm-15.06 13.84l-4.56 4.6-.32 14.6 4.88-19.2z" class="cls-11"/>
        <path d="M213.58 133.89l-17.32 22.79-8.67 20.86 6.74 3.39 8.67-18.91 12.51-10.19-1.93-17.94z" class="cls-8"/>
        <path d="M230.13 196l-2.94 14.43 4.71 3.72s2.81-4 3.4-4.24-5.17-13.91-5.17-13.91z" transform="translate(0 -15.95)" style="mix-blend-mode:multiply" fill="#227dfb" opacity=".5"/>
        <path d="M328.26 22.7L309.04 3.26 294.63 38.1l33.63-15.4z" class="cls-13"/>
        <path fill="none" stroke="#393650" stroke-linecap="round" stroke-miterlimit="10" stroke-width="2.53" d="M307.29 1.27l51.35 53.24"/>
        <g id="Educate" fill="none" stroke-linejoin="round" stroke-width=".5">
          <g id="Out">
            <path id="Underbody" stroke="url(#New_Gradient_Swatch_3)" d="M308.41 41.77l1.73-2.18-.86-.35a.11.11 0 0 0-.14.08s-.75 2.47-.73 2.45z" transform="translate(0 -15.95)"/>
            <path id="Wing_Base" stroke="url(#New_Gradient_Swatch_3-2)" d="M303.29 37.79l4.13.8a.1.1 0 0 1 .07.07s.87 3.13.9 3.13.75-2.51.75-2.51a.1.1 0 0 1 .11-.06l4.73 1.9a.08.08 0 0 0 .11 0l3.2-8.79v-.06l-14 5.39a.1.1 0 0 0 0 .13z" data-name="Wing Base" transform="translate(0 -15.95)"/>
          </g>
          <g id="In">
            <path id="Body" stroke="url(#New_Gradient_Swatch_3-3)" d="M307.49 38.67a.1.1 0 0 1 0-.1l9.72-6.33s.05 0 0 0l-8.09 6.89s-.76 2.57-.77 2.57-.86-3.03-.86-3.03z" transform="translate(0 -15.95)"/>
            <path id="Semi-Wing-Left_Upper" stroke="url(#New_Gradient_Swatch_3-4)" d="M312.31 35.46l4.93-3.22c.06 0 0 0 0 0l-14 5.38s-.06.09 0 .08z" data-name="Semi-Wing-Left Upper" transform="translate(0 -15.95)"/>
            <path id="Semi-Wing-Right_Upper" stroke="url(#New_Gradient_Swatch_3-5)" d="M313.15 35.82l4.13-3.52-3.23 8.86h-.08z" data-name="Semi-Wing-Right Upper" transform="translate(0 -15.95)"/>
          </g>
        </g>
        <path d="M177.67 211.08s4.65-6.71 7.63-7.88 5.36-1.71 4.49 2.26-10.61 10-10.61 10z" class="cls-5" transform="translate(0 -15.95)"/>
        <path d="M126.89 183.32l-1-6.35s-6.14.55-10.13 11.71-8.36 15.63-16.76 19.64-16.84 13.4-8 24.56 18.17 15.63 24.81 9.82 15.09-36.64 15.09-36.64z" class="cls-10" transform="translate(0 -15.95)"/>
        <path d="M124 195.8s5.07 8.43 2.62 15.29l10.45-1.25s-4.26-9.84-3.35-11.76-9.72-2.28-9.72-2.28z" class="cls-5" transform="translate(0 -15.95)"/>
        <path d="M127.26 207.5a21.55 21.55 0 0 0-1.8-8.68c0-.21.05-.32.05-.32l4-2.23.44.07 3.33 3.14.52 1.17a41.08 41.08 0 0 0 1.56 5c-1.53-.03-5.44.07-8.1 1.85z" class="cls-6" transform="translate(0 -15.95)"/>
        <path d="M123.63 198.54c4.64 5.94 12.22 7.73 17 4s4.8-11.59.16-17.54-12.22-7.73-16.94-4-4.85 11.59-.22 17.54z" class="cls-5" transform="translate(0 -15.95)"/>
        <path d="M121.75 183.3c-1.4 4-.47 9.12 2.8 13.32 4.63 5.94 12.22 7.73 16.94 4a8.79 8.79 0 0 0 2-2.3 9.25 9.25 0 0 1-3 4.22c-4.73 3.74-12.31 1.95-17-4-3.68-4.91-4.3-11.12-1.74-15.24z" class="cls-7" transform="translate(0 -15.95)"/>
        <path d="M124.68 240.92a100.2 100.2 0 0 0-4.06 18.52c-.72 5.65-2.59 19.87-1.75 28.63.64 6.68 4.82 7.28 8.36 4.09 7.84-7.06 15.36-40.33 14.28-46.78s-16.83-4.46-16.83-4.46z" class="cls-20" transform="translate(0 -15.95)"/>
        <path d="M109.89 329.52a55.45 55.45 0 0 0-2.29 6.09 2.86 2.86 0 0 0 1.71 3.32l11.82 4.93a1.58 1.58 0 0 0 1.8-2.48 12.54 12.54 0 0 0-4.06-2.88c-7.3-3.68-4.94-8.22-4.94-8.22z" class="cls-21" transform="translate(0 -15.95)"/>
        <path d="M122.61 284.8s-5.76 1.78-7.81 9.28-5.79 38-5.79 38l4.4 1.26L125 301.11c1.52-4.39 3.73-9 4-13.63l.2-4.39z" class="cls-20" transform="translate(0 -15.95)"/>
        <path d="M145.65 319.77a7.62 7.62 0 0 0-1.39 4.09 2.7 2.7 0 0 0 2.43 2.56l12.05 1.29a1.49 1.49 0 0 0 1-2.73 11.68 11.68 0 0 0-4.45-1.52c-7.61-1.39-6.66-6.14-6.66-6.14z" class="cls-21" transform="translate(0 -15.95)"/>
        <path d="M132.75 250.3s-4.16 4.9.34 10.71c12.77 16.47 33.93 27.58 33 17.07s-17-29.2-22.69-32.59-10.65 4.81-10.65 4.81z" class="cls-20" transform="translate(0 -15.95)"/>
        <path d="M156.6 278s-3.41 2-5.8 8.94-5 32.55-5 32.55l3.55.86 12.19-26.67c1.78-4.07 4.56-8.38 4.77-12.81l-.15-4.13z" class="cls-20" transform="translate(0 -15.95)"/>
        <path d="M140.19 209.9a3.77 3.77 0 0 0-4.59-1.42c-1.42.56-4.12 1-9.15.29a3.93 3.93 0 0 0-3.55 1.34c-1.77 1.79-2.66 34.38-1.77 38.84 0 0 19.5 4.91 28.8-1.34 0 0-4.15-28.97-9.74-37.71z" class="cls-9" transform="translate(0 -15.95)"/>
        <path d="M99.86 251.18c-2.66 4.92.45 4.47-1.33 8.93-1.64 4.15 1.33 5.36 3.1 2.24 2.66-4.69 3.11-11.17 3.11-11.17s-4.29-1.07-4.88 0z" class="cls-5" transform="translate(0 -15.95)"/>
        <path d="M128.66 186.45s9.31 2.23 13.74-.9 1.33-8-4.43-9.37-15.07-1.79-17.73 7.14c-3.01 10.14 8.42 3.13 8.42 3.13z" class="cls-10" transform="translate(0 -15.95)"/>
        <path d="M133.64 206.65l26.11 4.71 22.91-12.62-4.29-6.29-19.65 9.77-20.97-9.91-4.11 14.34z" class="cls-9"/>
        <path d="M122.34 211.05l-15.59 20.51-8.66 20.86 6.74 3.39 8.66-18.91L126 226.71l-1.61-15.08a1.15 1.15 0 0 0-2.05-.58z" class="cls-9" transform="translate(0 -15.95)"/>
        <path d="M140.63 254.92l-2.46 12.23s11.32 10.38 16.64 12.61c.21.09 0 0 0-.45s-6.58-6.09-10.64-12.95c-2.79-4.72-3.54-11.44-3.54-11.44z" transform="translate(0 -15.95)" style="mix-blend-mode:multiply" fill="#9488f7" opacity=".49"/>
        <path d="M130.88 184.21s-9.31 6.25-4.4 16.62c.44.93 1.43 7.47.41 7.49l-9.3-4 1.77-15.18 3.1-4.92z" class="cls-10" transform="translate(0 -15.95)"/>
        <path d="M127.17 189.59s-2.75-3.24-4 .14 3.32 5.85 3.9 4.45M300.78 80.61s5.07 8.43 2.62 15.3l10.45-1.26s-4.26-9.84-3.34-11.75-9.73-2.29-9.73-2.29z" class="cls-5" transform="translate(0 -15.95)"/>
        <path d="M304.06 92.31a21.71 21.71 0 0 0-1.81-8.68 2.92 2.92 0 0 1 .06-.32l4-2.23.43.07 3.33 3.14.52 1.17a43.79 43.79 0 0 0 1.57 5c-1.54-.03-5.45.07-8.1 1.85z" class="cls-6" transform="translate(0 -15.95)"/>
        <path d="M300.43 83.35c4.63 5.94 12.22 7.73 16.94 4s4.8-11.59.17-17.53-12.22-7.74-17-4-4.75 11.58-.11 17.53z" class="cls-5" transform="translate(0 -15.95)"/>
        <path d="M298.55 68.11c-1.4 4-.48 9.13 2.79 13.32 4.63 5.95 12.22 7.73 17 4a8.93 8.93 0 0 0 2-2.3 9.18 9.18 0 0 1-3 4.22c-4.72 3.74-12.31 2-16.94-4-3.8-4.91-4.4-11.12-1.85-15.24z" class="cls-7" transform="translate(0 -15.95)"/>
        <path d="M302.14 74.29a4 4 0 0 1 3.26-2.16c2.27-.09 11.69-3.52 12.38-9.62a12.55 12.55 0 0 1-2.82 1.4s2.28-1.51 2.07-3.25a12 12 0 0 1-4 1.72 3.08 3.08 0 0 0 1.31-2.28s-1.85 2.16-3.58 2.37-8 .62-11.5 3.87-5.18 5.86-4.08 11 5.21 1.41 6.96-3.05z" class="cls-10" transform="translate(0 -15.95)"/>
        <path d="M301.91 125.73a80.84 80.84 0 0 0-4.49 18.52c-.73 5.65-1.51 20.64 0 28.63 1.26 6.59 4.82 7.29 8.36 4.09 7.85-7.06 15.37-40.33 14.29-46.78s-18.16-4.46-18.16-4.46z" class="cls-23" transform="translate(0 -15.95)"/>
        <path d="M288.46 214.33a55.45 55.45 0 0 0-2.29 6.09 2.87 2.87 0 0 0 1.7 3.32l11.83 4.93a1.57 1.57 0 0 0 1.79-2.48 12.43 12.43 0 0 0-4.06-2.88c-7.3-3.68-4.93-8.21-4.93-8.21z" class="cls-21" transform="translate(0 -15.95)"/>
        <path d="M301.18 169.61a13.17 13.17 0 0 0-8.26 9.29c-2.05 7.5-5.79 38-5.79 38l6.62 1.26 11.16-32.26a48.69 48.69 0 0 0 2.62-13.63l.21-4.39z" class="cls-23" transform="translate(0 -15.95)"/>
        <path d="M306.55 71.54s-6.43 2.09-3.57 9.79a8.86 8.86 0 0 1-.22 6.86s-10-8.45-7.55-16.11 11.34-.54 11.34-.54z" class="cls-10" transform="translate(0 -15.95)"/>
        <path d="M322.44 204.58a7.57 7.57 0 0 0-1.38 4.1 2.68 2.68 0 0 0 2.42 2.55l12 1.3a1.5 1.5 0 0 0 1-2.74 11.92 11.92 0 0 0-4.46-1.52c-7.6-1.38-6.65-6.14-6.65-6.14z" class="cls-21" transform="translate(0 -15.95)"/>
        <path d="M309.55 135.11s-4.16 7.58.34 13.39c12.77 16.47 33.93 24.9 33 14.39s-17-29.2-22.7-32.59-10.64 4.81-10.64 4.81z" class="cls-23" transform="translate(0 -15.95)"/>
        <path d="M333.39 162.78s-3.41 1.94-5.79 8.93-5.45 32.55-5.45 32.55l4.87.86 13.08-26.67a36.07 36.07 0 0 0 3-12.81l-.15-4.13z" class="cls-23" transform="translate(0 -15.95)"/>
        <path d="M346.22 71.23s1.07-13.19 4.09-12.69 6.54.51 6.54 4.57-8.22 12.08-8.22 12.08zm-42.43 5.48s-2.51-3.85-3.68-.77 3 5.33 3.56 4.06" class="cls-5" transform="translate(0 -15.95)"/>
        <path d="M316.19 93.77a2.61 2.61 0 0 0-3.3-.71c-1.24.65-3.94 1.34-9.65.52a3.91 3.91 0 0 0-3.54 1.34c-1.6 1.61-2.84 34.39-1.45 43.47a2.65 2.65 0 0 0 2.42 2.24c4.6.35 16.7.8 24.42-3.22a2.67 2.67 0 0 0 1.39-2.75c-1.02-7.2-5.11-34.16-10.29-40.89z" class="cls-20" transform="translate(0 -15.95)"/>
        <path d="M317.79 91.25l21.37-13.54 13.71-22.4-6.82-3.32-12.27 18.29-19.46 6.46 3.47 14.51z" class="cls-20"/>
        <path d="M276.21 137.78c-2.66 4.91.45 4.47-1.33 8.93-1.64 4.15 1.33 5.36 3.1 2.23 2.66-4.68 3.11-11.16 3.11-11.16s-4.29-1.08-4.88 0z" class="cls-5" transform="translate(0 -15.95)"/>
        <path d="M318.75 147.6l-2.94 7.46s8.26 7.72 14.9 10.4c0 0-6.13-6.89-8-9.37a29.32 29.32 0 0 1-3.96-8.49z" transform="translate(0 -15.95)" style="mix-blend-mode:multiply" fill="#6018cf" opacity=".36"/>
        <path d="M317.78 80.56l3.02 8.78 1.94-.99-4.96-7.79z" class="cls-25"/>
        <path d="M300.87 77.64l-17.32 22.79-8.67 20.85 6.74 3.4 8.66-18.92 12.52-10.18-1.93-17.94z" class="cls-20"/>
        <path d="M302.36 95.05l-4.56 4.6-.32 14.6 4.88-19.2z" class="cls-25"/>
        <path d="M136.64 336.68v-1.78a6.89 6.89 0 0 1 6.87-6.92h13.29a6.9 6.9 0 0 0 6.87-6.92 6.89 6.89 0 0 1 6.87-6.92h2.21a6.9 6.9 0 0 0 6.87-6.92v-1.79a6.89 6.89 0 0 1 6.87-6.92h8.86a6.9 6.9 0 0 0 6.87-6.92 6.89 6.89 0 0 1 6.86-6.92h7.09a6.89 6.89 0 0 0 6.87-6.92V276a6.9 6.9 0 0 1 6.87-6.92h13.74a6.89 6.89 0 0 0 6.86-6.92 6.9 6.9 0 0 1 6.87-6.92h3.55a6.89 6.89 0 0 0 6.86-6.92v-1.82a6.89 6.89 0 0 1 6.87-6.92h9.75a6.9 6.9 0 0 0 6.87-6.92 6.89 6.89 0 0 1 6.87-6.92h10.19a6.89 6.89 0 0 0 6.86-6.92V217a6.9 6.9 0 0 1 6.87-6.92h44.49a20.05 20.05 0 0 1 20 20.13v107.1a20.05 20.05 0 0 1-20 20.13H105.84a6.88 6.88 0 0 1-6.84-6.92 6.89 6.89 0 0 1 6.86-6.92h23.93a6.89 6.89 0 0 0 6.85-6.92zm168.82-96.89l.34-.21h-.34z" class="cls-13" transform="translate(0 -15.95)"/>
        <path d="M140.63 196.4l4.71 12.15 3.26.79-7.97-12.94zm-15.07 14.28l-4.56 4.16-.31 14.59 4.87-18.75z" class="cls-11"/>
        <path d="M377.34 213.29a20.17 20.17 0 0 1 9.2 17v107.02a20.05 20.05 0 0 1-20 20.13H125.41c131.99-4.39 215.14-93.5 251.93-144.15z" transform="translate(0 -15.95)" style="mix-blend-mode:multiply" fill="#fa708a" opacity=".22"/>
        <text transform="rotate(-31.31 680.708 -168.044)" style="mix-blend-mode:luminosity" fill="#fa708a" font-family="Muli-Black,Muli" font-size="32.73" font-weight="800" letter-spacing=".09em">
          S<tspan x="24.77" y="0" letter-spacing=".01em">T</tspan><tspan x="45.88" y="0" letter-spacing=".1em">A</tspan><tspan x="74.32" y="0" letter-spacing=".08em">R</tspan><tspan x="100.31" y="0" letter-spacing=".1em">T UP</tspan>
        </text>
      </g>
    </g>
  </g>
</svg>
