<svg xmlns="http://www.w3.org/2000/svg" xmlns:xlink="http://www.w3.org/1999/xlink" viewBox="0 0 960.04 400">
  <defs>
    <linearGradient id="b" x2="1416.41" y1="128.59" y2="128.59" gradientUnits="userSpaceOnUse">
      <stop offset="0" stop-color="#651fff"/>
      <stop offset="1" stop-color="#a0f"/>
    </linearGradient>
    <linearGradient id="a" x1="333.59" x2="345.55" y1="435.33" y2="434.41" gradientTransform="rotate(-12.7 -669.3 969.89)" gradientUnits="userSpaceOnUse">
      <stop offset=".24" stop-color="#f2af83"/>
      <stop offset=".73" stop-color="#f2af83"/>
    </linearGradient>
    <linearGradient id="d" x1="-765.39" x2="-763.37" y1="1302.34" y2="1302.34" gradientTransform="rotate(-102.7 -709.45 378.94)" xlink:href="#a"/>
    <linearGradient id="e" x1="409.24" x2="657.58" y1="282.57" y2="-147.58" xlink:href="#b"/>
    <linearGradient id="c" x1="618.33" x2="634.92" y1="73.09" y2="73.09" gradientUnits="userSpaceOnUse">
      <stop offset=".24" stop-color="#ff9b38"/>
      <stop offset=".73" stop-color="#ff9b38"/>
    </linearGradient>
    <linearGradient id="f" x1="618.08" x2="633.85" y1="351.61" y2="351.61" xlink:href="#c"/>
    <linearGradient id="g" x1="727.7" x2="751.23" y1="718.76" y2="716.95" gradientTransform="rotate(-20.79 -696.76 686.68)" xlink:href="#a"/>
    <linearGradient id="h" x1="-1050.54" x2="-1046.56" y1="1702.36" y2="1702.36" gradientTransform="rotate(-110.79 -710.37 366.94)" xlink:href="#a"/>
  </defs>
  <g data-name="Layer 2">
    <g data-name="Layer 3">
      <g data-name="Backdrop">
        <path fill="#fafafa" d="M952 399.5H8a8 8 0 0 1-8-8V0h960v391.5a8 8 0 0 1-8 8z" data-name="background"/>
        <g data-name="Back Wall">
          <path fill="#fafafa" d="M80.41.38h799.25v336.25H80.41z"/>
          <path fill="#ccc" d="M879.29.75v335.5H80.79V.75h798.5M880 0H80v337h800V0z"/>
        </g>
        <g data-name="Floor">
          <path fill="#fff" d="M8.31 399.63a7.76 7.76 0 0 1-7.48-5.24 7.32 7.32 0 0 1 2.55-8.34l76.77-49.67h799.78l76.79 49.69a7.31 7.31 0 0 1 2.53 8.32 7.77 7.77 0 0 1-7.48 5.24z"/>
          <path fill="#ccc" d="M879.82 336.75l76.67 49.61a7 7 0 0 1 2.4 7.91 7.37 7.37 0 0 1-7.12 5H8.31a7.38 7.38 0 0 1-7.13-5 7 7 0 0 1 2.41-7.91l76.67-49.61h799.56m.18-.75H80L3.15 385.75C-2.94 390.48.51 400 8.31 400h943.46c7.8 0 11.25-9.52 5.15-14.25L880 336z"/>
        </g>
        <path fill="url(#b)" d="M960 257.19a117.53 117.53 0 0 1-28.53-13c-33-20.75-46.53-52.64-51.43-66.51-29.65 20.15-74.8 44.34-131.9 49.2-96.69 8.25-120.41-48-215.38-45.51-109.39 2.96-143.18 79.17-214.76 51.16-43.69-17.1-61.45-57.61-104.17-52.08-27.92 3.61-37.84 23.17-65.71 22.76-29.51-.45-53-22.91-67.63-40.68-13.31 44.86-38.85 67.1-64.28 66.94A35.68 35.68 0 0 1 0 225.24V0h960z"/>
        <path fill="#f5edc9" d="M246.94 139a16.68 16.68 0 1 0-5.72-32.62 26.58 26.58 0 0 0-51.58-.3 17.15 17.15 0 0 0-3.68-.42 16.68 16.68 0 0 0-1.32 33.34z" data-name="Cloud Yellow"/>
        <path fill="#f2f2f2" d="M781.36 158.79a12.48 12.48 0 0 0-.66-24.95 12.73 12.73 0 0 0-3.62.53 19.9 19.9 0 0 0-38.62-.22 12.48 12.48 0 1 0-3.74 24.62z" data-name="Cloud White"/>
        <path fill="none" stroke="#333" stroke-miterlimit="10" stroke-width=".5" d="M80.51 162.53V0"/>
        <path fill="none" stroke="#4d4d4d" stroke-miterlimit="10" stroke-width=".5" d="M879.46 177.72V0"/>
      </g>
      <g data-name="Pencil Holder">
        <ellipse cx="224.25" cy="343.57" fill="#e6e6e6" rx="37.73" ry="4.59"/>
        <ellipse cx="224.25" cy="272.94" fill="#99acff" rx="37.53" ry=".89"/>
        <path fill="#ff7882" d="M220.98 165.25l23.12 2.04-15.14 171.67-23.12-2.04z"/>
        <path fill="none" stroke="#fff" stroke-linecap="round" stroke-miterlimit="10" stroke-width=".81" d="M240.94 172.86l-10.25-.9m9.84 5.58l-5.57-.49m5.15 5.17l-5.57-.49m5.16 5.17l-5.57-.5m5.16 5.17l-5.57-.49m5.14 5.28l-10.24-.9m9.83 5.58l-5.57-.49m5.16 5.17l-5.57-.49m5.16 5.17l-5.57-.49m5.15 5.16l-5.57-.49m5.15 5.28l-10.25-.9m9.84 5.58l-5.57-.49m5.15 5.17l-5.56-.49m5.15 5.17l-5.57-.49m5.16 5.16l-5.57-.49m5.15 5.28l-10.25-.9m9.83 5.58l-5.57-.49m5.16 5.17l-5.57-.49m5.16 5.17l-5.57-.49m5.15 5.17l-5.57-.5m5.15 5.28l-10.25-.9m9.84 5.58l-5.57-.49m5.16 5.17l-5.57-.49m5.15 5.17l-5.57-.49m5.16 5.17l-5.57-.5"/>
        <path fill="url(#a)" d="M191.54 227.85l4.12-8.89 7.58 6.25-1.62 6.74-5.23 1.18-4.85-5.28z"/>
        <path fill="#ff7882" d="M207.43 267.38a6.46 6.46 0 0 1-.78.21c-.38.09-.67.13-.79.15-1.7.25-4.29.24-5.72-1.78l9.57 42.44c1.43 2 4 2 5.72 1.78.13 0 .41-.06.8-.15a7.07 7.07 0 0 0 .78-.21c1.64-.49 4-1.62 4.4-4.06l-9.58-42.44c-.42 2.44-2.76 3.57-4.4 4.06z"/>
        <path fill="#2e2e2e" d="M195.39 221.33c.12 0 .41-.06.79-.15l.78-.2c.12-.03.53-.18.81-.29l-2.11-1.69-1.14 2.46.87-.13z"/>
        <path fill="#ffa02b" d="M191.53 227.89l3.9-.88 17.83 79.04-3.9.88z"/>
        <path fill="#ffa02b" d="M195.43 227.01l3.9-.88 17.83 79.05-3.9.88z"/>
        <path fill="#ffa02b" d="M199.33 226.13l3.9-.88 17.83 79.05-3.9.88z"/>
        <path fill="#e6e6e6" d="M209.74 308.42l-.34-1.48 11.7-2.63.33 1.47z"/>
        <path fill="#b3b3b3" d="M217.94 305.9l-.33-1.48 3.29-.74.33 1.48z"/>
        <path fill="#999" d="M218.88 306.35l-.33-1.47.45-.1.33 1.47zm1.32-.29l-.33-1.48.61-.14.33 1.48z"/>
        <path fill="url(#d)" d="M191.54 227.85l11.7-2.64s-5.16 5.79-11.7 2.64z"/>
        <path fill="#99cfff" d="M251.28 343.29h-54.06l-10.5-70.23h75.06l-10.5 70.23z"/>
      </g>
      <g data-name="Computer">
        <ellipse cx="480.04" cy="341.25" fill="#e6e6e6" data-name="Shadow" rx="68.55" ry="4.4"/>
        <path fill="#ccc" d="M528.91 331.3H495.2a4 4 0 0 1-4-4v-41.72h-22v41.72a4 4 0 0 1-4 4h-33.71a9.14 9.14 0 0 0-9.14 9.14h115.7a9.14 9.14 0 0 0-9.14-9.14z"/>
        <path fill="#b3b3b3" d="M495.3 293h-30.21a3.87 3.87 0 0 1-2.91-1l-3.75-4.8c-.83-1.05.69-2.19 2.9-2.19h37.73c2.22 0 3.73 1.14 2.91 2.19l-3.76 4.8a3.83 3.83 0 0 1-2.91 1z"/>
        <rect width="360.9" height="224.42" x="299.59" y="61.58" fill="#e6e6e6" rx="5.54"/>
        <path fill="#b3b3b3" d="M488.24 279.93h-16.4c-2.59 0-4.69-1-4.69-2.27 0-1.26 2.1-2.27 4.69-2.27h16.4c2.59 0 4.69 1 4.69 2.27 0 1.26-2.1 2.27-4.69 2.27z"/>
        <path fill="#2e2e2e" d="M307.59 54h344.9a8 8 0 0 1 8 8v208.84h-360.9V62a8 8 0 0 1 8-8z"/>
        <rect width="348.77" height="197.12" x="305.65" y="60.07" fill="#fff" rx="6"/>
        <rect width="341.09" height="186.69" x="309.49" y="66.59" fill="url(#e)" rx="3.95"/>
        <path fill="#4d4d4d" d="M646.63 66.64a3.91 3.91 0 0 1 3.9 3.9v178.79a3.91 3.91 0 0 1-3.9 3.9H313.45a3.91 3.91 0 0 1-3.91-3.9V70.54a3.91 3.91 0 0 1 3.91-3.9h333.18m0-.1H313.45a4 4 0 0 0-4 4v178.79a4 4 0 0 0 4 4h333.18a4 4 0 0 0 4-4V70.54a4 4 0 0 0-4-4z"/>
        <path fill="url(#c)" d="M634.92 84.67l-8.29-6.4-8.3 6.4V61.51h16.59v23.16z"/>
        <text fill="#fff" font-family="Poppins-Regular,Poppins" font-size="20" letter-spacing=".01em" transform="matrix(.95 0 0 1 329.38 213.03)">
          with the <tspan x="87.6" y="0" font-family="Poppins-Bold,Poppins" font-weight="700">TDC</tspan><tspan x="129.8" y="0"> Toolkit.</tspan>
        </text>
        <text fill="#fff" font-family="Poppins-Light,Poppins" font-size="34" font-weight="300" transform="matrix(.95 0 0 1 329.38 118.29)">
          Boost Your Startup<tspan font-family="Poppins-SemiBold,Poppins" font-size="46" font-weight="600"><tspan x="0" y="55.2">at home.</tspan></tspan>
        </text>
        <path fill="#fff" d="M422.48 270.84L641.42 54.76H537.6L318.65 270.84h103.83z" opacity=".4"/>
      </g>
      <g data-name="Book + Mark">
        <ellipse cx="591.34" cy="369.83" fill="#e6e6e6" rx="113.84" ry="7.31"/>
        <path fill="#e6e6e6" d="M668 324.67h-30.85v41.42H668v-4.66s-7.36-11.14 0-35.48z"/>
        <path fill="#284c4f" d="M648 325.3H509.74a23.29 23.29 0 1 0 0 46.57H648v-6.18s-11.75-13.28 0-33.95z"/>
        <path fill="#fff" d="M648 331.74H511a17 17 0 0 0 0 33.95h137s-11.72-13.28 0-33.95z"/>
        <path fill="none" stroke="#e6e6e6" stroke-linecap="round" stroke-miterlimit="10" stroke-width=".81" d="M648.03 341.56H504.18m143.85 7.03H504.18m143.85 7.02H504.18"/>
        <path fill="url(#f)" d="M633.85 362.41l-7.88-5.96-7.89 5.96v-21.6h15.77v21.6z"/>
        <path fill="#284c4f" d="M668.01 321.29H525.77l-19.98 4.38h142.24l19.98-4.38z"/>
        <path fill="#3d7478" d="M648.03 331.74v-6.07l19.98-4.38v4.66l-19.98 5.79zm0 40.13v-6.07l19.98-4.37v4.66l-19.98 5.78z"/>
      </g>
      <ellipse cx="259.74" cy="379.26" fill="#e6e6e6" rx="47.14" ry="6.74"/>
      <path fill="#a35233" d="M265.78 205.25c-5.44 1.83-8 6.43-9.27 13.41-1.06 5.68-.86 13.47-4.7 17.91-4.65 5.38-11.1 8.85-13.89 15.54-2.07 5-2.51 11.85.19 17 5.52 10.54 20.67 13.61 35.75 10.9 4.39-.78 16.47-7.74 17-26.47.3-10.41-6-17.58-6.76-24.65-1.05-10-.52-16.19-3-20.67-3.5-6.22-9.25-5.01-15.32-2.97z"/>
      <path fill="#fad161" d="M272.86 235.3s1.66 4.57-5.84 12a128.4 128.4 0 0 0-11.38 12.7l21.72 17.41-7 5.28s-28.57-16.85-28.27-23.44 26.58-37.86 30.77-23.95z"/>
      <path fill="#3d7478" d="M285.41 374.74s12.89 6.57 17.06 6.49 1.14 1.8-3.39 2.37-6.93-.38-9.72-1a24.77 24.77 0 0 1-8.76-3.75h-.08c-1.7-1.25-1.74-4 .38-4z"/>
      <path fill="#f2af83" d="M285.41 374.74l-.28-3.38-4.49.36.26 3.13 4.51-.11z"/>
      <path fill="#f2af83" d="M285.41 374.74s2.5 1.23 7.95 3.7c5.14 2.33 1.28 2.18-1.52 1.52a33.9 33.9 0 0 1-10.94-5.11zm-7.53-101.91l-14.78 3.65s5 40.15 15.2 52.37c0 0-.14 39.28 2.6 46l4.51-.11s4.34-39.69 5.29-45.58c1.14-7.07-3.7-20.84-12.82-56.33z"/>
      <path fill="#cc946e" d="M289 315.09c-3.13 0-9.84.1-17.38.35a73.85 73.85 0 0 0 2.71 6.79 71.15 71.15 0 0 0 14.9-6.17c-.1-.32-.18-.64-.23-.97z"/>
      <path fill="#f2af83" d="M278.07 208.37c3.31 3 4.75 8.84 2.28 12.66s-8 3.78-11.56.69c-3.14-2.74-4.72-7.72-3.24-11.37 1.92-4.73 8.39-5.77 12.52-1.98z"/>
      <path fill="#f2af83" d="M272.81 213.33l-7.68-.42-1 18.58a4.82 4.82 0 0 0 4.56 5.07 4.82 4.82 0 0 0 5.08-5.07z"/>
      <path fill="#a35233" d="M273.09 206.69s1.4 11.91-9.19 12.25c-7.39.24-3.29-18.47 6.71-16.74 14.06 2.43 9.91 9.58 9.91 9.58s-2.2-5.27-7.43-5.09z"/>
      <path fill="#fff" d="M265.5 219.2a1.4 1.4 0 1 0 .75-1.82 1.39 1.39 0 0 0-.75 1.82z"/>
      <path fill="#cc946e" d="M273.45 225.52l-5.13-3.67 5.06 2.32.07 1.35z"/>
      <path fill="#ffa02b" d="M260.24 212.26a6.8 6.8 0 0 1 3.08-7.12"/>
      <path fill="#3d7478" d="M227.69 367.06s7.69 12.25 11.31 14.33.05 2.13-4.12.29-5.76-3.89-7.86-5.81a24.84 24.84 0 0 1-5.59-7.71v-.09c-.82-1.95.54-4.27 2.38-3.23z"/>
      <path fill="#f2af83" d="M227.69 367.06l3.2-4.39-5.74-.65-1.38 2.82 3.92 2.22z"/>
      <path fill="#f2af83" d="M227.69 367.06s1.52 2.34 4.93 7.26c3.21 4.64 0 2.52-2.09.52a34.1 34.1 0 0 1-6.76-10zm51.06-88.26l-21-5.71s-7.94 36-6.23 51.86c0 0-23.18 26.09-26.69 37.94l3.72 2.35s29-25.65 33-30c4.91-5.24 14.32-22.74 17.2-56.44z"/>
      <path fill="#cc946e" d="M271.69 315.43c-6.76.22-14.19.58-20.3 1.16a61.65 61.65 0 0 0 .11 7.68 54.76 54.76 0 0 0 17.05-.67 95.7 95.7 0 0 0 3.14-8.17z"/>
      <path d="M282.03 288.65l-23.47 9.04-5.38-7.16 28.85-1.88z" opacity=".36"/>
      <path fill="#fff" d="M278.04 248.9l6.06 39.58-21.74 1.81 5.02-47.92 10.66 6.53z"/>
      <path fill="#ffa02b" d="M275.6 229.51s-13.91-10.08-17.33 10.49c-2.94 17.69-14.67 78.69-14.67 78.69s32.84 5 49.92-6z"/>
      <path fill="#d4812e" d="M281.27 255.28l1.5 7.09-12.42-17.65 10.92 10.56z"/>
      <path fill="#99cfff" d="M268.53 227.74s5.38-1.71 13.67 7.35a149.33 149.33 0 0 0 14.12 13.82l21.26-24.37 5.8 8.36s-20.95 32.35-28.58 31.68-42.61-32.65-26.27-36.84z"/>
      <path fill="#f2af83" d="M322.87 232.17s6.78-5.72 5.7-10c-1.14-4.48-5.09-4.31-5.81-3.54s-2.93 3.78-2.93 3.78l-2.25 2.1z"/>
      <path fill="#f2af83" d="M317.58 224.54s6.59-10.85 8.82-13-.51 5.18-.51 5.18L321.22 227z"/>
      <path fill="#fad161" d="M268.53 227.74s5.38-1.71 13.67 7.35a149.33 149.33 0 0 0 14.12 13.82l21.26-24.37 5.8 8.36s-20.95 32.35-28.58 31.68-42.61-32.65-26.27-36.84z"/>
      <path fill="#f2af83" d="M322.87 232.17s6.78-5.72 5.7-10c-1.14-4.48-5.09-4.31-5.81-3.54s-2.93 3.78-2.93 3.78l-2.25 2.1z"/>
      <path fill="#f2af83" d="M317.58 224.54s6.59-10.85 8.82-13-.51 5.18-.51 5.18L321.22 227z"/>
      <path fill="#2e2e2e" d="M264.63 233.91c2.66-6.69 2.9-11.37.73-13.9-1-1.2-2.54-1.63-4.14-2.09a12.49 12.49 0 0 1-4.78-2.18c-2.73-2.21-2.8-5.2-.23-9.69l-.44-.26c-2.73 4.75-2.62 7.94.35 10.35a13.07 13.07 0 0 0 5 2.27c1.59.45 3 .85 3.9 1.93 2 2.38 1.76 6.88-.83 13.38z"/>
      <path fill="#2e2e2e" d="M273.44 202.78l-13.09 9.59-5.2-7.11 13.08-9.58z"/>
      <path fill="#2e2e2e" d="M270.5 195.38l-16.32 11.95-1-1.36 16.32-11.95z"/>
      <path fill="#1a1a1a" d="M268.73 196.85a.14.14 0 0 0 0-.18.13.13 0 0 0-.18 0L256 205.88a.13.13 0 0 0 .15.21l12.62-9.24z"/>
      <path fill="#3d7478" d="M265 232.58a1.4 1.4 0 1 0 1 1.74 1.41 1.41 0 0 0-1-1.74z"/>
      <path fill="#3d7478" d="M262.39 235.42l-1.22 4.15.08.15 2.71.8.14-.08 1.22-4.16a.83.83 0 0 0-.57-1.05l-1.32-.39a.84.84 0 0 0-1.04.58z"/>
      <g data-name="Pencil">
        <path d="M640.5 217.91l9.16 67.67c12.66 2.61 10.21-5.72 10.83-15.28L652 193z" opacity=".15"/>
        <path fill="url(#g)" d="M646.37 211.51l5.58-18.47 16.49 10.09-1.28 13.59-9.87 3.75-10.92-8.96z"/>
        <path fill="#ff7882" d="M688.27 284.18c-.22.1-.74.34-1.46.62s-1.27.43-1.51.5c-3.23 1-8.29 1.65-11.64-1.88l30.4 80.07c3.35 3.54 8.41 2.85 11.64 1.89a18.84 18.84 0 0 0 2.97-1.13c3.06-1.42 7.3-4.27 7.46-9.14L695.73 275c-.16 4.91-4.4 7.75-7.46 9.18z"/>
        <path fill="#2e2e2e" d="M652.07 197.74c.24-.07.78-.23 1.5-.51a15.1 15.1 0 0 0 1.46-.62c.48-.22 1-.48 1.49-.77L652 193l-1.55 5.12c.55-.12 1.1-.23 1.62-.38z"/>
        <path fill="#3d7478" d="M668.46 203.19l-7.36 2.79-7.36 2.79-7.35 2.79L703 360.7l7.36-2.79 7.35-2.79 7.36-2.79-56.61-149.14z"/>
        <path fill="#e6e6e6" d="M704 363.49l-1.06-2.79 22.06-8.37 1.06 2.78z"/>
        <path fill="#b3b3b3" d="M716.95 358.58l-1.06-2.78 6.19-2.35 1.06 2.78z"/>
        <path fill="#999" d="M721.27 356.94l-1.06-2.79.85-.32 1.05 2.79zm2.53-.96l-1.06-2.78 1.15-.44 1.06 2.79z"/>
        <path fill="url(#h)" d="M646.37 211.51l22.07-8.37s-8.44 12.78-22.07 8.37z"/>
      </g>
      <path fill="#e6e6e6" d="M138.59 372.62c0 3.89-16.13 7.19-36.11 7.36s-36.2-2.85-36.23-6.75 16.13-7.19 36.11-7.36 36.2 2.85 36.23 6.75z"/>
      <path fill="none" stroke="#86a34c" stroke-miterlimit="10" stroke-width="1.62" d="M109.28 355.66c-4.89-14.7-8.42-37.5 3.13-61.75m-10.92 42.52a79.22 79.22 0 0 0-10.35-18.68m9.2 49.25c1.26-17 2-42.49-1.17-68.48"/>
      <path fill="#aad162" d="M93.76 320.32s-12.85-27.38-37.17-31.62c0 0 5.41 22.22 37.17 31.62z"/>
      <path fill="#86a34c" d="M56.59 288.7s28.2 17.91 37.17 31.62c0 0-29.39-6.62-37.17-31.62z"/>
      <path fill="#aad162" d="M100 302.68s9.79-37-10.38-60.93c.01 0-12.77 26 10.38 60.93z"/>
      <path fill="#86a34c" d="M89.63 241.75s12.82 40.32 10.38 60.93c-.01 0-23.16-30.34-10.38-60.93z"/>
      <path fill="#aad162" d="M108.77 302.73s27.47-26.71 22.48-57.57c0 0-24.35 15.71-22.48 57.57z"/>
      <path fill="#86a34c" d="M131.25 245.16s-9.77 41.16-22.48 57.57c0 0-4.23-37.93 22.48-57.57z"/>
      <path fill="none" stroke="#86a34c" stroke-miterlimit="10" stroke-width="1.62" d="M103.1 345.17c.76-11.67 4.78-28.61 19.76-42.26"/>
      <path fill="#aad162" d="M117.8 308s26.8-10.84 32.1-33.83c0 .03-21.48 4.08-32.1 33.83z"/>
      <path fill="#86a34c" d="M149.9 274.2s-18.55 26-32.1 33.83c0-.03 7.85-27.7 32.1-33.83z"/>
      <path fill="none" stroke="#86a34c" stroke-miterlimit="10" stroke-width="1.62" d="M89 347.89c5.23-10.46 15.5-24.51 34.6-31.29"/>
      <path fill="#aad162" d="M116.92 319.36s28.9.39 42.7-18.74c0 0-21.37-4.62-42.7 18.74z"/>
      <path fill="#86a34c" d="M159.62 300.62s-27.16 16.76-42.7 18.74c0 0 17.97-22.5 42.7-18.74z"/>
      <path fill="none" stroke="#86a34c" stroke-miterlimit="10" stroke-width="1.62" d="M97.73 340.78c1.36-15.44-.49-38.43-17.36-59.35"/>
      <path fill="#aad162" d="M86 289.17s-32.91-19.61-35.21-50.79c-.04 0 27.28 9.62 35.21 50.79z"/>
      <path fill="#86a34c" d="M50.75 238.38s19 37.77 35.21 50.79c.04 0-4.68-37.87-35.21-50.79z"/>
      <path fill="#ff7882" d="M133.47 325.79H71.83v10.4h3.18l7.27 36.97h40.28l7.27-36.97h3.64v-10.4z"/>
      <path fill="#c45c61" d="M75.01 336.19l1.33 6.77 53.49-6.77H75.01z"/>
      <g data-name="Pendrive">
        <path fill="#ccc" d="M551.53 300.44h14.85v19.35h-14.85z"/>
        <path fill="gray" d="M557.43 313.19h2.53v2.53h-2.53zm0-8.92h2.53v2.53h-2.53z"/>
        <path fill="#99cfff" d="M613.46 296.93h-47.07v26.36h47.07a13.18 13.18 0 0 0 13.18-13.18 13.18 13.18 0 0 0-13.18-13.18zm.27 19.18a6.29 6.29 0 1 1 6.29-6.28 6.28 6.28 0 0 1-6.29 6.28z"/>
        <path d="M566.39 300.44v19.35h-1.84l1.84-19.35z" opacity=".15"/>
      </g>
      <path fill="#8abae6" d="M748.42 221.94s.67-10.11-10.73-6.63c-19.19 5.85-28.11 8.07-28.11 8.07l-30-2.07-.43 6.56s24.2 6.55 31.61 6.08c9.05-.57 38.02-2.28 37.66-12.01z"/>
      <path fill="#f2af83" d="M679.55 221.31s-8.49-12.11-7.08-6c1.54 6.68 2.43 6.22 2.2 7.49s-1.92-.07-3.69.6c-1.59.61 8.14 4.51 8.14 4.51z"/>
      <path fill="#e6e6e6" d="M817.3 362.45c0 2.5-21.47 4.85-48 5.25s-48.12-1.32-48.15-3.82 21.46-4.85 48-5.25 48.11 1.31 48.15 3.82z" style="mix-blend-mode:multiply"/>
      <path fill="#86a34c" d="M739.88 355.15s-13 7.56-17.34 7.71-1.08 1.94 3.66 2.27c3.75.26 19.49-2.3 19.49-2.3.11-2.22-1.12-7.82-1.12-7.82z"/>
      <path fill="#f2af83" d="M685.62 235.42s-9.89-11.15-7.51-5.39c2.6 6.34 2.95 6.33 2.93 7.61s-1.9.25-3.54 1.2c-1.47.86 8.84 3.91 8.84 3.91z"/>
      <path fill="#f2af83" d="M685.62 235.42s-9.89-11.15-7.51-5.39c2.6 6.34 2.95 6.33 2.93 7.61s-1.9.25-3.54 1.2c-1.47.86 8.84 3.91 8.84 3.91zm54.26 119.73l.1-3.52 4.68.12-.09 3.26-4.69.14z"/>
      <path fill="#3d7478" d="M737.25 249.59l15.66 2.3s-3.77 41.81-8.32 58.17c0 0 3.89 27.86.78 43l-6.17.45s-6.1-35.6-7.67-41.6c-1.89-7.16-.16-24.68 5.72-62.32z"/>
      <path d="M744.32 268.82a.74.74 0 0 0-.1-.23z"/>
      <path fill="#284c4f" d="M745.57 306.09a269.75 269.75 0 0 0 4.63-29.34l-1.44-1.24c1 3.13-1.76 7.49-3.19 30.58z"/>
      <path fill="#86a34c" d="M807.61 335.63s-1.44 15-3.85 18.58 1 2 4-1.64c2.39-2.9 9.49-17.18 9.49-17.18-1.74-1.38-7-3.65-7-3.65z"/>
      <path fill="#f2af83" d="M807.61 335.63l-2.81-2.13 2.83-3.74 2.6 1.98-2.62 3.89z"/>
      <path fill="#3d7478" d="M734.58 259.77l21 .18s9.2 3.07 25.51 38.07c0 0 18.34 12.1 28.76 33.31l-4.3 4.45s-29.22-26-34.4-29.44c-6.24-4.09-19.67-18.34-36.57-46.57z"/>
      <path fill="#a35233" d="M732.16 184.42a76.11 76.11 0 0 1-8 .35c-3-.14.33 11.79.33 11.79z"/>
      <path fill="#284c4f" d="M734.65 266.42l-.51 3.88 26.71-6.29"/>
      <path fill="#99cfff" d="M732.22 214s-4 4.64-5.48 16.36c-1.22 9.48 2.56 14.53 3.21 20.81 1.38 13.26 2.91 17.32 2.91 17.32L761 264s-1.73-20.75-6.24-44.52c-1.65-8.69-12.1-9.89-22.54-5.48z"/>
      <path fill="#f2af83" d="M725.89 191c-2.79 5.24-.94 11.13 1.47 14.7 3.09 4.57 9.71 2.34 12.85-2.16 2.79-4 3.18-10.11.46-13.84-3.52-4.86-11.67-4.52-14.78 1.3z"/>
      <path fill="#f2af83" d="M731.23 193.66l8-.85 2 19c.35 3.32-7.36 7.58-7.36 7.58-1.93.51-1.51-4-1.51-6.93z"/>
      <path fill="#a35233" d="M728.76 189.65s9.41-3 9.21 12.2c-.12 8.66 19.22-16.14-4.14-17.48-12.89-.74-9.51 11.66-9.51 11.66s-.5-6.3 4.44-6.38z"/>
      <path d="M732.22 210.39l4.37-3.65-4.49 1.68.12 1.97z" opacity=".1"/>
      <path fill="#a35233" d="M725 191.47s10.2-2.24 10.44 4.35c.11 3.14 5 1.63 4.39-.57-4.64-15.75-14.83-3.78-14.83-3.78z"/>
      <path fill="#f2af83" d="M739.59 199.28a1.67 1.67 0 0 1-2.43.74 2.23 2.23 0 0 1-.29-2.85 1.67 1.67 0 0 1 2.43-.75 2.24 2.24 0 0 1 .29 2.86z"/>
      <path fill="#99cfff" d="M753.66 224.6s-1-10.08-11.66-4.8c-18 8.9-26.43 12.54-26.43 12.54l-30 3.08.72 7.33s24.85 1.5 32.09-.17c8.91-2.03 37.22-8.44 35.28-17.98z"/>
      <path fill="#f2af83" d="M685.62 235.42s-9.89-11.15-7.51-5.39c2.6 6.34 2.95 6.33 2.93 7.61s-1.9.25-3.54 1.2c-1.47.86 8.84 3.91 8.84 3.91z"/>
      <path fill="#e6e6e6" d="M827 370.8c0 3.9 16.14 7.19 36.12 7.36s36.2-2.85 36.23-6.75-16.13-7.19-36.11-7.36S827 366.9 827 370.8z"/>
      <path fill="none" stroke="#86a34c" stroke-miterlimit="10" stroke-width="1.62" d="M856.28 353.85c4.9-14.71 8.43-37.5-3.13-61.76m10.92 42.52a79 79 0 0 1 10.36-18.67m-9.2 49.21c-1.27-17-2.05-42.49 1.17-68.48"/>
      <path fill="#fad161" d="M871.81 318.5s12.85-27.38 37.17-31.61c.02 0-5.45 22.21-37.17 31.61z"/>
      <path fill="#ffa02b" d="M909 286.89s-28.2 17.9-37.17 31.61c-.02 0 29.37-6.62 37.17-31.61z"/>
      <path fill="#fad161" d="M865.55 300.86s-9.78-37 10.39-60.93c0 0 12.78 26.01-10.39 60.93z"/>
      <path fill="#ffa02b" d="M875.94 239.93s-12.83 40.32-10.39 60.93c0 0 23.16-30.33 10.39-60.93z"/>
      <path fill="#fad161" d="M856.8 300.91s-27.47-26.7-22.48-57.57c0 0 24.34 15.71 22.48 57.57z"/>
      <path fill="#ffa02b" d="M834.32 243.34s9.77 41.16 22.48 57.57c0 0 4.2-37.91-22.48-57.57z"/>
      <path fill="none" stroke="#86a34c" stroke-miterlimit="10" stroke-width="1.62" d="M862.47 343.35c-.76-11.67-4.78-28.6-19.76-42.26"/>
      <path fill="#fad161" d="M847.76 306.22s-26.76-10.85-32.09-33.84c0 0 21.48 4.05 32.09 33.84z"/>
      <path fill="#ffa02b" d="M815.67 272.38s18.54 26 32.09 33.84c0 0-7.84-27.71-32.09-33.84z"/>
      <path fill="none" stroke="#86a34c" stroke-miterlimit="10" stroke-width="1.62" d="M876.59 346.07c-5.22-10.46-15.49-24.51-34.6-31.29"/>
      <path fill="#fad161" d="M848.64 317.55s-28.9.39-42.7-18.75c0 0 21.37-4.59 42.7 18.75z"/>
      <path fill="#ffa02b" d="M805.94 298.8s27.17 16.76 42.7 18.75c0 0-17.97-22.5-42.7-18.75z"/>
      <path fill="none" stroke="#86a34c" stroke-miterlimit="10" stroke-width="1.62" d="M867.84 339c-1.36-15.45.49-38.44 17.36-59.35"/>
      <path fill="#fad161" d="M879.61 287.36s32.9-19.62 35.21-50.8c0 0-27.32 9.64-35.21 50.8z"/>
      <path fill="#ffa02b" d="M914.82 236.56s-19.05 37.78-35.21 50.8c0 0 4.68-37.88 35.21-50.8z"/>
      <path fill="#99cfff" d="M832.09 323.97h61.65v10.4h-3.19l-7.26 36.97h-40.28l-7.27-36.97h-3.65v-10.4z"/>
      <path fill="#64b5f6" d="M835.77 334.37l1.33 6.77 53.49-6.77h-54.82z"/>
    </g>
  </g>
</svg>
