<svg xmlns="http://www.w3.org/2000/svg" xmlns:xlink="http://www.w3.org/1999/xlink" viewBox="0 0 800 160"><defs><style>.cls-1{fill:url(#linear-gradient);}.cls-2{fill:url(#linear-gradient-2);}.cls-3{fill:url(#linear-gradient-3);}.cls-4{fill:url(#linear-gradient-4);}.cls-5{fill:url(#linear-gradient-5);}.cls-6{fill:url(#linear-gradient-6);}.cls-7{fill:url(#linear-gradient-7);}.cls-8{fill:url(#linear-gradient-8);}.cls-9{fill:url(#linear-gradient-9);}.cls-10{fill:url(#linear-gradient-10);}.cls-11{fill:url(#linear-gradient-11);}.cls-12{fill:url(#linear-gradient-12);}.cls-13{fill:url(#linear-gradient-13);}.cls-14{fill:url(#linear-gradient-14);}.cls-15{fill:url(#linear-gradient-15);}.cls-16{fill:url(#linear-gradient-16);}.cls-17{fill:url(#linear-gradient-17);}.cls-18{fill:url(#linear-gradient-18);}.cls-19{fill:url(#linear-gradient-19);}.cls-20{fill:url(#linear-gradient-20);}.cls-21{fill:url(#linear-gradient-21);}.cls-22{fill:url(#linear-gradient-22);}.cls-23{fill:url(#linear-gradient-23);}.cls-24,.cls-25,.cls-26,.cls-27,.cls-28{fill:none;stroke-miterlimit:10;stroke-width:8px;}.cls-24{stroke:url(#New_Gradient_Swatch_4);}.cls-25{stroke:url(#New_Gradient_Swatch_4-2);}.cls-26{stroke:url(#New_Gradient_Swatch_4-3);}.cls-27{stroke:url(#New_Gradient_Swatch_4-4);}.cls-28{stroke:url(#New_Gradient_Swatch_4-5);}</style><linearGradient id="linear-gradient" x1="265.39" y1="24.59" x2="280.49" y2="-1.56" gradientUnits="userSpaceOnUse"><stop offset="0" stop-color="#041620"/><stop offset="1" stop-color="#32485e"/></linearGradient><linearGradient id="linear-gradient-2" x1="292.4" y1="29.82" x2="309.5" y2="0.18" xlink:href="#linear-gradient"/><linearGradient id="linear-gradient-3" x1="317.66" y1="29.39" x2="334.29" y2="0.61" xlink:href="#linear-gradient"/><linearGradient id="linear-gradient-4" x1="266.8" y1="95.05" x2="300.67" y2="36.37" gradientUnits="userSpaceOnUse"><stop offset="0" stop-color="#a020f0"/><stop offset="1" stop-color="#6a0dad"/></linearGradient><linearGradient id="linear-gradient-5" x1="316.64" y1="88.92" x2="345.71" y2="38.58" xlink:href="#linear-gradient-4"/><linearGradient id="linear-gradient-6" x1="357.72" y1="90.61" x2="388.91" y2="36.58" xlink:href="#linear-gradient-4"/><linearGradient id="linear-gradient-7" x1="413.08" y1="96.95" x2="447.22" y2="37.82" xlink:href="#linear-gradient-4"/><linearGradient id="linear-gradient-8" x1="472.28" y1="86.41" x2="505.87" y2="28.22" xlink:href="#linear-gradient-4"/><linearGradient id="linear-gradient-9" x1="526.72" y1="92.38" x2="560.56" y2="33.76" xlink:href="#linear-gradient-4"/><linearGradient id="linear-gradient-10" x1="583.1" y1="85.34" x2="616.96" y2="26.68" xlink:href="#linear-gradient-4"/><linearGradient id="linear-gradient-11" x1="629.94" y1="88.92" x2="659.01" y2="38.58" xlink:href="#linear-gradient-4"/><linearGradient id="linear-gradient-12" x1="675.06" y1="89.47" x2="704.81" y2="37.94" xlink:href="#linear-gradient-4"/><linearGradient id="linear-gradient-13" x1="737.27" y1="97.23" x2="775.93" y2="30.27" xlink:href="#linear-gradient-4"/><linearGradient id="linear-gradient-14" x1="278.16" y1="154.33" x2="307.86" y2="102.89" xlink:href="#linear-gradient"/><linearGradient id="linear-gradient-15" x1="331.02" y1="162.23" x2="369.68" y2="95.27" xlink:href="#linear-gradient"/><linearGradient id="linear-gradient-16" x1="402.29" y1="169.98" x2="437.67" y2="108.7" xlink:href="#linear-gradient"/><linearGradient id="linear-gradient-17" x1="453.06" y1="159.13" x2="481.97" y2="109.06" xlink:href="#linear-gradient"/><linearGradient id="linear-gradient-18" x1="498.56" y1="159.13" x2="527.47" y2="109.06" xlink:href="#linear-gradient"/><linearGradient id="linear-gradient-19" x1="548.12" y1="161.1" x2="585.48" y2="96.4" xlink:href="#linear-gradient"/><linearGradient id="linear-gradient-20" x1="605.32" y1="162.23" x2="643.98" y2="95.27" xlink:href="#linear-gradient"/><linearGradient id="linear-gradient-21" x1="674.44" y1="154.66" x2="704.47" y2="102.64" xlink:href="#linear-gradient"/><linearGradient id="linear-gradient-22" x1="726.22" y1="161.1" x2="763.58" y2="96.4" xlink:href="#linear-gradient"/><linearGradient id="linear-gradient-23" x1="773.43" y1="157.2" x2="780.03" y2="145.77" xlink:href="#linear-gradient"/><linearGradient id="New_Gradient_Swatch_4" x1="95.74" y1="150.96" x2="133.32" y2="113.37" xlink:href="#linear-gradient-4"/><linearGradient id="New_Gradient_Swatch_4-2" x1="73.04" y1="153.53" x2="241.74" y2="-15.17" xlink:href="#linear-gradient-4"/><linearGradient id="New_Gradient_Swatch_4-3" x1="110.9" y1="163.07" x2="217.5" y2="-21.57" xlink:href="#linear-gradient-4"/><linearGradient id="New_Gradient_Swatch_4-4" x1="85.9" y1="135.32" x2="186.89" y2="-39.59" xlink:href="#linear-gradient-4"/><linearGradient id="New_Gradient_Swatch_4-5" x1="175.41" y1="134.9" x2="253.66" y2="-0.64" xlink:href="#linear-gradient-4"/></defs><title>TDC Reach FullMark OnLight</title><g id="Layer_1" data-name="Layer 1"><g id="SILC"><g id="TDC_WordMark_onLight" data-name="TDC WordMark onLight"><g id="The"><path class="cls-1" d="M263.25,2h23.4l-2.34,5.78h-5.7V28h-7.32V7.78h-5.7Z"/><path class="cls-2" d="M289.25,2h6.6V12.61h10.2V2h6.6V28h-6.6V18h-10.2V28h-6.6Z"/><path class="cls-3" d="M315.25,2H336.7l-2.32,5.49H321.92v4.62h12.17V17.6H321.92v4.91h12.46L336.7,28H315.25Z"/></g><g id="Disruption"><path class="cls-4" d="M303.74,38.17a26.75,26.75,0,0,1,10.87,10.31,29.57,29.57,0,0,1,3.89,15.23A29.53,29.53,0,0,1,314.57,79,26.68,26.68,0,0,1,303.5,89.33,35.41,35.41,0,0,1,287.09,93H263.25V34.5h24.42A34,34,0,0,1,303.74,38.17Zm-7.89,40.39a14.12,14.12,0,0,0,5.29-5.92,19.45,19.45,0,0,0,1.9-8.76A18.69,18.69,0,0,0,301,55a14.89,14.89,0,0,0-5.58-6,15.45,15.45,0,0,0-8.1-2.13h-9.51V80.65h10.25A14.53,14.53,0,0,0,295.85,78.56Z"/><path class="cls-5" d="M323.7,34.5h14.95V93H323.7Z"/><path class="cls-6" d="M380.8,48.28A29.94,29.94,0,0,0,372,46.59a8.39,8.39,0,0,0-4.44,1,3.28,3.28,0,0,0-1.62,2.95,4,4,0,0,0,1.41,3.1,11,11,0,0,0,3.49,2q2.08.76,6.15,2A80.15,80.15,0,0,1,387,61a17.41,17.41,0,0,1,6.77,5.2,14.11,14.11,0,0,1,2.82,9.14A15.3,15.3,0,0,1,393.47,85,18.68,18.68,0,0,1,385,91a33.72,33.72,0,0,1-11.92,2,44.18,44.18,0,0,1-14.41-2.46c-4.8-1.64-10.72-5.61-14.21-8.46l7.68-9.79a37,37,0,0,0,10.43,6.21,29.16,29.16,0,0,0,10.67,2.41,10.11,10.11,0,0,0,5.36-1.21,3.9,3.9,0,0,0,1.95-3.54,4.12,4.12,0,0,0-1.45-3.22,10.81,10.81,0,0,0-3.65-2.06c-1.47-.51-3.54-1.11-6.19-1.81a77.2,77.2,0,0,1-9.89-3.27,17.47,17.47,0,0,1-6.69-5,13.5,13.5,0,0,1-2.78-8.9,15.22,15.22,0,0,1,2.87-9.19A18.13,18.13,0,0,1,361,36.64,32.33,32.33,0,0,1,373.2,34.5a45.92,45.92,0,0,1,12.46,1.73,53.3,53.3,0,0,1,12.14,5.5l-7.07,10.9A52,52,0,0,0,380.8,48.28Z"/><path class="cls-7" d="M441.11,93l-8.45-16.19H421.4V93H406.25V34.5h26.08q11.52,0,17.85,5.38T456.51,55a23.19,23.19,0,0,1-2.65,11.39,18.38,18.38,0,0,1-7.7,7.47L458.25,93ZM421.4,64.63h11c3.09,0,5.47-.78,7.16-2.34s2.52-3.81,2.52-6.76A8.4,8.4,0,0,0,439.58,49c-1.69-1.53-4.07-2.3-7.16-2.3h-11Z"/><path class="cls-8" d="M502.45,68.26l1.3-33.76h13V68.26c0,13.47-12.21,24.74-26,24.74s-26-11-26-24.74V34.5h13l.65,33.76c.12,6.92,5,11.74,12.35,11.74A11.78,11.78,0,0,0,502.45,68.26Z"/><path class="cls-9" d="M570.44,39.88q6.1,5.38,6.11,15.15,0,10.35-6.11,16.06t-17.19,5.72l-10.5-.06V93h-15V34.5h25.45Q564.32,34.5,570.44,39.88ZM559.65,62.29a9.35,9.35,0,0,0,2.6-7,7.94,7.94,0,0,0-2.6-6.32c-1.68-1.53-4.07-2.3-7.15-2.3l-9.75.17V64.4h9.75C555.58,64.4,558,63.85,559.65,62.29Z"/><path class="cls-10" d="M578.5,34.5h52l-5.2,13H612.62V93H596.38V47.5H583.7Z"/><path class="cls-11" d="M637,34.5h15V93H637Z"/><path class="cls-12" d="M705.41,38.29A28.2,28.2,0,0,1,720.2,63.55a29,29,0,0,1-4,15,28.73,28.73,0,0,1-10.84,10.57,32.87,32.87,0,0,1-30.87,0A28.23,28.23,0,0,1,663.7,78.6a29.23,29.23,0,0,1-4-15,28.2,28.2,0,0,1,14.79-25.26,33.32,33.32,0,0,1,30.87,0Zm-23,10.9a15.51,15.51,0,0,0-5.62,6,18.13,18.13,0,0,0,0,16.94,16.23,16.23,0,0,0,5.62,6,14,14,0,0,0,7.65,2.22,13.84,13.84,0,0,0,7.62-2.22,15.53,15.53,0,0,0,5.46-6,18.93,18.93,0,0,0,0-16.94,15.21,15.21,0,0,0-5.46-6A14,14,0,0,0,690.13,47,14.35,14.35,0,0,0,682.44,49.19Z"/><path class="cls-13" d="M769.29,34.5h14V93H770.11L744,58V93H730V34.5h13.22l26.2,35.22Z"/></g><g id="Challenge."><path class="cls-14" d="M301.34,114.06a15.7,15.7,0,0,0-7.52-2,14.66,14.66,0,0,0-7.8,2.14,15,15,0,0,0-5.54,5.89,18.27,18.27,0,0,0,0,16.7,15.11,15.11,0,0,0,5.54,5.89,14.75,14.75,0,0,0,7.8,2.14A17.1,17.1,0,0,0,301.1,143a22.91,22.91,0,0,0,6.8-4.84l8.65,9.28a34.58,34.58,0,0,1-11,7.71A30.52,30.52,0,0,1,293,158a30.17,30.17,0,0,1-15.2-3.87,28.44,28.44,0,0,1-10.68-10.57,29.38,29.38,0,0,1-3.88-15,28.17,28.17,0,0,1,14.84-25.26,32.34,32.34,0,0,1,28-1.17,31,31,0,0,1,10.43,7.14l-8.57,10.33A21.33,21.33,0,0,0,301.34,114.06Z"/><path class="cls-15" d="M323.7,99.5h15v23.87H362V99.5h15V158H362V135.55H338.73V158h-15Z"/><path class="cls-16" d="M429.87,158l-3.94-10.35H401L397,158H381.55l24.74-58.5h15.45L445.9,158Zm-24.32-22h15.94l-7.89-20.86Z"/><path class="cls-17" d="M451.1,99.5h14.3V145h22.1l2.6,13h-39Z"/><path class="cls-18" d="M496.6,99.5h14.3V145H533l2.6,13h-39Z"/><path class="cls-19" d="M542.75,99.5h48.1l-5.2,12.35H557.7v10.4H585V134.6H557.7v11.05h27.95l5.2,12.35h-48.1Z"/><path class="cls-20" d="M637.34,99.5h14V158H638.16L612,123v35H598V99.5h13.22l26.2,35.22Z"/><path class="cls-21" d="M699.29,128.06h12.48v22.52a36.71,36.71,0,0,1-10.86,5.36,40.17,40.17,0,0,1-12.2,2.06,30.13,30.13,0,0,1-15.12-3.83A28.11,28.11,0,0,1,663,143.64a29.47,29.47,0,0,1-3.87-15,28.25,28.25,0,0,1,15-25.34,32.16,32.16,0,0,1,15.6-3.79A35.13,35.13,0,0,1,702,101.8,31.88,31.88,0,0,1,712.4,108l-8.21,10.33a23,23,0,0,0-6.91-4.6,19.25,19.25,0,0,0-7.7-1.69,14.9,14.9,0,0,0-8,2.18,15.56,15.56,0,0,0-5.6,6,17.49,17.49,0,0,0-2.06,8.47,17.88,17.88,0,0,0,2.06,8.59,15.31,15.31,0,0,0,13.74,8.19,21.45,21.45,0,0,0,9.55-2.74Z"/><path class="cls-22" d="M720.85,99.5H769l-5.2,12.35h-28v10.4h27.3V134.6H735.8v11.05h28L769,158h-48.1Z"/><path class="cls-23" d="M781.43,146.8a6.31,6.31,0,0,1,1.82,4.66,6.42,6.42,0,0,1-1.82,4.7,6.35,6.35,0,0,1-4.72,1.84,6.26,6.26,0,0,1-4.64-1.84,6.42,6.42,0,0,1-1.82-4.7,6.16,6.16,0,0,1,6.46-6.46A6.44,6.44,0,0,1,781.43,146.8Z"/></g></g><g id="SILC-2" data-name="SILC"><g id="Out"><path id="Underbody" class="cls-24" d="M105.17,154.72l29.56-34.1a.15.15,0,0,0-.06-.23l-14.6-5.4a1.9,1.9,0,0,0-2.47,1.2S104.93,155,105.17,154.72Z"/><path id="Wing_Base" data-name="Wing Base" class="cls-25" d="M18,92.44,88.38,105a1.48,1.48,0,0,1,1.15,1s14.84,49,15.4,49,12.81-39.24,12.81-39.24a1.46,1.46,0,0,1,1.81-1l.07,0,80.62,29.8a1.44,1.44,0,0,0,1.84-.85L256.66,6.05a.74.74,0,0,0-.91-1l-238,84.5A1.5,1.5,0,0,0,18,92.44Z"/></g><g id="In"><path id="Body" class="cls-26" d="M89.59,106.21a1.54,1.54,0,0,1,.66-1.68L255.79,5.37a.37.37,0,0,1,.41.62L118.56,114a1.82,1.82,0,0,0-.49.7S105.13,155,104.93,155,89.59,106.21,89.59,106.21Z"/><path id="Semi-Wing-Left_Upper" data-name="Semi-Wing-Left Upper" class="cls-27" d="M171.62,55.84l84-50.42c.91-.54.61-.52-.41-.16L17.46,89.62c-.37.14-1,1.27-.58,1.18Z"/><path id="Semi-Wing-Right_Upper" data-name="Semi-Wing-Right Upper" class="cls-28" d="M186,61.55a.74.74,0,0,1,.28-.72l70.28-55.1a.13.13,0,0,1,.2.11l-55,138.88c-.14.35-1.18.3-1.24-.07Z"/></g></g></g></g></svg>