<svg xmlns="http://www.w3.org/2000/svg" xmlns:xlink="http://www.w3.org/1999/xlink" id="Layer_1" data-name="Layer 1" viewBox="0 0 960 400">
  <defs>
    <style>
      .cls-2,.cls-29{fill:#fff}.cls-45{fill:none;stroke-miterlimit:10}.cls-9{fill:#e6e6e6}.cls-11{fill:#ff7882}.cls-14{fill:#2e2e2e}.cls-15{fill:#ffa02b}.cls-16{fill:#b3b3b3}.cls-17{fill:#999}.cls-19{fill:#99cfff}.cls-20{fill:#ccc}.cls-26,.cls-29{isolation:isolate}.cls-29{font-size:20px;letter-spacing:.01em;font-family:Poppins-Regular,Poppins}.cls-31{fill:#284c4f}.cls-34{fill:#3d7478}.cls-35{fill:#a35233}.cls-36{fill:#fad161}.cls-37{fill:#f2af83}.cls-38{fill:#cc946e}.cls-45{stroke:#86a34c;stroke-width:1.62px}.cls-46{fill:#aad162}.cls-47{fill:#86a34c}
    </style>
    <linearGradient id="linear-gradient" x2="1416.41" y1="273.4" y2="273.4" gradientTransform="matrix(1 0 0 -1 0 402)" gradientUnits="userSpaceOnUse">
      <stop offset="0" stop-color="#651fff"/>
      <stop offset="1" stop-color="#a0f"/>
    </linearGradient>
    <linearGradient id="linear-gradient-2" x1="294.2" x2="306.21" y1="7.67" y2="8.59" gradientTransform="scale(1 -1) rotate(12.7 1321.13 -577.74)" gradientUnits="userSpaceOnUse">
      <stop offset=".24" stop-color="#f2af83"/>
      <stop offset=".73" stop-color="#f2af83"/>
    </linearGradient>
    <linearGradient id="linear-gradient-3" x1="-747.8" x2="-745.76" y1="-487.36" y2="-487.36" gradientTransform="scale(-1 1) rotate(-77.3 -19.994 -468.83)" xlink:href="#linear-gradient-2"/>
    <linearGradient id="linear-gradient-4" x1="407.77" x2="661.13" y1="112.89" y2="551.72" xlink:href="#linear-gradient"/>
    <linearGradient id="linear-gradient-5" x1="618" x2="634" y1="325" y2="325" gradientTransform="matrix(1 0 0 -1 0 402)" gradientUnits="userSpaceOnUse">
      <stop offset=".24" stop-color="#ff9b38"/>
      <stop offset=".73" stop-color="#ff9b38"/>
    </linearGradient>
    <linearGradient id="linear-gradient-6" x1="620.04" x2="635.81" y1="50.39" y2="50.39" xlink:href="#linear-gradient-5"/>
    <linearGradient id="linear-gradient-7" x1="668.71" x2="692.25" y1="-245.14" y2="-243.32" gradientTransform="matrix(.93 -.35 -.35 -.93 -65.87 222.28)" xlink:href="#linear-gradient-2"/>
    <linearGradient id="linear-gradient-8" x1="-999.93" x2="-995.94" y1="-872.36" y2="-872.36" gradientTransform="scale(-1 1) rotate(-69.4 -41.456 -578.93)" xlink:href="#linear-gradient-2"/>
  </defs>
  <g id="Home">
    <g id="Backdrop">
      <path id="background" fill="#fafafa" d="M952 400H8a8 8 0 0 1-8-8V0h960v392a8 8 0 0 1-8 8z"/>
      <path d="M960 400H0v-14l80-46h800l80 46v14z" class="cls-2"/>
      <path id="Wall_Lines_Bottom-386" fill="none" stroke="#e6e6e6" stroke-miterlimit="10" stroke-width=".75" d="M959.67 386L880 340V0v340H80V0v340L.33 386" data-name="Wall Lines Bottom-386"/>
      <path fill="url(#linear-gradient)" d="M960 257.19a117.48 117.48 0 0 1-28.53-13c-33-20.75-46.57-52.36-51.47-66.23-29.65 20.15-74.76 44.06-131.86 48.92-96.69 8.25-120.41-48-215.38-45.51-109.39 3-143.18 79.17-214.76 51.16-43.69-17.1-61.45-57.61-104.17-52.08-27.92 3.61-37.84 23.17-65.71 22.76-29.49-.45-53.47-21.44-68.12-39.21-13.31 44.86-38.34 65.63-63.77 65.47A35.68 35.68 0 0 1 0 225.24V0h960z"/>
      <path id="Cloud_Yellow" fill="#f5edc9" d="M246.94 139a16.68 16.68 0 1 0-5.72-32.62 26.58 26.58 0 0 0-51.58-.3 17.52 17.52 0 0 0-3.68-.42 16.68 16.68 0 0 0-1.32 33.34h62.3z" data-name="Cloud Yellow"/>
      <path id="Cloud_White" fill="#f2f2f2" d="M781.36 158.79a12.48 12.48 0 0 0-.66-24.95 12.63 12.63 0 0 0-3.62.53 19.9 19.9 0 0 0-38.62-.22 12.48 12.48 0 0 0-5.41 24.37 13.46 13.46 0 0 0 1.67.25z" data-name="Cloud White"/>
      <path id="LFr" fill="none" stroke="#333" stroke-miterlimit="10" stroke-width=".5" d="M80 164V0"/>
      <path id="RFr" fill="none" stroke="#4d4d4d" stroke-miterlimit="10" stroke-width=".5" d="M880 178V0"/>
    </g>
    <g id="Pencil_Holder" data-name="Pencil Holder">
      <ellipse id="Shadow" cx="225" cy="349.5" class="cls-9" rx="37.5" ry="4.5"/>
      <ellipse cx="225" cy="278" fill="#99acff" rx="35" ry="1"/>
      <g id="Scale">
        <path d="M230.38 331L207 329.05 221.62 170l23.38 1.95L230.38 331z" class="cls-11"/>
        <path d="M241.99 175.01l-11.09-.95m10.65 5.89l-6.03-.52m5.58 5.45l-6.03-.51m5.59 5.44l-6.03-.51m5.59 5.45l-6.03-.52m5.57 5.57l-11.09-.95m10.65 5.88l-6.03-.51m5.59 5.45l-6.03-.51m5.58 5.44l-6.03-.51m5.59 5.45l-6.03-.52m5.58 5.57l-11.1-.95m10.65 5.88l-6.03-.51m5.59 5.45l-6.03-.51m5.59 5.44l-6.03-.51m5.58 5.45l-6.03-.52m5.58 5.57l-11.09-.95m10.65 5.88l-6.03-.51m5.58 5.45l-6.03-.51m5.59 5.44l-6.03-.51m5.59 5.45l-6.03-.52m5.57 5.57l-11.09-.94m10.65 5.87l-6.03-.51m5.59 5.45l-6.03-.51m5.58 5.44l-6.03-.51m5.59 5.45l-6.03-.52"/>
      </g>
      <g id="Pencil">
        <path fill="url(#linear-gradient-2)" d="M191 232.96l4.14-8.96 7.61 6.3-1.62 6.79-5.26 1.19-4.87-5.32z"/>
        <path d="M207 272.78c-.12 0-.4.12-.78.21l-.8.15c-1.7.25-4.31.24-5.74-1.8l9.61 42.75c1.44 2 4.05 2.05 5.75 1.8l.8-.15c.38-.09.66-.17.78-.21 1.65-.5 4-1.64 4.42-4.1l-9.62-42.74c-.42 2.45-2.81 3.59-4.42 4.09z" class="cls-11"/>
        <path d="M194.86 226.39a4.91 4.91 0 0 0 .8-.15c.38-.09.66-.17.79-.21s.52-.17.8-.28l-2.11-1.75-1.14 2.48c.3-.02.6-.05.86-.09z" class="cls-14"/>
        <path d="M208.92 312.61l-17.91-79.63 3.91-.88 17.91 79.62-3.91.89zm3.91-.89l-17.91-79.62 3.92-.89 17.91 79.62-3.92.89zm3.92-.89l-17.91-79.62 3.91-.89 17.91 79.63-3.91.88z" class="cls-15"/>
        <path d="M220.66 309.95l.34 1.49-11.75 2.65-.33-1.48 11.74-2.66z" class="cls-9"/>
        <path d="M219.09 310.31l.33 1.48-3.29.75-.34-1.49 3.3-.74z" class="cls-16"/>
        <path d="M218.55 310.43l.33 1.48-.44.1-.34-1.48.45-.1zm1.51-.34l.33 1.48-.61.14-.34-1.48.62-.14z" class="cls-17"/>
        <path fill="url(#linear-gradient-3)" d="M191 233l11.75-2.66s-5.18 5.83-11.75 2.66z"/>
      </g>
      <path d="M250.21 350h-50.42L190 278h70l-9.79 72z" class="cls-19"/>
    </g>
    <g id="Computer">
      <ellipse id="Shadow-2" cx="480" cy="345.59" class="cls-9" rx="68.38" ry="4.41"/>
      <path d="M528.75 335.63h-33.63a4 4 0 0 1-4-4v-41.77h-21.93v41.77a4 4 0 0 1-4 4h-33.62a9.13 9.13 0 0 0-9.11 9.15h115.4a9.13 9.13 0 0 0-9.11-9.15z" class="cls-20"/>
      <path d="M495.23 297.28h-30.14a3.82 3.82 0 0 1-2.9-1l-3.75-4.81c-.82-1.05.69-2.2 2.9-2.2H499c2.21 0 3.72 1.15 2.9 2.2l-3.75 4.81a3.83 3.83 0 0 1-2.92 1z" class="cls-16"/>
      <rect width="360" height="224" x="300" y="66" class="cls-9" rx="5.54"/>
      <path d="M488.27 285h-16.54c-2.61 0-4.73-.9-4.73-2s2.12-2 4.73-2h16.54c2.61 0 4.73.9 4.73 2s-2.12 2-4.73 2z" class="cls-16"/>
      <path d="M308 58h344a8 8 0 0 1 8 8v210H300V66a8 8 0 0 1 8-8z" class="cls-14"/>
      <rect width="348" height="200" x="306" y="64" fill="#f9fbfc" rx="6"/>
      <rect width="341.9" height="193.9" x="309.05" y="67.05" fill="url(#linear-gradient-4)" rx="3.95"/>
      <path fill="#4d4d4d" d="M647 67.1a3.92 3.92 0 0 1 3.9 3.9v186a3.92 3.92 0 0 1-3.9 3.9H313a3.92 3.92 0 0 1-3.9-3.9V71a3.92 3.92 0 0 1 3.9-3.9h334m0-.1H313a4 4 0 0 0-4 4v186a4 4 0 0 0 4 4h334a4 4 0 0 0 4-4V71a4 4 0 0 0-4-4z"/>
      <path id="Bookmark" fill="url(#linear-gradient-5)" d="M634 89l-8-6.62-8 6.62V65h16v24z"/>
      <path id="Glare" style="isolation:isolate" fill="#fff" d="M422.58 275.09l218.4-216.33H537.41L319.02 275.09h103.56z" opacity=".4"/>
      <g fill="#fff" class="cls-26">
        <text transform="matrix(.95 0 0 1 329.72 122.33)" style="isolation:isolate" font-family="Poppins-Light,Poppins" font-size="34" font-weight="300">
          Boost Your Startup
        </text>
        <text transform="matrix(.95 0 0 1 329.72 166.33)" style="isolation:isolate" font-family="Poppins-SemiBold,Poppins" font-size="46" font-weight="600">
          at home.
        </text>
      </g>
      <g class="cls-26">
        <text class="cls-29" transform="matrix(.95 0 0 1 330.17 217.25)">
          with the
        </text>
        <text transform="matrix(.95 0 0 1 413.39 217.25)" style="isolation:isolate" fill="#fff" font-family="Poppins-Bold,Poppins" font-size="20" font-weight="700" letter-spacing=".01em">
          TDC
        </text>
        <text class="cls-29" transform="matrix(.95 0 0 1 453.48 217.25)">
          <tspan>Toolkit.</tspan>
        </text>
      </g>
    </g>
    <g id="Book_Mark" data-name="Book Mark">
      <ellipse cx="593.3" cy="369.83" class="cls-9" rx="113.84" ry="7.31"/>
      <path d="M670 324.67h-30.89v41.42H670v-4.66s-7.36-11.14 0-35.48z" class="cls-9"/>
      <path d="M650 325.3H511.7a23.29 23.29 0 0 0 0 46.57H650v-6.18s-11.76-13.28 0-33.95z" class="cls-31"/>
      <path d="M650 331.74H513a17 17 0 1 0-1.84 33.95H650s-11.76-13.28 0-33.95z" class="cls-2"/>
      <path d="M650 341.56H506.14M650 348.59H506.14M650 355.61H506.14"/>
      <path fill="url(#linear-gradient-6)" d="M635.81 362.41l-7.88-5.96-7.89 5.96v-21.6h15.77v21.6z"/>
      <path d="M669.98 321.29H527.73l-19.98 4.38H650l19.98-4.38z" class="cls-31"/>
      <path d="M650 331.74v-6.07l19.98-4.38v4.66L650 331.74zm0 40.13v-6.07l19.98-4.37v4.66L650 371.87z" class="cls-34"/>
    </g>
    <ellipse cx="260.1" cy="382.26" class="cls-9" rx="47.1" ry="6.74"/>
    <path d="M266.14 208.23c-5.44 1.83-8 6.42-9.26 13.41-1.06 5.68-.86 13.47-4.7 17.91-4.64 5.37-11.09 8.85-13.88 15.54-2.07 5-2.5 11.85.2 17 5.5 10.55 20.65 13.61 35.71 10.91 4.39-.79 16.46-7.74 17-26.48.29-10.41-6-17.58-6.76-24.66-1.05-10-.52-16.18-3-20.66-3.45-6.27-9.24-5.01-15.31-2.97z" class="cls-35"/>
    <path d="M273.22 238.28s1.66 4.57-5.83 12A131.37 131.37 0 0 0 256 262.94l21.71 17.41-7 5.29s-28.55-16.86-28.25-23.44 26.54-37.83 30.76-23.92z" class="cls-36"/>
    <path d="M285.76 377.74s12.88 6.57 17.05 6.48 1.14 1.81-3.39 2.38-6.93-.38-9.72-1a24.94 24.94 0 0 1-8.7-3.7h-.08c-1.7-1.26-1.73-4 .38-4z" class="cls-34"/>
    <path d="M285.75 377.74l-.27-3.38-4.48.36.25 3.13 4.5-.11z" class="cls-37"/>
    <path d="M285.76 377.74s2.5 1.23 7.95 3.7c5.13 2.33 1.27 2.18-1.53 1.52a34.06 34.06 0 0 1-10.93-5.11zm-7.52-101.93l-14.77 3.66s5 40.15 15.18 52.37c0 0-.13 39.28 2.6 46l4.51-.11s4.33-39.7 5.28-45.59c1.14-7.06-3.7-20.83-12.8-56.33z" class="cls-37"/>
    <path d="M289.32 318.08c-3.14 0-9.84.1-17.37.35a72.18 72.18 0 0 0 2.71 6.79 70.46 70.46 0 0 0 14.89-6.17c-.07-.32-.15-.64-.23-.97z" class="cls-38"/>
    <path d="M278.43 211.34c3.3 3 4.74 8.85 2.27 12.67s-8 3.77-11.54.69c-3.14-2.74-4.73-7.72-3.25-11.38 1.92-4.73 8.39-5.77 12.52-1.98z" class="cls-37"/>
    <path d="M273.16 216.3l-7.67-.41-1 18.57a4.82 4.82 0 0 0 4.55 5.08 4.82 4.82 0 0 0 5.07-4.56 4.34 4.34 0 0 0 0-.51z" class="cls-37"/>
    <path d="M273.45 209.66s1.4 11.92-9.18 12.26c-7.39.24-3.29-18.48 6.7-16.75 14 2.44 9.9 9.58 9.9 9.58s-2.2-5.27-7.42-5.09z" class="cls-35"/>
    <path d="M265.86 222.18a1.4 1.4 0 1 0 .75-1.83 1.4 1.4 0 0 0-.75 1.83z" class="cls-2"/>
    <path d="M273.8 228.5l-5.12-3.68 5.06 2.33.06 1.35z" class="cls-38"/>
    <path d="M260.61 215.23a6.79 6.79 0 0 1 3.08-7.11" class="cls-15"/>
    <path d="M228.08 370.05s7.69 12.26 11.3 14.33.06 2.14-4.12.3-5.75-3.89-7.85-5.81a25 25 0 0 1-5.59-7.72v-.08c-.82-1.95.53-4.28 2.37-3.24z" class="cls-34"/>
    <path d="M228.08 370.05l3.2-4.38-5.73-.65-1.39 2.81 3.92 2.22z" class="cls-37"/>
    <path d="M228.08 370.05s1.52 2.34 4.93 7.27c3.21 4.63 0 2.52-2.09.52a34 34 0 0 1-6.76-10zm51.02-88.27l-20.94-5.71s-7.94 36-6.22 51.87c0 0-23.17 26.1-26.68 37.95l3.72 2.35s28.93-25.66 33-30c4.84-5.24 14.25-22.75 17.12-56.46z" class="cls-37"/>
    <path d="M272.05 318.42c-6.76.22-14.18.58-20.29 1.16a61.52 61.52 0 0 0 .11 7.68 54.5 54.5 0 0 0 17-.67 78.72 78.72 0 0 0 3.18-8.17z" class="cls-38"/>
    <path d="M282.38 291.64l-23.45 9.03-5.38-7.15 28.83-1.88z" opacity=".36"/>
    <path d="M278.4 251.88l6.05 39.59-21.73 1.8 5.03-47.92 10.65 6.53z" class="cls-2"/>
    <path d="M276 232.49S262.05 222.4 258.64 243C255.7 260.69 244 321.7 244 321.7s32.81 5 49.88-6z" class="cls-15"/>
    <path fill="#d4812e" d="M281.63 258.26l1.49 7.1-12.42-17.66 10.93 10.56z"/>
    <path d="M268.89 230.71s5.38-1.71 13.66 7.36a149.66 149.66 0 0 0 14.11 13.82l21.24-24.37 5.8 8.36s-20.94 32.36-28.56 31.68-42.58-32.65-26.25-36.85z" class="cls-19"/>
    <path d="M323.19 235.15s6.77-5.72 5.69-10c-1.13-4.48-5.08-4.3-5.8-3.54s-2.93 3.79-2.93 3.79l-2.25 2.1z" class="cls-37"/>
    <path d="M317.9 227.52s6.59-10.85 8.82-13-.51 5.18-.51 5.18l-4.66 10.3z" class="cls-37"/>
    <path d="M268.89 230.71s5.38-1.71 13.66 7.36a149.66 149.66 0 0 0 14.11 13.82l21.24-24.37 5.8 8.36s-20.94 32.36-28.56 31.68-42.58-32.65-26.25-36.85z" class="cls-36"/>
    <path d="M323.19 235.15s6.77-5.72 5.69-10c-1.13-4.48-5.08-4.3-5.8-3.54s-2.93 3.79-2.93 3.79l-2.25 2.1z" class="cls-37"/>
    <path d="M317.9 227.52s6.59-10.85 8.82-13-.51 5.18-.51 5.18l-4.66 10.3z" class="cls-37"/>
    <path d="M265 236.88c2.66-6.69 2.9-11.36.74-13.9-1-1.2-2.54-1.63-4.14-2.09a12.58 12.58 0 0 1-4.78-2.17c-2.73-2.22-2.8-5.21-.23-9.7l-.44-.26c-2.73 4.76-2.62 8 .35 10.35a13.05 13.05 0 0 0 5 2.27c1.59.46 3 .85 3.89 1.94 2 2.37 1.76 6.87-.82 13.38z" class="cls-14"/>
    <path d="M256.55 202.63h16.21v8.81h-16.21z" class="cls-14" transform="rotate(-36.24 264.662 207.03)"/>
    <path d="M252.08 202.83h20.23v1.69h-20.23z" class="cls-14" transform="rotate(-36.24 262.193 203.667)"/>
    <path fill="#1a1a1a" d="M269.09 199.82a.13.13 0 0 0 0-.18.12.12 0 0 0-.16 0l-12.61 9.24a.13.13 0 0 0 .12.23z"/>
    <path d="M265.32 235.56a1.4 1.4 0 1 0 .95 1.74 1.39 1.39 0 0 0-.93-1.73z" class="cls-34"/>
    <path d="M262.75 238.39l-1.22 4.16.08.15 2.71.8.15-.08 1.22-4.16a.85.85 0 0 0-.57-1l-1.32-.39a.85.85 0 0 0-1.05.52z" class="cls-34"/>
    <g id="Pencil-2">
      <path d="M654.28 290H649l-8-69 10.91-25 2.58 23.24L660 276v8.28a5.72 5.72 0 0 1-5.72 5.72z" opacity=".15"/>
      <path fill="url(#linear-gradient-7)" d="M646.33 214.51l5.58-18.47 16.49 10.09-1.28 13.59-9.87 3.75-10.92-8.96z"/>
      <path d="M688.23 287.18c-.22.1-.73.34-1.46.62s-1.26.43-1.5.5c-3.24 1-8.3 1.65-11.65-1.88L704 366.49c3.35 3.54 8.41 2.85 11.64 1.89.24-.07.79-.23 1.51-.51s1.24-.51 1.46-.62c3.06-1.42 7.3-4.27 7.46-9.14L695.69 278c-.15 4.91-4.39 7.75-7.46 9.18z" class="cls-11"/>
      <path d="M652 200.74c.24-.07.78-.23 1.5-.51s1.24-.51 1.47-.62c.47-.22 1-.48 1.49-.77l-4.58-2.8-1.55 5.12c.67-.16 1.19-.27 1.67-.42z" class="cls-14"/>
      <path d="M668.42 206.19l-7.36 2.79-7.35 2.79-7.36 2.79 56.61 149.14 7.36-2.79 7.35-2.79 7.36-2.79-56.61-149.14z" class="cls-34"/>
      <path d="M702.65 359.41h23.6v2.98h-23.6z" class="cls-9" transform="rotate(-20.79 714.454 360.902)"/>
      <path d="M716.16 357.53h6.62v2.98h-6.62z" class="cls-16" transform="rotate(-20.79 719.478 359.006)"/>
      <path d="M720.68 356.9h.9v2.98h-.9z" class="cls-17" transform="rotate(-20.79 721.142 358.381)"/>
      <path d="M723.2 355.88h1.23v2.98h-1.23z" class="cls-17" transform="rotate(-20.79 723.806 357.377)"/>
      <path fill="url(#linear-gradient-8)" d="M646.33 214.51l22.07-8.37s-8.4 12.78-22.07 8.37z"/>
    </g>
    <path d="M138.56 372.62c0 3.89-16.14 7.19-36.12 7.36s-36.2-2.85-36.23-6.75 16.13-7.19 36.11-7.36 36.2 2.85 36.24 6.75z" class="cls-9"/>
    <path d="M109.25 355.66c-4.9-14.7-8.43-37.5 3.13-61.75m-10.92 42.52a79.56 79.56 0 0 0-10.36-18.68m9.2 49.25c1.26-17 2-42.49-1.17-68.48" class="cls-45"/>
    <path d="M93.72 320.32s-12.85-27.38-37.17-31.62c0 0 5.45 22.22 37.17 31.62z" class="cls-46"/>
    <path d="M56.55 288.7s28.2 17.91 37.17 31.62c0 0-29.39-6.62-37.17-31.62z" class="cls-47"/>
    <path d="M100 302.68s9.79-37-10.38-60.93c-.03 0-12.81 26 10.38 60.93z" class="cls-46"/>
    <path d="M89.59 241.75s12.82 40.32 10.38 60.93c.03 0-23.16-30.34-10.38-60.93z" class="cls-47"/>
    <path d="M108.73 302.73s27.47-26.73 22.48-57.57c0 0-24.34 15.71-22.48 57.57z" class="cls-46"/>
    <path d="M131.21 245.16s-9.77 41.16-22.48 57.57c0 0-4.22-37.93 22.48-57.57z" class="cls-47"/>
    <path d="M103.06 345.17c.76-11.67 4.78-28.61 19.76-42.26" class="cls-45"/>
    <path d="M117.77 308s26.79-10.84 32.09-33.83c0 .03-21.48 4.08-32.09 33.83z" class="cls-46"/>
    <path d="M149.86 274.2s-18.54 26-32.09 33.83c0-.03 7.84-27.7 32.09-33.83z" class="cls-47"/>
    <path d="M88.93 347.89c5.23-10.46 15.5-24.51 34.61-31.29" class="cls-45"/>
    <path d="M116.89 319.36s28.9.39 42.7-18.74c0 0-21.38-4.62-42.7 18.74z" class="cls-46"/>
    <path d="M159.59 300.62s-27.17 16.76-42.7 18.74c0 0 17.97-22.5 42.7-18.74z" class="cls-47"/>
    <path d="M97.69 340.78c1.36-15.44-.49-38.43-17.36-59.35" class="cls-45"/>
    <path d="M85.92 289.17S53 269.56 50.71 238.38c0 0 27.29 9.62 35.21 50.79z" class="cls-46"/>
    <path d="M50.71 238.38s19.05 37.77 35.21 50.79c0 0-4.68-37.87-35.21-50.79z" class="cls-47"/>
    <path d="M133.44 325.79H71.79v10.4h3.18l7.27 36.97h40.28l7.27-36.97h3.65v-10.4z" class="cls-11"/>
    <path fill="#c45c61" d="M74.97 336.19l1.34 6.77 53.48-6.77H74.97z"/>
    <g id="Pendrive">
      <path d="M553.5 300.44h14.85v19.35H553.5z" class="cls-20"/>
      <path d="M559.39 313.19h2.53v2.53h-2.53zm0-8.92h2.53v2.53h-2.53z"/>
      <path d="M615.42 296.93h-47.07v26.36h47.07a13.18 13.18 0 0 0 13.18-13.18 13.18 13.18 0 0 0-13.18-13.18zm.28 19.18a6.29 6.29 0 1 1 6.28-6.3 6.28 6.28 0 0 1-6.28 6.28z" class="cls-19"/>
      <path d="M568.35 300.44v19.35h-1.83l1.83-19.35z" opacity=".15"/>
    </g>
    <path fill="#8abae6" d="M748.88 225.72s.67-10.14-10.76-6.65c-19.26 5.87-28.22 8.1-28.22 8.1l-30.13-2.08-.43 6.58s24.29 6.57 31.72 6.1c9.11-.57 38.19-2.29 37.82-12.05z"/>
    <path d="M679.77 225.09s-8.51-12.15-7.11-6.06c1.55 6.7 2.45 6.24 2.22 7.51s-1.93-.07-3.7.61c-1.6.6 8.16 4.52 8.16 4.52z" class="cls-37"/>
    <path d="M818 366.67c0 2.52-21.54 4.87-48.19 5.27s-48.29-1.31-48.33-3.82 21.54-4.87 48.19-5.27 48.33 1.31 48.33 3.82z" class="cls-9"/>
    <path d="M740.32 359.36s-13.05 7.58-17.4 7.73-1.09 2 3.66 2.28c3.76.26 19.56-2.31 19.56-2.31.11-2.22-1.12-7.84-1.12-7.84z" class="cls-47"/>
    <path d="M685.87 239.25s-9.93-11.2-7.55-5.41c2.62 6.36 3 6.35 2.95 7.64s-1.91.24-3.55 1.2c-1.48.86 8.87 3.92 8.87 3.92z" class="cls-37"/>
    <path d="M685.87 239.25s-9.93-11.2-7.55-5.41c2.62 6.36 3 6.35 2.95 7.64s-1.91.24-3.55 1.2c-1.48.86 8.87 3.92 8.87 3.92zm54.45 120.11l.09-3.54 4.7.13-.09 3.27-4.7.14z" class="cls-37"/>
    <path d="M737.68 253.45l15.71 2.32s-3.79 41.94-8.35 58.35c0 0 3.9 27.95.79 43.18l-6.2.45s-6.12-35.75-7.7-41.75c-1.93-7.2-.16-24.78 5.75-62.55z" class="cls-34"/>
    <path d="M744.77 272.75a.7.7 0 0 0-.11-.23z"/>
    <path d="M746 310.14a273.31 273.31 0 0 0 4.64-29.43l-1.45-1.24c1.04 3.13-1.76 7.45-3.19 30.67z" class="cls-31"/>
    <path d="M808.28 339.77s-1.45 15-3.86 18.64 1 2 4-1.65c2.4-2.9 9.52-17.23 9.52-17.23-1.74-1.38-7-3.66-7-3.66z" class="cls-47"/>
    <path d="M808.28 339.77l-2.82-2.14 2.84-3.74 2.61 1.98-2.63 3.9z" class="cls-37"/>
    <path d="M735 263.67l21 .18s9.23 3.08 25.6 38.19c0 0 18.4 12.14 28.86 33.42l-4.31 4.47s-29.33-26.12-34.53-29.54c-6.19-4.1-19.62-18.45-36.62-46.72z" class="cls-34"/>
    <path d="M732.57 188.09a79.15 79.15 0 0 1-8 .34c-3-.14.33 11.83.33 11.83z" class="cls-35"/>
    <path d="M735.07 270.34l-.52 3.9 26.81-6.31" class="cls-31"/>
    <path d="M732.63 217.79s-4 4.66-5.5 16.42c-1.23 9.51 2.57 14.58 3.22 20.88 1.38 13.29 2.92 17.37 2.92 17.37l28.24-4.56s-1.73-20.82-6.27-44.65c-1.65-8.71-12.14-9.92-22.61-5.46z" class="cls-19"/>
    <path d="M726.27 194.65c-2.8 5.26-.94 11.17 1.48 14.75 3.1 4.58 9.74 2.35 12.89-2.17 2.8-4 3.2-10.14.47-13.88-3.53-4.85-11.75-4.51-14.84 1.3z" class="cls-37"/>
    <path d="M731.64 197.35l8-.85 2 19c.36 3.33-7.38 7.6-7.38 7.6-1.94.52-1.51-4-1.51-6.95z" class="cls-37"/>
    <path d="M729.15 193.33s9.45-3 9.25 12.24c-.12 8.69 19.29-16.19-4.16-17.54-12.94-.74-9.54 11.69-9.54 11.69s-.5-6.31 4.45-6.39z" class="cls-35"/>
    <path d="M732.63 214.13l4.38-3.66-4.5 1.69.12 1.97z" opacity=".1"/>
    <path d="M725.38 195.16s10.24-2.26 10.48 4.36c.11 3.15 5 1.63 4.4-.58-4.66-15.79-14.88-3.78-14.88-3.78z" class="cls-35"/>
    <path d="M740 203a1.68 1.68 0 0 1-2.21.87 1 1 0 0 1-.23-.12 2.27 2.27 0 0 1-.29-2.87 1.68 1.68 0 0 1 2.21-.88l.24.13A2.26 2.26 0 0 1 740 203z" class="cls-37"/>
    <path d="M754.14 228.39s-1-10.12-11.7-4.82c-18.05 8.93-26.52 12.58-26.52 12.58l-30 3.1.72 7.35s24.93 1.5 32.2-.17c8.84-2.04 37.25-8.43 35.3-18.04z" class="cls-19"/>
    <path d="M685.87 239.25s-9.93-11.2-7.55-5.41c2.62 6.36 3 6.35 2.95 7.64s-1.91.24-3.55 1.2c-1.48.86 8.87 3.92 8.87 3.92z" class="cls-37"/>
    <path d="M828.93 370.8c0 3.9 16.14 7.19 36.12 7.36s36.2-2.85 36.23-6.75-16.13-7.19-36.11-7.36-36.17 2.85-36.24 6.75z" class="cls-9"/>
    <path d="M858.24 353.85c4.9-14.71 8.43-37.5-3.13-61.76M866 334.61a79.11 79.11 0 0 1 10.35-18.67m-9.16 49.21c-1.26-17-2.05-42.49 1.17-68.48" class="cls-45"/>
    <path d="M873.77 318.5s12.85-27.38 37.17-31.61c0 0-5.45 22.21-37.17 31.61z" class="cls-36"/>
    <path d="M910.94 286.89s-28.2 17.9-37.17 31.61c0 0 29.39-6.62 37.17-31.61z" class="cls-15"/>
    <path d="M867.52 300.86s-9.79-37 10.38-60.93c0 0 12.78 26.01-10.38 60.93z" class="cls-36"/>
    <path d="M877.9 239.93s-12.82 40.32-10.38 60.93c0 0 23.16-30.33 10.38-60.93z" class="cls-15"/>
    <path d="M858.76 300.91s-27.47-26.7-22.48-57.57c0 0 24.34 15.71 22.48 57.57z" class="cls-36"/>
    <path d="M836.28 243.34s9.77 41.16 22.48 57.57c0 0 4.24-37.91-22.48-57.57z" class="cls-15"/>
    <path d="M864.43 343.35c-.76-11.67-4.78-28.6-19.76-42.26" class="cls-45"/>
    <path d="M849.72 306.22s-26.79-10.85-32.09-33.84c0 0 21.48 4.05 32.09 33.84z" class="cls-36"/>
    <path d="M817.63 272.38s18.54 26 32.09 33.84c0 0-7.84-27.71-32.09-33.84z" class="cls-15"/>
    <path d="M878.56 346.07c-5.23-10.46-15.5-24.51-34.61-31.29" class="cls-45"/>
    <path d="M850.6 317.55s-28.9.39-42.7-18.75c0 0 21.38-4.59 42.7 18.75z" class="cls-36"/>
    <path d="M807.9 298.8s27.17 16.76 42.7 18.75c0 0-17.97-22.5-42.7-18.75z" class="cls-15"/>
    <path d="M869.8 339c-1.36-15.45.49-38.44 17.36-59.35" class="cls-45"/>
    <path d="M881.57 287.36s32.91-19.62 35.21-50.8c0 0-27.32 9.64-35.21 50.8z" class="cls-36"/>
    <path d="M916.78 236.56s-19 37.78-35.21 50.8c0 0 4.68-37.88 35.21-50.8z" class="cls-15"/>
    <path d="M834.05 323.97h61.65v10.4h-3.18l-7.27 36.97h-40.28l-7.27-36.97h-3.65v-10.4z" class="cls-19"/>
    <path fill="#64b5f6" d="M837.74 334.37l1.33 6.77 53.48-6.77h-54.81z"/>
  </g>
</svg>
