<svg xmlns="http://www.w3.org/2000/svg" xmlns:xlink="http://www.w3.org/1999/xlink" viewBox="0 0 960 400">
  <defs>
    <linearGradient id="b" x1=".1" x2="1416.29" y1="122.09" y2="122.09" gradientUnits="userSpaceOnUse">
      <stop offset="0" stop-color="#651fff"/>
      <stop offset="1" stop-color="#a0f"/>
    </linearGradient>
    <linearGradient id="a" x1="340.38" x2="352.34" y1="436.87" y2="435.95" gradientTransform="matrix(.98 -.22 .22 .98 -229.7 -123.6)" gradientUnits="userSpaceOnUse">
      <stop offset=".24" stop-color="#f2af83"/>
      <stop offset=".73" stop-color="#f2af83"/>
    </linearGradient>
    <linearGradient id="d" x1="-766.97" x2="-764.94" y1="1309.17" y2="1309.17" gradientTransform="rotate(-102.7 -709.49 378.95)" xlink:href="#a"/>
    <linearGradient id="e" x1="409.2" x2="657.54" y1="282.57" y2="-147.58" xlink:href="#b"/>
    <linearGradient id="c" x1="618.3" x2="634.88" y1="73.09" y2="73.09" gradientUnits="userSpaceOnUse">
      <stop offset=".24" stop-color="#ff9b38"/>
      <stop offset=".73" stop-color="#ff9b38"/>
    </linearGradient>
    <linearGradient id="f" x1="618.04" x2="633.81" y1="351.61" y2="351.61" xlink:href="#c"/>
    <linearGradient id="g" x1="733.27" x2="756.8" y1="720.89" y2="719.08" gradientTransform="rotate(-20.79 -696.79 686.67)" xlink:href="#a"/>
    <linearGradient id="h" x1="-1052.71" x2="-1048.73" y1="1707.97" y2="1707.97" gradientTransform="rotate(-110.79 -710.4 366.94)" xlink:href="#a"/>
  </defs>
  <g data-name="Layer 2">
    <g data-name="Layer 3">
      <g data-name="Backdrop">
        <path fill="#fafafa" d="M952 399.5H8a8 8 0 0 1-8-8V0h960v391.5a8 8 0 0 1-8 8z"/>
        <g data-name="Back Wall">
          <path fill="#fafafa" d="M80.38.38h799.25v336.25H80.38z"/>
          <path fill="#ccc" d="M879.25.75v335.5H80.75V.75h798.5M880 0H80v337h800V0z"/>
        </g>
        <g data-name="Floor">
          <path fill="#fff" d="M8.27 399.63a7.76 7.76 0 0 1-7.48-5.24 7.32 7.32 0 0 1 2.55-8.34l76.77-49.67h799.78l76.79 49.69a7.31 7.31 0 0 1 2.53 8.32 7.76 7.76 0 0 1-7.48 5.24z"/>
          <path fill="#ccc" d="M879.78 336.75l76.67 49.61a7 7 0 0 1 2.41 7.91 7.39 7.39 0 0 1-7.13 5H8.27a7.39 7.39 0 0 1-7.13-5 7 7 0 0 1 2.41-7.91l76.67-49.61h799.56m.22-.75H80L3.11 385.75C-3 390.48.47 400 8.27 400h943.46c7.8 0 11.25-9.52 5.16-14.25L880 336z"/>
        </g>
        <path fill="#f5edc9" d="M246.9 139a16.68 16.68 0 1 0-5.72-32.62 26.58 26.58 0 0 0-51.58-.3 17.13 17.13 0 0 0-3.67-.42 16.68 16.68 0 0 0-1.32 33.34z" data-name="Cloud Yellow"/>
        <path fill="#f2f2f2" d="M781.33 158.79a12.48 12.48 0 0 0-.67-24.95 12.73 12.73 0 0 0-3.62.53 19.9 19.9 0 0 0-38.62-.22 12.48 12.48 0 1 0-3.73 24.62z" data-name="Cloud White"/>
        <path fill="url(#b)" d="M351.07 244.14c-1.8 0-3.66-.06-5.51-.17-27.7-1.63-45.82-18-63.35-33.86s-34.2-30.93-59.29-30.93a65.69 65.69 0 0 0-7.59.45c-17.16 2-29.61 9.91-40.6 16.9-10.63 6.76-20.67 13.14-33.16 13.14a40.24 40.24 0 0 1-7.56-.74c-27.74-5.37-45.42-36.72-53.5-54.93A146.14 146.14 0 0 0 50 185.23c-5.15 6.91-9.18 13.57-12.73 19.44C29.77 217 24.37 226 14.83 227.1a26.29 26.29 0 0 1-3 .17c-5.66 0-11.72-1.78-11.73-4.42 0-31.89 0-64.32.08-95.68.08-39 .16-79.34 0-119a8.17 8.17 0 0 1 2.37-5.8A7.82 7.82 0 0 1 8.16.05h943.73a7.56 7.56 0 0 1 5.39 2.29 9 9 0 0 1 2.55 6.34c-.13 42.11-.05 84.93 0 126.34.07 33.35.13 67.82.09 101.73 0 1.16 0 4.12-1.93 5.68a5.17 5.17 0 0 1-3.35 1c-10.58 0-33.65-19.34-38.17-23.21A181.68 181.68 0 0 1 880 177.1c-4 1.06-96.39 26.41-147.93 27.55q-2.79.06-5.49.06c-14.45 0-26.49-1.2-26.61-1.21-14.79-1.51-30.59-4.76-49.72-10.23-21.39-6.12-38.3-13.88-53.22-20.74-21.7-10-40.44-18.57-65-18.57a122 122 0 0 0-23.48 2.4c-40.28 7.86-63.65 30-84.27 49.53-20.69 19.67-40.28 38.25-73.21 38.25z"/>
        <path fill="#4d4d4d" d="M951.89.1a7.55 7.55 0 0 1 5.35 2.27 8.89 8.89 0 0 1 2.53 6.3c-.12 42.14 0 85 0 126.41.07 33.32.13 67.78.09 101.67v.05c0 1.1 0 4-1.91 5.59a5.17 5.17 0 0 1-3.33 1c-10.56 0-33.62-19.33-38.14-23.2a181.5 181.5 0 0 1-36.42-43.12V177h-.08c-3.91 1.08-96.32 26.43-147.87 27.57-1.77 0-3.62.06-5.48.06-14.4 0-26.11-1.16-26.6-1.21-14.79-1.51-30.59-4.76-49.72-10.23-21.38-6.12-38.29-13.88-53.21-20.73-21.7-10-40.45-18.58-65-18.58a122.1 122.1 0 0 0-23.49 2.4c-40.29 7.86-63.67 30-84.3 49.54-10.64 10.08-20.69 19.6-32.25 26.65a75.55 75.55 0 0 1-41 11.59c-1.8 0-3.65-.06-5.51-.17-27.68-1.63-45.79-18-63.31-33.85s-34.24-30.91-59.32-30.91a65.56 65.56 0 0 0-7.59.45c-17.18 2-29.64 9.92-40.62 16.9-10.63 6.76-20.66 13.14-33.14 13.14a40.14 40.14 0 0 1-7.55-.74c-11.73-2.27-22.77-9.35-32.81-21-7.71-9-14.66-20.36-20.65-33.88v-.11l-.1.07A148.1 148.1 0 0 0 50 185.2c-5.15 6.91-9.18 13.57-12.74 19.44-7.52 12.36-12.92 21.28-22.44 22.41a25.93 25.93 0 0 1-3 .17c-6.22 0-11.68-2-11.69-4.37 0-31.91 0-64.35.08-95.73.08-39 .16-79.3 0-118.95a8.06 8.06 0 0 1 2.42-5.76A7.74 7.74 0 0 1 8.16.1h943.73m0-.1H8.16a8.07 8.07 0 0 0-8 8.17C.4 79.73 0 151.29.06 222.85c0 2.57 5.88 4.47 11.79 4.47a24.46 24.46 0 0 0 3-.17C29 225.48 34.1 206.65 50 185.26A147.32 147.32 0 0 1 80.47 154c9.83 22.2 27.42 49.92 53.53 55a39.85 39.85 0 0 0 7.57.75c25.5 0 40.1-26.12 73.77-30a66.44 66.44 0 0 1 7.58-.45c50.41 0 67.51 61.54 122.63 64.79 1.88.11 3.72.17 5.52.17 65.53 0 76.64-72 157.57-87.78a122 122 0 0 1 23.47-2.4c41.43 0 65.8 24.33 118.16 39.31 20.73 5.92 36.11 8.84 49.74 10.23 0 0 12 1.21 26.61 1.21q2.7 0 5.49-.06c51.11-1.13 142.11-26 147.89-27.57a180.21 180.21 0 0 0 36.45 43.15c3.14 2.69 27.31 23.22 38.2 23.22a5.25 5.25 0 0 0 3.39-1c2-1.6 1.94-4.64 2-5.72.09-76-.34-152-.12-228.07 0-4.79-3.56-8.68-8-8.68z"/>
      </g>
      <g data-name="Pencil Holder">
        <ellipse cx="231.21" cy="343.57" fill="#e6e6e6" rx="37.73" ry="4.59"/>
        <ellipse cx="231.21" cy="272.94" fill="#99acff" rx="37.53" ry=".89"/>
        <path fill="#ff7882" d="M227.94 165.25l23.12 2.04-15.14 171.67-23.12-2.03z"/>
        <path fill="none" stroke="#fff" stroke-linecap="round" stroke-miterlimit="10" stroke-width=".81" d="M247.9 172.86l-10.25-.9m9.84 5.58l-5.57-.49m5.15 5.17l-5.56-.49m5.15 5.17l-5.57-.5m5.16 5.17l-5.57-.49m5.15 5.28l-10.25-.9m9.83 5.58l-5.57-.49m5.16 5.17l-5.57-.49m5.16 5.17l-5.57-.49m5.15 5.16l-5.56-.49m5.14 5.28l-10.25-.9m9.84 5.58l-5.57-.49m5.16 5.17l-5.57-.49m5.15 5.17l-5.57-.49m5.16 5.16l-5.57-.49m5.15 5.28l-10.25-.9m9.83 5.58l-5.56-.49m5.15 5.17l-5.57-.49m5.16 5.17l-5.57-.49m5.16 5.17l-5.57-.5m5.14 5.28l-10.24-.9m9.83 5.58l-5.57-.49m5.16 5.17l-5.57-.49m5.15 5.17l-5.56-.49m5.15 5.17l-5.57-.5"/>
        <path fill="url(#a)" d="M198.5 227.85l4.13-8.89 7.57 6.25-1.61 6.74-5.24 1.18-4.85-5.28z"/>
        <path fill="#ff7882" d="M214.39 267.38a6.46 6.46 0 0 1-.78.21c-.38.09-.66.13-.79.15-1.7.25-4.29.24-5.72-1.78l9.58 42.44c1.43 2 4 2 5.72 1.78.12 0 .41-.06.79-.15a7.07 7.07 0 0 0 .78-.21c1.64-.49 4-1.62 4.4-4.06l-9.57-42.44c-.43 2.44-2.8 3.57-4.41 4.06z"/>
        <path fill="#2e2e2e" d="M202.35 221.33c.13 0 .41-.06.79-.15l.78-.2c.12-.03.53-.18.81-.29l-2.1-1.73-1.15 2.46q.47-.03.87-.09z"/>
        <path fill="#ffa02b" d="M198.5 227.9l3.9-.89 17.83 79.05-3.9.88z"/>
        <path fill="#ffa02b" d="M202.39 227.01l3.9-.88 17.83 79.04-3.9.88z"/>
        <path fill="#ffa02b" d="M206.3 226.13l3.9-.88 17.82 79.05-3.9.88z"/>
        <path fill="#e6e6e6" d="M216.7 308.42l-.33-1.47 11.7-2.64.33 1.47z"/>
        <path fill="#b3b3b3" d="M224.9 305.86l-.33-1.48 3.3-.74.33 1.48z"/>
        <path fill="#999" d="M225.84 306.35l-.33-1.47.44-.1.34 1.47zm1.33-.3l-.34-1.48.62-.14.33 1.48z"/>
        <path fill="url(#d)" d="M198.5 227.85l11.7-2.64s-5.15 5.79-11.7 2.64z"/>
        <path fill="#99cfff" d="M258.25 343.29h-54.07l-10.49-70.23h75.05l-10.49 70.23z"/>
      </g>
      <g data-name="Computer">
        <ellipse cx="480" cy="341.25" fill="#e6e6e6" data-name="Shadow" rx="68.55" ry="4.4"/>
        <path fill="#ccc" d="M528.87 331.3h-33.71a4 4 0 0 1-4-4v-41.72h-22v41.72a4 4 0 0 1-4 4h-33.71a9.14 9.14 0 0 0-9.14 9.14H538a9.14 9.14 0 0 0-9.13-9.14z"/>
        <path fill="#b3b3b3" d="M495.27 293h-30.22a3.82 3.82 0 0 1-2.9-1l-3.76-4.8c-.83-1.05.69-2.19 2.91-2.19H499c2.21 0 3.73 1.14 2.9 2.19l-3.76 4.8a3.82 3.82 0 0 1-2.87 1z"/>
        <rect width="360.9" height="224.42" x="299.55" y="61.58" fill="#e6e6e6" rx="5.54"/>
        <path fill="#b3b3b3" d="M488.2 279.93h-16.4c-2.59 0-4.69-1-4.69-2.27 0-1.26 2.1-2.27 4.69-2.27h16.4c2.59 0 4.69 1 4.69 2.27 0 1.26-2.1 2.27-4.69 2.27z"/>
        <path fill="#2e2e2e" d="M307.55 54h344.9a8 8 0 0 1 8 8v208.84h-360.9V62a8 8 0 0 1 8-8z"/>
        <rect width="348.77" height="197.12" x="305.62" y="60.07" fill="#fff" rx="6"/>
        <rect width="341.09" height="186.69" x="309.46" y="66.59" fill="url(#e)" rx="3.95"/>
        <path fill="#4d4d4d" d="M646.59 66.64a3.91 3.91 0 0 1 3.9 3.9v178.79a3.91 3.91 0 0 1-3.9 3.9H313.41a3.91 3.91 0 0 1-3.9-3.9V70.54a3.91 3.91 0 0 1 3.9-3.9h333.18m0-.1H313.41a4 4 0 0 0-4 4v178.79a4 4 0 0 0 4 4h333.18a4 4 0 0 0 4-4V70.54a4 4 0 0 0-4-4z"/>
        <path fill="url(#c)" d="M634.88 84.67l-8.29-6.4-8.29 6.4V61.51h16.58v23.16z"/>
        <text fill="#fff" font-family="Poppins-Regular,Poppins" font-size="18.2" transform="matrix(.95 0 0 1 335.8 210.03)">
          with the <tspan x="78.06" y="0" font-family="Poppins-Bold,Poppins" font-weight="700" letter-spacing="0em">TDC</tspan><tspan x="115.91" y="0"> Toolkit.</tspan>
        </text>
        <text fill="#fff" font-family="Poppins-Light,Poppins" font-size="32.6" font-weight="300" transform="matrix(.95 0 0 1 335.8 117.25)">
          Boost Your Startup<tspan font-family="Poppins-SemiBold,Poppins" font-size="43.22" font-weight="600"><tspan x="0" y="51.86">at home.</tspan></tspan>
        </text>
        <path fill="#fff" d="M422.44 270.84L641.38 54.76H537.56L318.62 270.84h103.82z" opacity=".4"/>
      </g>
      <g data-name="Book + Mark">
        <ellipse cx="591.3" cy="369.83" fill="#e6e6e6" rx="113.84" ry="7.31"/>
        <path fill="#e6e6e6" d="M668 324.67h-30.89v41.42H668v-4.66s-7.36-11.14 0-35.48z"/>
        <path fill="#284c4f" d="M648 325.3H509.7a23.29 23.29 0 0 0 0 46.57H648v-6.18s-11.76-13.28 0-33.95z"/>
        <path fill="#fff" d="M648 331.74H511a17 17 0 1 0 0 33.95h137s-11.76-13.28 0-33.95z"/>
        <path fill="none" stroke="#e6e6e6" stroke-linecap="round" stroke-miterlimit="10" stroke-width=".81" d="M648 341.56H504.14M648 348.59H504.14M648 355.61H504.14"/>
        <path fill="url(#f)" d="M633.81 362.41l-7.88-5.96-7.89 5.96v-21.6h15.77v21.6z"/>
        <path fill="#284c4f" d="M667.98 321.29H525.73l-19.98 4.38H648l19.98-4.38z"/>
        <path fill="#3d7478" d="M648 331.74v-6.07l19.98-4.38v4.66L648 331.74zm0 40.13v-6.07l19.98-4.37v4.66L648 371.87z"/>
      </g>
      <ellipse cx="269.7" cy="381.26" fill="#e6e6e6" rx="47.14" ry="6.74"/>
      <path fill="#a35233" d="M275.74 207.25c-5.44 1.83-8 6.43-9.27 13.42-1.05 5.67-.86 13.46-4.7 17.9-4.65 5.38-11.1 8.85-13.89 15.54-2.07 5-2.51 11.85.19 17 5.53 10.54 20.67 13.61 35.75 10.9 4.39-.78 16.47-7.74 17-26.47.3-10.41-6-17.58-6.76-24.65-1.05-10-.52-16.19-3-20.67-3.5-6.22-9.24-5.01-15.32-2.97z"/>
      <path fill="#fad161" d="M282.82 237.3s1.66 4.57-5.84 12A130.08 130.08 0 0 0 265.6 262l21.72 17.41-7 5.28s-28.58-16.85-28.28-23.44 26.59-37.86 30.78-23.95z"/>
      <path fill="#3d7478" d="M295.37 376.74s12.89 6.57 17.06 6.49 1.14 1.8-3.39 2.37-6.93-.38-9.72-1a24.77 24.77 0 0 1-8.76-3.75h-.08c-1.7-1.25-1.74-4 .38-4z"/>
      <path fill="#f2af83" d="M295.37 376.74l-.28-3.38-4.49.36.26 3.13 4.51-.11z"/>
      <path fill="#f2af83" d="M295.37 376.74s2.5 1.23 7.95 3.7c5.14 2.33 1.28 2.18-1.52 1.52a34 34 0 0 1-10.94-5.11zm-7.53-101.91l-14.78 3.65s5 40.15 15.2 52.37c0 0-.14 39.28 2.6 46l4.51-.11s4.34-39.69 5.29-45.58c1.14-7.07-3.66-20.84-12.82-56.33z"/>
      <path fill="#cc946e" d="M298.94 317.09c-3.14 0-9.85.1-17.38.35a73.89 73.89 0 0 0 2.7 6.79 70.67 70.67 0 0 0 14.9-6.17c-.07-.32-.16-.64-.22-.97z"/>
      <path fill="#f2af83" d="M288 210.37c3.31 3 4.75 8.84 2.28 12.66s-8 3.78-11.55.69c-3.14-2.74-4.73-7.72-3.25-11.37 1.95-4.73 8.42-5.77 12.52-1.98z"/>
      <path fill="#f2af83" d="M282.77 215.33l-7.68-.42-1 18.58a4.81 4.81 0 0 0 4.55 5.07 4.82 4.82 0 0 0 5.08-5.07z"/>
      <path fill="#a35233" d="M283.06 208.69s1.4 11.91-9.2 12.25c-7.39.24-3.28-18.47 6.72-16.74 14.05 2.43 9.9 9.58 9.9 9.58s-2.2-5.27-7.42-5.09z"/>
      <path fill="#fff" d="M275.46 221.2a1.4 1.4 0 1 0 .75-1.82 1.39 1.39 0 0 0-.75 1.82z"/>
      <path fill="#cc946e" d="M283.41 227.52l-5.13-3.67 5.06 2.32.07 1.35z"/>
      <path fill="#ffa02b" d="M270.2 214.26a6.79 6.79 0 0 1 3.09-7.12"/>
      <path fill="#3d7478" d="M237.65 369.06s7.69 12.25 11.31 14.33.06 2.13-4.12.29-5.76-3.89-7.86-5.81a24.84 24.84 0 0 1-5.59-7.71.36.36 0 0 0 0-.09c-.81-1.95.54-4.27 2.38-3.23z"/>
      <path fill="#f2af83" d="M237.66 369.06l3.19-4.39-5.73-.65-1.39 2.82 3.93 2.22z"/>
      <path fill="#f2af83" d="M237.65 369.06s1.52 2.34 4.93 7.26c3.22 4.64 0 2.52-2.09.52a34.1 34.1 0 0 1-6.76-10zm51.06-88.26l-21-5.71s-7.94 36-6.23 51.86c0 0-23.18 26.09-26.69 37.94l3.72 2.35s28.95-25.65 33-30c4.91-5.24 14.32-22.74 17.2-56.44z"/>
      <path fill="#cc946e" d="M281.65 317.43c-6.76.22-14.19.58-20.3 1.16a61.65 61.65 0 0 0 .11 7.68 54.76 54.76 0 0 0 17.05-.67 89.43 89.43 0 0 0 3.14-8.17z"/>
      <path d="M291.99 290.65l-23.46 9.04-5.39-7.16 28.85-1.88z" opacity=".36"/>
      <path fill="#fff" d="M288 250.9l6.06 39.58-21.74 1.81 5.03-47.92L288 250.9z"/>
      <path fill="#ffa02b" d="M285.56 231.51s-13.91-10.08-17.33 10.49c-2.94 17.69-14.67 78.69-14.67 78.69s32.84 5 49.92-6z"/>
      <path fill="#d4812e" d="M291.24 257.28l1.49 7.09-12.42-17.65 10.93 10.56z"/>
      <path fill="#99cfff" d="M278.49 229.74s5.39-1.71 13.67 7.35a148.52 148.52 0 0 0 14.13 13.82l21.25-24.37 5.8 8.36s-20.95 32.35-28.58 31.68-42.61-32.65-26.27-36.84z"/>
      <path fill="#f2af83" d="M332.83 234.17s6.78-5.72 5.7-10c-1.14-4.48-5.09-4.31-5.81-3.54s-2.93 3.78-2.93 3.78l-2.25 2.1z"/>
      <path fill="#f2af83" d="M327.54 226.54s6.59-10.85 8.82-13-.5 5.18-.5 5.18L331.19 229z"/>
      <path fill="#fad161" d="M278.49 229.74s5.39-1.71 13.67 7.35a148.52 148.52 0 0 0 14.13 13.82l21.25-24.37 5.8 8.36s-20.95 32.35-28.58 31.68-42.61-32.65-26.27-36.84z"/>
      <path fill="#f2af83" d="M332.83 234.17s6.78-5.72 5.7-10c-1.14-4.48-5.09-4.31-5.81-3.54s-2.93 3.78-2.93 3.78l-2.25 2.1z"/>
      <path fill="#f2af83" d="M327.54 226.54s6.59-10.85 8.82-13-.5 5.18-.5 5.18L331.19 229z"/>
      <path fill="#2e2e2e" d="M274.59 235.91c2.66-6.69 2.9-11.37.74-13.9-1-1.2-2.54-1.63-4.14-2.09a12.53 12.53 0 0 1-4.79-2.18c-2.73-2.21-2.8-5.2-.23-9.69l-.44-.26c-2.73 4.75-2.62 7.94.35 10.35a13.13 13.13 0 0 0 5 2.27c1.6.45 3 .85 3.9 1.93 2 2.38 1.76 6.88-.82 13.38z"/>
      <path fill="#2e2e2e" d="M283.4 204.78l-13.09 9.59-5.2-7.11 13.09-9.58z"/>
      <path fill="#2e2e2e" d="M280.47 197.38l-16.33 11.95-1-1.36 16.33-11.95z"/>
      <path fill="#1a1a1a" d="M278.69 198.85a.13.13 0 0 0 0-.18.12.12 0 0 0-.17 0l-12.62 9.24a.13.13 0 0 0 0 .18.13.13 0 0 0 .18 0l12.62-9.24z"/>
      <path fill="#3d7478" d="M274.92 234.58a1.4 1.4 0 1 0 .95 1.74 1.41 1.41 0 0 0-.95-1.74z"/>
      <path fill="#3d7478" d="M272.35 237.42l-1.22 4.15.08.15 2.71.8.14-.08 1.23-4.16a.85.85 0 0 0-.58-1.05l-1.31-.39a.85.85 0 0 0-1.05.58z"/>
      <g data-name="Pencil">
        <path d="M646.46 217.91l6.6 67.67c4.3 0 7.79-4 7.79-9L657.91 193z" opacity=".15"/>
        <path fill="url(#g)" d="M652.33 211.51l5.58-18.47 16.49 10.09-1.28 13.59-9.87 3.75-10.92-8.96z"/>
        <path fill="#ff7882" d="M694.23 284.18c-.22.1-.73.34-1.46.62s-1.26.44-1.5.5c-3.24 1-8.3 1.65-11.65-1.88L710 363.49c3.35 3.54 8.41 2.85 11.64 1.89.24-.07.79-.23 1.51-.51s1.24-.51 1.46-.62c3.06-1.42 7.3-4.27 7.46-9.14L701.69 275c-.15 4.91-4.39 7.75-7.46 9.18z"/>
        <path fill="#2e2e2e" d="M658 197.74a23.63 23.63 0 0 0 4.46-1.9l-4.58-2.8-1.55 5.12c.67-.16 1.19-.27 1.67-.42z"/>
        <path fill="#3d7478" d="M674.42 203.19l-7.36 2.79-7.35 2.79-7.36 2.79 56.61 149.14 7.36-2.79 7.35-2.79 7.36-2.79-56.61-149.14z"/>
        <path fill="#e6e6e6" d="M709.96 363.48l-1.06-2.79 22.06-8.37 1.06 2.78z"/>
        <path fill="#b3b3b3" d="M722.9 358.59l-1.06-2.79 6.2-2.35 1.05 2.79z"/>
        <path fill="#999" d="M727.24 356.95l-1.06-2.79.84-.32 1.06 2.79zm2.52-.97l-1.06-2.79 1.15-.43 1.06 2.78z"/>
        <path fill="url(#h)" d="M652.33 211.51l22.07-8.37s-8.4 12.78-22.07 8.37z"/>
      </g>
      <path fill="#e6e6e6" d="M138.56 372.62c0 3.89-16.14 7.19-36.12 7.36s-36.2-2.85-36.23-6.75 16.13-7.19 36.11-7.36 36.2 2.85 36.24 6.75z"/>
      <path fill="none" stroke="#86a34c" stroke-miterlimit="10" stroke-width="1.62" d="M109.25 355.66c-4.9-14.7-8.43-37.5 3.13-61.75m-10.92 42.52a79.63 79.63 0 0 0-10.36-18.68m9.2 49.25c1.26-17 2-42.49-1.17-68.48"/>
      <path fill="#aad162" d="M93.72 320.32s-12.85-27.38-37.17-31.62c0 0 5.45 22.22 37.17 31.62z"/>
      <path fill="#86a34c" d="M56.55 288.7s28.2 17.91 37.17 31.62c0 0-29.39-6.62-37.17-31.62z"/>
      <path fill="#aad162" d="M100 302.68s9.79-37-10.38-60.93c-.03 0-12.81 26 10.38 60.93z"/>
      <path fill="#86a34c" d="M89.59 241.75s12.82 40.32 10.38 60.93c.03 0-23.16-30.34-10.38-60.93z"/>
      <path fill="#aad162" d="M108.73 302.73s27.47-26.7 22.48-57.57c0 0-24.34 15.71-22.48 57.57z"/>
      <path fill="#86a34c" d="M131.21 245.16s-9.77 41.16-22.48 57.57c0 0-4.22-37.93 22.48-57.57z"/>
      <path fill="none" stroke="#86a34c" stroke-miterlimit="10" stroke-width="1.62" d="M103.06 345.17c.76-11.67 4.78-28.61 19.76-42.26"/>
      <path fill="#aad162" d="M117.77 308s26.79-10.84 32.09-33.83c0 .03-21.48 4.08-32.09 33.83z"/>
      <path fill="#86a34c" d="M149.86 274.2s-18.54 26-32.09 33.83c0-.03 7.84-27.7 32.09-33.83z"/>
      <path fill="none" stroke="#86a34c" stroke-miterlimit="10" stroke-width="1.62" d="M88.93 347.89c5.23-10.46 15.5-24.51 34.61-31.29"/>
      <path fill="#aad162" d="M116.89 319.36s28.9.39 42.7-18.74c0 0-21.38-4.62-42.7 18.74z"/>
      <path fill="#86a34c" d="M159.59 300.62s-27.17 16.76-42.7 18.74c0 0 17.97-22.5 42.7-18.74z"/>
      <path fill="none" stroke="#86a34c" stroke-miterlimit="10" stroke-width="1.62" d="M97.69 340.78c1.36-15.44-.49-38.43-17.36-59.35"/>
      <path fill="#aad162" d="M85.92 289.17S53 269.56 50.71 238.38c0 0 27.29 9.62 35.21 50.79z"/>
      <path fill="#86a34c" d="M50.71 238.38s19.05 37.77 35.21 50.79c0 0-4.68-37.87-35.21-50.79z"/>
      <path fill="#ff7882" d="M133.44 325.79H71.79v10.4h3.18l7.27 36.97h40.28l7.27-36.97h3.65v-10.4z"/>
      <path fill="#c45c61" d="M74.97 336.19l1.34 6.77 53.48-6.77H74.97z"/>
      <g data-name="Pendrive">
        <path fill="#ccc" d="M551.5 300.44h14.85v19.35H551.5z"/>
        <path fill="gray" d="M557.39 313.19h2.53v2.53h-2.53zm0-8.92h2.53v2.53h-2.53z"/>
        <path fill="#99cfff" d="M613.42 296.93h-47.07v26.36h47.07a13.18 13.18 0 0 0 13.18-13.18 13.18 13.18 0 0 0-13.18-13.18zm.28 19.18a6.29 6.29 0 1 1 6.28-6.28 6.28 6.28 0 0 1-6.28 6.28z"/>
        <path d="M566.35 300.44v19.35h-1.83l1.83-19.35z" opacity=".15"/>
      </g>
      <path fill="#8abae6" d="M754.38 221.94s.67-10.11-10.72-6.63c-19.19 5.85-28.12 8.07-28.12 8.07l-30-2.07-.43 6.56s24.2 6.55 31.61 6.08c9.05-.57 38.03-2.28 37.66-12.01z"/>
      <path fill="#f2af83" d="M685.51 221.31s-8.49-12.11-7.08-6c1.54 6.68 2.43 6.22 2.2 7.49s-1.92-.07-3.68.6c-1.6.61 8.13 4.51 8.13 4.51z"/>
      <path fill="#e6e6e6" d="M823.26 362.45c0 2.5-21.47 4.85-48 5.25s-48.13-1.32-48.16-3.82 21.46-4.85 48-5.25 48.12 1.31 48.16 3.82z" style="mix-blend-mode:multiply"/>
      <path fill="#86a34c" d="M745.85 355.15s-13 7.56-17.35 7.71-1.08 1.94 3.66 2.27c3.75.26 19.49-2.3 19.49-2.3.11-2.22-1.12-7.82-1.12-7.82z"/>
      <path fill="#f2af83" d="M691.59 235.42s-9.9-11.15-7.52-5.39c2.61 6.34 3 6.33 2.93 7.61s-1.9.25-3.53 1.2 8.83 3.91 8.83 3.91z"/>
      <path fill="#f2af83" d="M691.59 235.42s-9.9-11.15-7.52-5.39c2.61 6.34 3 6.33 2.93 7.61s-1.9.25-3.53 1.2 8.83 3.91 8.83 3.91zm54.26 119.73l.09-3.52 4.68.12-.09 3.26-4.68.14z"/>
      <path fill="#3d7478" d="M743.21 249.59l15.67 2.3s-3.78 41.81-8.33 58.17c0 0 3.89 27.86.79 43l-6.18.45s-6.1-35.6-7.67-41.6c-1.89-7.16-.16-24.68 5.72-62.32z"/>
      <path d="M750.28 268.82a.56.56 0 0 0-.1-.22z"/>
      <path fill="#284c4f" d="M751.54 306.09a272.4 272.4 0 0 0 4.62-29.34l-1.44-1.24c1 3.13-1.79 7.49-3.18 30.58z"/>
      <path fill="#86a34c" d="M813.57 335.63s-1.44 15-3.84 18.58.94 2 4-1.64c2.4-2.9 9.49-17.18 9.49-17.18-1.73-1.38-7-3.65-7-3.65z"/>
      <path fill="#f2af83" d="M813.57 335.63l-2.81-2.13 2.83-3.74 2.6 1.98-2.62 3.89z"/>
      <path fill="#3d7478" d="M740.54 259.77l21 .18S770.71 263 787 298c0 0 18.34 12.1 28.76 33.31l-4.29 4.45s-29.23-26-34.41-29.44c-6.19-4.07-19.61-18.32-36.52-46.55z"/>
      <path fill="#a35233" d="M738.12 184.42a76.11 76.11 0 0 1-8 .35c-3-.14.33 11.79.33 11.79z"/>
      <path fill="#284c4f" d="M740.61 266.42l-.51 3.88 26.71-6.29"/>
      <path fill="#99cfff" d="M738.18 214s-4 4.64-5.48 16.36c-1.22 9.48 2.56 14.53 3.22 20.81 1.37 13.26 2.9 17.32 2.9 17.32L767 264s-1.72-20.75-6.24-44.52c-1.69-8.69-12.14-9.89-22.58-5.48z"/>
      <path fill="#f2af83" d="M731.85 191c-2.79 5.24-.93 11.13 1.47 14.7 3.09 4.57 9.71 2.34 12.85-2.16 2.79-4 3.18-10.11.46-13.84-3.52-4.86-11.7-4.52-14.78 1.3z"/>
      <path fill="#f2af83" d="M737.2 193.66l7.95-.85 2 19c.35 3.32-7.36 7.58-7.36 7.58-1.93.51-1.51-4-1.51-6.93z"/>
      <path fill="#a35233" d="M734.72 189.65s9.41-3 9.21 12.2c-.11 8.66 19.22-16.14-4.14-17.48-12.89-.74-9.51 11.66-9.51 11.66s-.49-6.3 4.44-6.38z"/>
      <path d="M738.18 210.39l4.37-3.65-4.48 1.68.11 1.97z" opacity=".1"/>
      <path fill="#a35233" d="M731 191.47s10.2-2.24 10.44 4.35c.11 3.14 5 1.63 4.39-.57-4.68-15.75-14.83-3.78-14.83-3.78z"/>
      <path fill="#f2af83" d="M745.55 199.28a1.67 1.67 0 0 1-2.43.74 2.24 2.24 0 0 1-.29-2.85 1.68 1.68 0 0 1 2.44-.75 2.24 2.24 0 0 1 .28 2.86z"/>
      <path fill="#99cfff" d="M759.62 224.6s-1-10.08-11.66-4.8c-18 8.9-26.43 12.54-26.43 12.54l-29.94 3.08.71 7.33s24.85 1.5 32.09-.17c8.86-2.03 37.17-8.44 35.23-17.98z"/>
      <path fill="#f2af83" d="M691.59 235.42s-9.9-11.15-7.52-5.39c2.61 6.34 3 6.33 2.93 7.61s-1.9.25-3.53 1.2 8.83 3.91 8.83 3.91z"/>
      <path fill="#e6e6e6" d="M826.93 370.8c0 3.9 16.14 7.19 36.12 7.36s36.2-2.85 36.23-6.75-16.13-7.19-36.11-7.36-36.17 2.85-36.24 6.75z"/>
      <path fill="none" stroke="#86a34c" stroke-miterlimit="10" stroke-width="1.62" d="M856.24 353.85c4.9-14.71 8.43-37.5-3.13-61.76M864 334.61a79 79 0 0 1 10.35-18.67m-9.16 49.21c-1.26-17-2.05-42.49 1.17-68.48"/>
      <path fill="#fad161" d="M871.77 318.5s12.85-27.38 37.17-31.61c0 0-5.45 22.21-37.17 31.61z"/>
      <path fill="#ffa02b" d="M908.94 286.89s-28.2 17.9-37.17 31.61c0 0 29.39-6.62 37.17-31.61z"/>
      <path fill="#fad161" d="M865.52 300.86s-9.79-37 10.38-60.93c0 0 12.78 26.01-10.38 60.93z"/>
      <path fill="#ffa02b" d="M875.9 239.93s-12.82 40.32-10.38 60.93c0 0 23.16-30.33 10.38-60.93z"/>
      <path fill="#fad161" d="M856.76 300.91s-27.47-26.7-22.48-57.57c0 0 24.34 15.71 22.48 57.57z"/>
      <path fill="#ffa02b" d="M834.28 243.34s9.77 41.16 22.48 57.57c0 0 4.24-37.91-22.48-57.57z"/>
      <path fill="none" stroke="#86a34c" stroke-miterlimit="10" stroke-width="1.62" d="M862.43 343.35c-.76-11.67-4.78-28.6-19.76-42.26"/>
      <path fill="#fad161" d="M847.72 306.22s-26.79-10.85-32.09-33.84c0 0 21.48 4.05 32.09 33.84z"/>
      <path fill="#ffa02b" d="M815.63 272.38s18.54 26 32.09 33.84c0 0-7.84-27.71-32.09-33.84z"/>
      <path fill="none" stroke="#86a34c" stroke-miterlimit="10" stroke-width="1.62" d="M876.56 346.07c-5.23-10.46-15.5-24.51-34.61-31.29"/>
      <path fill="#fad161" d="M848.6 317.55s-28.9.39-42.7-18.75c0 0 21.38-4.59 42.7 18.75z"/>
      <path fill="#ffa02b" d="M805.9 298.8s27.17 16.76 42.7 18.75c0 0-17.97-22.5-42.7-18.75z"/>
      <path fill="none" stroke="#86a34c" stroke-miterlimit="10" stroke-width="1.62" d="M867.8 339c-1.36-15.45.49-38.44 17.36-59.35"/>
      <path fill="#fad161" d="M879.57 287.36s32.91-19.62 35.21-50.8c0 0-27.32 9.64-35.21 50.8z"/>
      <path fill="#ffa02b" d="M914.78 236.56s-19 37.78-35.21 50.8c0 0 4.68-37.88 35.21-50.8z"/>
      <path fill="#99cfff" d="M832.05 323.97h61.65v10.4h-3.18l-7.27 36.97h-40.28l-7.27-36.97h-3.65v-10.4z"/>
      <path fill="#64b5f6" d="M835.74 334.37l1.33 6.77 53.48-6.77h-54.81z"/>
    </g>
  </g>
</svg>
