<svg xmlns="http://www.w3.org/2000/svg" xmlns:xlink="http://www.w3.org/1999/xlink" viewBox="0 0 960 540">
  <defs>
    <linearGradient id="b" x1="80.5" y1="207.99" x2="879.5" y2="207.99" gradientUnits="userSpaceOnUse">
      <stop offset="0" stop-color="#651fff"/>
      <stop offset="1" stop-color="#a0f"/>
    </linearGradient>
    <linearGradient id="a" x1="296.11" y1="286.69" x2="311.8" y2="285.48" gradientTransform="matrix(.98 -.22 .22 .98 -205.69 92.09)" gradientUnits="userSpaceOnUse">
      <stop offset=".24" stop-color="#f2af83"/>
      <stop offset=".73" stop-color="#f2af83"/>
    </linearGradient>
    <linearGradient id="d" x1="362.52" y1="286.75" x2="365.18" y2="286.75" gradientTransform="matrix(-.22 -.98 .98 -.22 -45.41 724.47)" xlink:href="#a"/>
    <linearGradient id="e" x1="371.23" y1="392.26" x2="588.94" y2="15.17" xlink:href="#b"/>
    <linearGradient id="c" x1="662.49" y1="89.17" x2="684.36" y2="89.17" gradientUnits="userSpaceOnUse">
      <stop offset=".24" stop-color="#ff9b38"/>
      <stop offset=".73" stop-color="#ff9b38"/>
    </linearGradient>
    <linearGradient id="f" x1="669.85" y1="460.15" x2="690.56" y2="460.15" xlink:href="#c"/>
    <linearGradient id="g" x1="794.96" y1="451.2" x2="825.86" y2="448.81" gradientTransform="rotate(-20.79 283.079 686.706)" xlink:href="#a"/>
    <linearGradient id="h" x1="195.62" y1="793.33" x2="200.84" y2="793.33" gradientTransform="rotate(-110.79 269.573 366.96)" xlink:href="#a"/>
  </defs>
  <g data-name="Layer 2">
    <g data-name="OBJECTS">
      <g data-name="Backdrop">
        <path d="M944.62 540H15.38A15.39 15.39 0 0 1 0 524.62V0h960v524.62A15.39 15.39 0 0 1 944.62 540z" fill="#f5edff"/>
        <g data-name="Back Wall">
          <path fill="#f5edff" d="M80.5.5h799v440h-799z"/>
          <path d="M879 1v439H81V1h798m1-1H80v441h800V0z" fill="#ccc"/>
        </g>
        <g data-name="Floor">
          <path d="M10.18 539.5a8.6 8.6 0 0 1-7.85-4.91 8.22 8.22 0 0 1 1.08-8.9l76.81-85.2h799.56l76.82 85.22a8.2 8.2 0 0 1 1.07 8.88 8.6 8.6 0 0 1-7.85 4.91z" fill="#fff"/>
          <path d="M879.56 441l76.64 85a7.7 7.7 0 0 1 1 8.36 8.09 8.09 0 0 1-7.4 4.63H10.18a8.09 8.09 0 0 1-7.4-4.63 7.69 7.69 0 0 1 1-8.32L80.44 441h799.12m.44-1H80L3 525.38A9 9 0 0 0 10.18 540h939.64a9 9 0 0 0 7.18-14.62L880 440z" fill="#ccc"/>
        </g>
        <path d="M878.47 64.51A241.92 241.92 0 0 0 875.77 0H84.89A2 2 0 0 0 83 1.5c-20.92 81.5 98.66 127.87 83.17 210-28 148.63 136.33 230.2 230 197.22 122.6-43.17 198.09-244.67 300.54-222.66 41.95 9 55 43.56 92.52 35 52.55-11.92 83.62-96.62 89.24-156.55z" fill="url(#b)"/>
        <path data-name="Cloud Yellow" d="M246.9 129a16.68 16.68 0 1 0-5.72-32.62 26.58 26.58 0 0 0-51.58-.3 17.13 17.13 0 0 0-3.67-.42 16.68 16.68 0 0 0-1.32 33.34z" fill="#f5edc9"/>
        <path data-name="Cloud White" d="M828.09 155.05a12.48 12.48 0 0 0-.67-25 12.73 12.73 0 0 0-3.62.53 19.9 19.9 0 0 0-38.62-.22 12.48 12.48 0 1 0-3.74 24.64z" fill="#f2f2f2"/>
      </g>
      <g data-name="Pencil Holder">
        <ellipse cx="193.15" cy="458.78" rx="49.53" ry="6.03" fill="#e6e6e6"/>
        <path fill="#ff7882" d="M184.906 224.671l30.363 2.678-19.879 225.395-30.362-2.678z"/>
        <path fill="none" stroke="#fff" stroke-linecap="round" stroke-miterlimit="10" stroke-width="1.061" d="M211.12 234.66l-13.45-1.19M210.58 240.8l-7.31-.64M210.04 246.94l-7.32-.64M209.49 253.09l-7.31-.65M208.95 259.23l-7.31-.65M208.4 265.51l-13.46-1.18M207.85 271.66l-7.31-.65M207.31 277.8l-7.31-.65M206.77 283.94l-7.31-.65M206.23 290.08l-7.31-.65M205.67 296.37l-13.45-1.19M205.13 302.51l-7.31-.65M204.59 308.65l-7.31-.65M204.05 314.79l-7.31-.64M203.5 320.93l-7.31-.64M202.95 327.22l-13.45-1.19M202.41 333.36l-7.31-.64M201.87 339.5l-7.32-.64M201.32 345.65l-7.31-.65M200.78 351.79l-7.31-.65M200.23 358.07l-13.46-1.18M199.68 364.22l-7.31-.65M199.14 370.36l-7.31-.65M198.6 376.5l-7.31-.65M198.06 382.64l-7.31-.65"/>
        <path fill="url(#a)" d="M146.26 306.85l5.42-11.67 9.94 8.21-2.12 8.85-6.86 1.55-6.38-6.94z"/>
        <path d="M167.13 358.76c-.16.05-.52.16-1 .27s-.88.17-1.05.19c-2.22.34-5.63.32-7.51-2.33l12.58 55.71c1.87 2.65 5.28 2.68 7.51 2.34.16 0 .53-.08 1-.19s.86-.22 1-.27c2.16-.66 5.22-2.14 5.78-5.34l-12.57-55.72c-.52 3.2-3.59 4.68-5.74 5.34z" fill="#ff7882"/>
        <path d="M151.32 298.29c.16 0 .54-.08 1-.19s.86-.22 1-.27c.34-.1.69-.23 1.06-.37l-2.76-2.28-1.5 3.23a10 10 0 0 0 1.2-.12z" fill="#2e2e2e"/>
        <path fill="#ffa02b" d="M146.258 306.911l5.12-1.155 23.408 103.783-5.12 1.155z"/>
        <path fill="#ffa02b" d="M151.367 305.745l5.121-1.155 23.408 103.783-5.121 1.155z"/>
        <path fill="#ffa02b" d="M156.489 304.597l5.121-1.155 23.408 103.783-5.122 1.155z"/>
        <path fill="#e6e6e6" d="M170.146 412.634l-.438-1.941 15.354-3.463.438 1.94z"/>
        <path fill="#b3b3b3" d="M179.125 410.595l-.438-1.941 4.312-.973.438 1.942z"/>
        <path fill="#999" d="M182.15 409.92l-.438-1.94.585-.133.438 1.941zM183.893 409.523l-.438-1.942.8-.18.438 1.941z"/>
        <path d="M146.27 306.85l15.35-3.46s-6.76 7.61-15.35 3.46z" fill="url(#d)"/>
        <path fill="#99cfff" d="M228.64 458.4h-70.98l-13.78-92.19h98.54l-13.78 92.19z"/>
      </g>
      <g data-name="Computer">
        <ellipse data-name="Shadow" cx="480" cy="457.05" rx="90" ry="5.78" fill="#e6e6e6"/>
        <path d="M556.16 456h-151.9a12 12 0 0 1 12-12h127.9a12 12 0 0 1 12 12z" fill="#ccc" data-name="Stand Base"/>
        <path fill="#ccc" d="M459.21 369.23h42v80h-42z"/>
        <path d="M500.81 389.23h-41.2a4.26 4.26 0 0 1-4-2.52l-5.13-12a4 4 0 0 1 4-5.48h51.45a4 4 0 0 1 4 5.48l-5.12 12a4.29 4.29 0 0 1-4 2.52z" fill="#b3b3b3"/>
        <rect x="242" y="74" width="476" height="295.99" rx="5.54" fill="#e6e6e6"/>
        <path d="M490.82 362h-21.64c-3.41 0-6.18-1.34-6.18-3s2.77-3 6.18-3h21.64c3.41 0 6.18 1.34 6.18 3 0 1.65-2.77 3-6.18 3z" fill="#b3b3b3"/>
        <path d="M250 64h460a8 8 0 0 1 8 8v278H242V72a8 8 0 0 1 8-8z" fill="#2e2e2e"/>
        <rect x="250" y="72" width="460" height="259.99" rx="6" fill="#fff"/>
        <rect x="255.08" y="80.54" width="450" height="246.36" rx="4" fill="url(#e)"/>
        <path fill="url(#c)" d="M684.36 104.44l-10.94-8.43-10.93 8.43V73.9h21.87v30.54z"/>
        <text transform="matrix(.95 0 0 1 289.75 156.66)" font-size="43" fill="#fff" font-family="Poppins-Light,Poppins" font-weight="300">
          Boost Your Startup<tspan font-size="57" font-family="Poppins-SemiBold,Poppins" font-weight="600"><tspan x="0" y="68.4">at home.</tspan></tspan>
        </text>
        <text transform="matrix(.95 0 0 1 289.75 290.9)" font-size="24" fill="#fff" font-family="Poppins-Regular,Poppins">
          with the <tspan x="102.96" y="0" font-family="Poppins-Bold,Poppins" font-weight="700">TDC</tspan><tspan x="152.88" y="0"> Toolkit.</tspan>
        </text>
        <path fill="#fff" opacity=".4" d="M404.08 349.99L692.85 65H555.91L267.15 349.99h136.93z"/>
      </g>
      <g data-name="Book + Mark">
        <ellipse cx="634.74" cy="484.06" rx="149.45" ry="9.6" fill="#e6e6e6"/>
        <path d="M735.41 424.78h-40.52v54.37h40.52V473s-9.65-14.62 0-46.57z" fill="#e6e6e6"/>
        <path d="M709.18 425.6H527.62a30.58 30.58 0 1 0 0 61.15h181.56v-8.11s-15.43-17.44 0-44.58z" fill="#284c4f"/>
        <path d="M709.18 434.06H529.31a22.29 22.29 0 1 0 0 44.58h179.87s-15.43-17.44 0-44.58z" fill="#fff"/>
        <path fill="none" stroke="#e6e6e6" stroke-linecap="round" stroke-miterlimit="10" stroke-width="1.061" d="M709.18 446.95H520.31M709.18 456.17H520.31M709.18 465.4H520.31"/>
        <path fill="url(#f)" d="M690.56 474.32l-10.35-7.82-10.35 7.82v-28.35h20.7v28.35z"/>
        <path fill="#284c4f" d="M735.41 420.34H548.66l-26.23 5.75h186.75l26.23-5.75z"/>
        <path fill="#3d7478" d="M709.18 434.06v-7.97l26.23-5.75v6.12l-26.23 7.6zM709.18 486.75v-7.97l26.23-5.74v6.11l-26.23 7.6z"/>
      </g>
      <ellipse cx="237.11" cy="508.26" rx="61.88" ry="8.85" fill="#e6e6e6"/>
      <path d="M245.05 279.81c-7.15 2.4-10.47 8.44-12.17 17.61-1.39 7.45-1.14 17.68-6.18 23.51-6.1 7.05-14.56 11.61-18.23 20.4-2.72 6.51-3.29 15.56.25 22.33 7.28 13.84 27.14 17.87 46.93 14.34 5.76-1 21.62-10.16 22.32-34.76.39-13.66-7.89-23.08-8.87-32.37-1.38-13.11-.68-21.24-4-27.13-4.53-8.26-12.1-6.61-20.05-3.93z" fill="#a35233"/>
      <path d="M254.34 319.26s2.19 6-7.66 15.78a168.82 168.82 0 0 0-14.94 16.6l28.51 22.85-9.16 6.94S213.57 359.3 214 350.66s34.84-49.66 40.34-31.4z" fill="#fad161"/>
      <path d="M270.81 502.33s16.93 8.62 22.4 8.51 1.5 2.37-4.44 3.12-9.11-.5-12.77-1.25a32.5 32.5 0 0 1-11.5-4.92l-.1-.07c-2.24-1.64-2.28-5.18.49-5.25z" fill="#3d7478"/>
      <path fill="#f2af83" d="M270.81 502.33l-.36-4.44-5.89.48.33 4.11 5.92-.15z"/>
      <path d="M270.81 502.33s3.29 1.61 10.45 4.85c6.75 3.06 1.67 2.87-2 2a44.64 44.64 0 0 1-14.37-6.71z" fill="#f2af83"/>
      <path d="M260.94 368.53l-19.41 4.8s6.56 52.7 20 68.75c0 0-.18 51.57 3.41 60.39l5.92-.14s5.7-52.12 6.95-59.84c1.45-9.28-4.91-27.36-16.87-73.96z" fill="#f2af83"/>
      <path d="M275.5 424c-4.12 0-12.93.14-22.82.46a92.35 92.35 0 0 0 3.56 8.91 93.29 93.29 0 0 0 19.56-8.09c-.1-.41-.2-.83-.3-1.28z" fill="#cc946e"/>
      <path d="M261.18 283.9c4.35 4 6.23 11.61 3 16.63-3.36 5.19-10.52 5-15.17.9-4.12-3.59-6.2-10.13-4.26-14.93 2.51-6.21 11.01-7.58 16.43-2.6z" fill="#f2af83"/>
      <path d="M254.27 290.41l-10.08-.54-1.32 24.38a6.35 6.35 0 0 0 6 6.67 6.34 6.34 0 0 0 6.66-6.66z" fill="#f2af83"/>
      <path d="M254.65 281.7s1.84 15.64-12.07 16.09c-9.71.31-4.32-24.26 8.81-22 18.46 3.2 13 12.58 13 12.58s-2.88-6.91-9.74-6.67z" fill="#a35233"/>
      <path d="M244.68 298.13a1.83 1.83 0 1 0 1-2.4 1.83 1.83 0 0 0-1 2.4z" fill="#fff"/>
      <path fill="#cc946e" d="M255.11 306.43l-6.73-4.83 6.64 3.05.09 1.78z"/>
      <path d="M237.77 289a8.9 8.9 0 0 1 4-9.33" fill="#ffa02b"/>
      <path d="M195 492.24s10.1 16.09 14.85 18.81.07 2.81-5.42.39-7.55-5.1-10.31-7.62a32.67 32.67 0 0 1-7.34-10.13v-.12c-1.07-2.55.7-5.61 3.12-4.24z" fill="#3d7478"/>
      <path fill="#f2af83" d="M195.04 492.24l4.2-5.76-7.53-.85-1.82 3.7 5.15 2.91zM195 492.24s2 3.07 6.47 9.53c4.22 6.09 0 3.32-2.75.69a45 45 0 0 1-8.87-13.13z"/>
      <path d="M262.07 376.37l-27.51-7.5s-10.43 47.31-8.18 68.08c0 0-30.44 34.27-35 49.82l4.88 3.08s38-33.68 43.33-39.41c6.35-6.89 18.7-29.83 22.48-74.07z" fill="#f2af83"/>
      <path d="M252.81 424.47c-8.88.29-18.64.76-26.66 1.52a82 82 0 0 0 .15 10.07 71.86 71.86 0 0 0 22.39-.87c1.38-3.13 2.77-6.69 4.12-10.72z" fill="#cc946e"/>
      <path d="M266.38 389.31l-30.81 11.86-7.07-9.4 37.88-2.46z" opacity=".36"/>
      <path fill="#fff" d="M261.14 337.11l7.96 51.97-28.54 2.37 6.59-62.9 13.99 8.56z"/>
      <path d="M257.94 311.66s-18.27-13.24-22.75 13.73c-3.87 23.22-19.27 103.31-19.27 103.31s43.12 6.54 65.54-7.86z" fill="#ffa02b"/>
      <path fill="#d4812e" d="M265.39 345.49l1.97 9.31-16.32-23.17 14.35 13.86z"/>
      <path d="M248.66 309.33s7.07-2.25 18 9.66a196.13 196.13 0 0 0 18.54 18.14l27.9-32 7.62 11s-27.51 42.47-37.52 41.59-56-42.88-34.54-48.39z" fill="#99cfff"/>
      <path d="M320 315.15s8.89-7.5 7.48-13.1c-1.49-5.87-6.68-5.64-7.62-4.64s-3.85 5-3.85 5l-3 2.76z" fill="#f2af83"/>
      <path d="M313.05 305.14s8.65-14.25 11.59-17-.67 6.79-.67 6.79l-6.13 13.52z" fill="#f2af83"/>
      <path d="M248.66 309.33s7.07-2.25 18 9.66a196.13 196.13 0 0 0 18.54 18.14l27.9-32 7.62 11s-27.51 42.47-37.52 41.59-56-42.88-34.54-48.39z" fill="#fad161"/>
      <path d="M320 315.15s8.89-7.5 7.48-13.1c-1.49-5.87-6.68-5.64-7.62-4.64s-3.85 5-3.85 5l-3 2.76z" fill="#f2af83"/>
      <path d="M313.05 305.14s8.65-14.25 11.59-17-.67 6.79-.67 6.79l-6.13 13.52z" fill="#f2af83"/>
      <path d="M243.54 317.43c3.48-8.78 3.81-14.92 1-18.25-1.35-1.57-3.33-2.14-5.44-2.74a16.43 16.43 0 0 1-6.28-2.86c-3.58-2.91-3.68-6.83-.3-12.73l-.58-.33c-3.58 6.24-3.43 10.43.46 13.58a17.22 17.22 0 0 0 6.52 3c2.09.6 3.89 1.12 5.11 2.54 2.67 3.12 2.31 9-1.08 17.56z" fill="#2e2e2e"/>
      <path fill="#2e2e2e" d="M255.099 276.577l-17.178 12.577-6.829-9.327 17.178-12.577z"/>
      <path fill="#2e2e2e" d="M251.242 266.85l-21.438 15.695-1.312-1.79 21.438-15.697z"/>
      <path d="M248.91 268.78a.17.17 0 0 0 0-.24.16.16 0 0 0-.23 0l-16.57 12.12a.17.17 0 0 0 0 .24.16.16 0 0 0 .23 0l16.56-12.12z" fill="#1a1a1a"/>
      <path d="M244 315.69a1.84 1.84 0 1 0 1.24 2.28 1.85 1.85 0 0 0-1.24-2.28z" fill="#3d7478"/>
      <path d="M240.67 319.16l-1.67 5.75.08.14 3.63 1.07.15-.08 1.68-5.75a.84.84 0 0 0-.57-1.05l-2.24-.65a.84.84 0 0 0-1.06.57z" fill="#3d7478"/>
      <g data-name="Pencil">
        <path d="M670.41 290.09l7.75 78.72c5.06 0 9.17-4.68 9.17-10.46l-1.89-97.2z" opacity=".15"/>
        <path fill="url(#g)" d="M678.11 285.4l7.33-24.25 21.64 13.25-1.68 17.85-12.95 4.91-14.34-11.76z"/>
        <path d="M733.13 380.8c-.3.14-1 .46-1.92.82s-1.67.57-2 .66c-4.25 1.27-10.89 2.17-15.29-2.48l39.91 105.13c4.4 4.65 11 3.75 15.29 2.48.31-.09 1-.3 2-.66s1.63-.68 1.92-.82c4-1.87 9.59-5.6 9.79-12l-39.9-105.13c-.22 6.4-5.79 10.13-9.8 12z" fill="#ff7882"/>
        <path d="M685.59 267.32c.32-.09 1-.3 2-.66s1.62-.67 1.92-.82c.62-.29 1.28-.63 2-1l-6-3.68-2 6.72c.67-.17 1.41-.36 2.08-.56z" fill="#2e2e2e"/>
        <path fill="#3d7478" d="M707.11 274.47l-9.66 3.67-9.66 3.66-9.66 3.67 74.33 195.81 9.66-3.67 9.66-3.67 9.66-3.66-74.33-195.81z"/>
        <path fill="#e6e6e6" d="M753.774 484.913l-1.388-3.656 28.972-11 1.388 3.656z"/>
        <path fill="#b3b3b3" d="M770.772 478.49l-1.388-3.655 8.133-3.088 1.388 3.656z"/>
        <path fill="#999" d="M776.467 476.333l-1.388-3.656 1.103-.419 1.388 3.656zM779.773 475.085l-1.388-3.656 1.515-.575 1.387 3.656z"/>
        <path d="M678.11 285.4l29-11s-11.11 16.79-29 11z" fill="url(#h)"/>
      </g>
      <path d="M161.17 496.91c.05 5.12-21.18 9.45-47.41 9.67s-47.53-3.74-47.57-8.86 21.18-9.45 47.41-9.67 47.53 3.75 47.57 8.86z" fill="#e6e6e6"/>
      <path d="M122.69 474.66c-6.43-19.31-11.07-49.24 4.11-81.08M112.46 449.41a103.35 103.35 0 0 0-13.59-24.52M111 489.49c1.66-22.37 2.69-55.78-1.54-89.9" fill="none" stroke="#86a34c" stroke-miterlimit="10" stroke-width="2.122"/>
      <path d="M102.31 428.25s-16.87-35.94-48.8-41.5c0 0 7.15 29.16 48.8 41.5z" fill="#aad162"/>
      <path d="M53.51 386.75s37 23.5 48.8 41.5c0 0-38.59-8.69-48.8-41.5z" fill="#86a34c"/>
      <path d="M110.52 405.1s12.85-48.63-13.64-80c0 0-16.77 34.14 13.64 80z" fill="#aad162"/>
      <path d="M96.88 325.1s16.84 52.94 13.64 80c0 0-30.41-39.83-13.64-80z" fill="#86a34c"/>
      <path d="M122 405.16s36.06-35.06 29.51-75.59c.02 0-31.94 20.63-29.51 75.59z" fill="#aad162"/>
      <path d="M151.53 329.57S138.7 383.62 122 405.16c0 0-5.53-49.79 29.53-75.59z" fill="#86a34c"/>
      <path d="M114.57 460.87c1-15.32 6.28-37.55 26-55.48" fill="none" stroke="#86a34c" stroke-miterlimit="10" stroke-width="2.122"/>
      <path d="M133.88 412.13s35.17-14.24 42.13-44.42c-.01 0-28.2 5.29-42.13 44.42z" fill="#aad162"/>
      <path d="M176 367.71s-24.34 34.11-42.13 44.42c.01 0 10.3-36.38 42.13-44.42z" fill="#86a34c"/>
      <path d="M96 464.45c6.87-13.73 20.35-32.18 45.43-41.08" fill="none" stroke="#86a34c" stroke-miterlimit="10" stroke-width="2.122"/>
      <path d="M132.72 427s37.94.51 56.06-24.61c0 0-28.06-6.03-56.06 24.61z" fill="#aad162"/>
      <path d="M188.78 402.39s-35.66 22-56.06 24.61c0 0 23.59-29.54 56.06-24.61z" fill="#86a34c"/>
      <path d="M107.52 455.12c1.78-20.27-.64-50.46-22.79-77.92" fill="none" stroke="#86a34c" stroke-miterlimit="10" stroke-width="2.122"/>
      <path d="M92.07 387.36s-43.2-25.75-46.23-66.69c0 0 35.87 12.66 46.23 66.69z" fill="#aad162"/>
      <path d="M45.84 320.67s25 49.6 46.23 66.69c0 0-6.14-49.72-46.23-66.69z" fill="#86a34c"/>
      <path fill="#ff7882" d="M154.45 435.44H73.51v13.65h4.19l9.54 48.54h52.88l9.54-48.54h4.79v-13.65z"/>
      <path fill="#c45c61" d="M77.7 449.09l1.74 8.89 70.22-8.89H77.7z"/>
      <g data-name="Pendrive">
        <path fill="#ccc" d="M573.3 392.96h19.5v25.4h-19.5z"/>
        <path fill="gray" d="M581.04 409.71h3.32v3.32h-3.32zM581.04 397.99h3.32v3.32h-3.32z"/>
        <path d="M654.6 388.36h-61.8V423h61.8a17.31 17.31 0 0 0 17.3-17.3 17.31 17.31 0 0 0-17.3-17.34zm.36 25.18a8.25 8.25 0 1 1 8.25-8.25 8.25 8.25 0 0 1-8.21 8.25z" fill="#99cfff"/>
        <path d="M592.8 392.96v25.4h-2.41l2.41-25.4z" opacity=".15"/>
      </g>
      <path d="M812.09 299.1s.88-13.28-14.08-8.72C772.82 298.07 761.1 301 761.1 301l-39.42-2.71-.57 8.6s31.77 8.6 41.5 8c11.92-.77 49.96-3.02 49.48-15.79z" fill="#8abae6"/>
      <path d="M721.68 298.27s-11.15-15.9-9.31-7.93c2 8.77 3.2 8.17 2.9 9.82s-2.53-.08-4.84.8c-2.09.79 10.68 5.91 10.68 5.91z" fill="#f2af83"/>
      <path d="M902.52 483.56c.05 3.29-28.18 6.37-63 6.9s-63.18-1.73-63.23-5 28.18-6.38 63-6.9 63.18 1.71 63.23 5z" style="mix-blend-mode:multiply" fill="#e6e6e6"/>
      <path d="M800.89 474s-17.08 9.92-22.77 10.12-1.42 2.55 4.79 3c4.93.34 25.6-3 25.6-3 .14-2.9-1.47-10.26-1.47-10.26z" fill="#86a34c"/>
      <path d="M729.65 316.8s-13-14.65-9.87-7.08c3.42 8.32 3.88 8.31 3.85 10s-2.5.33-4.64 1.57c-1.93 1.13 11.6 5.14 11.6 5.14z" fill="#f2af83"/>
      <path d="M729.65 316.8s-13-14.65-9.87-7.08c3.42 8.32 3.88 8.31 3.85 10s-2.5.33-4.64 1.57c-1.93 1.13 11.6 5.14 11.6 5.14zM800.89 473.99l.12-4.63 6.14.16-.11 4.28-6.15.19z" fill="#f2af83"/>
      <path d="M797.43 335.39l20.56 3s-5 54.9-10.92 76.37c0 0 5.1 36.58 1 56.52l-8.1.58s-8-46.74-10.07-54.61c-2.46-9.43-.2-32.44 7.53-81.86z" fill="#3d7478"/>
      <path d="M806.71 360.64a.68.68 0 0 0-.14-.29z"/>
      <path d="M808.36 409.57c1.77-7.09 5.19-28 6.07-38.51l-1.89-1.63c1.32 4.1-2.35 9.76-4.18 40.14z" fill="#284c4f"/>
      <path d="M889.8 448.35s-1.89 19.66-5 24.4 1.24 2.64 5.22-2.16c3.15-3.8 12.46-22.55 12.46-22.55-2.28-1.82-9.19-4.8-9.19-4.8z" fill="#86a34c"/>
      <path fill="#f2af83" d="M889.8 448.35l-3.69-2.8 3.72-4.89 3.41 2.58-3.44 5.11z"/>
      <path d="M793.92 348.76l27.53.24s12.08 4 33.49 50c0 0 24.08 15.89 37.76 43.73l-5.64 5.85s-38.36-34.17-45.16-38.64c-8.16-5.41-25.78-24.19-47.98-61.18z" fill="#3d7478"/>
      <path d="M790.75 249.84a98.39 98.39 0 0 1-10.52.45c-3.91-.18.43 15.48.43 15.48z" fill="#a35233"/>
      <path fill="#284c4f" d="M794.02 357.49l-.68 5.1 35.07-8.26"/>
      <path d="M790.82 288.72s-5.21 6.09-7.19 21.48c-1.6 12.45 3.36 19.08 4.22 27.32 1.8 17.41 3.81 22.74 3.81 22.74l37-6s-2.27-27.25-8.2-58.45c-2.21-11.35-15.93-12.93-29.64-7.09z" fill="#99cfff"/>
      <path d="M782.51 258.43c-3.66 6.89-1.23 14.61 1.94 19.3 4 6 12.73 3.08 16.86-2.84 3.67-5.25 4.18-13.27.61-18.16-4.62-6.34-15.36-5.9-19.41 1.7z" fill="#f2af83"/>
      <path d="M789.53 262l10.47-1.15 2.65 24.91c.47 4.36-9.66 9.95-9.66 9.95-2.53.67-2-5.19-2-9.1z" fill="#f2af83"/>
      <path d="M786.28 256.7s12.35-3.92 12.09 16c-.15 11.37 25.24-21.19-5.43-23-16.93-1-12.49 15.3-12.49 15.3s-.65-8.2 5.83-8.3z" fill="#a35233"/>
      <path d="M790.82 283.93l5.74-4.79-5.89 2.21.15 2.58z" opacity=".1"/>
      <path d="M781.34 259.1s13.4-3 13.71 5.71c.14 4.12 6.61 2.12 5.76-.76-6.09-20.67-19.47-4.95-19.47-4.95z" fill="#a35233"/>
      <path d="M800.5 269.34c-.78 1.31-2.21 1.75-3.2 1a3 3 0 0 1-.37-3.75c.78-1.31 2.21-1.75 3.19-1a2.94 2.94 0 0 1 .38 3.75z" fill="#f2af83"/>
      <path d="M819 302.59s-1.29-13.24-15.31-6.31C780.05 308 769 312.75 769 312.75l-39.31 4.05.94 9.62s32.62 2 42.13-.22c11.59-2.68 48.76-11.09 46.24-23.61z" fill="#99cfff"/>
      <path d="M729.65 316.8s-13-14.65-9.87-7.08c3.42 8.32 3.88 8.31 3.85 10s-2.5.33-4.64 1.57c-1.93 1.13 11.6 5.14 11.6 5.14z" fill="#f2af83"/>
    </g>
  </g>
</svg>
