<svg xmlns="http://www.w3.org/2000/svg" viewBox="0 0 129.08 129.11">
  <defs>
    <style>
      .cls-10,.cls-2,.cls-7,.cls-8{fill:none}.cls-2{stroke:#fff;stroke-width:1.14px}.cls-10,.cls-2,.cls-8{stroke-linejoin:round}.cls-3{fill:#ffdfc6}.cls-5{fill:#373463}.cls-6,.cls-7{stroke-miterlimit:10;stroke-width:1.14px}.cls-6{fill:#ffe1c5;stroke:#ffe1c5}.cls-7{stroke:#f2c4ad}.cls-10,.cls-8{stroke:#1a1a1a;stroke-linecap:round}.cls-8{stroke-width:.82px}.cls-9{fill:#1a1a1a}.cls-10{stroke-width:.47px}
    </style>
  </defs>
  <g id="Layer_2" data-name="Layer 2">
    <g id="Layer_3" data-name="Layer 3">
      <path fill="#59bcf9" d="M112 102.64l-31.64-15H48.67l-31.67 15S-1.42 109.42.09 129.11H129c1.81-19.51-17-26.47-17-26.47z"/>
      <path d="M.9 120.03h127.34M4.84 112.28H124.5M13.26 104.53h39.02M28.37 97.34H42.9M89.09 97.34h12.24M79.09 104.57l36.3-.04" class="cls-2"/>
      <path d="M80.66 87.6V53.89h-32V87.6l-7.92 3.76s.63 15 24.25 15.28 26-14 26-14z" class="cls-3"/>
      <path fill="#f2c4ad" d="M48.91 64.41S51.59 78 63.42 79.56C77 81.36 80.66 64.75 80.66 64.75s-6 7.54-15.53 7.55a20.8 20.8 0 0 1-16.22-7.89z"/>
      <path d="M52 7.17S56.74-2.89 73.39.82c11.75 2.63 16.3 10.87 18 15.49a10.84 10.84 0 0 1 .49 5.53L88.11 41 70.35 14l-16.54 1.26z" class="cls-5"/>
      <path d="M87.45 42.4a5.33 5.33 0 0 1 6.61-1.74c4.45 1.69 2.44 12.49-4.24 13.87a5.29 5.29 0 0 1-4.27-1.12s1.64-7.98 1.9-11.01z" class="cls-6"/>
      <path d="M93.18 44.47s-3.73-1.24-6.38 4.25M88.61 46s4.06 2.2 1.39 5.46" class="cls-7"/>
      <path d="M41.91 42.4a5.31 5.31 0 0 0-6.6-1.74c-4.45 1.69-2.44 12.49 4.23 13.87a5.28 5.28 0 0 0 4.27-1.12s-1.64-7.98-1.9-11.01z" class="cls-6"/>
      <path d="M36.19 44.47s3.73-1.24 6.37 4.25M40.75 46s-4 2.17-1.37 5.43" class="cls-7"/>
      <path d="M87.9 32.15c0 6.52-.64 20.14-4.64 28.23C79.5 68 73.28 72.06 65.13 72.3S50.9 69.41 46 59.55s-4.6-27.28-4.6-27.28S41.4 9 64.4 9c24.22 0 23.5 23.15 23.5 23.15z" class="cls-3"/>
      <path d="M63 34.68V49.5a1.57 1.57 0 0 0 .13.65 1.72 1.72 0 0 0 2.06 1l1.81-.51" class="cls-8"/>
      <circle cx="53.81" cy="40.71" r="1.78" class="cls-9"/>
      <path d="M76 40.71a1.78 1.78 0 1 1-1.78-1.78A1.78 1.78 0 0 1 76 40.71z" class="cls-9"/>
      <path d="M57.03 42.65l-4.42 2.92M71.43 42.64l3.91 2.94" class="cls-10"/>
      <path d="M56.83 54.23s2.08 1.59 7.54 1.59a19.18 19.18 0 0 0 8.08-1.59" class="cls-8"/>
      <path d="M62.43 59a16.09 16.09 0 0 0 4.56-1" class="cls-10"/>
      <path d="M68.39 33.09l14.08 3.64s-.64-3.95-6.4-5.38-7.68 1.74-7.68 1.74zM59.65 33.09l-14.08 3.64s.64-3.95 6.4-5.38 7.68 1.74 7.68 1.74zM41.4 41.79L37.78 22a8.83 8.83 0 0 1 .7-4.89c1.76-3.85 6.83-12.3 13.52-9.94l1.78 8.09s-8.54 1.72-12 12.89z" class="cls-5"/>
      <path d="M89.76 28.64S87.17 8.92 74.53 7.53a44.32 44.32 0 0 0-23.18 4.18l-2.64 2s.43.52 1.28 1.35C39.92 16 41.4 31 41.4 31a41.94 41.94 0 0 0 11.34-13.52c5.89 4.8 18.26 12.29 37.02 11.16z" class="cls-5"/>
    </g>
  </g>
</svg>
