<svg xmlns="http://www.w3.org/2000/svg" viewBox="0 0 129.08 134.82">
  <defs>
    <style>
      .cls-2{fill:#ffdfc6}.cls-4{fill:#373463}.cls-5{fill:#ffe1c5}.cls-6,.cls-7,.cls-9{fill:none}.cls-6{stroke:#f2c4ad;stroke-miterlimit:10;stroke-width:1.14px}.cls-7,.cls-9{stroke:#1a1a1a;stroke-linecap:round;stroke-linejoin:round}.cls-7{stroke-width:.82px}.cls-8{fill:#1a1a1a}.cls-9{stroke-width:.47px}
    </style>
  </defs>
  <g id="Layer_2" data-name="Layer 2">
    <g id="Layer_3" data-name="Layer 3">
      <path fill="#fc5954" d="M112 108.36l-31.64-15H48.67l-31.67 15S-1.42 115.13.09 134.82H129c1.81-19.51-17-26.46-17-26.46z"/>
      <path d="M80.66 93.31v-33.7h-32v33.7l-7.92 3.77s.63 15 24.25 15.28 26-14 26-14z" class="cls-2"/>
      <path fill="#f2c4ad" d="M48.91 70.12s2.68 13.6 14.51 15.16C77 87.08 80.66 70.47 80.66 70.47S74.64 78 65.13 78a20.83 20.83 0 0 1-16.22-7.88z"/>
      <path d="M40.75 49.08s.45-7.35-5.36-10.73A8.63 8.63 0 0 1 32 26.26a8.3 8.3 0 0 1 2-2.34 2.4 2.4 0 0 0 .69-2.78 5.67 5.67 0 0 1 .83-5.47c1.15-1.21 2.18-2.64 5.89-2.13 4.47.61 3.19-4.3 3.13-7.95-.1-5.28 9.17-9.23 18.66-.27 0 0 1.55 2.21 6.53.81S84.87 1.59 92.1 7.64s.12 12.45 2.61 17.36 4.75 9.4-.71 13.59-5.39 13.16-5.39 13.16z" class="cls-4"/>
      <path d="M87.45 48.12a5.33 5.33 0 0 1 6.61-1.74c4.45 1.68 2.44 12.49-4.24 13.86a5.26 5.26 0 0 1-4.27-1.11s1.65-7.98 1.9-11.01z" class="cls-5"/>
      <path d="M93.18 50.19s-3.73-1.25-6.38 4.24M88.61 51.75s4.06 2.17 1.38 5.43" class="cls-6"/>
      <path d="M41.91 48.12a5.31 5.31 0 0 0-6.6-1.74c-4.45 1.68-2.44 12.49 4.23 13.86a5.26 5.26 0 0 0 4.27-1.11s-1.64-7.98-1.9-11.01z" class="cls-5"/>
      <path d="M36.19 50.19s3.73-1.25 6.37 4.24M40.75 51.75s-4 2.17-1.37 5.43" class="cls-6"/>
      <path d="M87.9 37.87c0 6.51-.64 20.14-4.64 28.22-3.76 7.6-10 11.69-18.13 11.93S50.9 75.12 46 65.26 41.4 38 41.4 38s0-23.27 23-23.27c24.22-.01 23.5 23.14 23.5 23.14z" class="cls-2"/>
      <path d="M63 40.4v14.81a1.62 1.62 0 0 0 .13.66 1.72 1.72 0 0 0 2.06 1l1.81-.52" class="cls-7"/>
      <circle cx="53.81" cy="46.42" r="1.78" class="cls-8"/>
      <circle cx="74.23" cy="46.42" r="1.78" class="cls-8"/>
      <path d="M57.03 48.37l-4.42 2.91M71.43 48.35l3.91 2.95" class="cls-9"/>
      <path d="M56.83 59.18s2.08 1.59 7.54 1.59a19.18 19.18 0 0 0 8.08-1.59" class="cls-7"/>
      <path d="M61.43 63.9s4.61-.17 6.56-1" class="cls-9"/>
      <path d="M68.6 38.81l14.07 3.63s-.64-3.95-6.4-5.38-7.67 1.75-7.67 1.75zM60.23 38.81l-14.08 3.63s.64-3.95 6.4-5.38 7.68 1.75 7.68 1.75z" class="cls-4"/>
      <circle cx="52.4" cy="48.37" r="8.58" class="cls-9" transform="rotate(-22.62 52.415 48.365)"/>
      <circle cx="76.69" cy="48.37" r="8.58" class="cls-9" transform="rotate(-26.3 76.7 48.366)"/>
      <path d="M61 49.08s3-4.66 7.14 0" class="cls-9"/>
      <path d="M62.54 12.31c-16 0-18.57 7.63-18.62 12.34a20.56 20.56 0 0 0-2.52-6.94L38.93 35l2.93 11.88s3.1-9.32 2.5-18.59 2.55-9.86 11.76-4.2c5.5 3.38 18.11 9.73 31.78.8 0-.02-7.64-12.58-25.36-12.58z" class="cls-4"/>
    </g>
  </g>
</svg>
