<svg xmlns="http://www.w3.org/2000/svg" viewBox="0 0 113 132.24">
  <defs>
    <style>
      .cls-1{fill:#373463}.cls-2{fill:#ffdfc6}.cls-4{fill:#ffe1c5}.cls-5,.cls-6,.cls-8{fill:none}.cls-5{stroke:#f2c4ad;stroke-miterlimit:10;stroke-width:1.14px}.cls-6,.cls-8{stroke:#1a1a1a;stroke-linecap:round;stroke-linejoin:round}.cls-6{stroke-width:.82px}.cls-7{fill:#1a1a1a}.cls-8{stroke-width:.49px}
    </style>
  </defs>
  <g id="Layer_2" data-name="Layer 2">
    <g id="Layer_3" data-name="Layer 3">
      <path d="M100.64 51c-2.39-9-3.26-7.43-11.29-25.44-4.8-10.76-8.51-15.09-10.72-16.83S70.52 0 56 0a32 32 0 0 0-21.87 8.3C32 9.7 28.07 13.77 22.81 25.56c-8 18-8.9 16.39-11.28 25.45s.65 25.77 19.31 29a13.87 13.87 0 0 1-3.25-6.29s7.81 10.66 18.41 10h20.1c10.63.66 18.45-10 18.45-10A13.83 13.83 0 0 1 81.32 80C100 76.78 103 60.07 100.64 51zM.09 132.24c-1.56-19 17.56-27.42 17.56-27.42l26.51-15.6h24.7l26.5 15.6s19 9 17.56 27.42" class="cls-1"/>
      <path d="M68.86 89.22l13.62 8c-31 20.36-52.24.17-52.24.17l13.92-8.19V53.82h24.7v36" class="cls-2"/>
      <path fill="#f2c4ad" d="M44.16 69.15s2 11.08 11.76 11.28c12.75.27 12.54-10.79 12.54-10.79s-1.74 3.25-11.6 3.27c-11 .01-12.7-3.76-12.7-3.76z"/>
      <path d="M80.35 42.08a4.92 4.92 0 0 1 6.1-1.61C90.57 42 88.71 52 82.54 53.29a4.9 4.9 0 0 1-4-1s1.57-7.41 1.81-10.21z" class="cls-4"/>
      <path d="M85.64 44s-3.45-1.15-5.89 3.93M81.42 45.43s3.75 2 1.27 5" class="cls-5"/>
      <path d="M33.11 42.08A4.93 4.93 0 0 0 27 40.47C22.89 42 24.75 52 30.92 53.29a4.91 4.91 0 0 0 3.95-1s-1.52-7.41-1.76-10.21z" class="cls-4"/>
      <path d="M27.82 44s3.44-1.15 5.89 3.93M32 45.43s-3.75 2-1.28 5" class="cls-5"/>
      <path d="M80.73 33.47c0 6.4-.66 19.8-4.81 27.75C72 68.68 65.58 72.7 57.13 72.94S42.39 70.09 37.35 60.4s-4.81-26.81-4.81-26.81 0-22.87 23.84-22.87c25.1 0 24.35 22.75 24.35 22.75z" class="cls-2"/>
      <path d="M54.94 43.88v4.35a1.91 1.91 0 0 0 .13.68 1.79 1.79 0 0 0 2.14 1l1.41-.38" class="cls-6"/>
      <path d="M47.25 40.16a1.85 1.85 0 1 1-1.85-1.84 1.84 1.84 0 0 1 1.85 1.84zM68.41 40.16a1.84 1.84 0 1 1-1.84-1.84 1.84 1.84 0 0 1 1.84 1.84z" class="cls-7"/>
      <path d="M48.74 42.18l-4.58 3.02M63.67 42.16l4.05 3.05" class="cls-8"/>
      <path d="M48.54 54.18s2.15 1.65 7.81 1.65a19.83 19.83 0 0 0 8.37-1.65" class="cls-6"/>
      <path d="M54.34 59.06A16.55 16.55 0 0 0 59.06 58" class="cls-8"/>
      <path d="M51.46 32.66L38.38 36s.6-3.67 5.95-5 7.13 1.66 7.13 1.66zM59.76 32.66L72.83 36s-.59-3.67-5.94-5-7.13 1.66-7.13 1.66z" class="cls-1"/>
      <path d="M87.36 28.91s-6.54-24.6-31-26.06-27 26.06-27 26.06h3c-.72 4.23-1.1 9.71.81 13.17 0 0 3-6.51 2.37-13.17 4-3.55 9.78-7.33 16-6.4 3.28.49 4.78 2 8.81 3.7A38.71 38.71 0 0 0 78 28.91a29.48 29.48 0 0 0 1 9.08 29.9 29.9 0 0 0 1.41 4.09c1.91-3.46 1.53-8.94.81-13.17z" class="cls-1"/>
    </g>
  </g>
</svg>
