<svg xmlns="http://www.w3.org/2000/svg" xmlns:xlink="http://www.w3.org/1999/xlink" viewBox="0 0 360 500">
  <defs>
    <style>
      .cls-1{fill:none}.cls-4{fill:#fff}.cls-14{opacity:.7}.cls-17{fill:#c4bee0}.cls-18{fill:#e890c4}.cls-19{fill:#d3a9cf}.cls-20{fill:#edd59e}.cls-21{fill:#ad90db}.cls-22{fill:#23207b}.cls-31{fill:#271673}.cls-27{fill:#f2bfd6}.cls-29{fill:#e49c97}.cls-32{fill:#f7355f}.cls-35{fill:#db5482}.cls-36{fill:#231450}.cls-43{fill:#58196b}
    </style>
    <clipPath id="clip-path">
      <path class="cls-1" d="M0 0h360v500H0z"/>
    </clipPath>
    <clipPath id="clip-path-2">
      <path class="cls-1" d="M-150.88 0h661.76v500h-661.76z"/>
    </clipPath>
    <linearGradient id="Gradient_bez_nazwy_9" y1="250" x2="360" y2="250" gradientUnits="userSpaceOnUse">
      <stop offset="0" stop-color="#672d8f"/>
      <stop offset="1" stop-color="#eb1e79"/>
    </linearGradient>
    <linearGradient id="Gradient_bez_nazwy_9-2" x1="-501.23" y1="646.77" x2="563.2" y2="646.77" gradientTransform="matrix(.64 -.77 .95 .8 -698.16 159.59)" xlink:href="#Gradient_bez_nazwy_9"/>
    <linearGradient id="Gradient_bez_nazwy_13" x1="-662" y1="698.62" x2="402.43" y2="698.62" gradientTransform="matrix(.64 -.77 .95 .8 -698.16 159.59)" gradientUnits="userSpaceOnUse">
      <stop offset="0" stop-color="#672d8f"/>
      <stop offset="1" stop-color="#eb7e79"/>
    </linearGradient>
    <linearGradient id="Gradient_bez_nazwy_31" x1="-.54" y1="235.22" x2="183.06" y2="270.67" gradientUnits="userSpaceOnUse">
      <stop offset="0" stop-color="#fdc442"/>
      <stop offset=".67" stop-color="#c01e79"/>
      <stop offset="1" stop-color="#001e79"/>
    </linearGradient>
    <linearGradient id="Gradient_bez_nazwy_31-2" x1="103.18" y1="206.55" x2="-14.98" y2="507.86" xlink:href="#Gradient_bez_nazwy_31"/>
    <linearGradient id="Gradient_bez_nazwy_31-3" x1="112.94" y1="210.37" x2="-5.22" y2="511.68" xlink:href="#Gradient_bez_nazwy_31"/>
    <linearGradient id="Gradient_bez_nazwy_32" x1="158.18" y1="426.44" x2="397.63" y2="312.55" gradientUnits="userSpaceOnUse">
      <stop offset=".07" stop-color="#fdc442"/>
      <stop offset=".54" stop-color="#c01e79"/>
      <stop offset="1" stop-color="#001e79"/>
    </linearGradient>
    <linearGradient id="Gradient_bez_nazwy_31-4" x1="225.61" y1="430.91" x2="299.23" y2="224.35" xlink:href="#Gradient_bez_nazwy_31"/>
    <linearGradient id="Gradient_bez_nazwy_31-5" x1="238.36" y1="435.45" x2="311.98" y2="228.9" xlink:href="#Gradient_bez_nazwy_31"/>
    <clipPath id="clip-path-3">
      <path class="cls-1" d="M295.36 343.08V343s-5.88-46.68-9.33-73.2c-2.77-21.29-12.84-25.28-20.53-26.09-1.25-2.82-1.22-6.47-.66-10.14a17.07 17.07 0 0 0 2.94-9.94c1.23-.35 2.52-2.46 2.61-5.22a7.21 7.21 0 0 0-.33-2.59c3.48-4.92 3.8-8.67 1.39-10.53 2 0 2.4-1.2 2.42-1.26a.21.21 0 0 0-.13-.27.22.22 0 0 0-.27.13c0 .06-.41 1-2.26 1a2.63 2.63 0 0 0 .73-.42c1.39-1.19 1.28-3.57 1.28-3.67a.2.2 0 0 0-.22-.2.21.21 0 0 0-.2.22s.1 2.27-1.13 3.33a2.58 2.58 0 0 1-.49.32c2.41-2.91-8.64-5.23-11.62-10.05-5-8.09-15.47-10.85-20.84-6.84-7 5.25-4.48 10.26 1.31 14a8.58 8.58 0 0 0 1.53 1.75c-2.52 3.87-3 13.61-.08 16.13v.74c.84 12.16 1.13 21.41 11.45 19.79a34.5 34.5 0 0 1-1.68 3.91 15.58 15.58 0 0 0-8.06 4.08 7.43 7.43 0 0 0-2.4 2.91l-17.64 35.41-31.3 21.81 3 6.11L234 295.14l4.38-6.7c.1 3.67.18 7.5.22 11.35l-9.15 4.21-9.67.25-7.8 5.31 1.31 4.55 6.76-1.12 11.3-2.44 7.31-2.09c0 18.17-.5 34.51-.5 34.51-.08.55-.14 1.23-.2 2-21.19 5.5-54.41 14-54.41 14l15.85 98.53h.73l.36 3.81h-.75s-24.61 6.53-13.16 6.53 13.95-1.26 13.95-1.26l1.21 1.07a23 23 0 0 0 5.76 0c1.14-1.85 0-6.34 0-6.34h-.69l-.27-3.81h.52l-.65-79.5L236 456.63l1.16-.17 1.13 4.26-.44.08s-23.2 10.5-11.9 8.61 13.54-3.55 13.54-3.55l1.37.85a22.38 22.38 0 0 0 5.69-.95c.81-2-1-6.24-1-6.24l-1 .15-1-4.18 1.05-.16-15.48-81 66.29-5.83c1.93-1.4 6.07-17.8-.05-25.42zM241 202.12c.32.19.66.37 1 .56l-.2.25a8.71 8.71 0 0 1-.8-.81z"/>
    </clipPath>
  </defs>
  <g style="isolation:isolate">
    <g id="Service_Cards" data-name="Service Cards">
      <g clip-path="url(#clip-path)" id="Analytics_Toolkit" data-name="Analytics Toolkit">
        <path class="cls-4" d="M-150.88 0h661.76v500h-661.76z"/>
        <g clip-path="url(#clip-path-2)">
          <path fill="url(#Gradient_bez_nazwy_9)" d="M0 0h360v500H0z"/>
          <path d="M-592 718.77c35.61-132.64 172.1-136.83 310.14-160.29 160.49-27.28 138.19-289.65 362.49-352.43 248.79-69.64 669.9 424.07-13.08 742.07C-451.3 1189.69-643.21 909.59-592 718.77z" fill="url(#Gradient_bez_nazwy_9-2)" opacity=".6"/>
          <path d="M-646 883.31c35.6-132.63 172.1-136.83 310.14-160.29 160.48-27.28 138.17-289.65 362.47-352.43 248.8-69.64 669.9 424.07-13.08 742.07-518.82 241.57-710.74-38.53-659.53-229.35z" opacity=".3" fill="url(#Gradient_bez_nazwy_13)"/>
          <circle cx="424.08" cy="224.56" r="164.31" transform="rotate(-45 424.077 224.562)" style="mix-blend-mode:color-dodge" fill="#fdc442"/>
          <circle cx="454.41" cy="242.19" r="131.3" opacity=".4" fill="#fdc442"/>
        </g>
        <ellipse cx="180.68" cy="471.5" rx="174.32" ry="16.35" style="mix-blend-mode:multiply" fill="#e8e8e8"/>
        <circle cx="149.28" cy="186.25" r="123.81" opacity=".2" fill="#ddddf5"/>
        <path d="M141.47 353.39a136.47 136.47 0 1 1 96.49-40 135.54 135.54 0 0 1-96.49 40zm0-272.48c-75 0-136 61-136 136s61 136 136 136 136-61 136-136-61-136-136-136z" opacity=".5" fill="#ddddf5"/>
        <g class="cls-14">
          <path fill="#e2808b" d="M314.88 141.31l-141.13-9.12v-5.95l141.13 9.13v5.94z"/>
          <path fill="#ebe2eb" d="M314.88 141.31l-141.13-9.12v86.77l141.13 9.12v-86.77z"/>
          <path class="cls-17" d="M307.37 201.53l-83-5.36a.25.25 0 0 1-.22-.24.2.2 0 0 1 .22-.21l83 5.37a.23.23 0 0 1 .22.23.2.2 0 0 1-.22.21zM307.37 182.76l-83-5.37a.24.24 0 0 1-.22-.24.21.21 0 0 1 .22-.21l83 5.37a.24.24 0 0 1 .22.24.21.21 0 0 1-.22.21zM307.37 164l-83-5.37a.23.23 0 0 1-.22-.23.2.2 0 0 1 .22-.21l83 5.36a.25.25 0 0 1 .22.24.2.2 0 0 1-.22.21z"/>
          <path class="cls-18" d="M197.83 157.8L182 161.62c-2.67-8.92 2.25-17.85 11-20a16.64 16.64 0 0 1 4.84-.41z"/>
          <path class="cls-19" d="M197.83 157.8l-11.5 11.2a17 17 0 0 1-4.33-7.35z"/>
          <path class="cls-20" d="M197.83 157.8l9.49 14.2c-6.56 4.17-15.23 2.93-21-3z"/>
          <path class="cls-21" d="M197.83 157.8v-16.55a17.91 17.91 0 0 1 16.55 17.62 14.83 14.83 0 0 1-7.06 13.1zM197.84 196.46l7.77-14.11c8.07 4.81 11.13 15 6.84 22.82a14.94 14.94 0 0 1-2.91 3.74z"/>
          <path class="cls-18" d="M197.55 179.89a15.15 15.15 0 0 0-16 12.64l16.3 3.93 7.77-14.11a16.31 16.31 0 0 0-8.07-2.46z"/>
          <path class="cls-20" d="M197.84 196.46l11.7 12.45c-6.46 6.05-16.94 5.37-23.41-1.51a16.77 16.77 0 0 1-4.59-14.87zM240.88 156.81l-16.55-1.07v-4.33l16.55 1.07v4.33z"/>
          <path class="cls-18" d="M290.54 178.69l-66.21-4.28v-4.33l66.21 4.28v4.33z"/>
          <path class="cls-21" d="M263.55 195.61l-39.22-2.53v-4.33l39.22 2.54v4.32z"/>
        </g>
        <g class="cls-14">
          <path class="cls-22" d="M190.47 100.51L20.92 89.55v-7.13l169.55 10.96v7.13z"/>
          <path fill="#e5e2ed" d="M190.47 100.51L20.92 89.55V193.8l169.55 10.96V100.51z"/>
          <path class="cls-17" d="M181.45 172.82L29.94 163a.25.25 0 0 1-.22-.24.21.21 0 0 1 .22-.21l151.51 9.79a.25.25 0 0 1 .22.24.2.2 0 0 1-.22.24zM181.45 150.27l-151.51-9.8a.24.24 0 0 1-.22-.24.21.21 0 0 1 .22-.21l151.51 9.8a.24.24 0 0 1 .22.24.21.21 0 0 1-.22.21z"/>
          <path class="cls-18" d="M99.3 175.11a.91.91 0 0 1-.47-.16l-38.28-26.24-29.2 21.81a.91.91 0 0 1-1.26-.21.88.88 0 0 1 .13-1.26l29.7-22.17a.9.9 0 0 1 1 0L99.05 173l28.29-39.41a.87.87 0 0 1 1.15-.22l53.37 30.89a1 1 0 0 1 .39 1.24.87.87 0 0 1-1.21.31l-52.67-30.49L100 174.77a.83.83 0 0 1-.7.34z"/>
          <path class="cls-21" d="M60.48 163a.9.9 0 0 1-.59-.27l-29.7-28.35a.87.87 0 1 1 1.19-1.27l29 27.68 25.72-31.04a.83.83 0 0 1 .64-.3.94.94 0 0 1 .69.29l32 32.77 61.46-43.74a.91.91 0 0 1 1.26.24.89.89 0 0 1-.16 1.25l-62.07 44.17a.92.92 0 0 1-1.17-.13L86.9 131.69l-25.71 31a.81.81 0 0 1-.63.3z"/>
          <path class="cls-17" d="M181.45 127.71l-151.51-9.79a.25.25 0 0 1-.22-.24.2.2 0 0 1 .22-.21l151.51 9.79a.25.25 0 0 1 .22.24.21.21 0 0 1-.22.21z"/>
          <path class="cls-22" d="M181.45 195.38l-151.51-9.79a.25.25 0 0 1-.22-.24v-86a.21.21 0 0 1 .22-.21.25.25 0 0 1 .23.24v85.74l151.28 9.78a.25.25 0 0 1 .22.24.21.21 0 0 1-.22.24z"/>
          <path class="cls-18" d="M68.22 106.25l-28.11-1.82v-4.37l28.11 1.81v4.38z"/>
          <path class="cls-21" d="M49.33 111.72l-9.22-.6v-4.37l9.22.59v4.38zM71.27 113.14l-20.01-1.3v-4.37l20.01 1.29v4.38z"/>
          <path class="cls-18" d="M72.83 106.54l7.73.5v-4.37l-7.73-.5v4.37z"/>
        </g>
        <path class="cls-22" d="M194.35 120.57a.24.24 0 0 1-.23-.24V90.67a.21.21 0 0 1 .23-.21.25.25 0 0 1 .22.24v29.66a.21.21 0 0 1-.22.21zM318.42 234.28a.24.24 0 0 1-.23-.24V132.15a.21.21 0 0 1 .23-.21.23.23 0 0 1 .22.23v101.9a.2.2 0 0 1-.22.21z"/>
        <path class="cls-4" d="M14.79 207a.24.24 0 0 1-.23-.24v-30.87a.21.21 0 0 1 .23-.21.25.25 0 0 1 .22.24v30.87a.2.2 0 0 1-.22.21z"/>
        <path class="cls-22" d="M198.6 247.06a.25.25 0 0 1-.23-.24V226.3a.21.21 0 0 1 .23-.21l8.72.56a.25.25 0 0 1 .22.24.21.21 0 0 1-.22.21l-8.5-.55v20.3a.21.21 0 0 1-.22.21zM298.07 233l-83.59-5.41a.23.23 0 0 1-.22-.24.21.21 0 0 1 .22-.21l83.59 5.41a.24.24 0 0 1 .23.24.22.22 0 0 1-.23.21zM306.1 233.49l-4.62-.3a.25.25 0 0 1-.23-.24.21.21 0 0 1 .23-.21l4.62.3a.23.23 0 0 1 .22.24.21.21 0 0 1-.22.21z"/>
        <path d="M181 178l14.47-26.29c15 9 20.74 28 12.75 42.52a28.33 28.33 0 0 1-5.42 7z" fill="#271673" opacity=".6"/>
        <path d="M176.2 141c-14.91-.7-27.23 9-29.82 23.54l30.37 7.32 14.47-26.28A30.24 30.24 0 0 0 176.2 141z" fill="#cd0e4e" opacity=".6"/>
        <path d="M176.75 177.75l21.8 23.25c-12 11.27-31.57 10-43.61-2.82-7.42-7.89-10.38-17.49-8.56-27.71z" fill="#fdc442"/>
        <path class="cls-4" d="M171.9 206.93a30.49 30.49 0 0 1-20.2-9.66c-6.88-7.32-9.62-16.2-7.93-25.67a.2.2 0 0 1 .25-.17l27.92 6.73a.24.24 0 0 1 .12.07l20 21.34a.2.2 0 0 1 .07.16.17.17 0 0 1-.07.15 26.8 26.8 0 0 1-20.16 7.05zm-27.73-35c-1.58 9.24 1.13 17.9 7.85 25.06 10.91 11.61 28.63 12.81 39.61 2.71l-19.84-21.11z"/>
        <path class="cls-27" d="M109.95 453.89l1.04 8.02-5.37.41-1.23-8.43h5.56zM68.05 453.92l.87 8.02-5.38.4-1.06-8.42h5.57z"/>
        <path class="cls-22" d="M50.71 306.32h47.94c.61 5 .54 19.46.25 24.16H49.53a195.12 195.12 0 0 1 1.18-24.16z"/>
        <path class="cls-22" d="M98.65 316.82c1.1 8.07 6.54 73.59 6.54 73.59l6 66.45h-6.78L88.7 390.81l-15.58-73c-2.2-7.06 24.07-11.76 25.53-.99z"/>
        <path class="cls-22" d="M49.37 316.82c-1.1 8.07 4.87 74.1 4.87 74.1l7.88 65.94h6.78l1.83-65.54 4-73.49c2.2-7.08-23.9-11.78-25.36-1.01zM111.49 460.84h-6.67s-1 4.24 0 6a17.43 17.43 0 0 0 5 0l1-1s2.14 1.19 12 1.19-11.33-6.19-11.33-6.19zM62.73 460.84h6.67s1 4.24 0 6c0 0-.21.41-2.59 0l-.23-1s-1.16 1.16-8.8 1.16c-9.78 0 4.95-6.16 4.95-6.16z"/>
        <path d="M57.68 218.66C54.3 221.94 33.49 257 33.49 257l14.85 24.92 3.85-5.08-5.66-19.07 25.72-33.34c3.6-9.16.64-20.53-14.57-5.77z" fill="url(#Gradient_bez_nazwy_31)"/>
        <path class="cls-29" d="M57.49 280.29l4.21 1.03.17-1.02-5.35-3.59-5.63-.71-2.55 5.91 8.64 4.9 5.26 2.65 2.51-3.73-7.08-6.78"/>
        <path d="M78.42 227.21c4.75-.38 35.36-6.93 35.36-6.93l28.49-24.1-3.77-3.84-28 17.43-41 1.5c-9.99.22-.73 16.73 8.92 15.94z" fill="url(#Gradient_bez_nazwy_31-2)"/>
        <path class="cls-29" d="M86.41 185.77c2.22 12.57 1.92 21.06-8.34 21C65.45 206.75 65 193.24 63.9 187s-.95-16.5 7.71-17.55 12.44 2.95 14.8 16.32z"/>
        <path class="cls-31" d="M66.59 167.1c7.33-2.38 14.62 0 22.8 4.51s2.39 13.51-6.1 12.19-16.7-16.7-16.7-16.7z"/>
        <path class="cls-31" d="M93.3 173.44a.24.24 0 0 1-.16-.07c-3.77-4-9.24-5-18.3-3.44a.22.22 0 0 1-.08-.44c6.51-1.13 13.82-1.6 18.7 3.57a.22.22 0 0 1 0 .31.26.26 0 0 1-.16.07z"/>
        <path class="cls-29" d="M74.43 195.7c-6.26-.54-4.68 3.62-3.72 7.58 1.07 4.41 1.48 9.21-2.34 12.95-5.68 5.56 18.6 4.65 15.3 0s-4.77-11.55-4.09-17.41c.24-2.05-3.47-2.97-5.15-3.12z"/>
        <path class="cls-31" d="M73.28 171.44a.21.21 0 0 1-.2-.13.22.22 0 0 1 .11-.29c7.41-3.42 13.09-4.85 18.55-1.48a.23.23 0 0 1 .08.31.22.22 0 0 1-.31.07c-5.3-3.27-10.86-1.85-18.13 1.5a.18.18 0 0 1-.1.02z"/>
        <path class="cls-31" d="M75.74 200.18c-5.52 2.07-14.14 1.93-19.53-7.84-12.11-21.93 11.51-32.28 22.65-27.59 10.78 4.54 12.31 29.65-3.12 35.43z"/>
        <path class="cls-32" d="M70.67 181.75c-3.57 1.34-9.14 1.25-12.62-5.06-7.82-14.17 7.43-20.86 14.64-17.83 6.96 2.93 7.95 19.14-2.02 22.89z"/>
        <path class="cls-31" d="M52.91 152.38c19.68-7.68 22.29 17.34 18.4 29.87-5.35 17.22-22.41 28-22.13 32.49s6 4.32 6 4.32-7.1 3.75-12.11-1.14C35 210.05 35 195.3 40.61 189.35c8.32-8.76-10.18-28.2 12.3-36.97z"/>
        <path class="cls-31" d="M49.41 220.64a9 9 0 0 1-6.49-2.56c-8.23-8-8.24-22.83-2.48-28.89 3.17-3.33 2.34-8.35 1.47-13.66-1.39-8.41-3-17.94 10.92-23.36l.08.21-.08-.21c6-2.36 10.91-1.86 14.49 1.47 6.63 6.18 6.71 20.63 4.2 28.68-3.27 10.53-10.78 18.55-16.27 24.4-3.33 3.55-6 6.35-5.85 8 .27 4.21 5.54 4.13 5.78 4.12s.2.06.22.16a.23.23 0 0 1-.11.26 14.2 14.2 0 0 1-5.88 1.38zm3.58-68c-13.55 5.28-12 14.63-10.64 22.87.89 5.42 1.74 10.55-1.58 14-5.63 5.92-5.6 20.41 2.46 28.26 3.85 3.75 9 2.26 11 1.47-1.69-.18-5.08-1-5.29-4.48-.12-1.85 2.43-4.57 6-8.33 5.46-5.83 12.94-13.81 16.18-24.24C73.56 174.25 73.51 160 67 154c-3.44-3.2-8.16-3.67-14-1.38z"/>
        <path class="cls-4" d="M41.74 200.57h-.06a.22.22 0 0 1-.16-.27c2.87-11.79 10.14-15 16.56-17.85C65 179.38 71 176.74 68.7 163.68a.22.22 0 0 1 .18-.26.21.21 0 0 1 .26.18c2.32 13.41-3.79 16.11-10.87 19.25-6.33 2.8-13.5 6-16.32 17.55a.21.21 0 0 1-.21.17z"/>
        <path class="cls-31" d="M38 207a.24.24 0 0 1-.2-.11c-5.89-9.9-3.23-14-.42-18.34a22.72 22.72 0 0 0 3.07-6 43.54 43.54 0 0 0 1.32-15c-.34-7.9-.57-13.12 12.91-15.36a.22.22 0 0 1 .26.18.23.23 0 0 1-.19.26c-13.08 2.17-12.88 7-12.53 14.9a43.94 43.94 0 0 1-1.34 15.17 23.35 23.35 0 0 1-3.12 6.15c-2.86 4.4-5.32 8.2.43 17.86a.23.23 0 0 1-.08.31.2.2 0 0 1-.11-.02z"/>
        <path class="cls-29" d="M85.53 184.5c.54-2.63 5.21-3.17 4.44 2.69s-6.74 8.32-4.44-2.69z"/>
        <path class="cls-31" d="M89.5 200.2a3.16 3.16 0 0 1-2.15-1 6.28 6.28 0 0 1-1.68-3.15 6.17 6.17 0 0 1 .18-3.56 2.92 2.92 0 0 1 2-2c1.8-.4 3.76 1.41 4.35 4.05a6.2 6.2 0 0 1-.18 3.57 2.94 2.94 0 0 1-2 2 3.05 3.05 0 0 1-.52.09zm-1.11-9.2a2 2 0 0 0-.42 0 2.51 2.51 0 0 0-1.7 1.69 6.24 6.24 0 0 0 1.39 6.22 2.25 2.25 0 0 0 4-.89 5.71 5.71 0 0 0 .16-3.3c-.53-2.18-1.99-3.72-3.43-3.72z"/>
        <path d="M70 211.3c-8.27.33-12.09 11.41-17.32 42-4.35 25.41-4.35 82.69-4.35 99.9h57.19c-3.31-41.71-10.89-113.66-9-132.52 1.16-10.97-21.73-9.58-26.52-9.38z" fill="url(#Gradient_bez_nazwy_31-3)"/>
        <path class="cls-4" d="M101.67 353.91a.22.22 0 0 1-.22-.2c-.82-10.38-1.91-22.56-3-35.46-3.45-38.86-7.45-82.91-5.97-97.09a.22.22 0 0 1 .25-.2.22.22 0 0 1 .2.24c-1.45 14.15 2.47 58.17 5.92 97 1.14 12.9 2.22 25.09 3.05 35.46a.22.22 0 0 1-.21.24z"/>
        <path class="cls-29" d="M145.24 187.99l4.04-2.9-.91-.6-6.31 3.13-3.56 4.72 3.77 3.84 4.38-2.77 1.72-3.04-3.49-2.96-2.82.21"/>
        <path d="M318.44 367.65h-.64a20 20 0 0 0-.22-4.07c-6.7-40.82 16.26-32.87 10.76-65.25-5.37-31.59-36.49-31.9-41.63-31.74h-1.45c-5.15-.16-36.26.15-41.63 31.74-5.5 32.38 17.45 24.43 10.76 65.25a20 20 0 0 0-.22 4.07h-14a12.88 12.88 0 0 0-12.92 10.87 12.59 12.59 0 0 0 12.45 14.24h79.24a12.58 12.58 0 0 0 12.44-14.24c-.86-6.32-6.57-10.87-12.94-10.87z" fill="#e88098"/>
        <path class="cls-35" d="M324.76 467.84h-5.43l-8.11-75.08h5.44l8.1 75.08zM250.21 467.84h5.44l8.1-75.08h-5.44l-8.1 75.08z"/>
        <path class="cls-22" d="M247.43 217.36c10.19-10.74 7.86-17.82-3.88-15.66-5.61 1-6.31 26.41 3.88 15.66"/>
        <path class="cls-19" d="M242.99 453.37l1.99 8.25-6.1 1.46-2.29-8.64 6.4-1.07z"/>
        <path class="cls-22" d="M237.81 460.8l7.65-1.28s1.86 4.23 1 6.24a22.38 22.38 0 0 1-5.69.95l-1.37-.85s-2.24 1.65-13.54 3.55 11.95-8.61 11.95-8.61z"/>
        <path class="cls-36" d="M256.32 260.41c-2.58 4.64-22.3 34.73-22.3 34.73l-39.16 19.08-3-6.11 31.3-21.81 17.71-35.47c4.79-9.89 20.71.17 15.45 9.58z"/>
        <path class="cls-19" d="M206.29 453.99l.61 8.46-6.27.43-.82-8.89h6.48z"/>
        <path d="M256.71 340.4c-8.49 1.49-70.64 18.47-70.64 18.47l13.33 98.63h7.66l-.68-83.17 58.75-5.39c7.87.06 2.87-30.53-8.42-28.54z" fill="url(#Gradient_bez_nazwy_32)"/>
        <path d="M279.4 340.4c-4.89 7.1-77.88 24.59-77.88 24.59L236 456.63l8.59-1.3-15.48-81 66.29-5.83c1.6-.97 3.51-56.44-16-28.1z" fill="url(#Gradient_bez_nazwy_31-4)"/>
        <path class="cls-31" d="M238.17 343s.53-17 .5-35.58v-7.63c-.11-9.55-.38-19-1-26.21-2.3-27.3 9.94-30.8 21.31-30.16 6.65.38 23.4-2.08 27.09 26.38 3.46 26.52 9.34 73.2 9.34 73.2z"/>
        <path class="cls-36" d="M281.37 269.08c-.73 5.25-5.15 35.56-5.15 35.56l-37.55 2.78v-7.63l25.4-11.79 2.51-35.41c0-14.34 17.49-3.28 14.79 16.49z"/>
        <path class="cls-31" d="M281.36 269.07c-.72 5.26-8.13 29.53-8.13 29.53l-41.88 12-1.9-6.55 34.61-16 2.53-35.42c0-14.38 17.48-3.32 14.77 16.44z"/>
        <path class="cls-29" d="M229.45 304.03l-9.67.25-7.8 5.31 1.31 4.55 6.76-1.12 11.3-2.44-1.9-6.55z"/>
        <path d="M268.36 219.91c-1.49 5.8-7.47 20.74-.85 26.61s-21.66 4.91-17.82 0 7.25-18.78 6.45-25 12.22-1.61 12.22-1.61z" fill="#db8483"/>
        <path class="cls-29" d="M241.55 220.14c.93 13.48 1.14 23.42 15.12 18.92s11-17.76 10.54-24.47-3.44-17.11-13.47-15.56-13.19 6.75-12.19 21.11z"/>
        <path class="cls-22" d="M266.59 220c10.19-10.74 7.86-17.82-3.89-15.66-5.6 1-6.31 26.41 3.89 15.66"/>
        <path class="cls-22" d="M264.48 207.38c-9.08 2.52-41.5-8.07-25.73-19.84 5.37-4 15.85-1.25 20.84 6.84 3.9 6.31 21.66 8.33 4.89 13z"/>
        <path class="cls-4" d="M260.85 205.33c-7.6 0-21.42-4.17-23.09-10.13a.22.22 0 1 1 .43-.12c1.85 6.59 19.13 10.89 25.3 9.57a.23.23 0 0 1 .27.17.22.22 0 0 1-.17.26 12.93 12.93 0 0 1-2.74.25z"/>
        <path class="cls-22" d="M256.34 207.51a29.59 29.59 0 0 1-11.12-2c-3.12-1.33-5.11-3.18-5.93-5.49a.22.22 0 0 1 .42-.15c.78 2.19 2.69 3.95 5.69 5.23 6 2.56 14.92 2.48 18.86.69a.23.23 0 0 1 .19.41 21.16 21.16 0 0 1-8.11 1.31z"/>
        <path class="cls-22" d="M255.15 208.22a19.61 19.61 0 0 1-8-1.44c-2.13-1-3.31-2.41-3.52-4.23a.21.21 0 0 1 .19-.25.22.22 0 0 1 .25.19c.19 1.66 1.29 3 3.27 3.88 5.39 2.51 15.35 1.23 18.5-.86a.22.22 0 0 1 .31.06.22.22 0 0 1-.06.31c-1.98 1.34-6.47 2.34-10.94 2.34zM270.1 205.09a4.49 4.49 0 0 1-.94-.1.24.24 0 0 1-.18-.27.22.22 0 0 1 .27-.17 2.77 2.77 0 0 0 2.44-.45c1.22-1.06 1.13-3.3 1.12-3.32a.23.23 0 0 1 .45 0c0 .1.11 2.48-1.28 3.68a2.79 2.79 0 0 1-1.88.63z"/>
        <path class="cls-22" d="M271.48 205.3a7 7 0 0 1-1.67-.23.22.22 0 0 1-.16-.27.22.22 0 0 1 .27-.16c3 .74 3.55-.69 3.57-.75a.22.22 0 1 1 .42.14c-.02.06-.44 1.27-2.43 1.27z"/>
        <path class="cls-29" d="M265.7 216.17c.29-2.67 4.88-3.67 4.69 2.24s-5.89 8.94-4.69-2.24z"/>
        <path d="M295.36 343h-57.2c-.71 5.23-.62 20.54-.29 25.5h57.49s.44-12.75 0-25.5z" fill="url(#Gradient_bez_nazwy_31-5)"/>
        <path class="cls-22" d="M199.74 461.31h7.76s1.14 4.49 0 6.34a23 23 0 0 1-5.76 0l-1.21-1.07s-2.49 1.26-13.95 1.26 13.16-6.53 13.16-6.53z"/>
        <g clip-path="url(#clip-path-3)">
          <path d="M262.37 246.08c-4 35.18 29.13 38.82-32.32 61.7-41.76 15.55-52.59-18.77-52.59-49.15s17.35-28.79 34.52-45.32c26.77-25.77 57.55-30.6 50.39 32.77z" style="mix-blend-mode:screen" fill="#173072" opacity=".6"/>
        </g>
        <path class="cls-43" d="M118.11 315.56h159.6v4.33h-159.6z"/>
        <path fill="#6d2986" d="M277.71 315.56h63.97v4.33h-63.97z"/>
        <path class="cls-43" d="M143.5 476.08l16.85-156.19h4.33l-16.84 156.19h-4.34zM311.95 476.08l-16.84-156.19h4.33l16.84 156.19h-4.33z"/>
        <path class="cls-32" d="M189.96 311.72h52.98v3.83h-52.98z"/>
        <path class="cls-32" d="M215.32 315.56h-65.97l-7.75-40.34h65.97l7.75 40.34z"/>
        <path class="cls-32" d="M214.32 315.56h-65.97l-7.75-40.34h65.97l7.75 40.34z"/>
        <path class="cls-22" d="M211.12 313.41h-64.4a.23.23 0 1 1 0-.45h64.4a.22.22 0 0 1 .22.22.22.22 0 0 1-.22.23zM208.85 301.61a.23.23 0 0 1-.22-.18l-5.36-27.9a.21.21 0 0 1 .18-.26.22.22 0 0 1 .26.17l5.36 27.9a.23.23 0 0 1-.18.26z"/>
        <path d="M181.14 303.33h-8.43a8.37 8.37 0 0 1-7.61-5.54c-1.49-4.22 1.12-8.13 5.41-8.13H179a8.36 8.36 0 0 1 7.6 5.55c1.4 4.21-1.16 8.12-5.46 8.12z" fill="#f75d83"/>
      </g>
    </g>
  </g>
</svg>
