<svg xmlns="http://www.w3.org/2000/svg" xmlns:xlink="http://www.w3.org/1999/xlink" viewBox="0 0 600 300">
  <defs>
    <style>
      .cls-1{fill:none}.cls-2{fill:url(#Degradado_sin_nombre_3)}.cls-6{fill:#fff}.cls-7{fill:#fde17e}.cls-8{fill:#f08299}.cls-11{opacity:.19}.cls-12{fill:#ffcab3}.cls-16{fill:#7443de}.cls-17{opacity:.43}.cls-18{fill:#3c34b7}.cls-19{opacity:.54}.cls-20{fill:#ededeb}.cls-21{fill:#59d2e5}.cls-22{fill:#73367f}.cls-27{fill:#4242d3}.cls-32{opacity:.49}.cls-33{fill:#8794ca}
    </style>
    <linearGradient id="Degradado_sin_nombre_3" x1="-1878.53" x2="-1884.19" y1="-964.63" y2="-1543.85" gradientTransform="rotate(88.41 -1294.57 782.47)" gradientUnits="userSpaceOnUse">
      <stop offset="0" stop-color="#3a3759"/>
      <stop offset="1" stop-color="#546496"/>
    </linearGradient>
    <clipPath id="clip-path">
      <path d="M0 0h600v300H0z" class="cls-1"/>
    </clipPath>
    <linearGradient id="Degradado_sin_nombre_6" x1="554.04" x2="-6.32" y1="13.46" y2="314.64" gradientUnits="userSpaceOnUse">
      <stop offset=".02" stop-color="#172060"/>
      <stop offset="1" stop-color="#7443de"/>
    </linearGradient>
    <clipPath id="clip-path-2">
      <path d="M387.1 58a11.86 11.86 0 0 0-6.58 11.45 15.31 15.31 0 0 0 7.92 12.16 14.54 14.54 0 0 0 9.9 1.37 15.36 15.36 0 0 0 8.17-4.98 14 14 0 0 0 3.65-10 15.08 15.08 0 0 0-19.07-13.19 14.27 14.27 0 0 0-8.83 8" class="cls-1"/>
    </clipPath>
    <clipPath id="clip-path-3">
      <path d="M529.92 234.48a8 8 0 0 0-8.93-.69 10.41 10.41 0 0 0-5.14 8.41 9.89 9.89 0 0 0 2 6.47 10.37 10.37 0 0 0 5.4 3.56 9.53 9.53 0 0 0 7.18-.67 10.22 10.22 0 0 0 4.92-7.35A10.1 10.1 0 0 0 533 236a9.69 9.69 0 0 0-7.51-3.06" class="cls-1"/>
    </clipPath>
    <clipPath id="clip-path-4">
      <path d="M572.49 111.28a4.68 4.68 0 0 0-5.21-.4 6 6 0 0 0-3 4.9 5.78 5.78 0 0 0 1.19 3.77 6 6 0 0 0 3.15 2.07 5.51 5.51 0 0 0 4.18-.39 6 6 0 0 0 2.87-4.28 5.89 5.89 0 0 0-1.4-4.78 5.66 5.66 0 0 0-4.38-1.78" class="cls-1"/>
    </clipPath>
    <clipPath id="clip-path-5">
      <path d="M370 246.13a16.12 16.12 0 0 0-17.87-1.37 20.84 20.84 0 0 0-10.27 16.81 19.84 19.84 0 0 0 4.11 12.94 20.84 20.84 0 0 0 10.79 7.12 19.12 19.12 0 0 0 14.36-1.34 20.48 20.48 0 0 0 9.84-14.69 20.26 20.26 0 0 0-4.82-16.39 19.4 19.4 0 0 0-15-6.12" class="cls-1"/>
    </clipPath>
    <linearGradient id="Degradado_sin_nombre_4" x1="-1874.52" x2="-1880.17" y1="-1015.95" y2="-916.51" gradientTransform="rotate(88.41 -1294.57 782.47)" gradientUnits="userSpaceOnUse">
      <stop offset=".1" stop-color="#f5de4c"/>
      <stop offset="1" stop-color="#df6574"/>
    </linearGradient>
    <linearGradient id="Degradado_sin_nombre_4-2" x1="-1884.76" x2="-1876.29" y1="-987.2" y2="-930.74" xlink:href="#Degradado_sin_nombre_4"/>
    <clipPath id="clip-path-6">
      <path d="M513.71 143.46c-7-7.11-24.09-19.25-58.17-17.15a30.32 30.32 0 0 0-6.49 1.13l-30.73 8.86.77 27.61s25.67 6.36 32.21 7.65c16.7 3.3 47.7-2.91 62.45-17.63a7.45 7.45 0 0 0-.04-10.47z" class="cls-2"/>
    </clipPath>
    <linearGradient id="Degradado_sin_nombre_3-3" x1="-1879.99" x2="-1885.65" y1="-964.63" y2="-1543.76" xlink:href="#Degradado_sin_nombre_3"/>
    <linearGradient id="Degradado_sin_nombre_3-4" x1="-1886.31" x2="-1891.97" y1="-964.55" y2="-1543.79" xlink:href="#Degradado_sin_nombre_3"/>
    <linearGradient id="Degradado_sin_nombre_3-5" x1="-1863.75" x2="-1869.41" y1="-964.78" y2="-1544.02" xlink:href="#Degradado_sin_nombre_3"/>
    <linearGradient id="Degradado_sin_nombre_2" x1="-1878.84" x2="-1877.24" y1="-987.42" y2="-1015.39" gradientTransform="rotate(88.41 -1294.57 782.47)" gradientUnits="userSpaceOnUse">
      <stop offset="0" stop-color="#d6e6fd"/>
      <stop offset="1" stop-color="#80aaf8"/>
    </linearGradient>
  </defs>
  <g style="isolation:isolate">
    <g id="Quick_Action_Card" data-name="Quick Action Card">
      <g id="Quick_Action_CTA_Workshops" clip-path="url(#clip-path)" data-name="Quick Action CTA Workshops">
        <path fill="url(#Degradado_sin_nombre_6)" d="M0 0h600v300H0z"/>
        <path d="M0-.41h156v300H0z" class="cls-6"/>
        <path d="M65.86 269.86c-6.71-5.43-19.17-11.81-18.48-21.89.32-4.64 2.38-9.38.89-13.79-3.19-9.4-18.3-8.16-23.84-16.4-1.58-2.34-2.18-5.23-3.67-7.63-3.24-5.25-10.65-7.15-16.31-4.71S-4.86 214-5 220.19s2.92 12.17 7.51 16.29c4.74 4.25 11.23 7 14.07 12.65s1.12 12.59 3 18.62a16.7 16.7 0 0 0 17 11.28c5-.49 9.53-3.28 14.22-5.19s10.43-2.88 14.57 0" class="cls-7"/>
        <path d="M86.89 327.65c6.74-3.26 9.66-11.68 8.79-19.11s-4.73-14.14-8.5-20.6c-4.41-7.54-9.75-15.79-18.28-17.69-5.11-1.13-10.37.3-15.55 1s-11.07.43-14.78-3.26c-4-4-4-10.35-5.66-15.76-4.13-13.4-21.42-20.84-34-14.63v82.17z" class="cls-8"/>
        <g id="Planets">
          <path d="M353.14 138.53a3 3 0 0 0-2.63 3.09 4.35 4.35 0 0 0 2.4 3.55 5.14 5.14 0 0 0 5.78-.61 4.33 4.33 0 0 0 .59-5.62 3.75 3.75 0 0 0-5.45-.38" class="cls-6"/>
          <g clip-path="url(#clip-path-2)">
            <path fill="#ff9566" d="M387.1 58a11.86 11.86 0 0 0-6.58 11.45 15.31 15.31 0 0 0 7.92 12.16 14.54 14.54 0 0 0 9.9 1.37 15.36 15.36 0 0 0 8.17-4.98 14 14 0 0 0 3.65-10 15.08 15.08 0 0 0-19.07-13.19 14.27 14.27 0 0 0-8.83 8"/>
            <g class="cls-11">
              <path d="M392.65 84.21c-2.41-2.27-2.51-7-1-9.87 1.69-3.27 5.65-4.23 8.13-6.74a13.2 13.2 0 0 0 3.63-8.94c.09-3.47-.4-8.79-3.57-10.81a3.22 3.22 0 0 0-4.84 1.64c-1.48 3.73 2.07 7.5.73 11.42-1.13 3.33-5.77 4.52-8 7A13.51 13.51 0 0 0 384 77.3c.11 4.4 2.34 6.89 5.36 9.74 2 1.89 5.28-.92 3.26-2.83z" class="cls-12"/>
            </g>
            <g class="cls-11">
              <path d="M397.9 84.08c.38-2.38-.54-4.41.7-6.71 1.36-2.51 4.4-3.54 6.62-5.13 3.6-2.57 6.63-7.31 5.58-11.87a1.81 1.81 0 0 0-3.46-.24c-.91 2.67-1.39 5.32-3.16 7.63-1.89 2.47-4.9 3.53-7.22 5.53-3 2.61-5.37 9.1-1.42 11.95a1.54 1.54 0 0 0 2.36-1.16z" class="cls-12"/>
            </g>
            <g class="cls-11">
              <path d="M390.67 52.64c1.74 2.53-.1 6-2 7.72-1.63 1.47-3.66 2.32-5.5 3.49-2.51 1.6-4.53 3.78-4.18 6.88a1 1 0 0 0 1.77.36 19.61 19.61 0 0 1 4.6-5.17c2.11-1.62 4.66-2.84 6.39-4.9 2.43-2.89 2.56-6.61-.84-8.65a.18.18 0 0 0-.24.27z" class="cls-12"/>
            </g>
            <g class="cls-11">
              <path d="M405.27 82.51a7.82 7.82 0 0 1 2-3.19 10.3 10.3 0 0 1 3.31-2.32c2.56-1.15 1.13-4.87-1.48-4.51a8.46 8.46 0 0 0-5.88 3.73 8.92 8.92 0 0 0-1.28 2.91 10.15 10.15 0 0 0 0 3.11 1.69 1.69 0 0 0 3.36.24z" class="cls-12"/>
            </g>
          </g>
          <g clip-path="url(#clip-path-3)">
            <path d="M529.92 234.48a8 8 0 0 0-8.93-.69 10.41 10.41 0 0 0-5.14 8.41 9.89 9.89 0 0 0 2 6.47 10.37 10.37 0 0 0 5.4 3.56 9.53 9.53 0 0 0 7.18-.67 10.22 10.22 0 0 0 4.92-7.35A10.1 10.1 0 0 0 533 236a9.69 9.69 0 0 0-7.51-3.06" class="cls-8"/>
            <g class="cls-11">
              <path d="M515.46 245.55c.69-2.14 3.59-3.6 5.75-3.52 2.49.08 4.24 2.23 6.5 3a9 9 0 0 0 6.54-.39c2.15-1 5.27-2.81 5.58-5.34a2.19 2.19 0 0 0-2.4-2.44c-2.71.19-4 3.46-6.78 3.79-2.37.28-4.45-2.22-6.64-2.89a9.18 9.18 0 0 0-6.83.48c-2.67 1.35-3.54 3.45-4.41 6.13-.57 1.78 2.11 3 2.69 1.17z" class="cls-12"/>
            </g>
            <g class="cls-11">
              <path d="M517.08 248.73c1.57-.46 2.54-1.62 4.31-1.53 1.93.1 3.46 1.66 5.08 2.56 2.63 1.45 6.42 1.92 8.9 0a1.23 1.23 0 0 0-.86-2.2c-1.91.23-3.67.71-5.6.3s-3.59-2-5.49-2.81c-2.49-1.09-7.15-.63-7.75 2.62a1.05 1.05 0 0 0 1.41 1.11z" class="cls-12"/>
            </g>
            <g class="cls-11">
              <path d="M534.22 235.11c-1 1.81-3.7 1.7-5.3 1a25.08 25.08 0 0 1-3.75-2.35c-1.72-1.07-3.64-1.67-5.44-.55a.67.67 0 0 0 .3 1.19 13.38 13.38 0 0 1 4.51 1.31c1.61.82 3.1 2 4.87 2.48 2.48.65 4.79-.36 5.05-3a.13.13 0 0 0-.24-.07z" class="cls-12"/>
            </g>
            <g class="cls-11">
              <path d="M520.2 252.79a5.2 5.2 0 0 1 2.52.26 7 7 0 0 1 2.38 1.39c1.45 1.23 3.32-.73 2.33-2.23a5.72 5.72 0 0 0-4-2.51 6 6 0 0 0-2.16.07 7 7 0 0 0-1.92.89 1.15 1.15 0 0 0 .85 2.13z" class="cls-12"/>
            </g>
          </g>
          <g clip-path="url(#clip-path-4)">
            <path d="M572.49 111.28a4.68 4.68 0 0 0-5.21-.4 6 6 0 0 0-3 4.9 5.78 5.78 0 0 0 1.19 3.77 6 6 0 0 0 3.15 2.07 5.51 5.51 0 0 0 4.18-.39 6 6 0 0 0 2.87-4.28 5.89 5.89 0 0 0-1.4-4.78 5.66 5.66 0 0 0-4.38-1.78" class="cls-7"/>
            <g class="cls-11">
              <path d="M564.06 117.73a3.62 3.62 0 0 1 3.35-2.06c1.45 0 2.47 1.3 3.79 1.76a5.23 5.23 0 0 0 3.81-.22c1.26-.56 3.07-1.64 3.25-3.12a1.27 1.27 0 0 0-1.39-1.42c-1.59.11-2.33 2-4 2.21-1.38.16-2.59-1.3-3.87-1.69a5.38 5.38 0 0 0-4 .28c-1.55.79-2.06 2-2.57 3.58-.33 1 1.23 1.72 1.57.68z" class="cls-6"/>
            </g>
            <g class="cls-11">
              <path d="M565 119.58c.92-.27 1.48-.94 2.52-.89s2 1 3 1.49c1.53.85 3.74 1.12 5.19 0a.72.72 0 0 0-.51-1.28 9.66 9.66 0 0 1-3.26.17c-1.21-.25-2.1-1.14-3.2-1.63-1.45-.64-4.17-.37-4.52 1.53a.61.61 0 0 0 .82.64z" class="cls-6"/>
            </g>
            <g class="cls-11">
              <path d="M575 111.64c-.61 1.06-2.16 1-3.1.61a17 17 0 0 1-2.18-1.37 2.89 2.89 0 0 0-3.17-.33.39.39 0 0 0 .17.7 7.73 7.73 0 0 1 2.63.76 14.91 14.91 0 0 0 2.84 1.45c1.44.37 2.8-.22 2.94-1.78a.07.07 0 0 0-.13 0z" class="cls-6"/>
            </g>
            <g class="cls-11">
              <path d="M566.82 122a3.08 3.08 0 0 1 1.47.15 4.06 4.06 0 0 1 1.39.81c.84.72 1.93-.43 1.36-1.3a3.33 3.33 0 0 0-2.34-1.46 3.29 3.29 0 0 0-1.25 0 4.09 4.09 0 0 0-1.12.51.67.67 0 0 0 .49 1.25z" class="cls-12"/>
            </g>
          </g>
          <g clip-path="url(#clip-path-5)">
            <path d="M370 246.13a16.12 16.12 0 0 0-17.87-1.37 20.84 20.84 0 0 0-10.27 16.81 19.84 19.84 0 0 0 4.11 12.94 20.84 20.84 0 0 0 10.79 7.12 19.12 19.12 0 0 0 14.36-1.34 20.48 20.48 0 0 0 9.84-14.69 20.26 20.26 0 0 0-4.82-16.39 19.4 19.4 0 0 0-15-6.12" class="cls-16"/>
            <g class="cls-17">
              <path d="M341 268.27c1.37-4.27 7.18-7.19 11.48-7 5 .17 8.49 4.46 13 6a18 18 0 0 0 13.08-.77c4.3-1.92 10.53-5.63 11.14-10.69a4.37 4.37 0 0 0-4.78-4.88c-5.43.37-8 6.91-13.56 7.57-4.74.56-8.91-4.43-13.28-5.77a18.27 18.27 0 0 0-13.66 1c-5.33 2.7-7.08 6.89-8.81 12.26-1.14 3.55 4.22 5.92 5.38 2.33z" class="cls-18"/>
            </g>
            <g class="cls-17">
              <path d="M344.27 274.62c3.14-.91 5.08-3.23 8.62-3.05 3.87.19 6.92 3.31 10.16 5.11 5.25 2.91 12.83 3.85 17.8-.1a2.45 2.45 0 0 0-1.73-4.38c-3.81.45-7.33 1.4-11.19.59-4.14-.88-7.19-3.94-11-5.62-5-2.19-14.3-1.25-15.48 5.24a2.09 2.09 0 0 0 2.81 2.21z" class="cls-18"/>
            </g>
            <g class="cls-17">
              <path d="M378.55 247.4c-2.07 3.61-7.41 3.39-10.61 2.06-2.77-1.14-5-3.13-7.5-4.7-3.42-2.14-7.28-3.34-10.87-1.1a1.34 1.34 0 0 0 .6 2.38 26.54 26.54 0 0 1 9 2.62c3.21 1.64 6.19 4 9.74 5 4.95 1.29 9.58-.73 10.09-6.09a.25.25 0 0 0-.47-.13z" class="cls-18"/>
            </g>
            <g class="cls-19">
              <path d="M350.5 282.74c1.27-.43 3.8.14 5.05.53a14.14 14.14 0 0 1 4.76 2.77c2.9 2.47 6.63-1.46 4.66-4.45a11.51 11.51 0 0 0-8-5 12.3 12.3 0 0 0-4.32.15 13.67 13.67 0 0 0-3.83 1.77 2.29 2.29 0 0 0 1.68 4.26z" class="cls-18"/>
            </g>
          </g>
          <g class="cls-19">
            <path d="M414.9 101l.24.63a1.28 1.28 0 0 0 2.45 0l.24-.63a1.52 1.52 0 1 0-2.93 0z" class="cls-20"/>
          </g>
          <g class="cls-19">
            <path d="M372.1 83.93a.63.63 0 0 0 0-1.26.63.63 0 0 0 0 1.26z" class="cls-20"/>
          </g>
          <g class="cls-19">
            <path d="M371.41 132a.33.33 0 0 0 0-.65.33.33 0 0 0 0 .65z" class="cls-20"/>
          </g>
          <g class="cls-19">
            <path d="M470.31 57.23a.91.91 0 0 0 0-1.81.91.91 0 0 0 0 1.81z" class="cls-20"/>
          </g>
          <g class="cls-19">
            <path d="M538.5 187.17a1.16 1.16 0 0 0 0-2.32 1.16 1.16 0 0 0 0 2.32z" class="cls-20"/>
          </g>
          <g class="cls-19">
            <path d="M479 237a1.22 1.22 0 0 0 0-2.43 1.22 1.22 0 0 0 0 2.43z" class="cls-20"/>
          </g>
          <g class="cls-19">
            <path d="M559.57 243.52a.83.83 0 0 0 0-1.65.83.83 0 0 0 0 1.65z" class="cls-20"/>
          </g>
          <g class="cls-19">
            <path d="M552.34 90.53a.66.66 0 0 0 0-1.32.66.66 0 0 0 0 1.32z" class="cls-20"/>
          </g>
          <g class="cls-19">
            <path d="M354.11 227.83a6 6 0 0 0 .85-.11.58.58 0 0 0 0-1.11 6 6 0 0 0-.85-.11c-.85-.08-.85 1.41 0 1.33z" class="cls-20"/>
          </g>
          <g class="cls-19">
            <path d="M401.84 222a.41.41 0 0 0 0-.82.41.41 0 0 0 0 .82z" class="cls-20"/>
          </g>
          <g class="cls-19">
            <path d="M359.65 170.43h-.43c-1-.07-.94 1.61.2 1.45h.41a.69.69 0 0 0 0-1.32h-.41c-1.12-.16-1.22 1.52-.2 1.45h.43a.71.71 0 0 0 0-1.42z" class="cls-20"/>
          </g>
          <g class="cls-19">
            <path d="M411.52 139.45a.13.13 0 0 0 0-.25.13.13 0 0 0 0 .25z" class="cls-20"/>
          </g>
          <g class="cls-19">
            <path d="M327.14 111.1a.83.83 0 0 0 0-1.65.83.83 0 0 0 0 1.65z" class="cls-20"/>
          </g>
          <g class="cls-19">
            <path d="M376.25 43.18a.69.69 0 0 0 0-1.38.69.69 0 0 0 0 1.38z" class="cls-20"/>
          </g>
          <g class="cls-19">
            <path d="M488.34 78.46v-.69a.72.72 0 0 0-1.43 0v.69a.74.74 0 0 0 1.47 0z" class="cls-20"/>
          </g>
          <g class="cls-19">
            <path d="M546.8 64.44a.86.86 0 0 0 0-1.71.86.86 0 0 0 0 1.71z" class="cls-20"/>
          </g>
          <g class="cls-19">
            <path d="M348.48 123.9l.33-.36a2.17 2.17 0 0 0-3.07-3.06l-.35.32a2.2 2.2 0 0 0 0 3.1 2.23 2.23 0 0 0 3.09 0z" class="cls-20"/>
          </g>
          <g class="cls-19">
            <path d="M589.77 46c0-.19 0-.38.05-.57a1.19 1.19 0 0 0-2.37 0V46a1.14 1.14 0 1 0 2.27 0z" class="cls-20"/>
          </g>
          <g class="cls-19">
            <path d="M523.81 119.35a5.91 5.91 0 0 0-1.12.12 2.71 2.71 0 0 0-1.49 1.17 2.18 2.18 0 0 0 0 2.28 2.71 2.71 0 0 0 1.49 1.17 5.91 5.91 0 0 0 1.12.12 2.45 2.45 0 0 0 2.43-2.43 2.47 2.47 0 0 0-2.43-2.43z" class="cls-20"/>
          </g>
          <g class="cls-19">
            <path d="M550.23 123.39a1 1 0 0 0 0-2 1 1 0 0 0 0 2z" class="cls-20"/>
          </g>
          <g class="cls-19">
            <path d="M383.39 231.72a1.14 1.14 0 0 0 0-2.27 1.14 1.14 0 0 0 0 2.27z" class="cls-20"/>
          </g>
          <g class="cls-19">
            <path d="M430.67 249.18a.94.94 0 0 0 0-1.87.94.94 0 0 0 0 1.87z" class="cls-20"/>
          </g>
          <g class="cls-19">
            <path d="M470.19 296a1.26 1.26 0 0 0 0-2.51 1.26 1.26 0 0 0 0 2.51z" class="cls-20"/>
          </g>
          <g class="cls-19">
            <path d="M572 131.39a1.07 1.07 0 0 0 0-2.13 1.07 1.07 0 0 0 0 2.13z" class="cls-20"/>
          </g>
          <g class="cls-19">
            <path d="M312.05 54l.1-.11-1 .41-.27-.05a1.84 1.84 0 0 0 2.31-1.76 2 2 0 0 0-.86-1.69 1.8 1.8 0 0 0-1.88.12 1.83 1.83 0 0 0-.37 2.86c-.05 0-.09-.11-.14-.17 0-.36-.09-.71-.14-1.07v.15a1.35 1.35 0 0 0 2.25 1.31z" class="cls-20"/>
          </g>
          <g class="cls-19">
            <path d="M293.48 32.36a.46.46 0 0 0 0-.92.46.46 0 0 0 0 .92z" class="cls-20"/>
          </g>
          <g class="cls-19">
            <path d="M315.15 19.29a2.75 2.75 0 0 0-.7.05.77.77 0 0 0 0 1.48 2.75 2.75 0 0 0 .7 0 .79.79 0 0 0 0-1.57z" class="cls-20"/>
          </g>
          <g class="cls-19">
            <path d="M435.34 25.05a1 1 0 0 0 0-2.06 1 1 0 0 0 0 2.06z" class="cls-20"/>
          </g>
          <g class="cls-19">
            <path d="M491 5.61A.81.81 0 0 0 491 4a.81.81 0 0 0 0 1.61z" class="cls-20"/>
          </g>
          <g class="cls-19">
            <path d="M576.64 177.77a2.36 2.36 0 0 0-.18.92 1.73 1.73 0 1 0 3.46 0 2.2 2.2 0 0 0-.19-.92 1.66 1.66 0 0 0-1.54-1.18 1.71 1.71 0 0 0-1.55 1.18z" class="cls-20"/>
          </g>
          <g class="cls-19">
            <path d="M417.11 288a.92.92 0 0 0 0-1.83.92.92 0 0 0 0 1.83z" class="cls-20"/>
          </g>
          <g class="cls-19">
            <path d="M309 291.23l.07-.09a2.37 2.37 0 0 0 0-3.24l-.07-.09a2.43 2.43 0 0 0-4.13 1.71 2.53 2.53 0 0 0 1.2 2.09 2.45 2.45 0 0 0 2.93-.38z" class="cls-20"/>
          </g>
          <g class="cls-19">
            <path d="M314.66 275.62a.88.88 0 0 0 0-1.76.88.88 0 0 0 0 1.76z" class="cls-20"/>
          </g>
          <g class="cls-19">
            <path d="M282.15 289.35a.32.32 0 0 0 0-.64.32.32 0 0 0 0 .64z" class="cls-20"/>
          </g>
          <g class="cls-19">
            <path d="M489 275a.25.25 0 0 0 0-.5.25.25 0 0 0 0 .5z" class="cls-20"/>
          </g>
          <g class="cls-19">
            <path d="M582.62 217.1a1 1 0 0 0 0-1.95 1 1 0 0 0 0 1.95z" class="cls-20"/>
          </g>
          <g class="cls-19">
            <path d="M413.17 191.84a1.33 1.33 0 0 0 0-2.66 1.33 1.33 0 0 0 0 2.66z" class="cls-20"/>
          </g>
          <g class="cls-19">
            <path d="M307.88 229.24l.09-.31a1.24 1.24 0 0 0-.32-1.2l-.09-.08a1.16 1.16 0 0 0-1.57 0l-.09.08a1.21 1.21 0 0 0-.31 1.2c0 .1.05.2.08.31a1.16 1.16 0 0 0 2.21 0z" class="cls-20"/>
          </g>
          <g class="cls-19">
            <path d="M544.69 173.72a.45.45 0 0 0 0-.9.45.45 0 0 0 0 .9z" class="cls-20"/>
          </g>
          <g class="cls-19">
            <path d="M596 171.79a1.66 1.66 0 0 0-.19-1 1 1 0 0 0-1.73 0 1.68 1.68 0 0 0-.19 1 1.06 1.06 0 0 0 2.11 0z" class="cls-20"/>
          </g>
          <g class="cls-19">
            <path d="M590.5 134.82a1 1 0 0 0 0-1.92 1 1 0 0 0 0 1.92z" class="cls-20"/>
          </g>
          <g class="cls-19">
            <path d="M282.64 45.54a.34.34 0 0 0 0-.68.34.34 0 0 0 0 .68z" class="cls-20"/>
          </g>
          <g class="cls-19">
            <path d="M290.36 8.19l.38-.19a1.42 1.42 0 0 0 0-2.45l-.38-.18a1.67 1.67 0 0 0-1.65 0 1.63 1.63 0 0 0 0 2.82 1.7 1.7 0 0 0 1.65 0z" class="cls-20"/>
          </g>
          <g class="cls-19">
            <path d="M332.88 36.74a.9.9 0 0 0 0-1.8.9.9 0 0 0 0 1.8z" class="cls-20"/>
          </g>
          <g class="cls-19">
            <path d="M324.51 80a.86.86 0 0 0 0-1.71.86.86 0 0 0 0 1.71z" class="cls-20"/>
          </g>
          <g class="cls-19">
            <path d="M411.62 12.79l.24-.1a2.29 2.29 0 0 0 0-3.94l-.24-.11c-4.54-2-4.54 6.11 0 4.15z" class="cls-20"/>
          </g>
        </g>
        <path d="M204.46 263.89c6.89-12.27-.86-19.59 6.15-30.52 5.16-8.05 15.09-11.3 24.09-14.5s18.77-7.87 22-16.86c3.59-10-1.92-22.9 5.19-30.79 4.1-4.56 10.83-5.36 16.94-5.88 25.51-2.14 87.29-9.29 112.8-11.43 1.47-4.3 9.56-1.56 5.65-3.9s-55.79-5.35-60.32-5.74l-47.2-4.08c-15.34-1.33-33.4-4.45-40-18.37-8-17 6.76-39.88-4.44-55-8.32-11.29-26.45-10.82-35.6-21.5-11.56-13.48 5.63-39.68-8.72-39.68-19.16 0 69.18-6-45-6-72.11 0-27.86 298.62 0 300 2.83.13 3-2.64 20.45-15 19.79-14 23.92-13.49 28.01-20.75z" class="cls-6"/>
        <path d="M337.31 152.22l-86.53 4-6.19 33.23L257 201.07c-.39-3.57.92-8.24 1.66-11.76s2.84-6.94 6.14-8.35c5.37-2.29 11.24 1.32 16.95 2.55a21.12 21.12 0 0 0 19.64-6.27c3.6-3.92 5.83-9.35 10.53-11.84 4.53-2.4 10-1.37 15.12-1.86s10.95-4.07 10.2-9.14m-86.99-72.07c-2.69 5.28-1 11.78 1.7 17s6.38 9.16 12.24 10c7.3 1.1 15.31-2 21.86 1.35 8.41 4.37 9 16.49 15.76 23.12 4.25 4.17 10.38 5.64 16.18 6.94l54.9 12.28L266.41 150l-22.82-17.9z" class="cls-6"/>
        <path d="M247 72.19c2-4.2.17-11.26-3.6-14s-8.4-3.9-12.5-6.06-8-6-7.89-10.61c.06-3 1.74-5.66 2.84-8.44s1.49-6.3-.59-8.44c-1.59-1.63-4.14-1.93-5.88-3.4-3-2.49-2.45-7-2.78-10.88-1-11.35-10.82-19.61-19.88-26.52-3.1-2.36-6.31-4.78-10.1-5.69s-8.32.08-10.41 3.37-1 8 1.11 11.45 5.12 6.34 6.91 10c4.47 9.07.48 20.41 4.24 29.8 3 7.48 10.37 12.31 17.89 15.19s12.7 6.85 20 10.15 18.92 6.23 20.6 14.1" class="cls-7"/>
        <path d="M343.49 160c-3.72-2-8.26-4-11.95-2-2.79 1.54-4.1 5-6.86 6.58-3.47 2-8.07.54-11.75 2.17a7.42 7.42 0 1 0 6.14 13.5c4.14-1.94 6.58-7.61 11.14-7.37 1.52.07 3 .86 4.5.51s2.53-1.86 3.12-3.32a16.1 16.1 0 0 1 1.94-4.3c1-1.23 2.89-1.95 4.16-1 .9-.36.19-2.09-.71-1.71" class="cls-8"/>
        <path d="M342.35 164.74a5.43 5.43 0 0 0 6.82 2.09c1.39-.68 2.61-2 4.16-1.92a11.12 11.12 0 0 1 2.58.84 4.65 4.65 0 0 0 5.28-2.32 5.15 5.15 0 0 0-.95-5.78 5.72 5.72 0 0 0-5.8-1.28c-1.73.59-3.18 2-5 2.16-2.7.25-4.92-2.24-7.6-2.62A5 5 0 1 0 344 165" class="cls-16"/>
        <path d="M355 153.57a2.71 2.71 0 1 1-.28.2" class="cls-21"/>
        <path d="M277.91 182.87a9.87 9.87 0 0 0-13.57 11.61c1.08 3.94 4.57 7.94 2.64 11.54-1.31 2.44-4.61 3.25-6 5.64-1.08 1.88-.71 4.22-1 6.36a9.87 9.87 0 0 1-6.57 8 9 9 0 0 1-9.76-3.05 8.34 8.34 0 0 1 .24-10.09c2.51-2.95 7.1-3.94 8.77-7.43 1.29-2.7.33-5.87.18-8.86a15.9 15.9 0 0 1 24.34-14.27" class="cls-22"/>
        <path d="M264.65 188.92c-.37 4.78-1.8 8.32-5.13 9.85s-7.17 1.29-10.83 1.13-7.56-.17-10.7 1.71c-4.46 2.68-6.5 8.63-11.37 10.45-2.67 1-5.63.5-8.47.78-4.21.42-8.37 2.83-10.09 6.7s-.38 9.07 3.39 11c4.3 2.19 9.48-.32 13.26-3.31s7.5-6.71 12.29-7.21c2.36-.25 5 .27 6.94-1.07 3-2 2.33-6.9 4.75-9.62s6.41-2.27 9.52-3.8c5.64-2.76 6.42-10.34 6.44-16.61" class="cls-7"/>
        <path d="M251.84 107.67c-4-1.61-2.52-4.07-3.71-6.49-1.49-3-6.36-2.14-9.67-2.77s-6.68-1.37-9.5-3.2-5-5-4.76-8.35 3.61-6.42 6.86-5.58c4.34 1.12 5.21 7.28 9.08 9.54s9.31-.28 13.26 1.92c4.4 2.45 4.94 9.63 9.75 11.08 3 .92 6.11-1 9-2.28s7.12-1.45 8.46 1.43c.86 1.87-.09 4.18-1.7 5.46a11.48 11.48 0 0 1-5.75 2 42.52 42.52 0 0 1-21.34-2.76m61.49 58.42c-2.77-.17-5.21 1.69-7.48 3.29s-5.11 3.11-7.72 2.15c-3-1.09-4-5.22-2.43-7.95s5-4 8.17-3.64c1.82.21 3.59.88 5.42.88 2.82 0 5.38-1.57 7.75-3.1s4.91-3.12 7.73-3.18 5.9 2.12 5.67 4.93c-.2 2.48-2.65 4.09-4.95 5-4.42 1.83-7.38 1.87-12.16 1.58" class="cls-21"/>
        <path fill="#fcbc00" d="M258.84 164.19a9.53 9.53 0 0 0-10.76 3.91c-1.77 2.85-1.94 6.57-4.1 9.14s-6 3.37-9.34 4.27-7.06 2.58-8 5.92c-1 3.63 2 7.53 5.67 8.4s7.56-.6 10.63-2.8 5.58-5.1 8.44-7.57 6-4.51 8.42-7.38 3.88-6.92 2.5-10.4-6.43-5.33-9.09-2.7"/>
        <path d="M208.21 256.77c-3.85 7.19-11 11.47-19.05 10.29-4.56-.67-8.79-2.89-13.36-3.45-6.8-.83-13.43 2.08-19.66 4.93-4.87 2.22-9.8 4.48-13.91 7.91s-7.37 8.23-7.78 13.56 2.64 11.09 7.73 12.73c4.24 1.38 8.89-.21 12.76-2.42s7.42-5.09 11.61-6.63c11.62-4.24 26.28 2.43 36.15-5 7.52-5.67 5.68-22.49 5.51-31.9" class="cls-21"/>
        <path d="M225.44 30.33c3.43-1.63 3.48-6.94.94-9.76s-6.56-3.7-10.33-4.18-7.73-.77-10.93-2.83c-6.29-4.05-8.21-14.06-15.55-15.51s-13 7.09-20.36 8.42C162 7.77 155.69 2 148.84-.48c-10.55-3.9-23.58.8-29.22 10.54-2 3.38-3.08 7.44-2.11 11.22s4.41 7.07 8.32 7c5.86-.16 9.17-6.91 14.49-9.38 6.74-3.12 14.3 1.28 21.15 4.16A53.15 53.15 0 0 0 195 25.52c6.18-1.58 12.17-4.28 18.54-4.39s15.12 4.2 11.94 9.2" class="cls-22"/>
        <g id="Rocket">
          <path fill="url(#Degradado_sin_nombre_4)" d="M418.35 137.36s-33.16-.77-34.35 16.54c0 0 4.71 10.52 36.17 10.38z" opacity=".2"/>
          <path fill="url(#Degradado_sin_nombre_4-2)" d="M418.45 141.18s-23.08 2.64-27 10.42c0 0 3.78 5.8 27.49 8.11z"/>
          <path d="M466.65 126.59s-28-11.63-35-11.59-34.9 11.33-30.35 13.06 18-2.74 24 6.37l19.54-4.82a57.45 57.45 0 0 1 10.33-2c3.37-.31 7.68-.72 11.48-1.02zm2.69 44.89S442 184.64 435.07 185s-35.48-9.38-31-11.35 17.39 1.07 22.9-8.37l20.52 4.4a58.15 58.15 0 0 0 10.42 1.41c3.29.13 7.62.3 11.43.39z" class="cls-27"/>
          <path d="M513.71 143.46c-7-7.11-24.09-19.25-58.17-17.15a30.32 30.32 0 0 0-6.49 1.13l-30.73 8.86.77 27.61s25.67 6.36 32.21 7.65c16.7 3.3 47.7-2.91 62.45-17.63a7.45 7.45 0 0 0-.04-10.47z" class="cls-2"/>
          <g clip-path="url(#clip-path-6)">
            <path d="M513.71 143.46c-7-7.11-24.09-19.25-58.17-17.15a30.32 30.32 0 0 0-6.49 1.13l-30.73 8.86.77 27.61s25.67 6.36 32.21 7.65c16.7 3.3 47.7-2.91 62.45-17.63a7.45 7.45 0 0 0-.04-10.47z" class="cls-20"/>
            <path fill="url(#Degradado_sin_nombre_3-3)" d="M503.72 135.75l.71 25.27 15.16 1.22.84-20.81-4.08-12.32-12.63 6.64z"/>
            <path fill="url(#Degradado_sin_nombre_3-4)" d="M456.63 148.45c-16.09-2.07-29.49-5.75-38.31-12.15l.31 11.2z" opacity=".4"/>
            <path fill="url(#Degradado_sin_nombre_3-5)" d="M479.82 170.31S432 169.44 418.9 157l.19 6.9s39.4 13.9 60.73 6.41z" opacity=".4"/>
          </g>
          <g class="cls-32">
            <path d="M475.75 171.24c-.17 0-.18-2.52-.18-6.56s0-9.64-.17-15.81-.44-11.74-.66-15.79-.35-6.54-.18-6.56.57 2.46 1 6.5.84 9.63 1 15.82 0 11.8-.17 15.86-.49 6.55-.64 6.54z" class="cls-33"/>
          </g>
          <g class="cls-32">
            <path d="M472.12 172.15c-.16 0-.12-2.58 0-6.74s.26-9.88.31-16.22 0-12.07 0-16.22 0-6.73.13-6.74.45 2.55.7 6.71.43 9.91.38 16.26-.34 12.1-.66 16.25-.7 6.71-.86 6.7z" class="cls-33"/>
          </g>
          <g class="cls-17">
            <path d="M420.38 165.13c-.32 0-.68-6.54-.79-14.61s.06-14.62.38-14.62.67 6.53.78 14.61-.05 14.62-.37 14.62z" class="cls-33"/>
          </g>
          <g class="cls-17">
            <path d="M423 164.64c-.32 0-.74-6.69-.93-14.95s-.09-15 .23-15 .74 6.69.93 14.95.06 14.99-.23 15z" class="cls-33"/>
          </g>
          <path fill="#302d40" d="M471.85 158.92a9.87 9.87 0 1 1 10.61-9.11 9.88 9.88 0 0 1-10.61 9.11z" opacity=".19"/>
          <path fill="url(#Degradado_sin_nombre_2)" d="M473.47 159.6a9.87 9.87 0 1 1 10.61-9.11 9.88 9.88 0 0 1-10.61 9.11z"/>
          <path d="M468.77 141.51l13.88 13.41s-1.95 2.73-3.63 3.47l-13-14.18s1.4-2.48 2.75-2.7zm-3.91 5l13.2 12.34-1.86.58-11.8-11.03.46-1.89zm-7.78-10.14a.74.74 0 1 1 0-1.48.74.74 0 0 1 0 1.48zm-2.18.06a.74.74 0 1 1 0-1.48.74.74 0 0 1 0 1.48zm-2.4.07a.74.74 0 1 1 .72-.76.74.74 0 0 1-.72.76z"/>
          <path d="M457.4 149.84s-.73-4-19.95-3.48c-23.4.65-35.65 2.22-35.42 4.23s56.68 6.96 55.37-.75zm40.23-17.22s-7.32 15.75.88 31.51c0 0 19.35-6.75 17.34-16.27s-18.22-15.24-18.22-15.24z" class="cls-27"/>
        </g>
      </g>
    </g>
  </g>
</svg>
