<svg xmlns="http://www.w3.org/2000/svg" viewBox="0 0 600 800"><defs><style>.cls-1{fill:none}.cls-5{fill:#59d2e5}.cls-6{opacity:.43}.cls-7{fill:#3c34b7}.cls-8{opacity:.19}.cls-9{fill:#ffcab3}.cls-10{fill:#f08299}.cls-11,.cls-35{fill:#ededeb}.cls-12{fill:#7443de}.cls-13{fill:#f5ac8e}.cls-14{fill:#f5ad8c}.cls-15{fill:#222221}.cls-16{fill:#f18474}.cls-17{fill:#2a2a8c}.cls-18{fill:#f2e7e2}.cls-19{fill:#4444ad}.cls-21{fill:#fde17e}.cls-22{fill:#fcbc00}.cls-24{fill:#5a39b5}.cls-33{fill:#fff}.cls-35,.cls-36{opacity:.54}</style><clipPath id="clip-path"><path d="M0 0h600v800H0z" class="cls-1"/></clipPath><clipPath id="clip-path-2"><path d="M504.38 379.62c-6-5-14.95-5.68-22.18-1.7a25.92 25.92 0 0 0-12.75 20.92 24.75 24.75 0 0 0 5.1 16.11 25.79 25.79 0 0 0 13.4 8.87 23.62 23.62 0 0 0 17.82-1.68c6.44-3.54 11.12-10.74 12.22-18.28a25.26 25.26 0 0 0-6-20.41 24 24 0 0 0-18.63-7.61" class="cls-1"/></clipPath><clipPath id="clip-path-3"><path d="M412.06 131.08c.43 1-106.41-17.61-243.79 110.38l86.35 106.32S410.77 242 412.06 131.08z" class="cls-1"/></clipPath><clipPath id="clip-path-4"><path d="M107.82 116.34c-7.46 3.45-12.18 11.66-11.69 20.34s6.18 17.4 14.07 21.6a26 26 0 0 0 17.59 2.44 27.28 27.28 0 0 0 14.5-8.74 25 25 0 0 0 6.5-17.72c-.44-7.72-5.15-15.44-11.8-19.9a26.48 26.48 0 0 0-22.08-3.53 25.33 25.33 0 0 0-15.68 14.28" class="cls-1"/></clipPath><clipPath id="clip-path-5"><path d="M472.59 192.39a14.28 14.28 0 0 0-15.86-1.21 18.47 18.47 0 0 0-9.13 14.93 17.63 17.63 0 0 0 3.65 11.49 18.53 18.53 0 0 0 9.59 6.33 17 17 0 0 0 12.75-1.2 18.2 18.2 0 0 0 4.46-27.61 17.23 17.23 0 0 0-13.33-5.43" class="cls-1"/></clipPath><clipPath id="clip-path-6"><path d="M40.87 252.36a8.31 8.31 0 0 0-9.25-.71 10.76 10.76 0 0 0-5.31 8.7 10.24 10.24 0 0 0 2.12 6.7 10.84 10.84 0 0 0 5.57 3.69 9.84 9.84 0 0 0 7.43-.7A10.6 10.6 0 0 0 44.05 254a10.07 10.07 0 0 0-7.77-3.17" class="cls-1"/></clipPath><clipPath id="clip-path-7"><path d="M92.68 337.23c-8.58-7.12-21.39-8.1-31.74-2.43s-17.71 17.74-18.24 29.86a35.26 35.26 0 0 0 7.29 23 37 37 0 0 0 19.18 12.66c8.22 2.34 17.51 2 25.5-2.39 9.2-5 15.9-15.33 17.48-26.09a36 36 0 0 0-8.57-29.11 34.38 34.38 0 0 0-26.66-10.87" class="cls-1"/></clipPath></defs><g id="Hero"><path fill="#061357" d="M.02 0h599.97v800H.02z"/><g clip-path="url(#clip-path)"><g clip-path="url(#clip-path-2)"><path d="M504.38 379.62c-6-5-14.95-5.68-22.18-1.7a25.92 25.92 0 0 0-12.75 20.92 24.75 24.75 0 0 0 5.1 16.11 25.79 25.79 0 0 0 13.4 8.87 23.62 23.62 0 0 0 17.82-1.68c6.44-3.54 11.12-10.74 12.22-18.28a25.26 25.26 0 0 0-6-20.41 24 24 0 0 0-18.63-7.61" class="cls-5"/><g class="cls-6"><path d="M468.49 407.18c1.71-5.32 8.91-8.95 14.26-8.77 6.2.21 10.54 5.55 16.15 7.51a22.24 22.24 0 0 0 16.23-1c5.34-2.39 13.08-7 13.84-13.31a5.43 5.43 0 0 0-5.93-6.07c-6.75.47-9.91 8.61-16.85 9.43-5.88.7-11.05-5.52-16.48-7.18a22.62 22.62 0 0 0-17 1.2c-6.62 3.36-8.78 8.57-10.93 15.26-1.42 4.42 5.23 7.37 6.67 2.9z" class="cls-7"/></g><g class="cls-6"><path d="M472.5 415.1c3.9-1.15 6.31-4 10.71-3.81 4.8.24 8.58 4.13 12.61 6.37 6.52 3.62 15.93 4.79 22.1-.13 2.33-1.85.93-5.82-2.15-5.45-4.73.55-9.09 1.75-13.88.73-5.15-1.1-8.94-4.9-13.65-7-6.18-2.73-17.75-1.56-19.22 6.52-.38 2.06 1.74 3.27 3.48 2.76z" class="cls-7"/></g><g class="cls-6"><path d="M515.06 381.2c-2.57 4.5-9.19 4.22-13.17 2.57-3.44-1.42-6.19-3.9-9.31-5.85-4.25-2.66-9-4.16-13.5-1.38a1.67 1.67 0 0 0 .75 3 33 33 0 0 1 11.2 3.26c4 2 7.69 5 12.08 6.18 6.16 1.6 11.91-.91 12.54-7.58a.31.31 0 0 0-.59-.17z" class="cls-7"/></g><g class="cls-8"><path d="M480.24 425.2c1.58-.54 4.71.17 6.27.66a17.38 17.38 0 0 1 5.92 3.45c3.59 3.07 8.22-1.82 5.78-5.54a14.27 14.27 0 0 0-9.94-6.26 15.09 15.09 0 0 0-5.36.18c-2 .42-3 1.34-4.76 2.21-3.23 1.64-1.42 6.49 2.09 5.3z" class="cls-9"/></g></g><path d="M260 800.13a44.09 44.09 0 0 0-7.45-15.13c-10.09-13.13-24.79-16.28-28.55-17-16.33-3.24-20 4.85-42 6.57-8.44.66-28 2.2-44.63-7.67-20-11.86-14.16-27.5-30.22-36.72-26.71-15.35-65.13 15-75 2.49-5.72-7.27 5.92-19 0-32.65-5-11.52-19.23-17.59-32.11-20.2v120.31z" class="cls-7"/><path d="M475.67 481l-43.89-29.6c-4.87-3.28-11.95-6.38-15.95-2.08-3.44 3.71-1.06 10.13 3.08 13s9.39 3.54 14.16 5.21c16.85 5.91 26.1 23.66 33.11 40.12s14.57 34.52 30.37 42.85a5.13 5.13 0 0 0 3.75.79c1.72-.53 2.44-2.53 2.85-4.29a61.67 61.67 0 0 0-39.73-72.26M257.27 595c3.22 0 3.22-5 0-5s-3.23 5 0 5z" class="cls-10"/><path d="M257.27 599.66c3.22 0 3.22-5 0-5s-3.23 5 0 5z" class="cls-10"/></g><path d="M140.21 651.39c-18.72-29.56-1.85-70.35 25.13-92.64S227 526.34 258 510.07c37.11-19.48 70.76-48.62 112.19-55 33.43-5.13 68.63 6.17 94.08 28.45S505.44 538.37 509 572c7 66.72-37.66 135.29-101.48 156s-140.15-8.76-173.6-66.91" class="cls-11"/><path d="M179.28 637.63S208.59 520.39 329 536.31s114.58 119.43 114.58 119.43l-64.88 4.83 2 73.12c-36.1 4.07-91.06-7.58-156.66-17.55l2.38-53z" class="cls-12"/><path d="M443.69 653.56s0 .77-.11 2.18c-.76 14.07-5.86 91.44-27 89.71-23.26-1.89-39.21-12.66-37.88-84.88l64.95-6.24" class="cls-13"/><path d="M390.85 729.12s44.27-99.82 67.66-126.36l27.09 23.8s-41.17 122.68-68.19 118.84-26.56-16.28-26.56-16.28zM182.43 639.33l-16.04 47.68 52.98 31.98 7.06-55.87-44-23.79z" class="cls-13"/><path d="M296.19 520l-4.26 31.12s39 23.19 62.13-6.94l17.34-116.5c-23.3-24.34-48.33-28.26-75.21-10.15 0 0-38.83 90.26 0 102.47z" class="cls-14"/><path d="M295.14 447.93c1.21-2.17 2.62-4.44 4.93-5.59 3.37-1.67 6.53-.19 7.32 3.41.1.48.91.51 1 0 .56-3.41-2.92-5.94-6.07-5.71-4.17.3-6.8 3.87-8.13 7.49-.21.56.67.91 1 .4z" class="cls-15"/><path d="M316.88 467.3c.16.14-.06.75-.69 1.73a8.47 8.47 0 0 1-3.95 3.35 6 6 0 0 1-4 0 4.71 4.71 0 0 1-2.06-1.44 4.91 4.91 0 0 1-1-2.49 11.64 11.64 0 0 1 .69-4.66c.41-1.4.88-2.83 1.39-4.28 4.1-11.7 10-19.94 10.7-19.47s-3.72 9.19-7.68 20.53c-.5 1.42-1 2.8-1.41 4.15a10 10 0 0 0-.76 3.43 1.93 1.93 0 0 0 1.14 1.77 4 4 0 0 0 2.39.25 9.85 9.85 0 0 0 3.68-2c.83-.66 1.39-1.02 1.56-.87zM308.44 482.25c5.16.94 12.26-.53 15-5.6a.62.62 0 0 0-1-.75c-1.93 1.58-3.49 3.24-5.86 4.22a14.69 14.69 0 0 1-7.81 1c-.76-.13-1.1 1-.32 1.17z" class="cls-16"/><path d="M321 475.08a3.18 3.18 0 0 1 2.66 1.07 6.93 6.93 0 0 1 1.18 2.57.53.53 0 0 0 .95.12c.8-1.26 0-2.91-1-3.83a4.4 4.4 0 0 0-4-1.17c-.69.14-.55 1.3.16 1.24z" class="cls-16"/><path d="M336.88 452.39a6.79 6.79 0 0 1 7.19-3.72c3.1.65 4.69 3.19 5.29 6.1.15.7 1.2.51 1.22-.17a7.69 7.69 0 0 0-6.18-7.51c-3.72-.71-6.95 1.5-8.5 4.73-.32.66.66 1.24 1 .57z" class="cls-15"/><path d="M297.44 418.31c6.12-3.06 12.28-6.14 18.85-8.05s13.65-2.59 20.25-.8c7.52 2 13.84 7.08 19.55 12.38 3.63 3.35 7.25 7.1 8.53 11.87 1.52 5.66-.53 11.58-2.21 17.2a139.32 139.32 0 0 0-4.08 18 16.33 16.33 0 0 0-.17 6 6 6 0 0 0 3.57 4.53l3.94-1.22a125.88 125.88 0 0 0 20.08-35.24c2.11-5.7 3.83-11.81 2.78-17.79s-5.56-11.74-11.6-12.39c-3.9-.42-7.88 1.28-11.7.4-4.23-1-7.09-4.73-10-8a57.53 57.53 0 0 0-40-18.78c-5.91-.23-12 .5-17.23 3.19s-9.62 7.54-10.71 13.34 1.6 12.4 6.92 14.95z" class="cls-17"/><path d="M364.38 467.44a7 7 0 0 1 9-1.85 8.6 8.6 0 0 1 3.91 8.63 11.3 11.3 0 0 1-5.73 7.86c-3.12 1.75-7.29 2.06-10.13-.11" class="cls-14"/><path d="M296.75 430.76c2.49.22 4.92-.79 7.37-1.12a45.06 45.06 0 0 1 8.13 0c2.46.12 3-3.77.59-4.31-4.86-1.09-13.53-.9-16.95 3.36a1.23 1.23 0 0 0 .86 2.07zM342.87 432.9c2 .4 4.4 2 6.05 3.15 1.9 1.3 3.24 3 5 4.46 1.94 1.65 5-.41 3.64-2.81a15 15 0 0 0-6.4-5.42 19.21 19.21 0 0 0-3.74-1.35c-1.47-.36-2.75-.09-4.21-.27-1.27-.16-1.56 2-.3 2.24z" class="cls-17"/><path d="M373.76 472.1c.45-2.4-1.68-4.16-4-4-2.92.25-4.47 3-5 5.54a.83.83 0 0 0 1.2.93c1.6-1 3.86-.88 4.68 1.05s-.91 3.53-2.9 3.2c-.8-.14-1.47 1-.6 1.43 2.76 1.33 5.8-1.22 5.39-4.17-.5-3.64-4.56-4.59-7.39-2.93l1.2.93a5.64 5.64 0 0 1 2.24-3.83 2.69 2.69 0 0 1 4.11 1.8.57.57 0 0 0 1.09 0z" class="cls-16"/><path d="M300.53 440.34a6.1 6.1 0 0 0-1.68 3.28 4.25 4.25 0 0 0 1 3.47 3.31 3.31 0 0 0 3.43.88 3.54 3.54 0 0 0 1.95-2 4.15 4.15 0 0 0-.56-4.18 3.46 3.46 0 0 0-4-.95M341.51 447.28a6 6 0 0 0-1.68 3.27 4.23 4.23 0 0 0 1 3.47 3.28 3.28 0 0 0 3.42.88 3.54 3.54 0 0 0 2-2 4.12 4.12 0 0 0-.55-4.18 3.48 3.48 0 0 0-4-.95" class="cls-15"/><path d="M436.16 639.13c.79.52-9.7 17.14-20.77 38.64s-18.64 39.64-19.53 39.3c-.39-.15 1-4.9 3.84-12.36a296.43 296.43 0 0 1 28.59-55.31c4.44-6.64 7.52-10.51 7.87-10.27z" class="cls-16"/><path d="M406.24 690.74c.25.87-2.42 2.36-5.5 4.27s-5.64 3.58-6.31 3 1.11-3.55 4.64-5.7 6.93-2.41 7.17-1.57z" class="cls-16"/><path d="M494 611.89c-2.84 4.26-8.41 14.67-8.41 14.67l-37.81-7.8 13.93-27.34-3.26-26.09c5.23-3.09 11.1 17.22 11.1 17.22s22.94-10.62 25.1-3.52a5.85 5.85 0 0 1-1.67 5.81s5.31-2 6.46.93c1 2.42-2.58 5.36-2.58 5.36s4.59-1 6 3.49c1.26 3.97-8.86 17.27-8.86 17.27z" class="cls-13"/><path d="M491.81 584.92c.14.22-1.18 1.34-3.51 2.89a30.11 30.11 0 0 1-10.15 4.48 4.74 4.74 0 0 1-3.67-.7 3.32 3.32 0 0 1-1.2-1.59 2.77 2.77 0 0 1 .08-2 6.51 6.51 0 0 1 1.93-2.25 20 20 0 0 1 1.91-1.38c2.45-1.51 4.21-1.87 4.29-1.64s-1.41 1-3.5 2.75c-.52.42-1.07.91-1.63 1.46a5.52 5.52 0 0 0-1.36 1.71 1 1 0 0 0 0 .74 1.63 1.63 0 0 0 .58.7 3 3 0 0 0 2.25.31 42.75 42.75 0 0 0 9.79-3.76c2.47-1.23 4.05-1.95 4.19-1.72z" class="cls-16"/><path d="M495.15 591.25c.15.21-.9 1.22-2.77 2.61a29.68 29.68 0 0 1-8.13 4.35 8.8 8.8 0 0 1-2.82.51 4 4 0 0 1-2.82-1.07 3.34 3.34 0 0 1-.93-2.63 4.36 4.36 0 0 1 .74-2.12 6.37 6.37 0 0 1 2.2-1.94c.59-.32 1-.42 1-.32s-.13.42-.56.91a9.13 9.13 0 0 0-1.5 2 2.43 2.43 0 0 0 .25 2.79c.68.66 2.28.55 3.81 0a52.3 52.3 0 0 0 8-3.67c2.07-1.04 3.38-1.67 3.53-1.42z" class="cls-16"/><path d="M499.63 598.59c.18.16-.43 1.28-2 2.58a14.26 14.26 0 0 1-7.21 3.13 6.24 6.24 0 0 1-2.49-.23 3.58 3.58 0 0 1-2-1.63 4 4 0 0 1 .28-4 6.28 6.28 0 0 1 1.7-1.75c.46-.32.76-.44.85-.34s0 .39-.31.85a12.44 12.44 0 0 0-1 1.86 2.84 2.84 0 0 0 0 2.48c.42.68 1.51 1 2.81.84a18.55 18.55 0 0 0 6.61-2.33c1.62-.91 2.55-1.65 2.76-1.46zM468.28 591.64a13 13 0 0 1 8.45 4.14c2.15 2.42 2.63 5.09 3.47 8.06.19.67 1.38.79 1.48 0 1-7.49-6.66-13.21-13.4-13.44-.81 0-.78 1.17 0 1.24z" class="cls-16"/><path d="M303.91 444.65a8.47 8.47 0 0 0 2.25 0 .41.41 0 0 0 0-.79 8.48 8.48 0 0 0-2.25 0 .4.4 0 0 0 0 .8zM344.85 451.54a13 13 0 0 0 2.15.19c.49-.05.71-.84.13-1a14.5 14.5 0 0 0-2.28.05.36.36 0 0 0 0 .71z" class="cls-18"/><path d="M362.07 478.34a42.38 42.38 0 0 1 11.8-23.58c4.7-4.67 10-8.45 12.22-14.95.43-1.27-1.53-1.78-2-.55-3.09 8.11-11.19 12.39-16.09 19.26a39.63 39.63 0 0 0-7 19.68c0 .59 1 .73 1.05.14zM302.86 388.83c-6.32 12.5 9.95 19 19.38 20.59.93.16 1.35-1.21.4-1.44-8.84-2.17-23.66-6.5-19.44-19 .06-.19-.25-.33-.34-.14z" class="cls-19"/><path d="M361.42 477.49c-3.23-14.15 4.18-25.19 9.44-37.67 3.36-8 5.4-16.83 2.12-25.17-.41-1-2.09-.65-1.73.48 7.2 22.47-19.45 40.6-11.13 62.72a.67.67 0 0 0 1.3-.36zM356.8 421.47a30.68 30.68 0 0 0-10.56-20c-6.65-5.85-17.23-6.32-22.64-13.25-.56-.72-1.7.2-1.25 1 3.7 6.1 11.31 6.59 17.11 9.74 8.87 4.82 13.87 13.2 16.47 22.68.13.47.92.4.87-.11z" class="cls-19"/><path fill="#f18474" d="M349.31 471.14a10.64 10.64 0 0 1-5.65 5.8 11.18 11.18 0 0 1-8.24.41c-6.4-1.62-10.46-7.41-9.07-12.93s7.73-8.67 14.14-7a14.65 14.65 0 0 1 7.82 5.75 8.84 8.84 0 0 1 1 7.97z" opacity=".39"/><path d="M156 340c-30.11 31.7-56.8 67.48-72.86 108.2S62.29 535 75.62 576.73c15.8 49.4 55.67 88.46 101.48 112.76s97.41 35.36 148.7 43c4.74.71 9.94 1.3 14-1.21 8.47-5.21 4.72-19.46-3.86-24.48s-19.19-4.18-29.1-5a84.38 84.38 0 0 1-62.64-37.08c-6.82-10.35-12.21-23.06-23.65-27.85-13.34-5.59-28.4 2.3-42.85 1.64-24.2-1.09-40.26-24.69-52.3-45.71-11.1-19.35-22.4-39.3-25.61-61.38-2.51-17.21.07-34.7 2.64-51.9C109.55 432.22 125.87 378 156 340M276.65 770.69a11.79 11.79 0 1 0-.22 0" class="cls-11"/><path d="M289.65 726.11c-27.45-3.36-55.82 9.45-79.55-3.57-7.79-4.28-13.47-11.83-21.47-15.71-12.82-6.2-27.94-1.6-42.18-1.62-24.55 0-48.39-15.68-58.18-38.19-2.86-6.6-4.48-14.6-.7-20.71 4.23-6.85 13.94-8.56 21.54-5.91S122.62 649 128 655s10.74 12.28 17.86 16c16.26 8.58 37.74 1.84 53.4 11.46 11.33 6.95 16.91 21 28.34 27.75 13.92 8.25 61.85-1.14 62 15.88" class="cls-10"/><path d="M116.84 370.29c-1.07 8.9-10.41 14.09-18.78 17.29s-18 6.85-21.12 15.24c-2 5.28-.92 11.45-3.49 16.47C69.9 426.22 60.41 429 58 436.4c-2.23 6.86 3.66 14.53 10.77 15.74s14.34-2.77 18.81-8.43S94.24 431 96 424c1.67-6.82 3-13.86 6.61-19.91 2.59-4.42 6.25-8.15 8.85-12.57s7.71-16.59 5.41-21.18M38.31 502.31c-.73.69-5.39 7.9-2.37 13.55s11.16 7.8 16.55 4.33 6.79-11.81 2.82-16.84-12.45-5.56-17-1" class="cls-21"/><path d="M100.81 485.5c4.73-2.76 10.13.54 12.33 5.55s1.26 10.83-.29 16.08-3.65 10.47-3.67 15.94c-.06 14.3 13.52 24.56 19.22 37.67 2 4.58 3 9.6 5.74 13.79 3.64 5.67 9.77 9.13 14.91 13.48s9.68 10.8 8.16 17.36c-1.74 7.53-11.06 11.25-18.56 9.42s-13.35-7.61-18.31-13.53c-13.28-15.89-23.13-34.86-27-55.2s-1.72-42 7.52-60.56" class="cls-5"/><path d="M181.37 645.31a12.24 12.24 0 0 0-4.8 9.71 10 10 0 0 0 4 7.65 15.38 15.38 0 0 0 8.33 2.92c4.22.3 8.86-.92 11.35-4.33s2.19-8.43-.24-11.9a14.52 14.52 0 0 0-10.88-5.73 13.44 13.44 0 0 0-7.13 1.3 9 9 0 0 0-4.62 5.43" class="cls-10"/><path d="M417.71 736.93c-4.37-6.64 75.56-40.73 92.85-110.72 10.43-42.15-.89-80.35-.89-80.35-6.27-21.18-15.12-32-12.5-33.93 4.75-3.57 43.43 24.42 53.57 67.86 1.72 7.36 5.34 23.7 0 42.85-4.29 15.42-13.63 26-32.14 46.43-16.8 18.58-29 32.08-49.73 45.61s-48.56 26.2-51.16 22.25zM408.8 442.27c5.52-3.13 12.55-1.35 18.18 1.59s10.81 7 17 8.5 13.95-.6 16-6.6c1.51-4.31-.5-9.23-3.77-12.43s-7.58-5-11.8-6.81c-7-2.93-14.33-5.92-21.85-5.12s-15.07 6.87-14.68 14.43zM500.38 453.06c-2.45 7.08 1.31 15.78 8.21 18.71s15.87-.51 18.9-7.37-.54-15.91-7.5-18.69-17.47.17-19.61 7.35" class="cls-7"/><path d="M278.57 580.12c-1 15.68-2 31.35-2.57 47a1.68 1.68 0 0 0 2.33 1.69q10.76-4.56 21.38-9.43c7-3.23 13.93-7.12 21.11-10a2.07 2.07 0 0 0 .34-3.54c-6.69-4.58-13.54-8.93-20.34-13.34s-13.49-9.06-20.48-13.15c-2.86-1.68-5.88 2.36-3 4.3 13.36 9.09 27.54 17.41 41.51 25.53l.33-3.54c-6.54 4.1-13.92 7.21-20.88 10.52s-14.13 6.55-21.29 9.62l2.32 1.69c.55-15.75.74-31.48.9-47.23 0-1-1.55-1.24-1.62-.17z" class="cls-11"/><path d="M343 630.65c-.48-15.74-1-31.46-1.84-47.18a1.6 1.6 0 0 0-2.48-1.23q-9.84 5.58-19.54 11.46c-6.43 3.9-12.65 8.44-19.24 12-1.44.78-.85 2.89.29 3.55 13.54 7.8 27.36 15.69 41.4 22.47 3 1.43 4.91-3.19 2.09-4.8-6.8-3.89-13.92-7.23-20.88-10.8s-13.92-7.21-21-10.59c.09 1.18.19 2.36.29 3.55 5.85-4.71 12.61-8.51 18.94-12.48s12.88-7.88 19.43-11.63l-2.46-1.22c.91 15.71 2.16 31.37 3.45 47a.78.78 0 1 0 1.55-.14zM256.89 644.37v-2.17l6.53-4.9 1.28 1.75-5.51 4.22 5.51 4.24-1.28 1.77zM269.19 640.29h2.52l1.32 4.16c.19.62.36 1.26.51 1.9.13-.57.29-1.2.48-1.9l1.19-4.16h2.52l-3.58 9.78a3.31 3.31 0 0 1-3.47 2.49h-.66v-2h.28a2.31 2.31 0 0 0 1.15-.25 1.61 1.61 0 0 0 .64-.87l.27-.79zM277.85 644.69a6.49 6.49 0 0 1 .23-1.72 5.19 5.19 0 0 1 .71-1.48 3.31 3.31 0 0 1 1.31-1.07 4.23 4.23 0 0 1 1.9-.42 4.18 4.18 0 0 1 1.89.4 3.28 3.28 0 0 1 1.3 1.07 4.94 4.94 0 0 1 .71 1.48 6.11 6.11 0 0 1 .23 1.72 6.6 6.6 0 0 1-.1 1.17 5.43 5.43 0 0 1-.39 1.23 4.25 4.25 0 0 1-.72 1.14 3.21 3.21 0 0 1-1.19.81 4.3 4.3 0 0 1-1.73.33 4.47 4.47 0 0 1-1.69-.31 3.72 3.72 0 0 1-1.21-.78 4 4 0 0 1-.74-1.12 5.07 5.07 0 0 1-.39-1.24 7.12 7.12 0 0 1-.12-1.21zm2.4 0a3.13 3.13 0 0 0 .54 2.07 1.59 1.59 0 0 0 1.2.62 1.34 1.34 0 0 0 .55-.13 1.87 1.87 0 0 0 .55-.39 2 2 0 0 0 .46-.84 4.78 4.78 0 0 0 .17-1.33 4.39 4.39 0 0 0-.17-1.33 1.86 1.86 0 0 0-.45-.83 1.89 1.89 0 0 0-.56-.4 1.33 1.33 0 0 0-.54-.13 1.61 1.61 0 0 0-1.2.61 3.13 3.13 0 0 0-.55 2.08zM287.35 645.85v-5.56h2.35v5.31c0 1.18.39 1.78 1.19 1.78a1.24 1.24 0 0 0 1.1-.66 2.85 2.85 0 0 0 .4-1.54v-4.89h2.35v8.81h-2.24v-.79h-.05a2 2 0 0 1-.8.75 2.66 2.66 0 0 1-1.28.31 3.64 3.64 0 0 1-.74-.07 2.74 2.74 0 0 1-.79-.29 2.55 2.55 0 0 1-.75-.59 3 3 0 0 1-.52-1 5 5 0 0 1-.22-1.57zM296.55 649.1v-8.81h2.25v.71a2.39 2.39 0 0 1 .79-.71 2.32 2.32 0 0 1 1.17-.3 2.71 2.71 0 0 1 1.08.16v2.14a3.49 3.49 0 0 0-1.08-.16 1.54 1.54 0 0 0-1.4.73 3.66 3.66 0 0 0-.46 2v4.24zM305.77 647.2l1.64-1a2.65 2.65 0 0 0 2.24 1.26 1.41 1.41 0 0 0 .87-.24.73.73 0 0 0 .32-.59 1 1 0 0 0 0-.24.72.72 0 0 0-.12-.21l-.17-.17a1.25 1.25 0 0 0-.24-.15 1.62 1.62 0 0 0-.27-.13l-.32-.13-.32-.11-.37-.11-.35-.12a5 5 0 0 1-1.78-.95 2.14 2.14 0 0 1-.67-1.71 2.22 2.22 0 0 1 1-1.91 4.32 4.32 0 0 1 2.44-.7 4.12 4.12 0 0 1 2.11.58 3.91 3.91 0 0 1 1.5 1.52l-1.54.9a2.66 2.66 0 0 0-2-1.12 1.36 1.36 0 0 0-.83.22.65.65 0 0 0-.3.55.73.73 0 0 0 .06.3.7.7 0 0 0 .2.26 2 2 0 0 0 .26.2 1.82 1.82 0 0 0 .37.18l.38.14.45.15.44.14c1.68.56 2.52 1.45 2.52 2.65a2.42 2.42 0 0 1-.91 1.89 3.86 3.86 0 0 1-2.61.79 4.7 4.7 0 0 1-2.38-.6 3.89 3.89 0 0 1-1.62-1.54zM313.88 642.26v-2h1.26v-2.51h2.32v2.51h1.83v2h-1.83v3.88c0 .65.28 1 .85 1h1v2H318c-1.91 0-2.87-.94-2.87-2.82v-4zM320.17 646.7a2.5 2.5 0 0 1 .92-2 5.3 5.3 0 0 1 2.71-1.06c1-.15 1.54-.25 1.7-.3v-.46a.92.92 0 0 0-.38-.8 1.68 1.68 0 0 0-1-.25 3.11 3.11 0 0 0-2.37 1.08l-1.38-1.18a4.62 4.62 0 0 1 3.72-1.72 3.64 3.64 0 0 1 2.87 1 4 4 0 0 1 .85 2.74v5.37h-2.27v-.9a2.09 2.09 0 0 1-.88.83 2.93 2.93 0 0 1-1.4.34 3.34 3.34 0 0 1-2.28-.74 2.46 2.46 0 0 1-.81-1.95zm2.37-.2a.83.83 0 0 0 .31.66 1.13 1.13 0 0 0 .79.27 1.85 1.85 0 0 0 1.32-.52 1.89 1.89 0 0 0 .54-1.41v-.59c-.57.14-1 .23-1.35.28-1.07.16-1.61.59-1.61 1.31zM329.52 649.1v-8.81h2.25v.71a2.39 2.39 0 0 1 .79-.71 2.32 2.32 0 0 1 1.17-.3 2.71 2.71 0 0 1 1.08.16v2.14a3.49 3.49 0 0 0-1.08-.16 1.54 1.54 0 0 0-1.4.73 3.66 3.66 0 0 0-.46 2v4.24zM335.18 642.26v-2h1.26v-2.51h2.31v2.51h1.83v2h-1.83v3.88c0 .65.29 1 .85 1h1v2h-1.29c-1.91 0-2.87-.94-2.87-2.82v-4zM341.81 645.85v-5.56h2.35v5.31c0 1.18.39 1.78 1.18 1.78a1.25 1.25 0 0 0 1.11-.66 2.85 2.85 0 0 0 .4-1.54v-4.89h2.35v8.81H347v-.79a2 2 0 0 1-.8.75 2.69 2.69 0 0 1-1.28.31 3.64 3.64 0 0 1-.74-.07 2.74 2.74 0 0 1-.79-.29 2.55 2.55 0 0 1-.75-.59 3 3 0 0 1-.52-1 4.75 4.75 0 0 1-.31-1.57zM351.1 652.56v-12.27h2.24v.86a2.49 2.49 0 0 1 2.1-1.13 3.4 3.4 0 0 1 2.69 1.25 5.07 5.07 0 0 1 1.07 3.41 6.39 6.39 0 0 1-.35 2.18 3.86 3.86 0 0 1-.92 1.47 4.11 4.11 0 0 1-1.2.78 3.42 3.42 0 0 1-1.29.26 2.45 2.45 0 0 1-1.28-.31 2.22 2.22 0 0 1-.73-.69v4.19zm2.3-7.88a3.71 3.71 0 0 0 .45 2 1.39 1.39 0 0 0 1.25.73 1.44 1.44 0 0 0 1.24-.7 3.67 3.67 0 0 0 .46-2 3.62 3.62 0 0 0-.45-2 1.46 1.46 0 0 0-2.52 0 3.73 3.73 0 0 0-.43 1.97zM265.64 662.53a4.87 4.87 0 0 1 1.05-3.29 3.35 3.35 0 0 1 2.64-1.22 2.09 2.09 0 0 1 1.17.32 2.28 2.28 0 0 1 .71.71v-.76h2.34v7.48a5.53 5.53 0 0 1-1 3.67 3.85 3.85 0 0 1-3.08 1.18 4.09 4.09 0 0 1-3.55-1.76l1.53-1.08a2.54 2.54 0 0 0 2.06 1 1.6 1.6 0 0 0 1.15-.48 1.9 1.9 0 0 0 .55-1.25v-.85a1.91 1.91 0 0 1-.79.59 2.68 2.68 0 0 1-1 .23 3.41 3.41 0 0 1-2.71-1.21 4.84 4.84 0 0 1-1.07-3.28zm2.4 0a3.26 3.26 0 0 0 .44 1.85 1.34 1.34 0 0 0 1.16.64 1.3 1.3 0 0 0 1.14-.63 3.36 3.36 0 0 0 .43-1.86 3.32 3.32 0 0 0-.44-1.86 1.3 1.3 0 0 0-1.13-.65 1.34 1.34 0 0 0-1.17.66 3.4 3.4 0 0 0-.47 1.84zM274.84 662.69a6.49 6.49 0 0 1 .23-1.72 5.19 5.19 0 0 1 .71-1.48 3.31 3.31 0 0 1 1.31-1.07A4.23 4.23 0 0 1 279 658a4.18 4.18 0 0 1 1.89.4 3.28 3.28 0 0 1 1.3 1.07 4.94 4.94 0 0 1 .71 1.48 6.11 6.11 0 0 1 .23 1.72 6.6 6.6 0 0 1-.1 1.17 5.43 5.43 0 0 1-.39 1.23 4.25 4.25 0 0 1-.72 1.14 3.17 3.17 0 0 1-1.2.81 4.22 4.22 0 0 1-1.72.33 4.56 4.56 0 0 1-1.7-.31 3.78 3.78 0 0 1-1.2-.78 4 4 0 0 1-.74-1.12 5.07 5.07 0 0 1-.39-1.24 7.12 7.12 0 0 1-.13-1.21zm2.4 0a3.13 3.13 0 0 0 .54 2.07 1.59 1.59 0 0 0 1.2.62 1.34 1.34 0 0 0 .55-.13 1.87 1.87 0 0 0 .55-.39 2 2 0 0 0 .46-.84 4.78 4.78 0 0 0 .17-1.33 4.39 4.39 0 0 0-.17-1.33 1.86 1.86 0 0 0-.45-.83 1.89 1.89 0 0 0-.56-.4 1.33 1.33 0 0 0-.53-.13 1.61 1.61 0 0 0-1.2.61 3.13 3.13 0 0 0-.56 2.08zM284 662.67a4.69 4.69 0 0 1 1.2-3.4 4 4 0 0 1 3-1.25 3.84 3.84 0 0 1 2.91 1.28 4.74 4.74 0 0 1 1.19 3.37 7.87 7.87 0 0 1 0 .84h-5.86a2 2 0 0 0 .53 1.42 1.84 1.84 0 0 0 1.42.58 2 2 0 0 0 1.15-.33 2.09 2.09 0 0 0 .74-.85l1.95.69a4.09 4.09 0 0 1-1.44 1.67 4.3 4.3 0 0 1-2.47.68 4 4 0 0 1-3.06-1.28 4.83 4.83 0 0 1-1.26-3.42zm2.39-.75h3.5a2.39 2.39 0 0 0-.45-1.46 1.5 1.5 0 0 0-1.27-.61 1.58 1.58 0 0 0-1.31.62 2.27 2.27 0 0 0-.46 1.45zM293 665.2l1.64-1a2.65 2.65 0 0 0 2.24 1.26 1.41 1.41 0 0 0 .87-.24.73.73 0 0 0 .32-.59 1 1 0 0 0 0-.24.72.72 0 0 0-.12-.21 1.37 1.37 0 0 0-.17-.17 1.25 1.25 0 0 0-.24-.15 1.62 1.62 0 0 0-.27-.13l-.32-.13-.32-.11-.37-.11-.35-.12a5 5 0 0 1-1.78-.95 2.14 2.14 0 0 1-.67-1.71 2.22 2.22 0 0 1 1-1.91 4.32 4.32 0 0 1 2.44-.7 4.06 4.06 0 0 1 2.1.58 3.87 3.87 0 0 1 1.51 1.52L299 661a2.67 2.67 0 0 0-2-1.12 1.36 1.36 0 0 0-.83.22.65.65 0 0 0-.3.55.73.73 0 0 0 .06.3.7.7 0 0 0 .2.26 2 2 0 0 0 .26.2 1.82 1.82 0 0 0 .37.18l.38.14.45.15.44.14c1.68.56 2.52 1.45 2.52 2.65a2.42 2.42 0 0 1-.91 1.89 3.86 3.86 0 0 1-2.61.79 4.7 4.7 0 0 1-2.38-.6 3.89 3.89 0 0 1-1.65-1.55zM305.51 667.1v-12.36h2.31v4.12h.05a2.66 2.66 0 0 1 2-.84 3.22 3.22 0 0 1 1.08.18 3 3 0 0 1 .95.55 2.51 2.51 0 0 1 .71 1.07 4.68 4.68 0 0 1 .26 1.63v5.65h-2.34v-5.39c0-1.13-.36-1.7-1.08-1.7a1.4 1.4 0 0 0-1.18.64 2.5 2.5 0 0 0-.47 1.5v5zM314.14 662.67a4.69 4.69 0 0 1 1.2-3.4 4 4 0 0 1 3-1.25 3.85 3.85 0 0 1 2.91 1.28 4.74 4.74 0 0 1 1.19 3.37 7.87 7.87 0 0 1 0 .84h-5.86a2 2 0 0 0 .53 1.42 1.84 1.84 0 0 0 1.42.58 2 2 0 0 0 1.15-.33 2.17 2.17 0 0 0 .74-.85l1.95.69a4.09 4.09 0 0 1-1.44 1.67 4.3 4.3 0 0 1-2.47.68 4 4 0 0 1-3.06-1.28 4.78 4.78 0 0 1-1.26-3.42zm2.38-.75H320a2.39 2.39 0 0 0-.45-1.46 1.5 1.5 0 0 0-1.27-.61 1.58 1.58 0 0 0-1.31.62 2.28 2.28 0 0 0-.45 1.45zM323.73 667.1v-8.81H326v.71a2.43 2.43 0 0 1 .8-.71 2.32 2.32 0 0 1 1.17-.3 2.77 2.77 0 0 1 1.08.16v2.14a3.49 3.49 0 0 0-1.08-.16 1.52 1.52 0 0 0-1.4.73 3.66 3.66 0 0 0-.46 2v4.24zM329.44 662.67a4.69 4.69 0 0 1 1.2-3.4 4 4 0 0 1 3-1.25 3.85 3.85 0 0 1 2.91 1.28 4.78 4.78 0 0 1 1.19 3.37v.84h-5.86a2 2 0 0 0 .52 1.42 1.87 1.87 0 0 0 1.43.58 2 2 0 0 0 1.14-.33 2 2 0 0 0 .74-.85l2 .69a4 4 0 0 1-1.43 1.67 4.34 4.34 0 0 1-2.48.68 4 4 0 0 1-3.05-1.28 4.79 4.79 0 0 1-1.31-3.42zm2.39-.75h3.5a2.45 2.45 0 0 0-.44-1.46 1.5 1.5 0 0 0-1.27-.61 1.55 1.55 0 0 0-1.31.62 2.28 2.28 0 0 0-.48 1.45zM343.8 667.28l-1.28-1.77 5.51-4.24-5.51-4.22 1.28-1.75 6.55 4.9v2.17z" class="cls-11"/><path d="M184.32 578c4.55-10.74 9.58-20.76 13.14-31.92 3.7-11.56 6.45-23.39 10.94-34.7 7.67-19.31 19.79-35.66 38.73-44.89 4.3-2.09 1.28-9.4-3.28-7.79-19.59 6.92-33.28 24.81-41.83 43-5 10.61-8.52 21.81-11.82 33-1.91 6.45-3.52 13-5.16 19.54-1.78 7-2.65 14.18-5.5 20.91-1.37 3.23 3.39 6.06 4.78 2.79z" class="cls-7"/><path d="M219.94 294.74a60.26 60.26 0 0 0-88.44 14.6l15.93-1.41c-4.43 4.52-9 9.24-11.06 15.22s-.89 13.6 4.41 17.06c4.27 2.79 9.87 2.21 14.83 1s10-2.85 15-1.92 9.77 5.72 8.48 10.65c-2.14 8.16-17 7.83-18.06 16.2-.64 4.82 4.23 8.6 8.88 10 16.63 5.13 34.85-6.2 43-21.56s8.56-33.59 7.86-51M149.49 373c2-3.31-2.2-7-5.12-7.53a7.25 7.25 0 0 0-8.47 6.13c-.5 4.22 3.41 7.65 7.5 7.29a7.15 7.15 0 0 0 6.07-9 3.37 3.37 0 0 0-2.71-2.13 3.61 3.61 0 0 0-4 3.76s-.3.61-.05.32a.17.17 0 0 1 .18 0q.26.17-.33-.12s.19.11.18.13a1.22 1.22 0 0 1 1.19-.31c1.36.33 2.2 1.73 3.48 2.25a1.6 1.6 0 0 0 2.06-.8zM165.14 389.75a1.26 1.26 0 0 0 2.5.36 1.26 1.26 0 0 0-2.5-.36z" class="cls-22"/><path d="M294.44 310s16.93 95.18-84.17 88.46c0 0 48.44-21.38 41.89-52.58z" class="cls-12"/><path d="M412 131.61S307.27 114.91 170.34 244l84.28 103.77S410.71 242.55 412 131.61z" class="cls-11"/><path fill="#39297f" d="M254.62 347.78l-86.35-106.32-6.84 4.15 88.48 108.25 4.71-6.08z"/><path d="M249.62 259.72L210 283l-56.11 56.9s45.27-22.4 66.18-40.58c6.53-5.7 23.93-24.61 29.55-39.6zM208.69 210.77s-94.64-28.33-97.48 73c0 0 25.85-46.21 56.29-36.75z" class="cls-24"/><path fill="#9797db" d="M249.62 259.72s-55.59 1-62.37 5.1l21.55 26.54z" opacity=".1"/><g clip-path="url(#clip-path-3)"><path d="M337.37 139.22s24.35 49.64 52.37 67.91l44.19-42.07-32.22-62.23-64.12 34.9" class="cls-12"/></g><path d="M315.48 182c-18-2.17-28.51 14.76-27.86 31 .62 15.55 15.95 27.77 31.13 25.33 15.89-2.55 27.05-17 24.38-33.22-2.75-16.74-20.26-30.81-37.46-24.9-4.46 1.53-3.73 8.08 1.11 8.24 10.79.36 20 2.29 25.85 12.34 6.25 10.72-.43 24.34-11.16 28.51-29.68 11.53-37.24-43.41-6-44.05 2.18 0 2-3 0-3.29z" class="cls-7"/><path d="M315.48 183.67c-9-1.2-17.68 5.32-21.58 13.52a28.51 28.51 0 0 0-2 19.07 24.9 24.9 0 0 0 11.31 15.34c9.43 5.52 22.6 3.21 29.85-5s8.09-21.24 2.24-30.47-17.76-14-28.47-11.84" class="cls-7" opacity=".32"/><g clip-path="url(#clip-path-4)"><path fill="#ff9566" d="M107.82 116.34c-7.46 3.45-12.18 11.66-11.69 20.34s6.18 17.4 14.07 21.6a26 26 0 0 0 17.59 2.44 27.28 27.28 0 0 0 14.5-8.74 25 25 0 0 0 6.5-17.72c-.44-7.72-5.15-15.44-11.8-19.9a26.48 26.48 0 0 0-22.08-3.53 25.33 25.33 0 0 0-15.68 14.28"/><g class="cls-8"><path d="M117.67 163c-4.27-4-4.44-12.53-1.84-17.54 3-5.8 10-7.52 14.45-12a23.42 23.42 0 0 0 6.44-15.87c.16-6.17-.7-15.62-6.34-19.19a5.72 5.72 0 0 0-8.46 2.89c-2.61 6.64 3.68 13.33 1.31 20.3-2 5.91-10.25 8-14.3 12.43a24 24 0 0 0-6.55 16.68c.18 7.82 4.15 12.24 9.51 17.31 3.56 3.36 9.37-1.64 5.78-5z" class="cls-9"/></g><g class="cls-8"><path d="M127 162.73c.69-4.22-1-7.82 1.25-11.91 2.41-4.46 7.81-6.3 11.76-9.12 6.4-4.56 11.78-13 9.92-21.08-.71-3.06-5.1-3.53-6.16-.42-1.61 4.74-2.46 9.44-5.6 13.54-3.37 4.4-8.71 6.28-12.83 9.82-5.39 4.64-9.53 16.18-2.53 21.24 1.78 1.29 3.89-.18 4.19-2.07z" class="cls-9"/></g><g class="cls-8"><path d="M114.16 106.89c3.1 4.49-.17 10.66-3.54 13.7-2.91 2.63-6.51 4.13-9.77 6.21-4.46 2.84-8 6.72-7.44 12.22a1.76 1.76 0 0 0 3.16.64 34.64 34.64 0 0 1 8.17-9.18c3.74-2.87 8.27-5 11.35-8.71 4.31-5.13 4.53-11.74-1.51-15.36a.32.32 0 0 0-.42.48z" class="cls-9"/></g><g class="cls-8"><path d="M140.1 159.94c.21-1.75 2.3-4.41 3.47-5.67a18.56 18.56 0 0 1 6-4.06c4.55-2 2-8.65-2.63-8a15 15 0 0 0-10.45 6.62 15.87 15.87 0 0 0-2.26 5.18c-.52 2.1-.11 3.5-.06 5.53.09 3.82 5.51 4.29 6 .41z" class="cls-9"/></g></g><g clip-path="url(#clip-path-5)"><path d="M472.59 192.39a14.28 14.28 0 0 0-15.86-1.21 18.47 18.47 0 0 0-9.13 14.93 17.63 17.63 0 0 0 3.65 11.49 18.53 18.53 0 0 0 9.59 6.33 17 17 0 0 0 12.75-1.2 18.2 18.2 0 0 0 4.46-27.61 17.23 17.23 0 0 0-13.33-5.43" class="cls-10"/><g class="cls-8"><path d="M446.91 212.05c1.23-3.79 6.38-6.38 10.21-6.25 4.43.15 7.54 4 11.56 5.35a16 16 0 0 0 11.61-.68c3.82-1.71 9.35-5 9.9-9.5a3.88 3.88 0 0 0-4.25-4.33c-4.83.33-7.09 6.14-12.05 6.72-4.21.5-7.91-3.93-11.79-5.12a16.22 16.22 0 0 0-12.14.86c-4.73 2.4-6.28 6.11-7.82 10.88-1 3.16 3.75 5.26 4.77 2.07z" class="cls-9"/></g><g class="cls-8"><path d="M449.78 217.7c2.79-.81 4.52-2.87 7.67-2.71 3.43.17 6.14 2.94 9 4.54 4.66 2.58 11.39 3.42 15.81-.09a2.18 2.18 0 0 0-1.54-3.89c-3.38.39-6.5 1.25-9.93.52-3.68-.78-6.39-3.5-9.77-5-4.42-2-12.7-1.12-13.75 4.65a1.85 1.85 0 0 0 2.49 2z" class="cls-9"/></g><g class="cls-8"><path d="M480.24 193.52c-1.85 3.21-6.58 3-9.43 1.83-2.46-1-4.43-2.78-6.66-4.17-3-1.91-6.47-3-9.66-1a1.19 1.19 0 0 0 .54 2.12 23.61 23.61 0 0 1 8 2.33c2.85 1.45 5.5 3.59 8.65 4.41 4.4 1.14 8.51-.66 9-5.41a.22.22 0 0 0-.41-.12z" class="cls-9"/></g><g class="cls-8"><path d="M455.32 224.91c1.13-.38 3.37.12 4.49.48a12.33 12.33 0 0 1 4.23 2.46c2.57 2.19 5.89-1.3 4.14-4a10.19 10.19 0 0 0-7.12-4.46 11 11 0 0 0-3.83.12 12.31 12.31 0 0 0-3.4 1.58 2 2 0 0 0 1.49 3.78z" class="cls-9"/></g></g><g clip-path="url(#clip-path-6)"><path d="M40.87 252.36a8.31 8.31 0 0 0-9.25-.71 10.76 10.76 0 0 0-5.31 8.7 10.24 10.24 0 0 0 2.12 6.7 10.84 10.84 0 0 0 5.57 3.69 9.84 9.84 0 0 0 7.43-.7A10.6 10.6 0 0 0 44.05 254a10.07 10.07 0 0 0-7.77-3.17" class="cls-21"/><g class="cls-8"><path d="M25.91 263.82c.71-2.21 3.71-3.72 5.94-3.65 2.59.09 4.4 2.31 6.74 3.12a9.23 9.23 0 0 0 6.77-.4c2.22-1 5.45-2.91 5.77-5.53a2.27 2.27 0 0 0-2.48-2.53c-2.81.2-4.13 3.58-7 3.92-2.45.29-4.61-2.29-6.88-3a9.47 9.47 0 0 0-7.07.51c-2.76 1.39-3.66 3.56-4.56 6.34-.59 1.84 2.19 3.07 2.79 1.21z" class="cls-33"/></g><g class="cls-8"><path d="M27.58 267.11c1.62-.48 2.63-1.67 4.46-1.58 2 .1 3.58 1.71 5.26 2.65 2.72 1.5 6.65 2 9.22-.06a1.27 1.27 0 0 0-.9-2.27c-2 .24-3.79.73-5.79.31s-3.72-2-5.69-2.91c-2.57-1.13-7.4-.65-8 2.72a1.08 1.08 0 0 0 1.45 1.14z" class="cls-33"/></g><g class="cls-8"><path d="M45.33 253c-1.08 1.87-3.84 1.75-5.5 1.06a27.4 27.4 0 0 1-3.83-2.41c-1.77-1.11-3.77-1.73-5.63-.57a.69.69 0 0 0 .32 1.23 13.75 13.75 0 0 1 4.66 1.36c1.67.84 3.21 2.09 5.05 2.57 2.56.66 5-.38 5.22-3.16 0-.15-.17-.19-.24-.06z" class="cls-33"/></g><g class="cls-8"><path d="M30.81 271.31a5.44 5.44 0 0 1 2.61.28 7.37 7.37 0 0 1 2.47 1.41c1.5 1.28 3.43-.75 2.41-2.3a6 6 0 0 0-4.15-2.6 6.2 6.2 0 0 0-2.23.07 7 7 0 0 0-2 .92 1.18 1.18 0 0 0 .87 2.2z" class="cls-9"/></g></g><g clip-path="url(#clip-path-7)"><path d="M92.68 337.23c-8.58-7.12-21.39-8.1-31.74-2.43s-17.71 17.74-18.24 29.86a35.26 35.26 0 0 0 7.29 23 37 37 0 0 0 19.18 12.66c8.22 2.34 17.51 2 25.5-2.39 9.2-5 15.9-15.33 17.48-26.09a36 36 0 0 0-8.57-29.11 34.38 34.38 0 0 0-26.66-10.87" class="cls-17"/><g class="cls-6"><path d="M41.33 376.55c2.44-7.55 12.75-12.77 20.4-12.55 8.86.3 15.08 7.92 23.11 10.71a31.84 31.84 0 0 0 23.22-1.38c7.64-3.41 18.71-10 19.8-19a7.76 7.76 0 0 0-8.49-8.67c-9.66.67-14.18 12.28-24.1 13.45-8.42 1-15.82-7.87-23.59-10.25a32.49 32.49 0 0 0-24.26 1.72c-9.47 4.8-12.56 12.24-15.64 21.77-2 6.32 7.49 10.52 9.55 4.14z" class="cls-7"/></g><g class="cls-6"><path d="M47.07 387.85c5.57-1.64 9-5.75 15.31-5.43 6.87.34 12.28 5.88 18.05 9.08 9.32 5.17 22.78 6.84 31.61-.18 3.34-2.64 1.34-8.3-3.07-7.78-6.76.79-13 2.49-19.87 1-7.36-1.56-12.78-7-19.52-10-8.84-3.9-25.39-2.23-27.5 9.31-.53 2.93 2.49 4.66 5 3.93z" class="cls-7"/></g><g class="cls-6"><path d="M108 339.49c-3.69 6.41-13.16 6-18.85 3.66-4.91-2-8.86-5.56-13.31-8.35-6.09-3.8-12.94-5.93-19.31-2-1.79 1.11-.89 4 1.06 4.25a47.34 47.34 0 0 1 16 4.64c5.7 2.91 11 7.18 17.29 8.82 8.81 2.28 17-1.3 17.93-10.82a.44.44 0 0 0-.83-.23z" class="cls-7"/></g><path d="M58.14 402.26c2.26-.76 6.74.24 9 .95a24.83 24.83 0 0 1 8.46 4.92c5.14 4.38 11.77-2.6 8.27-7.91a20.41 20.41 0 0 0-14.22-8.93 21.45 21.45 0 0 0-7.66.26c-2.88.59-4.36 1.91-6.81 3.15-4.62 2.34-2 9.26 3 7.56z" class="cls-7"/></g><path d="M157.39 192.73c.12.37.25.75.38 1.12a2.12 2.12 0 0 0 4 0l.39-1.12a2.5 2.5 0 1 0-4.82 0z" class="cls-35"/><g class="cls-36"><path d="M81.18 162.4a1.05 1.05 0 0 0 0-2.1 1.05 1.05 0 0 0 0 2.1z" class="cls-11"/></g><g class="cls-36"><path d="M80 247.89a.54.54 0 0 0 0-1.07.54.54 0 0 0 0 1.07z" class="cls-11"/></g><g class="cls-36"><path d="M255.62 114.94a1.51 1.51 0 0 0 0-3 1.51 1.51 0 0 0 0 3z" class="cls-11"/></g><g class="cls-36"><path d="M552.91 308.25a1.93 1.93 0 0 0 0-3.85c-2.47 0-2.48 3.85 0 3.85z" class="cls-11"/></g><g class="cls-36"><path d="M470.6 289.92c2.6 0 2.61-4 0-4s-2.6 4 0 4z" class="cls-11"/></g><g class="cls-36"><path d="M501.32 236.44a1.38 1.38 0 0 0 0-2.75 1.38 1.38 0 0 0 0 2.75z" class="cls-11"/></g><g class="cls-36"><path d="M577.48 136.65a1.1 1.1 0 0 0 0-2.2 1.1 1.1 0 0 0 0 2.2z" class="cls-11"/></g><path d="M49.24 418a9.21 9.21 0 0 0 1.48-.18 1 1 0 0 0 0-1.84 10.49 10.49 0 0 0-1.48-.18c-1.42-.12-1.42 2.32 0 2.2z" class="cls-35"/><g class="cls-36"><path d="M134 407.75a.68.68 0 0 0 0-1.36.68.68 0 0 0 0 1.36z" class="cls-11"/></g><path d="M59.06 316.2l-.76-.05c-1.61-.11-1.55 2.67 0 2.46l.76-.1a1.13 1.13 0 0 0 0-2.26l-.76-.1c-1.55-.2-1.61 2.57 0 2.46l.76-.05a1.18 1.18 0 0 0 0-2.36z" class="cls-35"/><g class="cls-36"><path d="M151.2 261.08a.21.21 0 0 0 0-.42.21.21 0 0 0 0 .42z" class="cls-11"/></g><g class="cls-36"><path d="M1.33 210.64a1.38 1.38 0 0 0 0-2.75 1.38 1.38 0 0 0 0 2.75z" class="cls-11"/></g><g class="cls-36"><path d="M88.55 90a1.15 1.15 0 0 0 0-2.3 1.15 1.15 0 0 0 0 2.3z" class="cls-11"/></g><path d="M287.56 152.75v-1.23a1.2 1.2 0 0 0-2.39 0v1.23a1.23 1.23 0 0 0 2.46 0z" class="cls-35"/><g class="cls-36"><path d="M567.65 90.28a1.42 1.42 0 0 0 0-2.84 1.42 1.42 0 0 0 0 2.84z" class="cls-11"/></g><path d="M39 233.28l.49-.53a4.88 4.88 0 0 0 1-1.78c.9-2.4-1.89-5.19-4.29-4.3a4.74 4.74 0 0 0-1.78 1l-.53.49a3.62 3.62 0 0 0 5.11 5.12zM599.91 113.34l.09-1a2 2 0 0 0-4 0c0 .34.06.68.08 1a1.89 1.89 0 1 0 3.78 0zM552.49 253a4.78 4.78 0 0 0-3.66 1.37 3.83 3.83 0 0 0 0 5.3 4.77 4.77 0 0 0 3.66 1.36 4 4 0 1 0 0-8z" class="cls-35"/><g class="cls-36"><path d="M573.74 195a1.7 1.7 0 0 0 0-3.39 1.7 1.7 0 0 0 0 3.39z" class="cls-11"/></g><g class="cls-36"><path d="M101.23 424.87a1.89 1.89 0 0 0 0-3.78 1.89 1.89 0 0 0 0 3.78z" class="cls-11"/></g><g class="cls-36"><path d="M185.21 455.9a1.55 1.55 0 0 0 0-3.1 1.55 1.55 0 0 0 0 3.1z" class="cls-11"/></g><g class="cls-36"><path d="M522.14 320.82c2.66 0 2.67-4.13 0-4.13s-2.67 4.13 0 4.13z" class="cls-11"/></g><g class="cls-36"><path d="M436.14 246.66a1.78 1.78 0 0 0 0-3.55 1.78 1.78 0 0 0 0 3.55z" class="cls-11"/></g></g></svg>