<svg xmlns="http://www.w3.org/2000/svg" viewBox="0 0 360 500"><defs><style>.cls-4{fill:#004d6e}.cls-5{fill:#00c2cc}.cls-6{fill:#008987}.cls-7{fill:#00eeeb}.cls-8{fill:#79bdd2}.cls-9{fill:#fff}.cls-11{fill:#d1d1d1}.cls-14{fill:#002e46}.cls-15{fill:#ffd8b9}.cls-16{fill:#ff4f8a}.cls-17{fill:#c91055}.cls-18{fill:#fdb98c}.cls-19{fill:#003448}.cls-22{fill:#bcbcbc}</style><clipPath id="clip-path"><path fill="none" d="M0 0h360v500H0z"/></clipPath><linearGradient id="linear-gradient" x1="180" x2="180" y1="500" gradientUnits="userSpaceOnUse"><stop offset="0" stop-color="#004d6e"/><stop offset="1" stop-color="#00d4cb"/></linearGradient></defs><g id="Service_Cards" data-name="Service Cards"><g id="Meeting_Investors" clip-path="url(#clip-path)" data-name="Meeting Investors"><path fill="url(#linear-gradient)" d="M0 0h360v500H0z"/><ellipse id="Shadow" cx="180" cy="432.11" class="cls-4" rx="102" ry="8"/><g id="LHS"><path d="M81.19 367.4c4.47-1.54 9.48-3.25 13.82-1.81l.09-.24c-5.38-1.78-8.62-7.41-9.65-13s-.33-11.3-.47-17-1.34-11.67-5.35-15.67c-7.4-7.44-21-4.95-28.5-12.27-3.37-3.28-4.88-8-6.44-12.41a117.45 117.45 0 0 0-7.16-16.58c-3.07-5.63-7.31-11.42-13.53-13-4.44-1.16-9.2 0-13.31 2-6.52 3.21-12.06 8.86-14 15.86a25 25 0 0 0 2 17.76A35.8 35.8 0 0 0 10.7 314.5c8.74 6 19.8 9.18 26 17.74 3.87 5.32 5.29 12 7.14 18.3s4.51 12.88 9.92 16.65a21.61 21.61 0 0 0 13.56 3.39 51.26 51.26 0 0 0 13.87-3.18z" class="cls-5"/><path d="M17.31 296.82L5 293.49c-.67-.18-.52-1.25.15-1.07l11.19 3a83.58 83.58 0 0 1-11.8-21.36c-.23-.66.77-1.06 1-.4a82.18 82.18 0 0 0 11.51 21q.63-5.44 1.25-10.89a.54.54 0 0 1 1.07.15l-1.38 12c1.06 1.41 2.14 2.81 3.25 4.18 3.86 4.78 7.92 9.4 12.08 13.92 0-3.63.07-7.26.11-10.89 0-.68 1.08-.82 1.07-.12l-.12 12.16q3.66 3.93 7.41 7.78 6.54 6.68 13.42 13-1.09-7.63-2.2-15.27c-.1-.69 1-.81 1.08-.12l2.31 16.1a.46.46 0 0 1-.06.32q9.72 8.89 20 17.09l-3-14.55c-.14-.68.93-.8 1.08-.13q1.64 7.86 3.28 15.71 5.72 4.5 11.6 8.78c.57.41-.1 1.27-.66.86q-5.55-4-11-8.29a.5.5 0 0 1-.37.12l-17.92-.85c-.69 0-.53-1.1.16-1.07l16.85.8q-10.8-8.52-20.93-17.82a.51.51 0 0 1-.46.19l-13.65-1.64a.54.54 0 0 1 .15-1.07l12.89 1.54q-6.9-6.34-13.47-13-3.52-3.6-7-7.3h-.09a.56.56 0 0 1-.66.26l-11.27-3.67c-.67-.21-.24-1.21.41-1l10.79 3.5c-4.64-5-9.14-10.14-13.39-15.46-.76-1.05-1.57-2.1-2.37-3.16z" class="cls-6"/><path d="M43.15 236.35c-6.24 17.1-4.68 36.68 3.29 53 7.73 15.88 21.24 28.68 37.09 36.45l.53-1.13c3.36-8 4.7-16.66 5-25.29.57-14.69-1.8-29.64-8.11-42.93s-16.67-24.82-29.83-31.37l-.87-.44c-3.4 3.13-5.53 7.36-7.1 11.71z" class="cls-5"/><path d="M46.22 276.23c-.59-.36-.1-1.32.49-1L68 288.41q-4.27-11.66-8-23.5h-.08l-14.8-10.58c-.57-.41.16-1.21.72-.81l13.65 9.73q-5.58-17.87-9.92-36.08c-.16-.68.87-1 1-.33q4.27 18 9.8 35.7 3.66-8.81 7.31-17.61c.27-.65 1.23-.15 1 .49Q64.81 254.72 61 264l-.06.09q4 12.58 8.52 25l10.88-19.62c.33-.6 1.3-.11 1 .5l-11.15 19.96a.52.52 0 0 1-.37.27q3.68 9.87 7.74 19.59l8-14.28c.34-.6 1.3-.11 1 .5l-8.41 15c1.74 4.15 3.52 8.29 5.37 12.4.28.63-.75 1-1 .33q-2.61-5.79-5.08-11.64a.45.45 0 0 1-.5 0l-21.48-12.44c-.6-.35-.11-1.31.5-1l20.87 12.19q-4.32-10.31-8.22-20.85z" class="cls-4"/><path d="M43.35 337.52a51.92 51.92 0 0 1-7.15 27.94c-.23-.27-.47-.53-.7-.79a46.23 46.23 0 0 1-5.78-18c-.4-5.2.13-10.62 2.55-15.26 1.21-2.34 3.5-4.68 6.09-4.14a5.23 5.23 0 0 1 3.14 2.48c1.43 2.25 1.76 5.07 1.85 7.77zM58.7 384.66l-.06.07c-9.1-7.81-13.23-19.16-13-31.16a9.87 9.87 0 0 1 .71-4.08 4 4 0 0 1 3.09-2.49 4.5 4.5 0 0 1 2.62.74c2.56 1.5 4.18 4.18 5.35 6.9 4.07 9.55 2.35 19.72 1.29 30.02zM58.82 385.22c-7.28 6.78-16.08 12.54-26 13.63a12.59 12.59 0 0 1-6-.5 5.84 5.84 0 0 1-3.8-4.32c-.36-2.49 1.39-4.81 3.39-6.33 4.39-3.37 10.15-4.39 15.69-4.59a73.69 73.69 0 0 1 16.1 1.74zM22.72 347.18l-.36.27c-9-7.64-16.39-18.13-16.87-29.9-.11-2.78.63-6.19 3.29-7a4.75 4.75 0 0 1 4.29 1.08 11.77 11.77 0 0 1 2.71 3.71c5.18 9.94 6.59 21.38 7.4 32.6-.18-.26-.3-.51-.46-.76zM35.74 365.12a.75.75 0 0 0 .07.12c-5.05 2.1-9.72 5-14.75 7.16S10.32 375.87 5 374.54c-1.75-.45-3.74-1.6-3.71-3.41a4.13 4.13 0 0 1 1.56-2.74 22.38 22.38 0 0 1 11.37-5.46 43.16 43.16 0 0 1 12.74-.12 32.48 32.48 0 0 1 8.78 2.31zM72 399.25a69.07 69.07 0 0 1 10.63-1.41 126.76 126.76 0 0 1-9.14 12.9 37.38 37.38 0 0 1-6.12 6.32 11.89 11.89 0 0 1-5.94 2.63 6.27 6.27 0 0 1-5.78-2.42 7 7 0 0 1-.75-5.33 14.34 14.34 0 0 1 6.63-8.72A34.82 34.82 0 0 1 72 399.25zM72.83 356.14c2.58-.1 4.61 2.17 5.91 4.4a37.8 37.8 0 0 1 4.56 17.59 128.31 128.31 0 0 1-1 19.47 1.85 1.85 0 0 1-.33-.12 43 43 0 0 1-14.51-32.66 12.62 12.62 0 0 1 1-5.51 5.43 5.43 0 0 1 4.37-3.17z" class="cls-7"/><path d="M21.69 346a121.3 121.3 0 0 0 61.74 52.51.54.54 0 0 0 .39-1 120.13 120.13 0 0 1-61.13-51.92c-.35-.59-1.35-.16-1 .41z" class="cls-4"/></g><path d="M290.12 213.35a51.78 51.78 0 0 0 17.29 23.9c.12-.35.25-.7.38-1.05.79-6.56.67-13.49-1.2-19.7-1.56-5.17-4.09-10.16-8.14-13.61-2-1.76-5.1-3.06-7.38-1.47a5.73 5.73 0 0 0-2.07 3.68c-.53 2.79.2 5.62 1.12 8.25zM293 265h.09c5.79-11.27 5.5-23.88.85-35.34a10.21 10.21 0 0 0-2.2-3.64 4 4 0 0 0-3.93-1.06 4.85 4.85 0 0 0-2.23 1.79c-1.89 2.5-2.45 5.75-2.55 8.85-.3 10.88 5.15 19.94 9.97 29.4zM293.13 265.6c9.51 3.51 20.09 5.41 30 2.37a13.61 13.61 0 0 0 5.52-2.94 6.4 6.4 0 0 0 2-5.73c-.59-2.54-3.13-4.05-5.61-4.68-5.47-1.43-11.36 0-16.74 2.07a78.44 78.44 0 0 0-14.78 8.31zM313.48 214.11l.45.11c5.74-11.05 8.92-24.21 5-35.72-.94-2.72-2.92-5.69-5.77-5.39a5.14 5.14 0 0 0-3.71 2.81 12.6 12.6 0 0 0-1.2 4.69c-1.25 11.7 1.67 23.28 5.09 34.4.04-.29.09-.6.14-.9zM307.72 236.73a.77.77 0 0 1 0 .15c5.61-.07 11.18.82 16.8.79s11.58-1.1 16.2-4.59c1.51-1.16 3-3.09 2.28-4.82a4.09 4.09 0 0 0-2.52-2 22.47 22.47 0 0 0-12.93-.54 45.35 45.35 0 0 0-12.23 5.14 35.61 35.61 0 0 0-7.6 5.87z" class="cls-7"/><path d="M314 212.58a132.86 132.86 0 0 1-39.49 76 .55.55 0 0 1-.75-.8 131.59 131.59 0 0 0 39.13-75.18c.11-.73 1.26-.74 1.11-.02z" class="cls-4"/><path d="M336 276.92c2.88 19-2.84 39-14.53 54.25-11.34 14.82-28 25.26-46.06 30l-.32-1.27c-1.81-9-1.37-18.25.1-27.26 2.49-15.33 8.08-30.32 17.4-42.76s22.47-22.22 37.48-26.24l1-.27c2.93 3.89 4.22 8.75 4.93 13.55z" class="cls-5"/><path d="M324.47 317.59c.68-.25.38-1.35-.31-1.1l-24.83 9.14q6.87-11.17 13.23-22.66h.08l17.56-7.83c.67-.3.08-1.28-.58-1l-16.18 7.21Q323 284 331.29 266.07c.3-.67-.69-1.23-1-.56q-8.21 17.78-17.64 34.93-1.93-9.9-3.88-19.79c-.14-.72-1.24-.4-1.1.31q2.06 10.46 4.1 20.9a.54.54 0 0 0 .05.11q-6.75 12.21-14.08 24.09-3.57-11.31-7.15-22.61c-.22-.7-1.32-.39-1.1.31q3.64 11.5 7.27 23a.53.53 0 0 0 .33.35q-5.88 9.47-12.12 18.67-2.64-8.22-5.27-16.46c-.23-.7-1.33-.39-1.1.31l5.55 17.37q-4 5.91-8.16 11.72c-.42.6.58 1.15 1 .56q3.92-5.46 7.7-11a.46.46 0 0 0 .51.12l24.8-8.48c.69-.24.39-1.34-.31-1.1l-24.18 8.24q6.66-9.8 12.89-19.87z" class="cls-6"/><path d="M286.08 417.26c-4.93-.78-10.46-1.63-14.71.68l-.14-.24c5.26-2.85 7.6-9.31 7.63-15.29s-1.76-11.81-2.65-17.72-.78-12.39 2.64-17.31c6.32-9.1 20.92-9 27.38-18.05 2.9-4 3.6-9.19 4.4-14.1a123.33 123.33 0 0 1 4.37-18.59c2.13-6.49 5.48-13.26 11.7-16.11 4.4-2 9.57-1.7 14.23-.36 7.38 2.13 14.18 7 17.56 13.89a26.52 26.52 0 0 1 1.23 18.85 37.93 37.93 0 0 1-10.12 16.22c-8 7.83-18.9 13.23-23.79 23.29-3 6.25-3.28 13.45-4 20.36S319.48 407 314.56 412c-3.55 3.55-8.51 5.43-13.49 6a54.26 54.26 0 0 1-14.99-.74z" class="cls-7"/><path d="M339.44 332l12.23-5.76c.66-.31.31-1.4-.36-1.08l-11.07 5.21a88.47 88.47 0 0 0 8.26-24.42c.12-.72-1-1-1.12-.23a87 87 0 0 1-8.09 24q-1.65-5.55-3.32-11.1c-.21-.71-1.3-.35-1.09.36q1.85 6.1 3.67 12.23c-.84 1.67-1.7 3.32-2.6 5-3.13 5.68-6.49 11.24-10 16.72l-2.13-11.31c-.14-.71-1.28-.65-1.14.08q1.19 6.3 2.38 12.62-3.07 4.78-6.26 9.47-5.56 8.16-11.55 16l-.54-16.29a.58.58 0 0 0-1.15.07q.3 8.6.58 17.18a.58.58 0 0 0 .13.33q-8.46 11-17.67 21.49l.46-15.7c0-.74-1.12-.66-1.14.07q-.26 8.47-.5 16.95-5.12 5.73-10.44 11.29c-.51.53.34 1.3.85.77q5-5.24 9.86-10.66a.56.56 0 0 0 .41.06l18.48-4.22c.72-.16.36-1.24-.35-1.08l-17.39 4q9.64-10.86 18.47-22.42a.5.5 0 0 0 .51.1l13.89-4.23c.71-.21.35-1.3-.35-1.09l-13.12 4q6-7.89 11.58-16.08 3-4.41 5.9-8.89h.1a.58.58 0 0 0 .73.15l11.05-5.91c.65-.34 0-1.3-.62-1l-10.56 5.65c3.89-6.06 7.62-12.24 11.05-18.56.68-1.32 1.33-2.56 1.97-3.77z" class="cls-6"/><g id="Backboard"><path d="M251.42 259.65a2 2 0 0 1 2 2 2 2 0 0 1-2 2L88.3 263a2 2 0 0 1-2-2 1.92 1.92 0 0 1 .58-1.39 2 2 0 0 1 1.39-.57zM251.81 179.26a2 2 0 0 1 2 2 2 2 0 0 1-.58 1.39 2 2 0 0 1-1.4.57L88.7 182.6a2 2 0 0 1-1.4-3.36 2 2 0 0 1 1.41-.57zM196.26 360.66a2 2 0 1 1 0 3.94l-107.91-.39a2 2 0 0 1 0-3.94zM251.6 199.74a2 2 0 0 1 2 2 2 2 0 0 1-.58 1.39 2 2 0 0 1-1.4.57l-163.1-.59a2 2 0 0 1-2-2 2 2 0 0 1 .58-1.39 2 2 0 0 1 1.4-.57zM251.28 240.71a2 2 0 0 1 0 3.94l-163.1-.59a2 2 0 0 1-1.38-3.37 2 2 0 0 1 1.4-.57z" class="cls-8"/><path d="M265.9 110.73l-1 291.52-191.2-.69L74.71 110l29.41.11a34.87 34.87 0 0 0 0 5.77l66.18.24h.53l66.19.24a34.45 34.45 0 0 0 0-5.77zm-12.13 70.5a2 2 0 0 0-2-2l-163.1-.59a2 2 0 0 0-1.41.57 2 2 0 0 0 1.4 3.36l163.09.59a2 2 0 0 0 1.4-.57 2 2 0 0 0 .62-1.36zm.07-39.42a2 2 0 0 0-2-2l-163.1-.59a2 2 0 0 0-2 2 2 2 0 0 0 2 2l163.1.59a2 2 0 0 0 2-2zm-.46 119.81a2 2 0 0 0-2-2l-163.11-.59a2 2 0 0 0-1.39.57 1.92 1.92 0 0 0-.58 1.39 2 2 0 0 0 2 2l163.1.59a2 2 0 0 0 2-2zm.18-59.91a2 2 0 0 0-2-2l-163.1-.59a2 2 0 0 0-1.4.57 2 2 0 0 0-.58 1.39 2 2 0 0 0 2 2l163.1.59a2 2 0 0 0 1.4-.57 2 2 0 0 0 .58-1.39zm-.11 20.49a2 2 0 0 0-2-2l-163.05-.57a2 2 0 0 0-2 2 2 2 0 0 0 2 2l163.1.59a2 2 0 0 0 1.39-.56 2 2 0 0 0 .56-1.46zm.19-59.91a2 2 0 0 0-2-2l-163.1-.59a2 2 0 0 0-2 2 2 2 0 0 0 2 2l163.1.59a2 2 0 0 0 2-2zm-.39 80.4a2 2 0 0 0-2-2l-163.09-.59a2 2 0 0 0-2 2 2 2 0 0 0 2 2l163.1.59a2 2 0 0 0 2-2zm-43.83 99.5a2 2 0 0 0-2-2l-119.09-.43a2 2 0 0 0-1.4.57 2 2 0 0 0-.57 1.39 2 2 0 0 0 2 2l119.09.43a2 2 0 0 0 1.39-.57 2 2 0 0 0 .58-1.39zm-.07-18.93a2 2 0 0 0-2-2l-119.1-.43a2 2 0 0 0-1.39.58 2 2 0 0 0 1.38 3.37l119.09.43a2 2 0 0 0 1.4-.57 2.06 2.06 0 0 0 .62-1.38zm-11.13 39.37a2 2 0 0 0-2-2l-107.92-.39a2 2 0 0 0 0 3.94l107.91.39a2 2 0 0 0 1.4-.57 2 2 0 0 0 .61-1.37zm-.22-80.72a2 2 0 0 0-2-2l-107.91-.39a2 2 0 0 0-1.39.57 2 2 0 0 0 1.38 3.37l107.91.39a2 2 0 0 0 1.39-.57 1.94 1.94 0 0 0 .62-1.37z" class="cls-9"/><path fill="#f889ae" d="M282.71 112.5l-1.06 292.83a12 12 0 0 1-12 11.91h-7.87a11.94 11.94 0 0 0 12-11.91l1.06-292.83a12 12 0 0 0-11.91-12h7.88a12 12 0 0 1 11.9 12z"/><path d="M207.46 340.22a2 2 0 0 1 1.38 3.36 2 2 0 0 1-1.39.57l-119.09-.43a2 2 0 0 1-2-2 2 2 0 0 1 .57-1.39 2 2 0 0 1 1.4-.57zM207.39 321.27a2 2 0 0 1 2 2 2.06 2.06 0 0 1-.58 1.39 2 2 0 0 1-1.4.57l-119.09-.43a2 2 0 0 1-1.38-3.37 2 2 0 0 1 1.39-.58zM196 279.93a2 2 0 0 1 2 2 1.94 1.94 0 0 1-.58 1.39 2 2 0 0 1-1.39.57l-107.93-.41a2 2 0 0 1-1.38-3.37 2 2 0 0 1 1.39-.57z" class="cls-8"/><path d="M237 110.63a34.45 34.45 0 0 1 0 5.77l-66.19-.24h-.53l-66.18-.24a34.87 34.87 0 0 1 0-5.77z" class="cls-11"/><path fill="#ffb6cd" d="M274.83 112.47l-1.06 292.83a11.94 11.94 0 0 1-12 11.91l-184.11-.67a12 12 0 0 1-11.91-12l1.06-292.83a12 12 0 0 1 12-11.91l27.9.1a29 29 0 0 0-2.6 10.24l-29.4-.14-1.06 291.56 191.2.69 1-291.52-28.88-.1a29 29 0 0 0-2.53-10.26l28.43.1a12 12 0 0 1 11.96 12z"/><path d="M251.88 139.83a2 2 0 0 1 2 2 2 2 0 0 1-2 2l-163.1-.59a2 2 0 0 1-1.38-3.37 2 2 0 0 1 1.39-.57z" class="cls-8"/><path d="M234.49 100.37l-127.77-.46A15.5 15.5 0 0 1 118.37 91c16.56-3 23.66-5.43 28.94-13 4.95-7.12 21.41-7.75 23.46-7.79 2.61.1 18.46 1 23.25 8 5.23 7.63 12.31 10.15 28.85 13.23a15.51 15.51 0 0 1 11.62 8.93zM177.32 83a7.66 7.66 0 1 0-7.69 7.63 7.67 7.67 0 0 0 7.69-7.63z" class="cls-11"/><path d="M251.49 220.22a2 2 0 0 1 2 2 2 2 0 0 1-.58 1.4 2 2 0 0 1-1.39.56l-163.1-.59a2 2 0 0 1-2-2 2 2 0 0 1 2-2z" class="cls-8"/><path fill="#eaeaea" d="M237 110.63l-132.9-.48a29 29 0 0 1 2.6-10.24l127.77.46a29 29 0 0 1 2.53 10.26z"/><path d="M251.67 160.31a2 2 0 0 1 2 2 2 2 0 0 1-2 2l-163.1-.59a2 2 0 0 1-2-2 2 2 0 0 1 2-2z" class="cls-8"/></g><path d="M127.81 327.2c-8.32.63-16.16.41-16.16.41l-3.51-11.32-2.49 9.7-1.63-.34-7.44-1.54s7.49-4.05 5.74-19.69a71.46 71.46 0 0 1 2.49-28.1l.34-.17 15.18-7.62.57.7A131.19 131.19 0 0 1 143.56 288v.22l2.57 34.25c-2.38 2.43-8.62 3.73-15.15 4.42-.98.11-2.11.23-3.17.31z" class="cls-4"/><path d="M129.52 284.47a47.8 47.8 0 0 1-9.82 20.11c-.4.49.3 1.2.71.7a48.71 48.71 0 0 0 10.07-20.54c.14-.63-.82-.9-.96-.27zM136.81 290.1a68.37 68.37 0 0 1-9.09 17.83c-.37.53.49 1 .86.5a69.06 69.06 0 0 0 9.19-18.07c.23-.61-.77-.87-.96-.26zM110.59 274.93c.12-.63-.84-.9-1-.27a158.21 158.21 0 0 0-2.33 40.87c0 .63 1 .64 1 0a157.44 157.44 0 0 1 2.33-40.6z" class="cls-14"/><path d="M175.62 266a8 8 0 0 1-.22 1.45c-.56 2.41-.87 4.59-2.84 5.34a6.29 6.29 0 0 1-3.25.15 13.79 13.79 0 0 0 2-5s.29-.22.7-.58a8.14 8.14 0 0 0 2.14-2.67c.53-1.39 1.59-.91 1.47 1.31z" class="cls-15"/><path d="M145.09 242.62l-.36.21v.13q-9.08-8.49-17.4-17.7l-.15.05c-1.22-3.48-2.3-6.57-3.1-8.8a18.19 18.19 0 0 0-4.42-7.13l.25-.28 1.41-4h.1q2.58 3.84 5.13 7.7 9.58 14.72 18.54 29.82z" class="cls-16"/><path d="M144.68 243q-1.17 3.1-2.36 6.21-1.4 3.69-2.8 7.36l-1.8-.65s-6.16-17.86-10.59-30.57l.15-.05q8.33 9.17 17.4 17.7z" class="cls-16"/><path d="M144.68 243v-.13l.36-.21q-8.94-15.09-18.59-29.76l.29-.19 17.71 18h.05q8.74-13.89 18.09-27.39l.26.13 4 2.08.41.22h.22a27.81 27.81 0 0 1-2.27 6.41q-8.87 19.59-18 39l-.13.14a19.14 19.14 0 0 1-4.06-1.87l-.7-.26q1.19-3.1 2.36-6.17z" class="cls-16"/><path d="M165.29 192.75a14.52 14.52 0 0 1 3.13-.65 2.16 2.16 0 0 1 2.76 2.25 18.79 18.79 0 0 1 .07 5.75 5.61 5.61 0 0 1-1.18 3.08c-.88 1-2.28 1.37-3.2 2.32l-4-2.08-1-14.75a25.93 25.93 0 0 1 0-5.06 1.14 1.14 0 0 1 .27-.72.84.84 0 0 1 1.08.08 2.26 2.26 0 0 1 .54 1 33.34 33.34 0 0 1 1.53 8.78z" class="cls-15"/><path d="M120.65 203.32l.93.55.1.08-.41 1.17-1.41 4-.25.28a12.43 12.43 0 0 0-7.39-3.58l-.54.24q-2.09-2.06-4-4.21a14.8 14.8 0 0 0 3.42-5 104.9 104.9 0 0 0 9.55 6.47z" class="cls-9"/><path d="M111.68 206l.54-.24a12.43 12.43 0 0 1 7.39 3.58 18.19 18.19 0 0 1 4.42 7.13c.8 2.23 1.88 5.32 3.1 8.8 4.43 12.71 10.59 30.57 10.59 30.57l1.8.65 31.75 11.4a13.79 13.79 0 0 1-2 5 8.43 8.43 0 0 1-.55.78l-29.11-7-8-1.94v-.14q-10.2-14.29-19.61-29.12a64.48 64.48 0 0 1-6.7-12.59 14.1 14.1 0 0 1-1-6.71 12.9 12.9 0 0 1 2.1-5.07 13.86 13.86 0 0 1 5.28-5.1z" class="cls-16"/><path d="M99.46 225.47c-.45-8.05 1.48-16.42 6.8-22.43a12.07 12.07 0 0 0 1.41-1.16q2 2.16 4 4.21a13.86 13.86 0 0 0-5.31 5.06 12.9 12.9 0 0 0-2.1 5.07 14.1 14.1 0 0 0 1 6.71 64.48 64.48 0 0 0 6.7 12.59q9.44 14.81 19.67 29.09v.14l8 1.94q2.4 10.59 3.91 21.38a131.19 131.19 0 0 0-22.66-18.79l-.57-.7q-7.6 3.8-15.18 7.62l-.44-.87 3.31-15.18a13.28 13.28 0 0 0 .45-4 13.59 13.59 0 0 0-1.24-4c-3.4-8-6.69-16.15-7.58-24.77-.09-.6-.14-1.25-.17-1.91z" class="cls-16"/><path d="M145.36 242.48a.42.42 0 0 0-.15-.5.41.41 0 0 0-.05-.21q-8.71-15.07-18.2-29.67c-.35-.54-1.22 0-.87.5q8.88 13.65 17.07 27.74l-14.75-14.15a.44.44 0 0 0-.15-.1c-1.3-3.72-2.53-7.5-4.09-11.12-1.37-3.18-3.32-6.24-6.46-7.92-6.1-3.26-12.18 1.43-13 7.75-.47 3.79.67 7.49 2.17 10.92a131.51 131.51 0 0 0 6.21 12.18c5.3 9.46 11.35 18.46 17.39 27.45a.5.5 0 0 0 .49.22l8.42 1.71c.63.13.9-.83.27-1l-8.48-1.73c-4.35-6.47-8.7-12.94-12.76-19.59s-8.41-13.81-11.28-21.23c-1.45-3.77-2.29-8.1-.58-11.93 2-4.37 6.73-6.17 10.93-3.74 3.52 2 5.26 5.88 6.62 9.52 1.45 3.89 2.8 7.8 4.2 11.7l9.6 26.82c.21.6 1.18.34 1-.26L129 228.1l15.24 14.62L142 249c-.22.61.75.87 1 .27q1.11-3.08 2.2-6.13a.49.49 0 0 0 .16-.66zM118 259.07a61.25 61.25 0 0 1-9-10.65c-.35-.54-1.22 0-.86.5a61.82 61.82 0 0 0 9.11 10.85c.52.45 1.23-.26.75-.7zM114.72 260.2l-3.11-3.2c-.45-.47-1.16.24-.71.7l3.1 3.2c.47.46 1.17-.24.72-.7z" class="cls-17"/><path d="M117.79 178.1a20.3 20.3 0 0 0 12.92-13.39c0 .12.07.23.1.35a25.32 25.32 0 0 1 .93 6.11 9.12 9.12 0 0 0 .46 3.46 7.12 7.12 0 0 0 1.42 2c.66.69 1.33 1.36 2 2 .25.24.53.53.47.88a.89.89 0 0 1-.18.38c-1 1.46-2.68 2.47-3.33 4.12a8.46 8.46 0 0 0-.43 2.45 35.37 35.37 0 0 1-.66 4.33 8.15 8.15 0 0 1-1 2.84 6.08 6.08 0 0 1-6.13 2.27 10 10 0 0 1-3.07-1.12v.07a51.8 51.8 0 0 0-.49 8.35l-.1.16a104.9 104.9 0 0 1-9.59-6.44c.15-.35.29-.72.41-1.08a19.13 19.13 0 0 0-.4-12.45 19.49 19.49 0 0 1-1.56-5.26c-.1-1.83.77-3.9 2.53-4.44a4 4 0 0 1 4 1.35 9.54 9.54 0 0 1 1.7 3.06z" class="cls-15"/><path d="M121.19 194.76a38.17 38.17 0 0 1-6.67-6.77c-.38-.5-1.25 0-.86.51a39.47 39.47 0 0 0 6.82 7c.52.37 1.21-.34.71-.74z" class="cls-18"/><path d="M105.65 326l2.49-9.7 3.51 11.32s7.84.22 16.16-.41l-12.25 84.54-.21 1.44h-8.09s-6.65-43.32-5.21-48.35 6.65-15.11 6.65-15.11l-4.7-24.07z" class="cls-15"/><path d="M115.64 411.75h3.67l5.03 9.43 10.07 7.83h-6.09l-7.04-4.59-5.93-11.24.21-1.44.08.01z" class="cls-17"/><path d="M131 326.91l-11.7 84.84h-3.75l12.25-84.54c1.07-.09 2.2-.21 3.2-.3z" class="cls-15"/><path d="M128.32 429.01l3.57 2.33h-16.25l-6.22-6.74v6.38h-2.16v-17.8h8.09l5.93 11.24 7.04 4.59z" class="cls-17"/><path d="M125.57 327.54q-3.24 41.93-10.1 83.45c-.11.63.86.9 1 .26q6.88-41.61 10.14-83.71c.01-.64-.99-.64-1.04 0z" class="cls-18"/><path d="M111.06 196.88a14.8 14.8 0 0 1-3.42 5 12.07 12.07 0 0 1-1.41 1.16c-5.32 6-7.25 14.38-6.8 22.43-5.5 1.37-11.66.7-16.22-2.65s-7.19-10-5.12-15.4a14.53 14.53 0 0 1-6.63-3.87c-3.07-3.45-3.13-8.91-.92-13s6.29-6.82 10.62-8.41c2.86-1.06 6-1.71 8.34-3.62 3.38-2.72 4.49-7.28 6-11.36a32 32 0 0 1 6.3-10.95 19.13 19.13 0 0 1 10.88-6.14 15.72 15.72 0 0 1 18.1 14.4.83.83 0 0 1-.06.21 20.3 20.3 0 0 1-12.92 13.39A9.54 9.54 0 0 0 116 175a4 4 0 0 0-4-1.35c-1.76.54-2.63 2.61-2.53 4.44a19.49 19.49 0 0 0 1.56 5.26 19.13 19.13 0 0 1 .4 12.45c-.08.36-.22.73-.37 1.08z" class="cls-4"/><path d="M125.18 153.46a16.13 16.13 0 0 0-18 3.09c-5.5 5.47-4.72 13.37-7.34 20.14-3.48 9-12.78 8.82-20.52 11.75-5.39 2-10.84 7.32-8.42 13.57.23.59 1.2.33 1-.27-3.26-8.44 7-12.41 13.24-14 5.39-1.33 11.1-2.82 14.24-7.81 3.7-5.87 2.68-13.36 6-19.36a15.08 15.08 0 0 1 19.35-6.3c.53.31 1.04-.55.45-.81z" class="cls-14"/><path d="M127.12 157.26c.25 9.47-13.16 8.67-18.64 13.12-5.68 4.6-3.73 12.3-3.68 18.6 0 4.87-1.48 8.92-5.82 11.46-3.59 2.1-7.77 2.76-11.57 4.37-5.25 2.22-10.58 7.66-7.22 13.65.31.56 1.18.06.86-.51-2.69-4.8 1.12-9.4 5.29-11.55 3.55-1.83 7.55-2.46 11.18-4.09 6.44-2.89 8.56-8.14 8.23-14.95-.18-3.65-.79-7.37.11-11 1.15-4.58 5-6.74 9.16-8.1 5.5-1.77 13.29-3.78 13.1-11a.5.5 0 0 0-1 0zM101.08 209.24a18.86 18.86 0 0 0-9.85 16.09c0 .64 1 .64 1 0a17.86 17.86 0 0 1 9.36-15.23c.56-.3.06-1.17-.51-.86z" class="cls-14"/><path d="M254.6 425.23v7.91l-31.13.96 19.73-8.87h11.4zM212.75 422.26l.76 11.84h-34.16l21.85-11.84h11.55z" class="cls-19"/><path d="M205.3 298.12a29.29 29.29 0 0 1 2.71-2.5l6.22 3.05 9.18 43-2.13 4.86c2.74 6.2 2.13 10.25 2.13 10.25l-10.66 65.52H201.2l3.28-123.3c.26-.29.52-.59.82-.88z" class="cls-4"/><path d="M254.6 425.23h-11.4l-19.79-83.6-9.18-43-6.23-3.01c1.06-.87 2.16-1.7 3.26-2.53l8.83-6.66.21-.38a308.41 308.41 0 0 0 27.76 13.59s-.07 1.3-.18 3.44c-.5 9.29-1.94 34.49-2.92 39.09 0 0 6.13 9.44 7.65 17.26s1.99 65.8 1.99 65.8z" class="cls-4"/><path d="M217.85 303.82c-.08-.62-1-.38-1 .22l-10.67-6a.5.5 0 0 0-.51.86l10.72 6.06a.46.46 0 0 0 .56-.07q2.52 18.22 5 36.44c.09.63 1.05.36 1-.27q-2.53-18.63-5.1-37.24zM240.54 335.76L234.59 350c-.24.6.72.86 1 .27l5.92-14.27c.24-.57-.72-.83-.97-.24zM242.9 344.52l-4.39 8c-.31.57.55 1.07.86.51q2.2-4 4.39-8.05c.31-.52-.55-.98-.86-.46zM218.37 355.7l-6.16 13c-.28.58.59 1.08.86.5q3.09-6.48 6.16-13c.28-.57-.58-1.08-.86-.5zM219.49 363.54l-3.5 7.82c-.26.59.6 1.1.86.51l3.51-7.82c.26-.58-.61-1.05-.87-.51z" class="cls-14"/><path d="M173 263.57a3.47 3.47 0 0 1 3.18-1.76 5.12 5.12 0 0 1 2.63 1.58v.06l.39 1.46a5.1 5.1 0 0 0-1.23.14 8.67 8.67 0 0 0-2.39.91c.12-2.18-.94-2.66-1.5-1.28a8.14 8.14 0 0 1-2.14 2.67l-.12-.14a10.22 10.22 0 0 1 1.18-3.64z" class="cls-18"/><path d="M181.86 269.56c0 1.66.09 3.54-1.08 4.72s-2.95 1.13-4.52.84a6 6 0 0 1-3.32-1.53l-.38-.84c2-.75 2.28-2.93 2.84-5.34a8 8 0 0 0 .22-1.45 8.67 8.67 0 0 1 2.39-.91 5.1 5.1 0 0 1 1.23-.14 2.49 2.49 0 0 1 1.11.27 2.86 2.86 0 0 1 1.35 1.95 8.3 8.3 0 0 1 .16 1.93z" class="cls-18"/><path d="M179.24 264.91l-.39-1.46 23.53-21.22h.14c-.43 6-.51 12.07-.34 18.12h-1q-9.47 4.75-19.34 8.67a8.3 8.3 0 0 0-.16-1.93 2.86 2.86 0 0 0-1.35-1.95 2.49 2.49 0 0 0-1.09-.23z" class="cls-5"/><path d="M220.31 286.05l-.21.38-8.83 6.66c-1.1.83-2.2 1.66-3.26 2.53a29.29 29.29 0 0 0-2.71 2.5c-1.4-12.54-2.78-25.16-3.12-37.76-.17-6.05-.09-12.1.34-18.12.15-2.13.34-4.26.59-6.39 6.08-10.58 12.72-21.06 21.89-29a12.74 12.74 0 0 0-1.47 7.78c.55 3.75 2.86 7 5.15 10q8.65 11.43 18.32 22.06-4.63 10.27-9 20.69a183 183 0 0 1 10.28 32.21l-.22.05a308.41 308.41 0 0 1-27.75-13.59z" class="cls-5"/><path fill="#00a4a3" d="M238.66 190l1.41-1 .09 9.64H239.48A18 18 0 0 0 228 203a14.59 14.59 0 0 0-3 3.84c-9.17 7.95-15.81 18.43-21.89 29 .06-.6.14-1.21.22-1.81l1-3.11c.8-2.44 1.61-4.89 2.62-7.26 3.12-7.33 8.14-13.73 13.86-19.27l.4-.39a167 167 0 0 1 17.45-14z"/><path d="M220.56 204.13q-.5-4-.78-8a2.28 2.28 0 0 1 .11-1.16 1.44 1.44 0 0 1 .28-.37 3.41 3.41 0 0 1 .65-.48 113.36 113.36 0 0 1 16.18-8.3 10.69 10.69 0 0 0 .8.71l.35-.4a1.55 1.55 0 0 1 0 .21 22.7 22.7 0 0 1 .51 3.66 167 167 0 0 0-17.43 14l-.4.39z" class="cls-9"/><path d="M225 206.84a14.59 14.59 0 0 1 3-3.84 18 18 0 0 1 11.48-4.37 331.25 331.25 0 0 1 26.42 45.71h.1c-.37 4.5-.92 9-1.46 13.46q-2 16.63-4.07 33.27H260l-5.19.13h-.23q-3.22-20.61-4.72-41.43c-1-1-1.93-2.07-2.87-3.12q-9.65-10.62-18.32-22.06c-2.29-3-4.6-6.25-5.15-10a12.74 12.74 0 0 1 1.48-7.75z" class="cls-5"/><path d="M247.86 246.8a129.52 129.52 0 0 1-22-38.32c-.22-.6-1.19-.34-1 .26a131.07 131.07 0 0 0 22.26 38.77c.44.49 1.15-.22.74-.71zM223.43 261.55l-14.62 19c-.39.51.48 1 .86.5q7.32-9.49 14.62-19c.39-.51-.48-1.05-.86-.5zM229.57 268a93.9 93.9 0 0 0-17.68 13.07c-.47.44.24 1.15.71.71a92.78 92.78 0 0 1 17.47-12.92.5.5 0 0 0-.5-.86zM260.87 241c-1.28 2.09-2.55 4.18-3.83 6.26a.5.5 0 0 0 .86.51c1.28-2.09 2.56-4.17 3.83-6.26.34-.51-.52-1.01-.86-.51zM202.8 243.21c.09-.63-.88-.9-1-.26a75 75 0 0 0-.52 16.13c.05.63 1.05.64 1 0a74.53 74.53 0 0 1 .52-15.87z" class="cls-6"/><path d="M304 305.16l-4.34.21c-9.22.43-23.59 1.05-38.91 1.52l-.77-13.7c24.83-2.2 47.19-3.69 49.08-3.79 4.39-.25 8.16.85 8.55 7.75s-3.31 7.47-7.7 7.71z" class="cls-4"/><path fill="#007393" d="M200.24 306.78v-.73l-.26-4.67-.05-.9c13.13-2.7 37.62-5.29 60.08-7.29l.77 13.7c-1.79.05-3.59.11-5.4.15-21.02.56-42.86.77-55.14-.26z"/><path d="M309.9 304.86s-7 6.63-8.94 7.49-38 .66-38 .66l-4-5.28 10.24-.25-.85 2.85h30.82l3.13-5.11zM199.91 300.85l-1.18.2.23 5.2 1.26.27-.31-5.67z" class="cls-22"/><path fill="#828282" d="M198.79 302.23l-5.14.7s-.84.48-.72 1 1.16.64 1.16.64l4.8.11z"/><path d="M261.76 303.08a1.64 1.64 0 0 1-.19 1 1.59 1.59 0 0 1-1 .51 17.64 17.64 0 0 1-9.25-.63 1.18 1.18 0 0 1-.53-.31.72.72 0 0 1-.17-.51 2.42 2.42 0 0 1 .14-.7q1.89-5.69 4.09-11.25l5.19-.13a61.29 61.29 0 0 1 1.72 12.02zM210.36 179a14.79 14.79 0 0 1-3.58-2.25l-.17-.12c1.64-2.29 3.26-4.58 4.87-6.89a14.48 14.48 0 0 1-.25-6.89 10.11 10.11 0 0 1 2.55-4.79 14.68 14.68 0 0 0 9.81.94l.08.32a25.25 25.25 0 0 0-1.92 5.75 8.49 8.49 0 0 0 .95 5.86 2.45 2.45 0 0 0 2 1.33 2.74 2.74 0 0 0 1.86-1.21 17.54 17.54 0 0 0 1.64-2.37 6.39 6.39 0 0 1 2.1-2.68c1.69-.92 3.89.29 4.8 2a6 6 0 0 1-.33 6.07c-.69 1-1.7 1.81-2.11 3-.51 1.46.1 3.08.88 4.43a18.62 18.62 0 0 0 3.42 4.33 113.36 113.36 0 0 0-16.14 8.31 3.41 3.41 0 0 0-.65.48l-.12-5.44a90.72 90.72 0 0 1-9.33-.14c-.28-3.34-.4-6.68-.36-10.04z" class="cls-18"/><path fill="#f8985c" d="M231.35 181.15l-10.77 7.12c-.53.35 0 1.22.5.87l10.78-7.14c.53-.34.03-1.21-.51-.85z"/><path d="M247 162.11a3.83 3.83 0 0 1 2.68 2.55 7.66 7.66 0 0 1 0 4.14 16.3 16.3 0 0 1-2.94 6.36 72.23 72.23 0 0 1-5.2 5.45 13.39 13.39 0 0 0-3.46 5.73 1.55 1.55 0 0 0 0-.21l-.35.4a10.69 10.69 0 0 1-.8-.71 18.62 18.62 0 0 1-3.42-4.33c-.78-1.35-1.39-3-.88-4.43.41-1.15 1.42-2 2.11-3a6 6 0 0 0 .33-6.07c-.91-1.7-3.11-2.91-4.8-2a6.39 6.39 0 0 0-2.13 2.66 17.54 17.54 0 0 1-1.64 2.37 2.74 2.74 0 0 1-1.86 1.21 2.45 2.45 0 0 1-2-1.33 8.49 8.49 0 0 1-.95-5.86 25.25 25.25 0 0 1 1.92-5.75l-.08-.32a14.68 14.68 0 0 1-9.81-.94l-.26-.12a9.17 9.17 0 0 1-4.4-4.16 5.29 5.29 0 0 1 .71-5.76c1.75-1.82 4.65-1.74 7.14-1.34s5.2 1 7.42-.23c1.31-.71 2.29-2 3.68-2.49 2.13-.81 4.51.34 6.21 1.85s3.08 3.41 5 4.57c2.4 1.42 5.5 1.6 7.54 3.5a6 6 0 0 1 .24 8.26z" class="cls-4"/><path d="M243.6 169.57c-.8-4.48-4.9-4.51-8.14-6.48-2.67-1.62-1.84-4.59-3.35-6.88a7.56 7.56 0 0 0-3.47-2.69c-4.71-1.91-14.85.63-15.6-6.54-.06-.64-1.06-.64-1 0 .39 3.73 3.61 5.64 7.05 6.21 2.58.42 5.27.15 7.81.82a7.83 7.83 0 0 1 3.78 2c1.14 1.19 1.26 2.58 1.6 4.1 1 4.56 5.44 4 8.52 6.51 4.84 3.85-.43 10.83-1.49 15.27-.15.62.81.89 1 .26.96-4.15 4.09-8.07 3.29-12.58z" class="cls-14"/><path d="M248.32 167.16a6.07 6.07 0 0 0-2.18-2.06c-1.39-.9-2.43-1.43-3.07-3.14a12.89 12.89 0 0 1-.51-2.88c-.35-2.78-1.16-4.9-3.55-6.5-3.52-2.37-9.92-2.76-10.27-8.06 0-.64-1-.64-1 0 .51 7.68 11.18 5.8 13.37 12.13.86 2.51.21 5.55 2.17 7.66.83.89 2 1.27 2.93 2 3 2.49 1.27 5.79-.33 8.42a.5.5 0 0 0 .86.51c1.42-2.32 3.07-5.35 1.58-8.08zM229.36 162.08l-7.5 3.47c-.58.27-.08 1.13.5.86l7.5-3.47c.59-.27.08-1.13-.5-.86zM229 165l-6.16 2.52c-.59.24-.33 1.2.26 1l6.17-2.51c.54-.26.28-1.23-.27-1.01zM226.52 168.57l-3.3 1.24c-.59.22-.33 1.19.27 1l3.29-1.24c.6-.26.34-1.23-.26-1z" class="cls-14"/><g id="Foun_Diag" data-name="Foun Diag"><path d="M67.14 129.91l23.17 20.42-9.45-20.42h13.51a19.7 19.7 0 0 0 19.69-19.69V82.56a3 3 0 0 0-3-3H52.89a20.15 20.15 0 0 0-20.14 20.2v26.55a3 3 0 0 0 2.91 2.95z" class="cls-15"/><path d="M159.51 46.81c0 10.71-6.06 20.08-15.15 25.3-5.51 5.88-20.15 13.44-22.89 14.82 4.45-2.53 6.33-10.45 6.33-10.45-17.5 0-31.69-13.29-31.69-29.67s14.19-29.66 31.69-29.66 31.71 13.29 31.71 29.66z" class="cls-16"/><path d="M136.73 50.39a6.16 6.16 0 0 1-.66 2.82 6.59 6.59 0 0 1-1.94 2.29 8.64 8.64 0 0 1-3.13 1.44v3.71h-3.82v-3.27a18.46 18.46 0 0 1-3.65-.44 6.28 6.28 0 0 1-2.39-.88V50a11 11 0 0 0 6.48 2.44 2 2 0 0 0 1.34-.41 1.42 1.42 0 0 0 .49-1.15 1.46 1.46 0 0 0-.3-1 3.76 3.76 0 0 0-1-.75 19.37 19.37 0 0 0-2.09-.94q-5.2-2.06-5.2-6.64a6.29 6.29 0 0 1 1.68-4.46 8.17 8.17 0 0 1 4.65-2.34V31.6H131v3a18.65 18.65 0 0 1 4.59.73v5.86a11.56 11.56 0 0 0-2.77-1.19 10.36 10.36 0 0 0-3-.46 2.27 2.27 0 0 0-1.43.41 1.24 1.24 0 0 0-.55 1 1.66 1.66 0 0 0 .65 1.31 8.59 8.59 0 0 0 2.12 1.14 12.42 12.42 0 0 1 4.67 3 5.87 5.87 0 0 1 1.45 3.99z" class="cls-9"/><path d="M45.79 100.86a2.6 2.6 0 0 0-.91-.19c-.8 0-1.19.43-1.19 1.29v.86h1.83v1.82h-1.83v6.18h-2.46v-6.18h-1.35v-1.82h1.35v-1a2.86 2.86 0 0 1 .89-2.2 3.38 3.38 0 0 1 2.42-.84 4.37 4.37 0 0 1 1.25.16zM54.3 110.82h-2.46v-1.22a2.78 2.78 0 0 1-2.48 1.4c-1.86 0-2.78-1.12-2.78-3.37v-4.82H49v4.6c0 1.14.45 1.7 1.34 1.7a1.34 1.34 0 0 0 1.07-.46 1.93 1.93 0 0 0 .39-1.27v-4.57h2.5zM64.11 110.82h-2.46v-4.45c0-1.24-.44-1.86-1.33-1.86a1.29 1.29 0 0 0-1 .49 1.87 1.87 0 0 0-.42 1.25v4.57h-2.52v-8h2.47v1.26a2.84 2.84 0 0 1 2.57-1.46c1.77 0 2.66 1.1 2.66 3.3zM73.89 110.82h-2.47v-1.11a2.76 2.76 0 0 1-2.48 1.3A3 3 0 0 1 66.5 110a4.36 4.36 0 0 1-.91-3 4.75 4.75 0 0 1 1-3.18 3.3 3.3 0 0 1 2.64-1.2 2.25 2.25 0 0 1 2.16 1.11V99h2.47zm-2.42-3.9v-.6A1.88 1.88 0 0 0 71 105a1.6 1.6 0 0 0-2.47.13 3 3 0 0 0-.46 1.76 2.57 2.57 0 0 0 .45 1.63 1.48 1.48 0 0 0 1.23.57 1.51 1.51 0 0 0 1.23-.6 2.54 2.54 0 0 0 .49-1.57zM77.22 101.55a1.41 1.41 0 0 1-1-.37 1.18 1.18 0 0 1-.4-.91 1.16 1.16 0 0 1 .4-.91 1.49 1.49 0 0 1 1-.35 1.53 1.53 0 0 1 1 .35 1.18 1.18 0 0 1 .39.91 1.2 1.2 0 0 1-.39.92 1.49 1.49 0 0 1-1 .36zm1.22 9.27H76v-8h2.47zM88.24 110.82h-2.46v-4.45c0-1.24-.44-1.86-1.33-1.86a1.3 1.3 0 0 0-1 .49 1.87 1.87 0 0 0-.42 1.25v4.57h-2.51v-8H83v1.26a2.82 2.82 0 0 1 2.57-1.46c1.77 0 2.65 1.1 2.65 3.3zM98 109.9a4.51 4.51 0 0 1-1.29 3.45 5.19 5.19 0 0 1-3.71 1.22 5.91 5.91 0 0 1-2.57-.46V112a4.94 4.94 0 0 0 2.5.72 2.67 2.67 0 0 0 1.93-.66 2.37 2.37 0 0 0 .69-1.79v-.63a2.76 2.76 0 0 1-2.5 1.36 3 3 0 0 1-2.43-1.08 4.36 4.36 0 0 1-.9-2.89 4.83 4.83 0 0 1 1-3.22 3.26 3.26 0 0 1 2.63-1.2 2.44 2.44 0 0 1 2.19 1.13v-.93H98zm-2.4-2.9v-.63a1.91 1.91 0 0 0-.45-1.29 1.45 1.45 0 0 0-1.17-.54 1.49 1.49 0 0 0-1.28.64 3 3 0 0 0-.47 1.81 2.6 2.6 0 0 0 .44 1.58 1.46 1.46 0 0 0 1.22.58 1.53 1.53 0 0 0 1.24-.59 2.44 2.44 0 0 0 .47-1.56zM101.12 107.57a1.84 1.84 0 0 1-.12-.45 2.8 2.8 0 0 1 0-.48 3.34 3.34 0 0 1 0-.64 2.69 2.69 0 0 1 .21-.56 3.31 3.31 0 0 1 .36-.5 3.68 3.68 0 0 1 .49-.47c.2-.17.37-.32.52-.47a3 3 0 0 0 .38-.43 1.69 1.69 0 0 0 .23-.44 1.65 1.65 0 0 0 .08-.51 1.13 1.13 0 0 0-.09-.45 1 1 0 0 0-.24-.36 1.26 1.26 0 0 0-.39-.23 1.46 1.46 0 0 0-.52-.09 3.51 3.51 0 0 0-1.26.26 4 4 0 0 0-1.24.77v-2.36a4.89 4.89 0 0 1 1.31-.54 5.92 5.92 0 0 1 1.47-.18 5.81 5.81 0 0 1 1.35.16 3.13 3.13 0 0 1 1.09.51 2.41 2.41 0 0 1 .73.88 2.92 2.92 0 0 1 .26 1.28 3.34 3.34 0 0 1-.11.87 3 3 0 0 1-.32.73 3.57 3.57 0 0 1-.53.66 7.73 7.73 0 0 1-.71.65 5.52 5.52 0 0 0-.48.42 2.46 2.46 0 0 0-.35.39 1.71 1.71 0 0 0-.21.4 1.87 1.87 0 0 0-.07.49 1.32 1.32 0 0 0 .06.39.93.93 0 0 0 .13.32zm1.14 3.43a1.5 1.5 0 0 1-1-.38 1.22 1.22 0 0 1-.42-.92 1.18 1.18 0 0 1 .42-.92 1.53 1.53 0 0 1 1-.36 1.48 1.48 0 0 1 1 .36 1.19 1.19 0 0 1 .41.92 1.25 1.25 0 0 1-.4.93 1.51 1.51 0 0 1-1.01.37z" class="cls-4"/></g><g id="Inv_Diag" data-name="Inv Diag"><path d="M176 65.21a25.76 25.76 0 0 0 22.91 27.38l19.18 7.78a.06.06 0 0 0 .06-.09l-7-7.45a.06.06 0 0 1 .05-.1h15.46c13.6 0 25.35-10.29 26.3-23.85a25.75 25.75 0 0 0-25.62-27.53h-25.05c-13.61 0-25.37 10.29-26.29 23.86z" class="cls-9"/><path d="M199 62.21a1.45 1.45 0 0 1-1-.37 1.21 1.21 0 0 1-.39-.91 1.18 1.18 0 0 1 .39-.91 1.69 1.69 0 0 1 2-.02 1.18 1.18 0 0 1 .39.91 1.2 1.2 0 0 1-.39.92 1.49 1.49 0 0 1-1 .38zm1.22 9.26h-2.52v-8h2.47zM210.07 71.47h-2.47v-1.1a2.74 2.74 0 0 1-2.47 1.3 3 3 0 0 1-2.42-1.06 4.37 4.37 0 0 1-.91-3 4.74 4.74 0 0 1 1-3.18 3.3 3.3 0 0 1 2.64-1.19 2.23 2.23 0 0 1 2.15 1.11v-4.72h2.47zm-2.42-3.89V67a1.88 1.88 0 0 0-.45-1.29 1.48 1.48 0 0 0-1.18-.52 1.47 1.47 0 0 0-1.28.64 3 3 0 0 0-.46 1.77 2.57 2.57 0 0 0 .44 1.63 1.59 1.59 0 0 0 2.46 0 2.54 2.54 0 0 0 .47-1.65zM219.34 68.18h-5.22c.08 1.16.82 1.74 2.2 1.74a4.35 4.35 0 0 0 2.32-.62v1.78a6.18 6.18 0 0 1-2.89.59 3.73 3.73 0 0 1-4.08-4.07 4.3 4.3 0 0 1 1.16-3.16 3.87 3.87 0 0 1 2.84-1.16 3.51 3.51 0 0 1 2.71 1 4 4 0 0 1 1 2.82zm-2.29-1.52c0-1.14-.46-1.72-1.39-1.72a1.33 1.33 0 0 0-1 .5 2.24 2.24 0 0 0-.53 1.22zM227.46 71.47h-2.33v-1.14a2.62 2.62 0 0 1-2.39 1.34 2.5 2.5 0 0 1-1.83-.66 2.39 2.39 0 0 1-.67-1.76c0-1.55.92-2.45 2.76-2.69l2.17-.29c0-.87-.47-1.31-1.42-1.31a4.85 4.85 0 0 0-2.72.85V64a6.41 6.41 0 0 1 1.41-.47 7.77 7.77 0 0 1 1.63-.2q3.42 0 3.42 3.41zm-2.32-3.25v-.53l-1.45.18c-.8.11-1.2.47-1.2 1.09a.88.88 0 0 0 .29.69 1.13 1.13 0 0 0 .79.27 1.48 1.48 0 0 0 1.14-.48 1.75 1.75 0 0 0 .43-1.22zM230.43 68.23a2.67 2.67 0 0 1-.12-.45 3 3 0 0 1 0-1.14 2.49 2.49 0 0 1 .21-.56 2.67 2.67 0 0 1 .35-.5 4.41 4.41 0 0 1 .49-.47c.2-.17.37-.32.52-.47a2.5 2.5 0 0 0 .38-.43 1.73 1.73 0 0 0 .24-.44 1.7 1.7 0 0 0 .07-.51 1.06 1.06 0 0 0-.08-.45 1 1 0 0 0-.25-.36.94.94 0 0 0-.39-.23 1.36 1.36 0 0 0-.51-.09 3.72 3.72 0 0 0-1.27.25 4.32 4.32 0 0 0-1.24.77V60.8a4.89 4.89 0 0 1 1.31-.54 6 6 0 0 1 1.47-.18 5.83 5.83 0 0 1 1.36.16 3.08 3.08 0 0 1 1.08.51 2.32 2.32 0 0 1 .73.88 2.78 2.78 0 0 1 .26 1.28 2.92 2.92 0 0 1-.43 1.6 3.5 3.5 0 0 1-.52.66c-.21.21-.45.42-.72.65l-.48.42a2.37 2.37 0 0 0-.34.39 1.39 1.39 0 0 0-.28.89 1.65 1.65 0 0 0 0 .38 1 1 0 0 0 .14.33zm1.14 3.42a1.51 1.51 0 0 1-1-.37 1.25 1.25 0 0 1-.41-.92 1.2 1.2 0 0 1 .41-.92 1.55 1.55 0 0 1 1-.36 1.5 1.5 0 0 1 1 .36 1.18 1.18 0 0 1 .4.92 1.21 1.21 0 0 1-.4.93 1.49 1.49 0 0 1-1 .36zM336.88 102.51v13.65a17.13 17.13 0 0 1-17.12 17.13H265.1l-21 16.23 6.9-16.23h-.69a11.9 11.9 0 0 1-11.9-11.9v-18.1a16.91 16.91 0 0 1 16.91-16.91h65.47a16.13 16.13 0 0 1 16.09 16.13z" class="cls-4"/><path d="M253.77 115.05h-2.46v-4.55c0-1.17-.42-1.75-1.28-1.75a1.3 1.3 0 0 0-1.06.49 1.9 1.9 0 0 0-.41 1.25v4.56h-2.47v-11.84h2.47v5a2.83 2.83 0 0 1 2.47-1.39c1.81 0 2.71 1.1 2.71 3.29zM259.54 115.25a4.28 4.28 0 0 1-3.14-1.13 4.61 4.61 0 0 1 0-6.14 4.47 4.47 0 0 1 3.21-1.13 4.22 4.22 0 0 1 3.12 1.13 4 4 0 0 1 1.14 3 4.23 4.23 0 0 1-1.17 3.15 4.36 4.36 0 0 1-3.16 1.12zm.06-6.5a1.66 1.66 0 0 0-1.36.6 2.67 2.67 0 0 0-.48 1.7c0 1.54.62 2.3 1.86 2.3s1.77-.78 1.77-2.36-.6-2.24-1.79-2.24zM277.09 107.05l-2.3 8h-2.59l-1.2-4.69a4.57 4.57 0 0 1-.14-1 6 6 0 0 1-.16 1l-1.26 4.72h-2.57l-2.26-8h2.52l1.1 5.22a7.73 7.73 0 0 1 .12.89h.05a4.36 4.36 0 0 1 .14-.92l1.37-5.19h2.35l1.24 5.22c0 .13.06.43.11.91h.05a9.06 9.06 0 0 1 .13-.91l1-5.22zM295.38 115.05h-2.46v-4.56c0-1.16-.42-1.74-1.28-1.74a1.17 1.17 0 0 0-1 .52 2.11 2.11 0 0 0-.38 1.3v4.48h-2.46v-4.61c0-1.13-.42-1.69-1.26-1.69a1.19 1.19 0 0 0-1 .5 2.19 2.19 0 0 0-.38 1.35v4.45h-2.47v-8h2.47v1.25a3.05 3.05 0 0 1 2.59-1.45 2.31 2.31 0 0 1 2.32 1.5 3 3 0 0 1 2.68-1.5c1.74 0 2.61 1.08 2.61 3.22zM304.94 115.05h-2.46v-1.22a2.81 2.81 0 0 1-2.45 1.42c-1.85 0-2.78-1.13-2.78-3.37v-4.83h2.46v4.61c0 1.13.45 1.69 1.35 1.69a1.33 1.33 0 0 0 1.06-.46 1.9 1.9 0 0 0 .4-1.26v-4.58h2.46zM313.08 114.76a4.9 4.9 0 0 1-2.41.49 4.12 4.12 0 0 1-3-1.12 3.87 3.87 0 0 1-1.14-2.88 4.27 4.27 0 0 1 1.22-3.22 4.55 4.55 0 0 1 3.27-1.18 4.2 4.2 0 0 1 2.05.38v2.09a2.85 2.85 0 0 0-1.73-.57 2.23 2.23 0 0 0-1.68.62 2.27 2.27 0 0 0-.62 1.71 2.3 2.3 0 0 0 .59 1.67 2.2 2.2 0 0 0 1.63.6 3.3 3.3 0 0 0 1.81-.57zM322.38 115.05h-2.46v-4.55c0-1.17-.43-1.75-1.29-1.75a1.31 1.31 0 0 0-1.06.49 1.89 1.89 0 0 0-.4 1.25v4.56h-2.47v-11.84h2.47v5a2.81 2.81 0 0 1 2.46-1.39c1.81 0 2.72 1.1 2.72 3.29zM325.34 111.81a2.8 2.8 0 0 1-.12-.46 4.23 4.23 0 0 1 0-.48 2.73 2.73 0 0 1 .07-.66 2.6 2.6 0 0 1 .21-.55 2.49 2.49 0 0 1 .35-.5 4.62 4.62 0 0 1 .5-.48l.52-.46a3.54 3.54 0 0 0 .37-.43 1.4 1.4 0 0 0 .24-.45 1.6 1.6 0 0 0 .08-.51 1.13 1.13 0 0 0-.09-.45 1 1 0 0 0-.25-.35 1.08 1.08 0 0 0-.39-.24 1.6 1.6 0 0 0-.51-.08 3.44 3.44 0 0 0-1.32.29 4.36 4.36 0 0 0-1.25.77v-2.35a5 5 0 0 1 1.32-.54 5.92 5.92 0 0 1 1.47-.18 5.32 5.32 0 0 1 1.35.16 3.21 3.21 0 0 1 1.09.5 2.37 2.37 0 0 1 .72.88 2.86 2.86 0 0 1 .27 1.29 3.26 3.26 0 0 1-.11.86 3.17 3.17 0 0 1-.32.73 3.57 3.57 0 0 1-.53.66 9.56 9.56 0 0 1-.72.65l-.48.43a3.74 3.74 0 0 0-.34.38 1.77 1.77 0 0 0-.21.41 1.81 1.81 0 0 0-.07.49 1.73 1.73 0 0 0 .05.38 1.26 1.26 0 0 0 .14.33zm1.15 3.42a1.48 1.48 0 0 1-1-.38 1.21 1.21 0 0 1-.42-.92 1.16 1.16 0 0 1 .42-.91 1.47 1.47 0 0 1 1-.37 1.44 1.44 0 0 1 1 .37 1.16 1.16 0 0 1 .41.91 1.22 1.22 0 0 1-.4.93 1.46 1.46 0 0 1-1.01.37z" class="cls-9"/></g></g></g></svg>