<svg xmlns="http://www.w3.org/2000/svg" xmlns:xlink="http://www.w3.org/1999/xlink" viewBox="0 0 310 300"><defs><style>.cls-1,.cls-80,.cls-81,.cls-82{fill:none}.cls-38{fill:#004b4f}.cls-80,.cls-81,.cls-82{stroke:#fff;stroke-width:.68px}.cls-80,.cls-81{stroke-miterlimit:10}.cls-81,.cls-82{stroke-linecap:round}.cls-82{stroke-linejoin:round}</style><clipPath id="clip-path"><path d="M0 0h310v300H0z" class="cls-1"/></clipPath><linearGradient id="linear-gradient" x2="310" y1="150" y2="150" gradientUnits="userSpaceOnUse"><stop offset="0" stop-color="#00ab69"/><stop offset="1" stop-color="#007e79"/></linearGradient><clipPath id="clip-path-2"><path d="M0 153.43h310v140H0z" class="cls-1"/></clipPath><linearGradient id="linear-gradient-2" x1="231" x2="260.8" y1="224.31" y2="240.54" gradientUnits="userSpaceOnUse"><stop offset="0" stop-color="#cbf060"/><stop offset=".34" stop-color="#a3d256"/><stop offset=".78" stop-color="#74af4b"/><stop offset="1" stop-color="#62a147"/></linearGradient><linearGradient id="linear-gradient-3" x1="278.41" x2="224" y1="243.97" y2="233.06" xlink:href="#linear-gradient-2"/><linearGradient id="linear-gradient-4" x1="-5294.44" x2="-5264.64" y1="726.52" y2="742.75" gradientTransform="scale(-1 1) rotate(11 -22.037 27742.222)" xlink:href="#linear-gradient-2"/><linearGradient id="linear-gradient-5" x1="-5247.03" x2="-5301.45" y1="746.19" y2="735.28" gradientTransform="scale(-1 1) rotate(11 -22.037 27742.222)" xlink:href="#linear-gradient-2"/><linearGradient id="linear-gradient-6" x1="-5570.45" x2="-5542.37" y1="-241.71" y2="-226.41" gradientTransform="scale(-1 1) rotate(-9.2 -34.61 -33995.341)" xlink:href="#linear-gradient-2"/><linearGradient id="linear-gradient-7" x1="-5525.77" x2="-5577.06" y1="-223.18" y2="-233.46" gradientTransform="scale(-1 1) rotate(-9.2 -34.61 -33995.341)" xlink:href="#linear-gradient-2"/><linearGradient id="linear-gradient-8" x1="446.27" x2="476.08" y1="-1016.64" y2="-1000.41" gradientTransform="matrix(.9 .34 -.17 .58 -323.39 693.62)" xlink:href="#linear-gradient-2"/><linearGradient id="linear-gradient-9" x1="493.69" x2="439.27" y1="-996.98" y2="-1007.89" gradientTransform="matrix(.9 .34 -.17 .58 -323.39 693.62)" xlink:href="#linear-gradient-2"/><linearGradient id="linear-gradient-10" x1="-25.44" x2="-26.17" y1="1485.9" y2="1464.37" gradientTransform="matrix(.74 -.37 .43 .86 -521.66 -1044.57)" gradientUnits="userSpaceOnUse"><stop offset=".01" stop-color="#fed905"/><stop offset="1" stop-color="#fea305"/></linearGradient><linearGradient id="linear-gradient-11" x1="-283.06" x2="-283.78" y1="1114.32" y2="1092.8" gradientTransform="rotate(-19.25 -2683.777 -413.76)" xlink:href="#linear-gradient-10"/><linearGradient id="linear-gradient-12" x1="-81.64" x2="-82.43" y1="720.54" y2="697.32" gradientTransform="rotate(-10.33 -2687.111 -417.944)" xlink:href="#linear-gradient-10"/><linearGradient id="linear-gradient-13" x1="76" x2="75.27" y1="228.67" y2="207.15" xlink:href="#linear-gradient-10"/><linearGradient id="linear-gradient-14" x1="94.69" x2="96.4" y1="233.44" y2="219.46" xlink:href="#linear-gradient-10"/><linearGradient id="linear-gradient-15" x1="124.59" x2="194.28" y1="204.73" y2="229.25" gradientUnits="userSpaceOnUse"><stop offset="0" stop-color="#ffd8c2"/><stop offset="1" stop-color="#ffb49c"/></linearGradient><linearGradient id="linear-gradient-16" x1="114.22" x2="114.22" y1="201.42" y2="236.18" xlink:href="#linear-gradient-10"/><linearGradient id="linear-gradient-17" x1="89.03" x2="88.4" y1="219.83" y2="201.32" xlink:href="#linear-gradient-10"/><linearGradient id="linear-gradient-18" x1="168.12" x2="247.48" y1="168.54" y2="219.98" gradientUnits="userSpaceOnUse"><stop offset="0" stop-color="#444f61"/><stop offset="1" stop-color="#262c36"/></linearGradient><linearGradient id="linear-gradient-19" x1="211.19" x2="205.88" y1="165.77" y2="140.78" xlink:href="#linear-gradient-15"/><linearGradient id="linear-gradient-20" x1="207.59" x2="204.33" y1="154.5" y2="139.15" xlink:href="#linear-gradient-15"/><linearGradient id="linear-gradient-21" x1="174.92" x2="228.34" y1="118.31" y2="137.1" xlink:href="#linear-gradient-15"/><linearGradient id="linear-gradient-22" x1="186.26" x2="213.34" y1="92.06" y2="129.34" gradientUnits="userSpaceOnUse"><stop offset="0" stop-color="#8c6f5a"/><stop offset="1" stop-color="#5c3d3b"/></linearGradient><linearGradient id="linear-gradient-23" x1="175.55" x2="228.97" y1="116.53" y2="135.33" xlink:href="#linear-gradient-15"/><linearGradient id="linear-gradient-24" x1="229.32" x2="229.32" y1="150.69" y2="190.51" xlink:href="#linear-gradient-10"/><linearGradient id="linear-gradient-25" x1="191.36" x2="191.36" y1="157.47" y2="192.28" xlink:href="#linear-gradient-10"/><linearGradient id="linear-gradient-26" x1="227.53" x2="227.53" y1="152.3" y2="331.02" xlink:href="#linear-gradient-10"/><linearGradient id="linear-gradient-27" x1="191.71" x2="194.99" y1="186.77" y2="188.66" gradientUnits="userSpaceOnUse"><stop offset="0" stop-color="#fff"/><stop offset="1" stop-color="#ced2f7"/></linearGradient><linearGradient id="linear-gradient-28" x1="224.96" x2="228.24" y1="185.2" y2="187.09" xlink:href="#linear-gradient-27"/><linearGradient id="New_Gradient_Swatch_4" x1="204.61" x2="208.41" y1="215.13" y2="211.32" gradientUnits="userSpaceOnUse"><stop offset="0" stop-color="#a020f0"/><stop offset="1" stop-color="#6a0dad"/></linearGradient><linearGradient id="New_Gradient_Swatch_4-2" x1="202.2" x2="219.51" y1="215.48" y2="198.17" xlink:href="#New_Gradient_Swatch_4"/><linearGradient id="New_Gradient_Swatch_4-3" x1="206.24" x2="217.09" y1="216.4" y2="197.62" xlink:href="#New_Gradient_Swatch_4"/><linearGradient id="New_Gradient_Swatch_4-4" x1="203.6" x2="213.93" y1="213.64" y2="195.76" xlink:href="#New_Gradient_Swatch_4"/><linearGradient id="New_Gradient_Swatch_4-5" x1="212.86" x2="220.78" y1="213.48" y2="199.75" xlink:href="#New_Gradient_Swatch_4"/><linearGradient id="linear-gradient-29" x1="-1149.82" x2="-1139.85" y1="-2876.8" y2="-2872.66" gradientTransform="rotate(71.23 -2634.148 -460.27)" xlink:href="#linear-gradient-2"/><linearGradient id="linear-gradient-30" x1="-1151.36" x2="-1128.22" y1="-2882.33" y2="-2860.97" gradientTransform="rotate(71.23 -2634.148 -460.27)" xlink:href="#linear-gradient-2"/><linearGradient id="linear-gradient-31" x1="168.33" x2="178.31" y1="-557.25" y2="-553.11" gradientTransform="rotate(15.2 -2537.137 -491.37)" xlink:href="#linear-gradient-2"/><linearGradient id="linear-gradient-32" x1="166.79" x2="189.94" y1="-562.78" y2="-541.41" gradientTransform="rotate(15.2 -2537.137 -491.37)" xlink:href="#linear-gradient-2"/><linearGradient id="linear-gradient-33" x1="-2933.95" x2="-2923.98" y1="2396.04" y2="2400.18" gradientTransform="rotate(-82.8 -2680.244 -418.48)" xlink:href="#linear-gradient-2"/><linearGradient id="linear-gradient-34" x1="-2935.49" x2="-2912.35" y1="2390.51" y2="2411.87" gradientTransform="rotate(-82.8 -2680.244 -418.48)" xlink:href="#linear-gradient-2"/><linearGradient id="linear-gradient-35" x1="-1162.89" x2="-1154.87" y1="-2889.82" y2="-2886.49" gradientTransform="rotate(71.23 -2634.148 -460.27)" xlink:href="#linear-gradient-2"/><linearGradient id="linear-gradient-36" x1="-1164.13" x2="-1145.53" y1="-2894.26" y2="-2877.09" gradientTransform="rotate(71.23 -2634.148 -460.27)" xlink:href="#linear-gradient-2"/><linearGradient id="linear-gradient-37" x1="-2286.56" x2="-2278.55" y1="2387.45" y2="2390.78" gradientTransform="rotate(-69.25 -2732.063 -432.844)" xlink:href="#linear-gradient-2"/><linearGradient id="linear-gradient-38" x1="-2287.8" x2="-2269.21" y1="2383.01" y2="2400.18" gradientTransform="rotate(-69.25 -2732.063 -432.844)" xlink:href="#linear-gradient-2"/><linearGradient id="linear-gradient-39" x1="-1595.35" x2="-1589.05" y1="2191.61" y2="2194.22" gradientTransform="rotate(-55.33 -2750.66 -422.036)" xlink:href="#linear-gradient-2"/><linearGradient id="linear-gradient-40" x1="-1596.32" x2="-1581.7" y1="2188.12" y2="2201.61" gradientTransform="rotate(-55.33 -2750.66 -422.036)" xlink:href="#linear-gradient-2"/><linearGradient id="linear-gradient-41" x1="-779.74" x2="-774.16" y1="1724.36" y2="1726.68" gradientTransform="rotate(-36.35 -2809.182 -399.727)" xlink:href="#linear-gradient-2"/><linearGradient id="linear-gradient-42" x1="-780.61" x2="-767.65" y1="1721.26" y2="1733.22" gradientTransform="rotate(-36.35 -2809.182 -399.727)" xlink:href="#linear-gradient-2"/><linearGradient id="linear-gradient-43" x1="-771.56" x2="-765.98" y1="1692.5" y2="1694.82" gradientTransform="rotate(-36.35 -2809.182 -399.727)" xlink:href="#linear-gradient-2"/><linearGradient id="linear-gradient-44" x1="-772.42" x2="-759.47" y1="1689.41" y2="1701.36" gradientTransform="rotate(-36.35 -2809.182 -399.727)" xlink:href="#linear-gradient-2"/><linearGradient id="linear-gradient-45" x1="-524.68" x2="-516.67" y1="1450" y2="1453.33" gradientTransform="rotate(-28.4 -2846.681 -371.275)" xlink:href="#linear-gradient-2"/><linearGradient id="linear-gradient-46" x1="-525.92" x2="-507.32" y1="1445.55" y2="1462.72" gradientTransform="rotate(-28.4 -2846.681 -371.275)" xlink:href="#linear-gradient-2"/><linearGradient id="linear-gradient-47" x1="-59.44" x2="-51.43" y1="688.22" y2="691.55" gradientTransform="rotate(-10.96 -2753.238 -499.142)" xlink:href="#linear-gradient-2"/><linearGradient id="linear-gradient-48" x1="-60.68" x2="-42.08" y1="683.78" y2="700.94" gradientTransform="rotate(-10.96 -2753.238 -499.142)" xlink:href="#linear-gradient-2"/><linearGradient id="linear-gradient-49" x1="-852.22" x2="-844.21" y1="-2654.56" y2="-2651.23" gradientTransform="rotate(62.6 -2649.936 -494.69)" xlink:href="#linear-gradient-2"/><linearGradient id="linear-gradient-50" x1="-853.46" x2="-834.86" y1="-2659" y2="-2641.84" gradientTransform="rotate(62.6 -2649.936 -494.69)" xlink:href="#linear-gradient-2"/><linearGradient id="linear-gradient-51" x1="50.6" x2="56.92" y1="-1218.54" y2="-1215.92" gradientTransform="rotate(28.13 -2619.007 -505.867)" xlink:href="#linear-gradient-2"/><linearGradient id="linear-gradient-52" x1="49.63" x2="64.29" y1="-1222.04" y2="-1208.51" gradientTransform="rotate(28.13 -2619.007 -505.867)" xlink:href="#linear-gradient-2"/><linearGradient id="linear-gradient-53" x1="55.48" x2="61.8" y1="-1258.54" y2="-1255.92" gradientTransform="rotate(28.13 -2619.007 -505.867)" xlink:href="#linear-gradient-2"/><linearGradient id="linear-gradient-54" x1="54.51" x2="69.17" y1="-1262.04" y2="-1248.51" gradientTransform="rotate(28.13 -2619.007 -505.867)" xlink:href="#linear-gradient-2"/><linearGradient id="linear-gradient-55" x1="-314.64" x2="-308.32" y1="-2050.82" y2="-2048.2" gradientTransform="rotate(45.77 -2642.121 -510.316)" xlink:href="#linear-gradient-2"/><linearGradient id="linear-gradient-56" x1="-315.61" x2="-300.95" y1="-2054.32" y2="-2040.79" gradientTransform="rotate(45.77 -2642.121 -510.316)" xlink:href="#linear-gradient-2"/><linearGradient id="linear-gradient-57" x1="-437.42" x2="-430.99" y1="1292.01" y2="1294.68" gradientTransform="rotate(-25.46 -2718.417 -538.794)" xlink:href="#linear-gradient-2"/><linearGradient id="linear-gradient-58" x1="-438.42" x2="-423.49" y1="1288.44" y2="1302.22" gradientTransform="rotate(-25.46 -2718.417 -538.794)" xlink:href="#linear-gradient-2"/><linearGradient id="linear-gradient-59" x1="-766.63" x2="-760.2" y1="-2565.01" y2="-2562.33" gradientTransform="rotate(60.7 -2624.417 -444.181)" xlink:href="#linear-gradient-2"/><linearGradient id="linear-gradient-60" x1="-767.63" x2="-752.7" y1="-2568.57" y2="-2554.79" gradientTransform="rotate(60.7 -2624.417 -444.181)" xlink:href="#linear-gradient-2"/><linearGradient id="linear-gradient-61" x1="128.77" x2="118.93" y1="260" y2="294.84" gradientUnits="userSpaceOnUse"><stop offset="0" stop-color="#ffd8c2"/><stop offset="1" stop-color="#ed9480"/></linearGradient><linearGradient id="linear-gradient-62" x1="77.46" x2="62.03" y1="271.54" y2="321.38" xlink:href="#linear-gradient-61"/><linearGradient id="linear-gradient-63" x1="158.37" x2="170.49" y1="281.88" y2="302.46" xlink:href="#linear-gradient-61"/><linearGradient id="linear-gradient-64" x1="183.08" x2="243.29" y1="235.84" y2="257.03" xlink:href="#linear-gradient-15"/><linearGradient id="linear-gradient-65" x1="220.09" x2="255.49" y1="183.8" y2="208.9" xlink:href="#linear-gradient-18"/><linearGradient id="linear-gradient-66" x1="136.73" x2="149.13" y1="261.53" y2="262.99" xlink:href="#linear-gradient-10"/><linearGradient id="linear-gradient-67" x1="138.45" x2="160.27" y1="268.68" y2="279.46" xlink:href="#linear-gradient-10"/><linearGradient id="linear-gradient-68" x1="172.41" x2="172.41" y1="243.9" y2="285.94" xlink:href="#linear-gradient-10"/></defs><g style="isolation:isolate"><g id="Layer_2" data-name="Layer 2"><g id="Near_Footer" clip-path="url(#clip-path)" data-name="Near Footer"><path fill="url(#linear-gradient)" d="M0 0h310v300H0z"/><g clip-path="url(#clip-path-2)"><path fill="url(#linear-gradient-2)" d="M239.81 293s18.93-73.07 41.41-105.23c-13.05 5.87-22.8 13.82-23.45 24.84s-4.88 16.64-10.1 22.29-8.3 12.08-8.35 20.54S237 266.69 234.6 272s-1.6 16.08 5.21 21z"/><path fill="url(#linear-gradient-3)" d="M281.22 187.77S283 206.9 279.07 214s-12.79 10.7-11.88 20.45.65 14.9-4.34 20.43-8.57 9.3-9 15.42.32 17.64-14 22.75c3.51-32.9 27.67-86.31 41.37-105.28z"/><path fill="url(#linear-gradient-4)" d="M69.65 281.47s-32.54-68.1-60.76-95.39c13.93 3.27 25 9.22 27.77 19.91s8 15.4 14.18 19.95S61.28 236.21 63 244.51s4.41 10.6 7.79 15.3 4.64 15.52-1.14 21.66z"/><path fill="url(#linear-gradient-5)" d="M8.89 186.08s1.89 19.13 7.12 25.29 14.6 8.06 15.56 17.81 2.22 14.74 8.17 19.23 10.19 7.48 11.79 13.41 3 17.37 18.12 19.65C59.89 249.9 26 202.09 8.89 186.08z"/><path fill="url(#linear-gradient-6)" d="M79 280.84S72.55 210 56.53 176.67c11.24 7.44 19.11 16.32 18 26.67s2 16.22 6 22.27A27.39 27.39 0 0 1 85.21 246c-1.24 7.89.43 10.81 1.88 16.07s-.93 15.24-8.09 18.77z"/><path fill="url(#linear-gradient-7)" d="M56.53 176.67s-4.59 17.52-2 24.67 10.27 11.9 7.94 20.83-2.87 13.76.93 19.67 6.56 9.95 6 15.71-3 16.35 9.58 23.29c1.76-31.09-12.59-84.45-22.45-104.17z"/><path fill="url(#linear-gradient-8)" d="M245.07 292.37S274.38 256 300 244.77c-12.72-1-22.83.43-25.26 6.65s-7.19 8.09-12.83 9.63-9.49 4.28-11 9.21-4 5.8-7 8.06-4.16 8.88 1.16 14.05z"/><path fill="url(#linear-gradient-9)" d="M300 244.77s-1.6 11.78-6.34 14.57-12.78 3.77-13.6 9.77-3.55 9.84-9 11.4-7.71 1.54-9.14 5-3.12 8.72-16.89 6.89c8.76-18.03 39.46-41.14 54.97-47.63z"/></g><g id="Hand"><path fill="url(#linear-gradient-10)" d="M92.21 223.78s-4.3 5.59-4.55 6.21a8.6 8.6 0 0 0-1 3.9 18.87 18.87 0 0 1-1.37 5.38c-.34 1.2-1.06 2.11-.87 2.54a2.3 2.3 0 0 0 3.23.46 4.46 4.46 0 0 0 2.16-3.27 32.06 32.06 0 0 1 1.52-4.9 9.87 9.87 0 0 1 1.92-2.66c.44-.57 2.29-3.12 2.29-3.12z"/><path fill="url(#linear-gradient-11)" d="M89.6 221s-6.19 5.58-6.6 6.22a9.51 9.51 0 0 0-2 4c-.53 2.42-2 4.35-2.68 5.6s-1.67 2.15-1.53 2.63 1.5 1.71 3.7.74a5.52 5.52 0 0 0 3.19-3.34 35.31 35.31 0 0 1 2.78-5.08 12.49 12.49 0 0 1 2.79-2.67c.63-.57 3.32-3.12 3.32-3.12z"/><path fill="url(#linear-gradient-12)" d="M86.36 218s-7.53 4.92-8.08 5.53a10.23 10.23 0 0 0-2.75 4c-1 2.5-2.9 4.3-3.79 5.52s-2.15 2-2.08 2.55 1.34 2 3.83 1.4a6 6 0 0 0 4-3 39.41 39.41 0 0 1 3.77-5 13.29 13.29 0 0 1 3.42-2.37c.76-.51 4.06-2.78 4.06-2.78z"/><path fill="url(#linear-gradient-13)" d="M84.31 214.23s-7.68 3.23-8.28 3.7a9.35 9.35 0 0 0-3.18 3.17c-1.3 2.11-3.36 3.44-4.37 4.4s-2.29 1.49-2.32 2 .86 2.11 3.26 1.93a5.52 5.52 0 0 0 4.11-2.11 36.24 36.24 0 0 1 4.29-3.88 12.28 12.28 0 0 1 3.52-1.59L85.5 220z"/><path fill="url(#linear-gradient-14)" d="M83.47 212.75c-.15 2.5-.62 5.54 3.21 10.62s4.37 6.43 6.64 6.65 6.14 1.13 10.54 0 5.39-3.14 5.39-3.14L108 212.75z"/><path fill="url(#linear-gradient-15)" d="M171.71 198.25s-8.9 8.12-11.4 8.75-41.55 3.12-41.55 3.12v15.62s31.08 2.5 39.21 3 13.74.15 17.34-2.5S188 215.43 188 215.43z"/><path fill="url(#linear-gradient-16)" d="M121.12 207c-1.56-.15-12.13 1.51-13.17 1.51s-2.4.31-2.4 2.24.73 11 1 14.22.84 3.65 1.67 3.93a73.07 73.07 0 0 0 10 1.12c3 .05 4.58.05 4.58-1.57s-.12-21.3-1.68-21.45z"/><path fill="url(#linear-gradient-17)" d="M106.75 216.1c-4 2.66-5.78 5-13.43 3.28s-8.13-4.92-10.08-4.53-4.61 2-7.73 1.64-5.86-2.1-4.3-3.35 3.52-2 6.17-3.21 3.83-2.1 6.72-2.1 8.28.78 12.57.46 7.19-.7 8-.46a6 6 0 0 1 2 1.64z"/></g><path fill="url(#linear-gradient-18)" d="M195.31 162.21s-5.77 4.77-9.68 8.12-6 5.24-8.74 11.33-4.92 12-7 13.9-2.81 2.42-2.5 3.67 3.67 6.88 11.24 13.44 10.31 6.09 11.1 5.7 3.67-4.8 3.67-4.8l12.1 30.65h57.8s-.31-14.06 0-26.4 3.44-34.83-10.62-45.45a180.46 180.46 0 0 0-27.86-17.19z"/><path fill="url(#linear-gradient-19)" d="M198.44 150.26s.42 6.17 0 7.94-3.33 4-3.59 4.58-.46 10.74 9.27 11.36c14.89.93 21.87-16.77 21.19-18.28s-5.36-3.49-6.56-7.39-1.75-11.15-1.75-11.15h-18.76z"/><path d="M217.81 144.1c-.53-3.39-.78-6.78-.78-6.78h-18.79l.2 12.94s.42 6.17 0 7.94c-.26 1.11-1.5 2.38-2.45 3.33 9.59-1.4 18.49-7.39 21.82-17.43z" style="mix-blend-mode:multiply" fill="url(#linear-gradient-20)"/><path fill="url(#linear-gradient-21)" d="M176.16 106.24a40.32 40.32 0 0 0-1.77 19.06c.62 4.89 1.22 7.62 1 11.45a21.48 21.48 0 0 0 4.61 14.42c3.8 4.53 6.35 8 10.2 8 7.55 0 16.3-6.87 20.26-10.93a20.23 20.23 0 0 0 5-8.75s8.54-4.79 8.85-21-12.49-25.79-24.2-25.79c-12.71 0-21.45 5.83-23.95 13.54z"/><path fill="url(#linear-gradient-22)" d="M206 114.49a7 7 0 0 0-7.57-3.59c-4.07.86-12.89 6.32-18.28 6.09s-7.47-1.38-10.34-3.62-4.37-6.3-3.69-6.3a17.65 17.65 0 0 0 4.68-.94c-2.44-1.25-4.21-5.72-3.64-6s4.63.47 9.69-4.16 10.41-9.06 22-9.37 17.45 3.1 20.36 6.35a21 21 0 0 1 4.58 8.54s6.61 3.64 5.41 16.3-5.88 17.8-8.9 20.67l-4.69-12.5s-1.09 5.21-1.56 5.88-2.71.73-2.71 0v-6.24a3.74 3.74 0 0 0-1.19-2.61c-.53-.31-3-1.14-3.08-2.24-.07-1.49-.3-4.93-1.07-6.26z"/><path fill="url(#linear-gradient-23)" d="M215.57 125.92s.58-3.4 2.82-3.55 6.05 1 5.88 7.72-4.79 10.7-9.06 10.11z"/><path fill="url(#linear-gradient-24)" d="M222.19 183.46s1.33-16.33 7.1-26a.86.86 0 0 1 1.18-.33c.83.37 5.05 2.71 5.57 3.07s.4 1.3.4 1.3-4.93 11.25-5.09 21.93z"/><path fill="url(#linear-gradient-25)" d="M194.77 183.66s-2.53-10.53-1-20.18c0 0-.34-.64-.86-.38a34.71 34.71 0 0 0-4.25 3.9 3.93 3.93 0 0 0-.46 1.14s-1.12 11 1.38 18z"/><path fill="url(#linear-gradient-26)" d="M188.68 190.41c0-2.43-.47-8.52 6.09-8.52s27.49-1 32.34-1 5.31.78 5.78 5.78 1.87 22.65 11.4 35.69 18 14.76 19.49 15.55 2.61 3 2.61 6.32v55.14h-73.26s7.6-52.48 6.36-61.13-10.82-27.4-10.81-47.83z"/><circle cx="193.29" cy="187.67" r="2.27" fill="url(#linear-gradient-27)"/><circle cx="226.54" cy="186.11" r="2.27" fill="url(#linear-gradient-28)"/><g id="Silc_Plane_Thick" data-name="Silc Plane Thick"><g id="Out"><path id="Underbody" fill="url(#New_Gradient_Swatch_4)" d="M205.62 216l-.28-.15c-.27-.15-.19-.41-.13-.61l.15-.45.44-1.34c.33-1 .65-1.95.65-1.95a.57.57 0 0 1 .3-.33.61.61 0 0 1 .46 0l1.51.55a.42.42 0 0 1 .25.27.39.39 0 0 1-.09.36l-3 3.45zm1.51-4.08a68.1 68.1 0 0 0-.65 2l1.46-1.65zm.06-.18z"/><path id="Wing_Base" fill="url(#New_Gradient_Swatch_4-2)" d="M205.51 215.92c-.29 0-.37-.22-.45-.47s-.11-.33-.19-.57c-.14-.42-.32-1-.55-1.71l-.73-2.35-7.14-1.24a.52.52 0 0 1-.45-.48.53.53 0 0 1 .36-.54L221 200a.44.44 0 0 1 .32 0 .45.45 0 0 1 .25.24.43.43 0 0 1 0 .35l-5.64 13.92a.54.54 0 0 1-.69.3l-8.1-2.93c-.12.36-.34 1.06-.57 1.76s-.35 1-.46 1.37-.12.34-.16.45-.16.46-.44.46zm-8.06-6.92l6.41 1.11a.54.54 0 0 1 .43.38c.36 1.16.88 2.82 1.22 3.88.28-.84.68-2 1-2.91a.5.5 0 0 1 .27-.3.53.53 0 0 1 .41 0l8.12 2.93 5.28-13.09zm17.75 5.27zm-8-2.58zm-3.66-1zm-7-1.85zm24.26-8.51z" data-name="Wing Base"/></g><g id="In"><path id="Body" fill="url(#New_Gradient_Swatch_4-3)" d="M205.51 215.92c-.29 0-.36-.21-.45-.48s-.1-.33-.18-.56c-.15-.46-.35-1.08-.54-1.7-.4-1.23-.79-2.47-.79-2.47a.52.52 0 0 1 .24-.6l17.12-10a.43.43 0 0 1 .57.12.41.41 0 0 1-.09.57l-14.18 10.88-.65 2c-.16.51-.33 1-.46 1.4-.07.19-.12.35-.16.46s-.15.38-.43.38zm-1.16-5.26c.37 1.18.84 2.67 1.16 3.66.29-.85.69-2.06 1-3a.58.58 0 0 1 .18-.26l9.87-7.57zm2.81 1z"/><path id="Semi-Wing-Left_Upper" fill="url(#New_Gradient_Swatch_4-4)" d="M196.4 209.42a.39.39 0 0 1-.38-.27.5.5 0 0 1 .31-.58l24.59-8.57c.37-.13.52.05.58.17a.38.38 0 0 1-.21.53l-8.74 5.12-16.06 3.55zm21.3-7.42l-15.8 5.48 10.36-2.29z" data-name="Semi-Wing-Left Upper"/><path id="Semi-Wing-Right_Upper" fill="url(#New_Gradient_Swatch_4-5)" d="M215.46 214.9h-.05a.43.43 0 0 1-.4-.34l-1.5-8.41a.47.47 0 0 1 .17-.44l7.27-5.57a.42.42 0 0 1 .43 0 .4.4 0 0 1 .22.37v.06l-5.72 14.11a.45.45 0 0 1-.42.22zm-1.15-8.7l1.27 7.12 4.76-11.74z" data-name="Semi-Wing-Right Upper"/></g></g><path d="M102.11 265s2.92-12.48 3.44-21 .11-32.41-1-36.56-1.14-9.16-2.45-12.9-4-10.47-6.57-13.91-9.93-19.68-12.17-22.34-2.86-4.95-2.86-8.41v-26.59c0-3.01-.47-6.76-.47-9.77s-.32-12.19.83-16.77-.1-8-.21-11.56a104.49 104.49 0 0 1 .94-11.35l.94 3.33s-.94 5.42-.52 8.33a73.68 73.68 0 0 1 .93 9.9c0 3.33-.93 4.47-.73 10s.42 12 .73 15.31.32 15.62.63 19.79 0 8.75 1.92 13.33a126.66 126.66 0 0 0 8.08 14.89c3.12 5.21 8.53 15.2 10.2 17.91s2.6 3.65 3 6.77 3.17 11.26 3.43 15.32.9 10 .89 15.53a163 163 0 0 0 1.15 18.93c.73 5.62 3 14.43 2.81 21.85z" class="cls-38"/><path d="M81.93 156.24c-3-3.27-4.6-7.33-5.54-8.79s-4.37-5-4.68-5.62-1.88-9.58-2.19-11-1.46-6.87-2.19-9.68-1.59-8.4-2.33-12.15-1.56-7-1.56-7l.7.47s1.88 5.62 2 6.56 1.25 6.87 1.72 8.28a31.07 31.07 0 0 1 1.63 4.69c.32 1.71.94 7.42 1.88 9.76s2 7.26 3 9.29a9.82 9.82 0 0 0 2.89 3.6c.7.62 4.7 5.7 4.7 5.7zM82.54 141.52a108.77 108.77 0 0 1 4.06-10.94c1.77-3.64 2-6.14 3.43-9.68s3.55-6.56 3.75-10 1.15-11.35 1.15-11.35l-1.46.83s-.52 8.54-1 10.73A54 54 0 0 1 88 121.32c-1.35 2.18-6 13.53-6 13.53zM109.25 211.71s5.08-10.83 5.75-14.71 2.42-12.28 5.53-18.12 6.22-11.78 8.2-15.42 6.36-8.74 7.19-11.24 2.19-11.66 3.33-14.47a84.09 84.09 0 0 0 2.61-9.89l-1.15 1.27s-2.81 8.2-3.64 10.29-2.4 10.62-3.34 12.91-5.52 8.23-7.08 9.06-1.77 3-2.08 4.16-5.42 10.84-7.08 13.65-4.69 7-5 7.81-2.52 13.23-5.1 17.6z" class="cls-38"/><path d="M116.49 183.7s.21-9.61-.52-14.28-2.61-10.33-2.5-13.18.46-8 .75-11.28.83-7.4.77-9.79 0-7.29 0-7.29l.77 1.27s-.11 5 0 6.48.39 8.6.08 9.53-1.15 9.92-.77 12 3 9.77 3.35 12.23.76 8.36.76 8.36z" class="cls-38"/><path fill="url(#linear-gradient-29)" d="M131.81 183.62c-6.06 2.06-11.85-3.39-11.85-3.39s1.27-7.84 7.33-9.9 14.61 2.45 14.61 2.45-4.04 8.78-10.09 10.84z"/><path fill="url(#linear-gradient-30)" d="M131.81 183.62c6.05-2.06 10.09-10.84 10.09-10.84l-21.9 7.45s5.75 5.45 11.81 3.39z"/><path fill="url(#linear-gradient-31)" d="M104.27 163c-1.67 6.18-9.42 7.93-9.42 7.93s-5.8-5.43-4.12-11.61 10.19-10.74 10.19-10.74 5.08 8.27 3.35 14.42z"/><path fill="url(#linear-gradient-32)" d="M104.27 163c1.68-6.17-3.35-14.42-3.35-14.42L94.85 171s7.75-1.8 9.42-8z"/><path fill="url(#linear-gradient-33)" d="M87 171.47c6.34.8 9.16 8.23 9.16 8.23s-4.58 6.5-10.92 5.7-12.06-8.6-12.06-8.6 7.49-6.13 13.82-5.33z"/><path fill="url(#linear-gradient-34)" d="M87 171.47c-6.35-.8-13.82 5.33-13.82 5.33l23 2.9s-2.82-7.43-9.18-8.23z"/><path fill="url(#linear-gradient-35)" d="M139.87 164c-4.87 1.65-9.52-2.73-9.52-2.73s1-6.3 5.89-7.95 11.73 2 11.73 2-3.24 6.97-8.1 8.68z"/><path fill="url(#linear-gradient-36)" d="M139.87 164c4.86-1.66 8.1-8.71 8.1-8.71l-17.62 6s4.65 4.31 9.52 2.71z"/><path fill="url(#linear-gradient-37)" d="M71 139.72c4.81 1.82 5.61 8.16 5.61 8.16s-4.8 4.21-9.6 2.39-7.81-9-7.81-9 6.94-3.37 11.8-1.55z"/><path fill="url(#linear-gradient-38)" d="M71 139.72c-4.81-1.82-11.8 1.56-11.8 1.56l17.41 6.6s-.85-6.34-5.61-8.16z"/><path fill="url(#linear-gradient-39)" d="M63.87 108.48c3.32 2.3 2.74 7.29 2.74 7.29s-4.46 2.3-7.79 0-4.25-8.33-4.25-8.33 5.98-1.25 9.3 1.04z"/><path fill="url(#linear-gradient-40)" d="M63.87 108.48c-3.32-2.29-9.3-1-9.3-1l12 8.32s.62-5.02-2.7-7.32z"/><path fill="url(#linear-gradient-41)" d="M92.65 105.46c2.12 2.88.19 6.89.19 6.89s-4.4.65-6.52-2.23-1.17-8.21-1.17-8.21 5.37.67 7.5 3.55z"/><path fill="url(#linear-gradient-42)" d="M92.65 105.46c-2.13-2.88-7.5-3.55-7.5-3.55l7.69 10.44s1.93-4.01-.19-6.89z"/><path fill="url(#linear-gradient-43)" d="M80.36 75c2.12 2.88.19 6.89.19 6.89s-4.4.65-6.52-2.24-1.16-8.2-1.16-8.2 5.37.61 7.49 3.55z"/><path fill="url(#linear-gradient-44)" d="M80.36 75c-2.12-2.89-7.49-3.55-7.49-3.55l7.68 10.44s1.93-4.06-.19-6.89z"/><path fill="url(#linear-gradient-45)" d="M82.07 110.88c2.46 4.51-1.06 9.84-1.06 9.84s-6.38.07-8.84-4.45-.06-11.89-.06-11.89 7.5 1.99 9.96 6.5z"/><path fill="url(#linear-gradient-46)" d="M82.07 110.88c-2.46-4.51-10-6.5-10-6.5L81 120.72s3.53-5.33 1.07-9.84z"/><path fill="url(#linear-gradient-47)" d="M129.87 155.86c1 5-4 9.06-4 9.06s-6.1-1.87-7.08-6.91 3.54-11.36 3.54-11.36 6.57 4.17 7.54 9.21z"/><path fill="url(#linear-gradient-48)" d="M129.87 155.86c-1-5-7.53-9.21-7.53-9.21l3.54 18.27s4.97-4.01 3.99-9.06z"/><path fill="url(#linear-gradient-49)" d="M97.52 127.61c-4.52 2.39-9.82-1.28-9.82-1.28s.07-6.38 4.64-8.74 11.89.19 11.89.19-2.15 7.47-6.71 9.83z"/><path fill="url(#linear-gradient-50)" d="M97.52 127.61c4.56-2.36 6.71-9.83 6.71-9.83l-16.53 8.55s5.3 3.67 9.82 1.28z"/><path fill="url(#linear-gradient-51)" d="M78.19 131.46C76.28 135 71.25 135 71.25 135s-2.81-4.18-.9-7.76 7.82-5.19 7.82-5.19 1.93 5.84.02 9.41z"/><path fill="url(#linear-gradient-52)" d="M78.19 131.46c1.91-3.57 0-9.38 0-9.38l-6.92 13s5.01-.08 6.92-3.62z"/><path fill="url(#linear-gradient-53)" d="M101.35 98.49c-1.91 3.57-6.94 3.56-6.94 3.56s-2.81-4.18-.9-7.75 7.82-5.19 7.82-5.19 1.93 5.8.02 9.38z"/><path fill="url(#linear-gradient-54)" d="M101.35 98.49c1.91-3.58 0-9.38 0-9.38l-6.92 12.94s5.01.01 6.92-3.56z"/><path fill="url(#linear-gradient-55)" d="M89.61 91.75c-2.9 2.83-7.7 1.29-7.7 1.29s-1.41-4.83 1.5-7.66 9-2.58 9-2.58.1 6.12-2.8 8.95z"/><path fill="url(#linear-gradient-56)" d="M89.61 91.75c2.9-2.83 2.82-9 2.82-9L81.91 93s4.8 1.58 7.7-1.25z"/><path fill="url(#linear-gradient-57)" d="M138.23 132.3c1.77 3.7-1.23 7.84-1.23 7.84s-5.12-.22-6.89-3.95.47-9.54.47-9.54 5.88 1.92 7.65 5.65z"/><path fill="url(#linear-gradient-58)" d="M138.23 132.3c-1.77-3.73-7.7-5.65-7.7-5.65l6.47 13.49s3-4.14 1.23-7.84z"/><path fill="url(#linear-gradient-59)" d="M144.8 148.62c-3.6 2-7.91-.78-7.91-.78s-.1-5.12 3.5-7.13 9.56-.14 9.56-.14-1.54 6.04-5.15 8.05z"/><path fill="url(#linear-gradient-60)" d="M144.8 148.62c3.61-2 5.15-8.05 5.15-8.05l-13.06 7.27s4.31 2.78 7.91.78z"/><path fill="url(#linear-gradient-61)" d="M164.21 293.25a32.53 32.53 0 0 0-11.48-9.16c-3.67-1.51-9.45-8.49-12.89-12s-11.09-5.27-15.47-7.11-8.9-7.53-13.83-9.41-9.44 2.81-13.81 3.88-7.81 4.09-10.44 6.75-8.62 5-10.81 6.87a157.41 157.41 0 0 0-11.25 11.56c-.35.43-.79.88-1.26 1.35 21.22 14.62 51.54 13.8 102.21 13.8H176c-4.08-2.65-10-4.14-11.79-6.53z"/><path fill="url(#linear-gradient-62)" d="M105 292.31c-1.88-1.72-4.74-7.18-9.48-7.81s-9.09.3-12.93-2.74-10.67-7.38-13.42-7.87c-3.72-.65-5.66-2.16-8.44-1.73-4.63.72-5.39 4-11 7.44-5.22 3.2-7.13 1.91-13.41 4.59-3.5 1.5-16.1 10.61-21.06 15.81l106.84-.48c-5.82-1.47-15.35-5.61-17.1-7.21z"/><path fill="url(#linear-gradient-63)" d="M166.55 285c-4.37.78-8.28 5.16-15.62 8a114.33 114.33 0 0 0-13.64 6.84c8.55.06 17.81 0 27.89 0h35.37c-6.21-5.28-16.75-10.06-20.88-13.28-4.77-3.75-8.75-2.37-13.12-1.56z"/><path fill="url(#linear-gradient-64)" d="M223.28 211.82s-8.94 15.06-13.22 19.75-34.74 22.65-37.24 23.74l3.75 16.4S201.88 263 213 257.34s17.81-9.84 20.15-13.12 10.62-15.93 10.62-15.93z"/><path fill="url(#linear-gradient-65)" d="M239.47 174.57c-4.69 4.28-20.41 36.25-20.41 37.25s4.84 7.1 12.81 13.66 13.9 9.27 14.84 8.46 16.09-16.22 16.87-23.3.62-22.59-4.56-30.93-13.87-10.31-19.55-5.14z"/><path fill="url(#linear-gradient-66)" d="M161 259.17a71.48 71.48 0 0 0-7.91-1.1 9.63 9.63 0 0 0-6 1.56c-1.77 1.36-4 1.68-5.42 2.19a63.49 63.49 0 0 1-6 2.29c-1.19.21-.21 2.61 2.5 3s4.32-.88 5.26-1.09 3.07.47 5.31.47 12.26-3 12.26-7.32z"/><path fill="#fea305" d="M126.27 281.31a23.53 23.53 0 0 0 4.43 3c2 .94 4.89.73 5.88 1s2.87 2.09 3.91 2.56a7.84 7.84 0 0 0 4.63 1.14c2.35-.21 9.22-1.14 9.22-1.14L144.19 277z"/><path fill="url(#linear-gradient-67)" d="M161.47 259.43c-.52-.74-2.39-.37-4.89.62s-10 6.56-13.12 8.54-8 5.73-9.64 6.51-3.17.68-4.94 1.3-4.48 1.82-5.52 3-1.25 1.87-.37 2.34a5.79 5.79 0 0 0 4.27.42 47.87 47.87 0 0 1 6.51-.87c2.24-.17 3.13-.12 4.69-.74a29.25 29.25 0 0 1 5.83-1.78c1.15-.05 4.64 3.81 6.46 6s2.5 3.08 3.59 3.08 9.53-3.39 14.63-10.11c.03.01-4.37-13.94-7.5-18.31z"/><path fill="url(#linear-gradient-68)" d="M163.5 257.13c-1.33.57-2.6.89-2.55 2s3 6 4.59 10.51 2.08 6.3 2.49 7.5.68 1.61 2.45 1.1 4.9-1.41 8.07-2.45 5.47-1.62 5.31-3.44-3.12-10.41-4.63-14.47-3.65-7.24-5-7.29-5.83 4.46-10.73 6.54z"/><g id="Confetti"><path d="M303.26 116.81a4.7 4.7 0 1 1-4.7-4.7 4.69 4.69 0 0 1 4.7 4.7zM130.55 250.23a2.3 2.3 0 1 1-2.29-2.29 2.29 2.29 0 0 1 2.29 2.29zM101.37 35.77a2.3 2.3 0 1 1-2.29-2.29 2.3 2.3 0 0 1 2.29 2.29z" class="cls-80"/><path d="M141.04 193.13h4.9M143.49 190.68v4.9M126.52 81.37l3.47 3.47M129.99 81.37l-3.47 3.47M253.21 90.29v4.9M255.66 92.74h-4.9M6.74 41.5l2.64 3.72 4.56.06L16.58 49l4.56.06 2.64 3.72 4.57.07M293.5 37.51l-4.12 1.96-.84 4.48-4.12 1.96-.85 4.48-4.12 1.96-.85 4.49" class="cls-81"/><path d="M193.9 52.89l-.46-5.72 5.18 2.46-4.72 3.26z" class="cls-82"/><path d="M30.76 119.85h4.65v4.65h-4.65z" class="cls-82" transform="rotate(-59.22 33.092 122.189)"/></g></g></g></g></svg>