<svg xmlns="http://www.w3.org/2000/svg" xmlns:xlink="http://www.w3.org/1999/xlink" viewBox="0 0 360 500"><defs><style>.cls-2{fill:#fff}.cls-3{fill:url(#Degradado_sin_nombre_15)}.cls-4{fill:url(#Degradado_sin_nombre_15-2)}.cls-5{fill:url(#Degradado_sin_nombre_15-3)}.cls-6{fill:url(#Degradado_sin_nombre_15-4)}.cls-7{fill:url(#Degradado_sin_nombre_15-5)}.cls-8{fill:url(#Degradado_sin_nombre_15-6)}.cls-9{fill:url(#Degradado_sin_nombre_78)}.cls-10{fill:#8980a8}.cls-11{fill:url(#Degradado_sin_nombre_48)}.cls-12{fill:url(#Degradado_sin_nombre_15-7)}.cls-13{fill:url(#Degradado_sin_nombre_15-8)}.cls-14{fill:url(#Degradado_sin_nombre_15-9)}.cls-15{fill:url(#Degradado_sin_nombre_15-10)}.cls-16{fill:url(#Degradado_sin_nombre_15-11)}.cls-17{fill:url(#Degradado_sin_nombre_15-12)}.cls-18{fill:url(#Degradado_sin_nombre_15-13)}.cls-19{fill:url(#Degradado_sin_nombre_15-14)}.cls-37,.cls-72,.cls-79{opacity:.2;mix-blend-mode:multiply}.cls-37{fill:#5b2a7c}.cls-44{fill:#3b253d}.cls-47{fill:#ff6683}.cls-58{fill:#6045a2}.cls-60,.cls-62{fill:#bde3ff}.cls-60{opacity:.6}.cls-72{fill:#ff2a7c}.cls-73{fill:#ffb282}.cls-76{fill:#3c1843}.cls-79{fill:#322a7c}.cls-80{fill:#6e1846}.cls-83{fill:#ffe054}</style><linearGradient id="Degradado_sin_nombre_15" x1="-6440.74" x2="-6504.81" y1="669.19" y2="741.7" gradientTransform="scale(-1 1) rotate(6.3 15.76 57579.218)" gradientUnits="userSpaceOnUse"><stop offset="0" stop-color="#27d96e"/><stop offset="1" stop-color="#275a7c"/></linearGradient><linearGradient id="Degradado_sin_nombre_15-2" x1="-6323.89" x2="-6380.23" y1="-199.59" y2="-135.83" gradientTransform="scale(-1 1) rotate(-9.2 311.983 -38907.764)" xlink:href="#Degradado_sin_nombre_15"/><linearGradient id="Degradado_sin_nombre_15-3" x1="144.28" x2="202.33" y1="355.16" y2="413.21" xlink:href="#Degradado_sin_nombre_15"/><linearGradient id="Degradado_sin_nombre_15-4" x1="-6676.88" x2="-6639.54" y1="370.95" y2="408.3" gradientTransform="matrix(-1 0 0 1 -6540.16 0)" xlink:href="#Degradado_sin_nombre_15"/><linearGradient id="Degradado_sin_nombre_15-5" x1="-2075.61" x2="-2017.57" y1="-2911.79" y2="-2853.75" gradientTransform="rotate(72 -3133.976 322.888)" xlink:href="#Degradado_sin_nombre_15"/><linearGradient id="Degradado_sin_nombre_15-6" x1="-6804.16" x2="-6742.73" y1="-1777.64" y2="-1716.21" gradientTransform="matrix(-.59 -.45 -.61 .78 -4764.8 -1316.46)" xlink:href="#Degradado_sin_nombre_15"/><linearGradient id="Degradado_sin_nombre_78" x1="220.12" x2="214.84" y1="329.4" y2="402.39" gradientUnits="userSpaceOnUse"><stop offset="0" stop-color="#568bff"/><stop offset="1" stop-color="#d667ff"/></linearGradient><linearGradient id="Degradado_sin_nombre_48" x1="95.04" x2="118.88" y1="289.87" y2="214.31" gradientUnits="userSpaceOnUse"><stop offset="0" stop-color="#ff8e34"/><stop offset="1" stop-color="#ffce00"/></linearGradient><linearGradient id="Degradado_sin_nombre_15-7" x1="294.99" x2="254.19" y1="43.32" y2="127.64" xlink:href="#Degradado_sin_nombre_15"/><linearGradient id="Degradado_sin_nombre_15-8" x1="-6055.45" x2="-6119.53" y1="-1381.46" y2="-1308.94" gradientTransform="scale(-1 1) rotate(-26 56.08 -13581.798)" xlink:href="#Degradado_sin_nombre_15"/><linearGradient id="Degradado_sin_nombre_15-9" x1="-156.2" x2="-98.16" y1="1176.13" y2="1234.18" gradientTransform="rotate(-18.78 -3300.834 132.322)" xlink:href="#Degradado_sin_nombre_15"/><linearGradient id="Degradado_sin_nombre_15-10" x1="-102.46" x2="-44.41" y1="-706.9" y2="-648.85" gradientTransform="rotate(16.36 -2650.997 786.862)" xlink:href="#Degradado_sin_nombre_15"/><linearGradient id="Degradado_sin_nombre_15-11" x1="-6769.73" x2="-6704.87" y1="-1842.89" y2="-1778.03" gradientTransform="matrix(-.61 -.42 -.56 .82 -4846.55 -1222.65)" xlink:href="#Degradado_sin_nombre_15"/><linearGradient id="Degradado_sin_nombre_15-12" x1="177.74" x2="199.72" y1="47.65" y2="155.79" xlink:href="#Degradado_sin_nombre_15"/><linearGradient id="Degradado_sin_nombre_15-13" x1="142.9" x2="111.35" y1="74.38" y2="113.55" xlink:href="#Degradado_sin_nombre_15"/><linearGradient id="Degradado_sin_nombre_15-14" x1="321.01" x2="235.92" y1="309.1" y2="405.4" xlink:href="#Degradado_sin_nombre_15"/><clipPath id="clip-path"><path fill="none" d="M0 .5h360v500H0z"/></clipPath><clipPath id="clip-path-2"><path d="M575.92 500H-65.41L-67.22 0h641.34l1.8 500z" class="cls-2"/></clipPath><linearGradient id="linear-gradient" x1="26.75" x2="333.25" y1="515.94" y2="-14.94" gradientUnits="userSpaceOnUse"><stop offset="0" stop-color="#ffc082"/><stop offset="1" stop-color="#ff63a2"/></linearGradient><linearGradient id="linear-gradient-2" x1="-42.93" x2="217.13" y1="475.72" y2="25.28" xlink:href="#linear-gradient"/><linearGradient id="linear-gradient-3" x1="-6715.87" x2="-6715.87" y1="368.18" y2="122.12" gradientTransform="translate(6895.8 4.85)" gradientUnits="userSpaceOnUse"><stop offset="0" stop-color="#ff63a2"/><stop offset="1" stop-color="#ffc082"/></linearGradient><linearGradient id="Degradado_sin_nombre_40" x1="-1653.14" x2="-2355.18" y1="3246.01" y2="3011.01" gradientTransform="rotate(-60 -3413.531 19.67)" gradientUnits="userSpaceOnUse"><stop offset="0" stop-color="#ffff90"/><stop offset="1" stop-color="#ffff6f"/></linearGradient><linearGradient id="Degradado_sin_nombre_40-2" x1="305.64" x2="346.41" y1="176.52" y2="176.52" xlink:href="#Degradado_sin_nombre_40"/><linearGradient id="Degradado_sin_nombre_40-3" x1="49.51" x2="99" y1="360.12" y2="360.12" xlink:href="#Degradado_sin_nombre_40"/><linearGradient id="Degradado_sin_nombre_40-4" x1="307.31" x2="326.73" y1="258.63" y2="258.63" xlink:href="#Degradado_sin_nombre_40"/><linearGradient id="Degradado_sin_nombre_40-5" x1="222.52" x2="241.94" y1="80.95" y2="80.95" xlink:href="#Degradado_sin_nombre_40"/><linearGradient id="Degradado_sin_nombre_40-6" x1="225.91" x2="259.58" y1="182.31" y2="182.31" xlink:href="#Degradado_sin_nombre_40"/><linearGradient id="Degradado_sin_nombre_40-7" x1="44.74" x2="56.02" y1="89.76" y2="89.76" xlink:href="#Degradado_sin_nombre_40"/><linearGradient id="Degradado_sin_nombre_40-8" x1="40.27" x2="45.18" y1="281.86" y2="281.86" xlink:href="#Degradado_sin_nombre_40"/><linearGradient id="Degradado_sin_nombre_40-9" x1="48.89" x2="60.16" y1="297.79" y2="297.79" xlink:href="#Degradado_sin_nombre_40"/><clipPath id="clip-path-3"><path d="M282.58 103.32l12.25-8.42A135.17 135.17 0 0 1 313.18 50a212.75 212.75 0 0 0-20.93 10.26l-2.79 13.58-6-8.32c-61.2 38.91-59.24 90.09-59.24 90.09l53.94-38.16A97.26 97.26 0 0 1 289 105.29z" class="cls-12"/></clipPath><clipPath id="clip-path-4"><path d="M69.85 105.43l-7-9.39a88.41 88.41 0 0 0-2-34.94c4.88 4.55 9.21 9 13.07 13.37l-1.46 9.69 6.73-3.44c35.87 44.88 21 77.34 21 77.34L69.51 116a74 74 0 0 0-5-11.35z" class="cls-13"/></clipPath><clipPath id="clip-path-5"><path d="M38 103.48l-7.58 10.71L26.1 103A87.25 87.25 0 0 0 8 105.77a56 56 0 0 0 12.67 24l14.15-4.59-9.73 8.9a52.35 52.35 0 0 0 6.15 4.57l14.72.86-4.72 4.1c16.45 6.13 34.89 4 46.66-4.87 0 .03-14.36-30.81-49.9-35.26z" class="cls-14"/></clipPath><clipPath id="clip-path-6"><path d="M238.61 82.2l-12.36 4.39L229.19 75a87.26 87.26 0 0 0-16.39-8.17 55.94 55.94 0 0 0-3.47 26.94l14.21 4.39-13.07 1.68a50.86 50.86 0 0 0 2.4 7.28l11.54 9.17-6.22.64c9.92 14.48 26.21 23.38 41 22.88-.04 0 5.97-33.49-20.58-57.61z" class="cls-15"/></clipPath><clipPath id="clip-path-7"><path d="M323.35 101.42l2.49 12 7.77-10.72a56.84 56.84 0 0 1 14.39 5.53 80.54 80.54 0 0 1-19.67 22.53L318 124l5 10.49a61.75 61.75 0 0 1-6.94 3.73l-12.84-1.33 2.5 4.88c-16.27 3.77-31.19-1.12-37.91-11.93-.03-.01 23.6-29.22 55.54-28.42z" class="cls-16"/></clipPath><clipPath id="clip-path-8"><path d="M196.56 77.4l-4.15 1.38 2.36-4.84a52.14 52.14 0 0 0-6.44-9.32l-22 .88A39.1 39.1 0 0 1 178.66 98C176.9 119.1 198 135.8 198 135.8a70.7 70.7 0 0 0-1.44-58.4z" class="cls-17"/></clipPath><clipPath id="clip-path-9"><path d="M103.37 118.33a45.48 45.48 0 0 1 10.4-25.73c.78-.92 1.79 4.62 2.69 3.73.66-.65 1.18-7.75 1.91-8.38a48.64 48.64 0 0 1 11.45-7.34c8.12-1 15.71 3.67 15.71 3.67l-14.4 5s6 21.47-13.09 29.07-14.67-.02-14.67-.02z" class="cls-18"/></clipPath><linearGradient id="Degradado_sin_nombre_42" x1="180.06" x2="180.06" y1="88.51" y2="210.68" gradientUnits="userSpaceOnUse"><stop offset="0" stop-color="#fff492"/><stop offset="1" stop-color="#ffbad6"/></linearGradient><linearGradient id="Degradado_sin_nombre_18" x1="89.92" x2="89.92" y1="178.37" y2="158.12" gradientUnits="userSpaceOnUse"><stop offset="0" stop-color="#6f8add"/><stop offset="1" stop-color="#9cfaf0"/></linearGradient><linearGradient id="Degradado_sin_nombre_18-2" x1="99.18" x2="99.18" y1="177.48" y2="144.54" xlink:href="#Degradado_sin_nombre_18"/><linearGradient id="Degradado_sin_nombre_18-3" x1="108.43" x2="108.43" y1="178.56" y2="161" xlink:href="#Degradado_sin_nombre_18"/><linearGradient id="Degradado_sin_nombre_18-4" x1="117.69" x2="117.69" y1="178.23" y2="156.03" xlink:href="#Degradado_sin_nombre_18"/><linearGradient id="Degradado_sin_nombre_18-5" x1="126.95" x2="126.95" y1="177.92" y2="151.2" xlink:href="#Degradado_sin_nombre_18"/><linearGradient id="Degradado_sin_nombre_18-6" x1="89.87" x2="89.87" y1="163.7" y2="154.3" xlink:href="#Degradado_sin_nombre_18"/><linearGradient id="Degradado_sin_nombre_18-7" x1="99.31" x2="99.31" y1="150.62" y2="141.23" xlink:href="#Degradado_sin_nombre_18"/><linearGradient id="Degradado_sin_nombre_18-8" x1="108.44" x2="108.44" y1="167.26" y2="157.87" xlink:href="#Degradado_sin_nombre_18"/><linearGradient id="Degradado_sin_nombre_18-9" x1="117.57" x2="117.57" y1="161.88" y2="152.49" xlink:href="#Degradado_sin_nombre_18"/><linearGradient id="Degradado_sin_nombre_18-10" x1="127.2" x2="127.2" y1="157.38" y2="147.98" xlink:href="#Degradado_sin_nombre_18"/><linearGradient id="Degradado_sin_nombre_103" x1="-2227.86" x2="-2199.98" y1="-3064.66" y2="-3064.66" gradientTransform="rotate(73.56 -3161.324 193.63)" gradientUnits="userSpaceOnUse"><stop offset="0" stop-color="#ffa934"/><stop offset="1" stop-color="#ffce00"/></linearGradient><clipPath id="clip-path-10"><path d="M285.93 367.85l12.72-7.68a135.27 135.27 0 0 1 20.92-43.77 215.21 215.21 0 0 0-21.49 9l-3.57 13.4-5.51-8.63c-63.35 35.3-64.37 86.5-64.37 86.5l56.07-35a97.17 97.17 0 0 1 11.52-11.51z" class="cls-19"/></clipPath><clipPath id="clip-path-11"><path d="M171.86 348.25l-11-4.19a88.64 88.64 0 0 0-20.39-28.45c6.56 1.24 12.6 2.7 18.19 4.32l3.94 9 3.85-6.5c54.3 18.76 59.06 54.16 59.06 54.16l-48.35-19.18a73.81 73.81 0 0 0-10.16-6.98z" class="cls-3"/></clipPath><clipPath id="clip-path-12"><path d="M64.53 378.23l-8.32-6.08a77.85 77.85 0 0 0-10.72-28.85c5.28 2.57 10.07 5.2 14.44 7.88l1.26 8.51 4.81-4.62c41.72 28.48 37.57 59.6 37.57 59.6L67 387.21a65.14 65.14 0 0 0-7.1-8.26z" class="cls-4"/></clipPath><clipPath id="clip-path-13"><path d="M169.91 358.84l-10.62 7.69-.44-11.94a88.07 88.07 0 0 0-18-3.23 56.09 56.09 0 0 0 4.26 26.83l14.87.22-12.07 5.28a52.32 52.32 0 0 0 4.35 6.32l13.66 5.55-5.79 2.37c13.6 11.1 31.74 15 45.75 10.41-.03 0-3.7-33.83-35.97-49.5z" class="cls-5"/></clipPath><clipPath id="clip-path-14"><path d="M120.23 373.32l6.83 4.95.28-7.69a56.94 56.94 0 0 1 11.6-2.07 36 36 0 0 1-2.73 17.26l-9.57.14 7.76 3.4a33.18 33.18 0 0 1-2.8 4.06l-8.78 3.57 3.72 1.52c-8.75 7.14-20.42 9.68-29.43 6.7 0 0 2.36-21.76 23.12-31.84z" class="cls-6"/></clipPath><clipPath id="clip-path-15"><path d="M272.23 348.39l-10.61-7.7 11.22-4.14a87.11 87.11 0 0 0-2.53-18.13 55.93 55.93 0 0 0-24.18 12.37l4.41 14.21-8.77-9.84a51.74 51.74 0 0 0-4.65 6.1l-1 14.71-4-4.77c-6.33 16.37-4.45 34.85 4.31 46.72-.08 0 30.93-13.99 35.8-49.53z" class="cls-7"/></clipPath><clipPath id="clip-path-16"><path d="M301.19 373.06l1.7 11.49 7.93-9.7a54.13 54.13 0 0 1 13.3 6 76.26 76.26 0 0 1-19.84 20.23l-9.41-7 4.14 10.2a58.49 58.49 0 0 1-6.76 3.15l-12.07-2 2.09 4.75c-15.58 2.68-29.42-2.78-35.18-13.36 0 .04 23.91-26.28 54.1-23.76z" class="cls-8"/></clipPath><linearGradient id="Degradado_sin_nombre_84" x1="93.6" x2="269.85" y1="494.59" y2="341.74" xlink:href="#linear-gradient-3"/><clipPath id="clip-path-17"><path d="M186.29 349.36c-3.09 3-15 19.52-9.8 34.27s21.08 11.25 21.08 11.25l39.48.4s13.7-.35 19.68-11.92-6.34-32.59-12.24-37.54-39.01-15-58.2 3.54z" class="cls-9"/></clipPath><linearGradient id="Degradado_sin_nombre_40-10" x1="218.81" x2="217.83" y1="373.5" y2="387.11" xlink:href="#Degradado_sin_nombre_40"/><clipPath id="clip-path-18"><path d="M227 404.61s-46.44-5.84-52.6-2.21c-7.41 4.36-5.08 15.59-.36 18.13 3.57 1.93 45-2.54 45-2.54z" class="cls-10"/></clipPath><clipPath id="clip-path-19"><path d="M207.29 412s42.89-20.75 51.54-18.64 7.72 13.95 4.52 16.68-50.85 13.13-50.85 13.13z" class="cls-10"/></clipPath><clipPath id="clip-path-20"><path d="M89.33 192s-.83 45.55 8.84 56.73c6.94 1.66 15.81.93 15.81.93s31.62-7 36.27-40.45l7.44.46s3.72 41.39-32.09 60c.93 13 4.65 53.48 4.65 53.48s-38.13 9.3-56.73-.47c0 .47 10.7-53.47 10.7-53.47s-14.42-35.35-3.72-78.13c4.18.46 8.83.92 8.83.92z" class="cls-11"/></clipPath></defs><g style="isolation:isolate"><g id="Service_Cards" clip-path="url(#clip-path)" data-name="Service Cards"><path d="M575.92 500H-65.41L-67.22 0h641.34l1.8 500z" class="cls-2"/><g clip-path="url(#clip-path-2)"><path fill="url(#linear-gradient)" d="M0 .5h360v500H0z"/><path fill="url(#linear-gradient-2)" d="M174.2 500.5H0V.5h174.2c36.37 51.2 44.9 94 46.29 122.76 5 105-78.31 157.17-75.36 269.5 1.22 46.85 16.95 84.46 29.07 107.74z"/><path fill="url(#linear-gradient-3)" d="M56.91 126.97h246.07v246.07H56.91z" opacity=".5" transform="rotate(180 179.94 250)"/><path d="M84.85 161.25c31 3.49 60.61 20.63 77.78 46.71s21.09 60.82 8.74 89.51c-6.72 15.61-18.11 30.36-17.29 47.33.68 14.29 10.78 27.31 23.94 32.89s28.77 4.12 41.45-2.48c6.58-3.42 12.59-8.3 16.19-14.78 4.53-8.16 4.82-18 4.07-27.28a141.32 141.32 0 0 0-11.31-45.1c-7.36-16.87-18-32.15-25.83-48.8s-13-35.62-8.43-53.46c5.29-20.7 22.38-36 33.06-54.49a95.29 95.29 0 0 0 12.67-45.66c.21-11.57-1.77-23.33-7-33.63-6.69-13.1-18.34-23.15-31.25-30.2-29.37-16-66.47-17.07-96.68-2.67S52.15 63 46.13 95.93a62.57 62.57 0 0 0 38.72 65.32z" style="mix-blend-mode:soft-light" fill="url(#Degradado_sin_nombre_40)"/><g id="Mini_Circles" data-name="Mini Circles"><path d="M346.41 176.52A20.39 20.39 0 1 1 326 156.14a20.39 20.39 0 0 1 20.41 20.38z" style="mix-blend-mode:soft-light" fill="url(#Degradado_sin_nombre_40-2)"/><path d="M99 360.12a24.75 24.75 0 1 1-24.74-24.74A24.75 24.75 0 0 1 99 360.12z" style="mix-blend-mode:soft-light" fill="url(#Degradado_sin_nombre_40-3)"/><circle cx="317.02" cy="258.63" r="9.71" style="mix-blend-mode:soft-light" fill="url(#Degradado_sin_nombre_40-4)"/><circle cx="232.23" cy="80.95" r="9.71" style="mix-blend-mode:soft-light" fill="url(#Degradado_sin_nombre_40-5)"/><path d="M259.58 182.31a16.84 16.84 0 1 1-16.83-16.83 16.84 16.84 0 0 1 16.83 16.83z" style="mix-blend-mode:soft-light" fill="url(#Degradado_sin_nombre_40-6)"/><circle cx="50.38" cy="89.76" r="5.64" style="mix-blend-mode:soft-light" fill="url(#Degradado_sin_nombre_40-7)"/><path d="M45.18 281.86a2.46 2.46 0 1 1-2.46-2.45 2.46 2.46 0 0 1 2.46 2.45z" style="mix-blend-mode:soft-light" fill="url(#Degradado_sin_nombre_40-8)"/><circle cx="54.52" cy="297.79" r="5.64" style="mix-blend-mode:soft-light" fill="url(#Degradado_sin_nombre_40-9)"/></g></g><g id="Fore"><path d="M352 422c0 5.52-77 10-172 10S8 427.52 8 422s77-10 172-10 172 4.48 172 10z" style="mix-blend-mode:multiply" fill="#e887b0" opacity=".2"/><path d="M282.58 103.32l12.25-8.42A135.17 135.17 0 0 1 313.18 50a212.75 212.75 0 0 0-20.93 10.26l-2.79 13.58-6-8.32c-61.2 38.91-59.24 90.09-59.24 90.09l53.94-38.16A97.26 97.26 0 0 1 289 105.29z" class="cls-12"/><g clip-path="url(#clip-path-3)"><path d="M324.34 37.46l-13.1 13.31s-34.79 70.88-86.84 91c61.68-1 75.82-7.78 75.82-7.78z" class="cls-37"/></g><path d="M69.85 105.43l-7-9.39a88.41 88.41 0 0 0-2-34.94c4.88 4.55 9.21 9 13.07 13.37l-1.46 9.69 6.73-3.44c35.87 44.88 21 77.34 21 77.34L69.51 116a74 74 0 0 0-5-11.35z" class="cls-13"/><g clip-path="url(#clip-path-4)"><path d="M55.69 49.39l6.37 12.83s7.6 57 41.52 86.83c-46.19-20.52-55.06-29.46-55.06-29.46z" class="cls-37"/></g><path d="M38 103.48l-7.58 10.71L26.1 103A87.25 87.25 0 0 0 8 105.77a56 56 0 0 0 12.67 24l14.15-4.59-9.73 8.9a52.35 52.35 0 0 0 6.15 4.57l14.72.86-4.72 4.1c16.45 6.13 34.89 4 46.66-4.87 0 .03-14.36-30.81-49.9-35.26z" class="cls-14"/><g clip-path="url(#clip-path-5)"><path d="M.61 90.17L8 105.77s42.73 29.36 98.25 34.87C105.91 154 67 164.44 67 164.44l-53.9-13-16.77-43.1z" class="cls-37"/></g><path d="M238.61 82.2l-12.36 4.39L229.19 75a87.26 87.26 0 0 0-16.39-8.17 55.94 55.94 0 0 0-3.47 26.94l14.21 4.39-13.07 1.68a50.86 50.86 0 0 0 2.4 7.28l11.54 9.17-6.22.64c9.92 14.48 26.21 23.38 41 22.88-.04 0 5.97-33.49-20.58-57.61z" class="cls-15"/><g clip-path="url(#clip-path-6)"><path d="M215.73 49.81l-2.93 17s18 48.6 60.28 85.06c-8 10.72-45.83-3.14-45.83-3.14l-36.57-41.67 11.1-44.86z" class="cls-37"/></g><path d="M323.35 101.42l2.49 12 7.77-10.72a56.84 56.84 0 0 1 14.39 5.53 80.54 80.54 0 0 1-19.67 22.53L318 124l5 10.49a61.75 61.75 0 0 1-6.94 3.73l-12.84-1.33 2.5 4.88c-16.27 3.77-31.19-1.12-37.91-11.93-.03-.01 23.6-29.22 55.54-28.42z" class="cls-16"/><g clip-path="url(#clip-path-7)"><path d="M360.07 93.47L348 108.23s-47.24 23.46-96.53 20.77c-4.65 13.62 24.62 30.08 24.62 30.08l50.7-5.18L357 112.59z" class="cls-37"/></g><path d="M196.56 77.4l-4.15 1.38 2.36-4.84a52.14 52.14 0 0 0-6.44-9.32l-22 .88A39.1 39.1 0 0 1 178.66 98C176.9 119.1 198 135.8 198 135.8a70.7 70.7 0 0 0-1.44-58.4z" class="cls-17"/><g clip-path="url(#clip-path-8)"><path d="M156.53 62.54L167.27 66s13.1 2.61 14.93 6 1.05 22.79 7.07 35.1 9.17 30.9 9.17 30.9L178 129.33z" class="cls-37"/></g><path d="M103.37 118.33a45.48 45.48 0 0 1 10.4-25.73c.78-.92 1.79 4.62 2.69 3.73.66-.65 1.18-7.75 1.91-8.38a48.64 48.64 0 0 1 11.45-7.34c8.12-1 15.71 3.67 15.71 3.67l-14.4 5s6 21.47-13.09 29.07-14.67-.02-14.67-.02z" class="cls-18"/><g clip-path="url(#clip-path-9)"><path d="M101.26 128a103.35 103.35 0 0 0 24-40.12 4.16 4.16 0 0 1 1.07-2 4.09 4.09 0 0 1 2.12-.7q14-1.89 28-3.17c-11.5 10.25-18.25 24.71-24 39a10.61 10.61 0 0 1-2.48 4.2 10 10 0 0 1-3.66 1.77 104.71 104.71 0 0 1-21.44 4.42" class="cls-37"/></g><rect width="252.26" height="128.47" x="53.93" y="116.45" class="cls-44" rx="9.48"/><rect width="230.89" height="109.39" x="64.62" y="125.99" fill="url(#Degradado_sin_nombre_42)" rx="4.11"/><path d="M66.57 208.81l-9.7 2v-60.3l9.7 2a7.58 7.58 0 0 1 6 7.42v41.41a7.59 7.59 0 0 1-6 7.47z" class="cls-44"/><path d="M63.47 196.94a2.22 2.22 0 0 1-2.23-2.22v-30.66a2.22 2.22 0 0 1 2.23-2.22 2.21 2.21 0 0 1 2.22 2.22v30.66a2.21 2.21 0 0 1-2.22 2.22z" style="mix-blend-mode:multiply" fill="#5b2a7c" opacity=".4"/><path d="M289.9 196.94a2.21 2.21 0 0 1-2.22-2.22v-30.66a2.21 2.21 0 0 1 2.22-2.22 2.22 2.22 0 0 1 2.23 2.22v30.66a2.22 2.22 0 0 1-2.23 2.22z" class="cls-37"/><rect width="76.88" height="69.53" x="203.58" y="154" class="cls-2" rx="3.18"/><path d="M185.29 199.42h5.48v20.1h-5.48z" class="cls-2"/><path d="M185.29 199.43h5.48v20.09h-5.48z" class="cls-2" transform="rotate(90 188.03 209.47)"/><path d="M263.89 161.51h4.23v15.53h-4.23z" class="cls-47"/><path d="M258.24 167.16h15.52v4.24h-15.52z" class="cls-47"/><rect width="55.6" height="55.63" x="80.65" y="133.01" class="cls-2" rx="3.18"/><rect width="55.6" height="55.63" x="142.11" y="133.01" class="cls-2" rx="3.18"/><rect width="76.88" height="16.05" x="203.58" y="133.01" class="cls-2" rx="3.18"/><path fill="url(#Degradado_sin_nombre_18)" d="M87.34 159.04h5.17v20.74h-5.17z"/><path fill="url(#Degradado_sin_nombre_18-2)" d="M96.59 146.02h5.17v33.76h-5.17z"/><path fill="url(#Degradado_sin_nombre_18-3)" d="M105.85 161.79h5.17v17.99h-5.17z"/><path fill="url(#Degradado_sin_nombre_18-4)" d="M115.1 157.04h5.17v22.74h-5.17z"/><path fill="url(#Degradado_sin_nombre_18-5)" d="M124.36 152.41h5.17v27.37h-5.17z"/><path fill="url(#Degradado_sin_nombre_18-6)" d="M91.31 153.87a1.44 1.44 0 1 1-1.44-1.44 1.44 1.44 0 0 1 1.44 1.44z"/><path fill="url(#Degradado_sin_nombre_18-7)" d="M100.75 140.79a1.44 1.44 0 1 1-1.44-1.43 1.43 1.43 0 0 1 1.44 1.43z"/><path fill="url(#Degradado_sin_nombre_18-8)" d="M109.88 157.44a1.44 1.44 0 1 1-1.44-1.44 1.44 1.44 0 0 1 1.44 1.44z"/><path fill="url(#Degradado_sin_nombre_18-9)" d="M119 152.06a1.44 1.44 0 1 1-1.44-1.44 1.44 1.44 0 0 1 1.44 1.44z"/><path fill="url(#Degradado_sin_nombre_18-10)" d="M128.64 147.55a1.44 1.44 0 1 1-1.44-1.44 1.43 1.43 0 0 1 1.44 1.44z"/><path d="M168.85 147.74a9.86 9.86 0 1 1-9.86-9.87 9.86 9.86 0 0 1 9.86 9.87z" class="cls-58"/><path d="M166.11 147.74a7.12 7.12 0 1 1-7.12-7.13 7.12 7.12 0 0 1 7.12 7.13z" style="mix-blend-mode:multiply" fill="#632a7c" opacity=".2"/><path d="M157.43 142.74v9.12l4.97-4.97-4.97-4.15z" class="cls-2"/><path d="M185.3 163.78h-38.24v-2.92h38.24a1.46 1.46 0 0 1 1.46 1.46 1.46 1.46 0 0 1-1.46 1.46zM159.69 169.74h-12.63v-2.92h12.63a1.46 1.46 0 0 1 1.46 1.46 1.46 1.46 0 0 1-1.46 1.46zM188.33 175.7h-41.27v-2.92h41.27a1.46 1.46 0 0 1 1.46 1.46 1.46 1.46 0 0 1-1.46 1.46zM179.81 181.67h-32.75v-2.93h32.75a1.47 1.47 0 0 1 1.46 1.46 1.47 1.47 0 0 1-1.46 1.47z" class="cls-60"/><path d="M231.85 180.24l18.15-6.12a19.18 19.18 0 1 1-2.21-4.51z" class="cls-58"/><path d="M247.37 180.24a15.52 15.52 0 1 1-15.52-15.52 15.52 15.52 0 0 1 15.52 15.52z" class="cls-2"/><path fill="url(#Degradado_sin_nombre_103)" d="M231.85 180.24l-13.45 3.64a13.94 13.94 0 1 1 17.4 9.73z"/><path d="M243.7 180.24a11.85 11.85 0 1 1-11.85-11.85 11.85 11.85 0 0 1 11.85 11.85z" class="cls-2"/><path d="M231.85 180.24h8.85a8.84 8.84 0 1 1-4.36-7.63z" class="cls-47"/><path d="M238.16 180.24a6.31 6.31 0 1 1-6.31-6.31 6.31 6.31 0 0 1 6.31 6.31z" class="cls-2"/><path d="M257.6 205.91h-44.1v-2.74h44.1a1.37 1.37 0 0 1 1.37 1.37 1.38 1.38 0 0 1-1.37 1.37zM257.6 140.13h-44.1v-2.74h44.1a1.38 1.38 0 0 1 1.37 1.37 1.37 1.37 0 0 1-1.37 1.37zM265.27 145.62H213.5v-2.75h51.77a1.38 1.38 0 0 1 1.37 1.38 1.38 1.38 0 0 1-1.37 1.37zM268.83 211.39H213.5v-2.74h55.33a1.37 1.37 0 0 1 1.37 1.35 1.37 1.37 0 0 1-1.37 1.39zM239.91 216.87H213.5v-2.74h26.41a1.36 1.36 0 0 1 1.36 1.37 1.36 1.36 0 0 1-1.36 1.37z" class="cls-62"/><path d="M285.93 367.85l12.72-7.68a135.27 135.27 0 0 1 20.92-43.77 215.21 215.21 0 0 0-21.49 9l-3.57 13.4-5.51-8.63c-63.35 35.3-64.37 86.5-64.37 86.5l56.07-35a97.17 97.17 0 0 1 11.52-11.51z" class="cls-19"/><g clip-path="url(#clip-path-10)"><path d="M331.44 304.53l-13.85 12.53s-38.84 68.74-92 85.82c61.64 2.57 76.15-3.36 76.15-3.36z" class="cls-37"/></g><path d="M171.86 348.25l-11-4.19a88.64 88.64 0 0 0-20.39-28.45c6.56 1.24 12.6 2.7 18.19 4.32l3.94 9 3.85-6.5c54.3 18.76 59.06 54.16 59.06 54.16l-48.35-19.18a73.81 73.81 0 0 0-10.16-6.98z" class="cls-3"/><g clip-path="url(#clip-path-11)"><path d="M129.94 308.45l12.24 7.44s36.9 44.15 81.49 51.21c-50 7.33-62.28 4.52-62.28 4.52z" class="cls-37"/></g><path d="M64.53 378.23l-8.32-6.08a77.85 77.85 0 0 0-10.72-28.85c5.28 2.57 10.07 5.2 14.44 7.88l1.26 8.51 4.81-4.62c41.72 28.48 37.57 59.6 37.57 59.6L67 387.21a65.14 65.14 0 0 0-7.1-8.26z" class="cls-4"/><g clip-path="url(#clip-path-12)"><path d="M38.18 334.78l8.66 9.14s21.09 46 57.27 62.28c-44.11-5.34-53.87-10.57-53.87-10.57z" class="cls-37"/></g><path d="M169.91 358.84l-10.62 7.69-.44-11.94a88.07 88.07 0 0 0-18-3.23 56.09 56.09 0 0 0 4.26 26.83l14.87.22-12.07 5.28a52.32 52.32 0 0 0 4.35 6.32l13.66 5.55-5.79 2.37c13.6 11.1 31.74 15 45.75 10.41-.03 0-3.7-33.83-35.97-49.5z" class="cls-5"/><g clip-path="url(#clip-path-13)"><path d="M138.84 334.21l2 17.15s31 41.56 81.79 64.65c-4.62 12.53-44.85 9.89-44.85 9.89l-46.83-29.68L129 350z" class="cls-37"/></g><path d="M120.23 373.32l6.83 4.95.28-7.69a56.94 56.94 0 0 1 11.6-2.07 36 36 0 0 1-2.73 17.26l-9.57.14 7.76 3.4a33.18 33.18 0 0 1-2.8 4.06l-8.78 3.57 3.72 1.52c-8.75 7.14-20.42 9.68-29.43 6.7 0 0 2.36-21.76 23.12-31.84z" class="cls-6"/><g clip-path="url(#clip-path-14)"><path d="M140.21 357.48l-1.27 11S119 395.24 86.32 410.1c3 8.06 28.86 6.36 28.86 6.36l30.13-19.09 1.27-29.71z" class="cls-37"/></g><path d="M272.23 348.39l-10.61-7.7 11.22-4.14a87.11 87.11 0 0 0-2.53-18.13 55.93 55.93 0 0 0-24.18 12.37l4.41 14.21-8.77-9.84a51.74 51.74 0 0 0-4.65 6.1l-1 14.71-4-4.77c-6.33 16.37-4.45 34.85 4.31 46.72-.08 0 30.93-13.99 35.8-49.53z" class="cls-7"/><g clip-path="url(#clip-path-15)"><path d="M286 311.21l-15.69 7.21s-29.87 42.37-36.05 97.82c-13.34-.5-23.33-39.56-23.33-39.56l13.67-53.74 43.28-16.22z" class="cls-37"/></g><path d="M301.19 373.06l1.7 11.49 7.93-9.7a54.13 54.13 0 0 1 13.3 6 76.26 76.26 0 0 1-19.84 20.23l-9.41-7 4.14 10.2a58.49 58.49 0 0 1-6.76 3.15l-12.07-2 2.09 4.75c-15.58 2.68-29.42-2.78-35.18-13.36 0 .04 23.91-26.28 54.1-23.76z" class="cls-8"/><g clip-path="url(#clip-path-16)"><path d="M336.34 367.56l-12.22 13.28s-45.95 19.59-92.4 14.32c-5.15 12.63 21.63 29.84 21.63 29.84l48.21-2.11 30.81-37.38z" class="cls-37"/></g><path fill="url(#Degradado_sin_nombre_84)" d="M48.81 419.1s0-11.06 9.84-8.91c4.3-9.84 12.29-1.54 12.29-1.54s1.23-13.84 16-15.07 20.29 11.69 20.29 11.69 19.68-11.69 32.59 5.53c4.3-7.07 11.38.62 11.38.62s3.07-28.29 28-29.52 29.48 18.1 29.48 18.1 40.58-25.82 57.49-12 18.75 24 18.75 24 10.43-6.91 23.37.92c5.53-4 11.06 5.23 11.06 5.23z"/><path d="M186.29 349.36c-3.09 3-15 19.52-9.8 34.27s21.08 11.25 21.08 11.25l39.48.4s13.7-.35 19.68-11.92-6.34-32.59-12.24-37.54-39.01-15-58.2 3.54z" class="cls-9"/><g clip-path="url(#clip-path-17)"><path d="M200.09 380.9a72.27 72.27 0 0 1-4-24.17c.86 0 1.33 1 1.61 1.79q2.26 6.64 4.54 13.3c1 2.93 2.07 6 4.24 8.2 3.31 3.41 8.42 4.16 13.13 4.74a8.23 8.23 0 0 0 4-.17c2.21-.85 3.22-3.34 4-5.57q3-8.79 6.07-17.56a29.54 29.54 0 0 1 2.82-6.43c1.08.28 1.18 1.75 1.06 2.85l-3.33 28.93" class="cls-72"/></g><path d="M212.46 306.47s-6.83 21-7.09 24 8.93 6.77 8.93 6.77l-2.86 9.11s8.48 5.12 17.27 0c0-5.93 1.71-19.32 1.71-19.32a7.4 7.4 0 0 0 5.35-6.2c.78-5.18-.67-15.52-6.53-17.79s-16.78 3.43-16.78 3.43z" class="cls-73"/><path fill="#a73d52" d="M223.57 309.73s-5.69 7.52-16.48 4.9c-1.06-5.41 4.36-10.43 4.36-10.43s-4.09.66-6.61-.14c7.27-7.92 13.35-5.41 13.35-5.41s11.09-7.13 22.06 4c5.68-2.24 6.87 0 6.87 0l-5.42 2.25s7.62 20.7-12.33 30.08c.43-6 1.63-22.29 1.63-22.29l-7.53 3.3s-1.32-1.89.1-6.26z"/><path d="M228.8 319.9a7.83 7.83 0 0 1 2.32-3.67 2.6 2.6 0 0 1 2.63-.78 2.74 2.74 0 0 1 1.21 1.4 8.08 8.08 0 0 1 .87 3.82 5.1 5.1 0 0 1-1.54 3.53 8.45 8.45 0 0 1-1.91 1.21 4.08 4.08 0 0 1-1.63.57 2.31 2.31 0 0 1-1.94-.92 2.87 2.87 0 0 1-.52-2.11" class="cls-73"/><path fill="#776d9b" d="M208.29 394.77a27.09 27.09 0 0 0-13.95 3.83 5.51 5.51 0 0 0-2.82 3.06c-.47 1.86.91 3.7 2.47 4.83 4.61 3.31 10.81 3 16.47 2.51l33.87-2.83c.09-2.12.19-4.25.28-6.37.07-1.52.08-3.19-.89-4.35a6 6 0 0 0-3.7-1.65 84.27 84.27 0 0 0-28.34-.3"/><path d="M191.45 366.5l3.63 27.56h-5.44v4.71h55.12v-4.71h-5.08l6.17-27.56h-54.4z" class="cls-76"/><path d="M223.73 380.66a5.44 5.44 0 1 1-5.43-5.43 5.43 5.43 0 0 1 5.43 5.43z" style="mix-blend-mode:soft-light" fill="url(#Degradado_sin_nombre_40-10)"/><path d="M227 404.61s-46.44-5.84-52.6-2.21c-7.41 4.36-5.08 15.59-.36 18.13 3.57 1.93 45-2.54 45-2.54z" class="cls-10"/><g clip-path="url(#clip-path-18)"><path d="M157.5 404.5c2.64 6.55 10.54 9.12 17.57 9.79 19.58 1.88 39.09-4.67 58.76-4.12 3.13.08 6.39.39 9.06 2a3.19 3.19 0 0 1 1.55 1.75c.32 1.19-.58 2.35-1.48 3.19-5 4.68-12 6.62-18.7 8a189.37 189.37 0 0 1-37.6 4c-5.85 0-11.78-.2-17.35-2s-10.79-5.28-13.57-10.42" class="cls-79"/></g><path d="M209 412.53l-13.2 2.64-1 14.15s6.48 1.68 8.4-.24 3.84-7.44 3.84-7.44l6.47-1zM222.74 409l13.43-.88 4.6 13.42s-5.82 3.3-8.17 1.95-5.64-6.19-5.64-6.19l-6.5.75z" class="cls-80"/><path d="M207.29 412s42.89-20.75 51.54-18.64 7.72 13.95 4.52 16.68-50.85 13.13-50.85 13.13z" class="cls-10"/><g clip-path="url(#clip-path-19)"><path d="M211.44 403.49c-.53 4.52 3.35 8.64 7.72 9.91s9.06.38 13.48-.69A229.14 229.14 0 0 0 266 401.5c1.12 5.67-1.79 11.55-6.1 15.41s-9.81 6-15.26 8c-18.35 6.51-39 10.78-57 3.25" class="cls-79"/></g><path d="M129.27 219.71s6.67 25.5-9.11 25.5c-3.16-18.62 9.11-25.5 9.11-25.5zM156 211.43l2-6.19s2.06-7.55 2.12-7.91-.53-.88-.82-.76a21.23 21.23 0 0 0-1.83 3 37.18 37.18 0 0 0 1-4.77c-.18-.18-.88-.47-1.12-.3a47.21 47.21 0 0 0-1.47 4.78s.47-5.9.35-6.07-.71-.18-1.18 0-1.06 6.07-1.06 6.07l-.24-5.31a1.2 1.2 0 0 0-1.06.24c-.41.41-.47 9.37-.47 9.37l-1.47-3.06s-1.06-.06-1.12.41 2.24 9.85 2.24 9.85zM82.71 193.46l-.06-6.46s.22-7.82.27-8.18.76-.69 1-.49a21.49 21.49 0 0 1 .88 3.41 38.07 38.07 0 0 1 .43-4.86c.22-.12 1-.2 1.15 0a46.52 46.52 0 0 1 0 5s1.27-5.78 1.43-5.91.73 0 1.13.34-.75 6.12-.75 6.12l1.77-5a1.19 1.19 0 0 1 1 .54c.27.51-2.28 9.1-2.28 9.1l2.3-2.5s1 .25 1 .72-5 8.77-5 8.77z" class="cls-73"/><path d="M79.76 323.09s-8 39.17 15.23 84.14h7.17c.79 0-1.1-48.31-1-65.58h4c.82 0-.67 65.69 0 65.69h7.59s17.14-33.22 15-85.45c-20.43-3.15-47.99 1.2-47.99 1.2z" class="cls-76"/><path d="M89.33 192s-.83 45.55 8.84 56.73c6.94 1.66 15.81.93 15.81.93s31.62-7 36.27-40.45l7.44.46s3.72 41.39-32.09 60c.93 13 4.65 53.48 4.65 53.48s-38.13 9.3-56.73-.47c0 .47 10.7-53.47 10.7-53.47s-14.42-35.35-3.72-78.13c4.18.46 8.83.92 8.83.92z" class="cls-11"/><g clip-path="url(#clip-path-20)"><path d="M77.07 189.23c-1.18 19.59-.89 39.84 6.57 58 2.55 6.21 5.9 12.08 8 18.44a51.35 51.35 0 0 1 2.64 14.84c.18 6-.68 12.1.83 17.9 2.39 9.13 10.33 15.86 18.86 19.89s17.89 6 26.75 9.21c2.08.76 4.53 2.2 4.3 4.4s-2.82 3.1-5 3.55l-21.37 4.41c-7.62 1.57-15.34 3.15-23.12 2.88s-15.76-2.57-21.46-7.88c-7.28-6.77-9.76-17.25-10.49-27.17a117.56 117.56 0 0 1 .92-25.08c1.83-13.08 5.66-26 4.85-39.22-.54-8.79-3.15-17.35-3.8-26.14s1-18.44 7.53-24.39" class="cls-72"/></g><path d="M102.4 395.25S88 397.13 87 398.38s4.07 17.25 4.07 17.25-8.15 5-8.77 5.95a3.21 3.21 0 0 0 0 2.51h21z" class="cls-80"/><path d="M104.16 395.25s14.42 1.88 15.36 3.13-4.08 17.25-4.08 17.25 8.15 5 8.78 5.95a3.21 3.21 0 0 1 0 2.51h-21z" class="cls-80"/><path d="M103.08 216.24c-7.41 1.75-6.24 10.24-9.46 18.43-2.74 7-20.51 22.59-18 43.1 12 2.52 33.13 2.84 33.13 2.84l.95-10.41 4.42 10.09 6.94-1.57s-.32-31.56 2.84-41 2.21-14.52 2.21-14.52l6.58-1.09s0-14.69-14.16-13.74a22.24 22.24 0 0 0-15.45 7.87z" class="cls-76"/><path d="M123.38 227.68a6.6 6.6 0 0 0-.81 4.68c.24 1.23 1.1 3.58 2.7 3.42 1.34-.13 2.72-2.25 3.07-3.43a4.77 4.77 0 0 0-.9-3.91c-.96-1.52-2.81-2.78-4.06-.76z" class="cls-73"/><path d="M125.53 221.84c.08 4.5 1.87 8.95 1.22 13.41a5.63 5.63 0 0 0 1.92-4 20.36 20.36 0 0 0-.83-9 10.3 10.3 0 0 0-1.58-3.16" class="cls-76"/><path d="M79.94 190.06l-.91 3.44L91 194.59v-2.9l-11.06-1.63zM149.39 208.19v2.9l10.33.55v-3.08l-10.33-.37z" class="cls-83"/></g></g></g></svg>